<svg width="196" height="55" viewBox="0 0 196 55" fill="none" xmlns="http://www.w3.org/2000/svg">
<g clip-path="url(#clip0_2_51)">
<path fill-rule="evenodd" clip-rule="evenodd" d="M9.4 28.8C9.8 29 10.5 29.2 11.7 29.2C15.4 29.2 18.3 28.5 20.7 27C24.3 24.8 26.1 21 26.1 15.6C26.1 10.8 24.6 7.2 21.6 4.8C19.1 2.7 15.7 1.7 11.5 1.7C10.4 1.7 9.7 1.8 9.4 2C9 2.3 8.8 2.8 8.8 3.5V27.2C8.8 28 9 28.5 9.4 28.8ZM0 30C1.7 29.8 2.8 29.5 3.3 29.1C3.8 28.7 4.1 27.6 4.1 25.8V5.1C4.1 3.4 3.8 2.3 3.3 1.8C2.8 1.3 1.7 1 0 0.9V0H12.6C16.8 0 20.4 0.7 23.4 2.1C28.7 4.6 31.3 9.1 31.3 15.5C31.3 17.8 30.8 20 29.9 22.1C29 24.2 27.5 26 25.6 27.4C24.4 28.3 23.1 29 21.8 29.5C19.4 30.4 16.5 30.8 13 30.8H0V30Z" fill="white"/>
<path d="M40.2 9.8V24.4C40.2 25.4 40.3 26.3 40.6 26.9C41.2 28 42.2 28.6 43.7 28.6C44.7 28.6 45.7 28.3 46.7 27.6C47.3 27.2 47.8 26.7 48.4 26V13.5C48.4 12.3 48.2 11.6 47.7 11.2C47.2 10.8 46.3 10.6 45 10.5V9.8H52.4V25.8C52.4 26.8 52.6 27.6 52.9 27.9C53.3 28.3 54.1 28.4 55.3 28.4V29C54.5 29.2 53.8 29.4 53.5 29.5C53.1 29.6 52.4 29.8 51.5 30.1C51.1 30.2 50.2 30.6 48.9 31.1C48.8 31.1 48.8 31.1 48.8 31C48.8 30.9 48.8 30.9 48.8 30.8V27.1C47.8 28.3 46.8 29.2 46 29.8C44.7 30.7 43.3 31.2 41.9 31.2C40.6 31.2 39.3 30.7 38.2 29.8C37 28.9 36.4 27.3 36.4 25.1V13.4C36.4 12.2 36.1 11.4 35.6 11C35.3 10.7 34.6 10.6 33.5 10.4V9.8H40.2Z" fill="white"/>
<path d="M58.7 23.7H59.5C59.8 25.4 60.3 26.8 60.9 27.7C62 29.4 63.5 30.2 65.6 30.2C66.7 30.2 67.6 29.9 68.3 29.3C69 28.7 69.3 27.8 69.3 26.8C69.3 26.2 69.1 25.5 68.7 24.9C68.3 24.3 67.6 23.7 66.7 23.2L64.1 21.7C62.2 20.7 60.9 19.7 60 18.7C59.1 17.7 58.7 16.5 58.7 15.1C58.7 13.4 59.3 12 60.5 10.9C61.7 9.8 63.2 9.3 65.1 9.3C65.9 9.3 66.8 9.4 67.7 9.8C68.7 10.1 69.2 10.3 69.3 10.3C69.6 10.3 69.8 10.3 69.9 10.2C70 10.1 70.1 10 70.2 9.8H70.8L71 16.1H70.3C70 14.6 69.6 13.5 69.1 12.7C68.2 11.2 66.8 10.4 65 10.4C63.9 10.4 63.1 10.7 62.5 11.4C61.9 12 61.6 12.8 61.6 13.7C61.6 15.1 62.6 16.3 64.7 17.4L67.7 19C70.9 20.8 72.5 22.8 72.5 25.1C72.5 26.9 71.8 28.4 70.5 29.5C69.2 30.6 67.4 31.2 65.2 31.2C64.3 31.2 63.3 31.1 62.1 30.7C60.9 30.4 60.3 30.2 60.1 30.2C59.9 30.2 59.8 30.3 59.6 30.4C59.5 30.5 59.4 30.7 59.3 30.9H58.7V23.7Z" fill="white"/>
<path d="M76.8 23.7H77.6C77.9 25.4 78.4 26.8 79 27.7C80.1 29.4 81.6 30.2 83.7 30.2C84.8 30.2 85.7 29.9 86.4 29.3C87.1 28.7 87.4 27.8 87.4 26.8C87.4 26.2 87.2 25.5 86.8 24.9C86.4 24.3 85.7 23.7 84.8 23.2L82.2 21.7C80.3 20.7 79 19.7 78.1 18.7C77.2 17.7 76.8 16.5 76.8 15.1C76.8 13.4 77.4 12 78.6 10.9C79.8 9.8 81.3 9.3 83.2 9.3C84 9.3 84.9 9.4 85.8 9.8C86.8 10.1 87.3 10.3 87.4 10.3C87.7 10.3 87.9 10.3 88 10.2C88.1 10.1 88.2 10 88.3 9.8H88.9L89.1 16.1H88.4C88.1 14.6 87.7 13.5 87.2 12.7C86.3 11.2 84.9 10.4 83.1 10.4C82 10.4 81.2 10.7 80.6 11.4C80 12 79.7 12.8 79.7 13.7C79.7 15.1 80.8 16.3 82.8 17.4L85.8 19C89 20.8 90.6 22.8 90.6 25.1C90.6 26.9 89.9 28.4 88.6 29.5C87.3 30.6 85.5 31.2 83.3 31.2C82.4 31.2 81.4 31.1 80.2 30.7C79 30.4 78.4 30.2 78.1 30.2C77.9 30.2 77.8 30.3 77.6 30.4C77.5 30.5 77.4 30.7 77.3 30.9H76.7L76.8 23.7Z" fill="white"/>
<path d="M93.3 30.3C94.5 30.2 95.3 30 95.7 29.7C96.3 29.3 96.6 28.4 96.6 27.1V15.3C96.6 14.2 96.4 13.4 96.1 13.1C95.8 12.7 95.3 12.6 94.6 12.6C94.3 12.6 94 12.6 93.9 12.7C93.7 12.7 93.6 12.8 93.3 12.9V12.1L94.9 11.5C95.5 11.3 96.5 10.9 97.8 10.4C99.1 9.9 99.9 9.6 99.9 9.6C99.9 9.6 100 9.6 100 9.7C100 9.8 100 9.9 100 10.1V13.2C101.5 11.8 102.8 10.9 103.9 10.4C105 9.9 106.1 9.6 107.3 9.6C108.9 9.6 110.1 10.1 111 11.2C111.5 11.8 111.9 12.6 112.2 13.6C113.3 12.5 114.3 11.6 115.1 11.1C116.5 10.2 118 9.7 119.5 9.7C121.9 9.7 123.6 10.7 124.4 12.7C124.9 13.8 125.1 15.6 125.1 18V27.5C125.1 28.6 125.3 29.3 125.8 29.7C126.3 30.1 127.1 30.3 128.4 30.5V31.1H118.1V30.5C119.4 30.4 120.3 30.1 120.7 29.7C121.1 29.3 121.3 28.4 121.3 27.2V17.4C121.3 15.9 121.1 14.8 120.8 14.1C120.2 12.8 119.1 12.2 117.5 12.2C116.5 12.2 115.5 12.5 114.6 13.2C114 13.6 113.3 14.2 112.5 15V26.7C112.5 27.9 112.7 28.9 113.1 29.5C113.5 30.1 114.5 30.5 115.9 30.5V31.1H105.4V30.5C106.8 30.3 107.8 30 108.2 29.5C108.6 29 108.8 27.7 108.8 25.7V19C108.8 16.7 108.6 15.1 108.3 14.2C107.8 12.7 106.7 12 105.1 12C104.2 12 103.3 12.3 102.4 12.8C101.5 13.3 100.7 14 100 14.8V27.3C100 28.4 100.2 29.3 100.6 29.7C101 30.1 101.9 30.4 103.2 30.4V31H93.3V30.3Z" fill="white"/>
<path fill-rule="evenodd" clip-rule="evenodd" d="M142.2 18.3C140.4 18.9 139 19.5 137.9 20.2C135.7 21.6 134.6 23.1 134.6 24.8C134.6 26.2 135.1 27.2 136 27.8C136.6 28.2 137.3 28.4 138 28.4C139 28.4 140 28.1 140.9 27.6C141.8 27 142.3 26.3 142.3 25.5L142.2 18.3ZM133.9 20.8C135.3 19.9 138.1 18.7 142.3 17.1V15.2C142.3 13.6 142.2 12.6 141.9 12C141.4 11 140.3 10.5 138.7 10.5C137.9 10.5 137.2 10.7 136.5 11.1C135.8 11.5 135.4 12.1 135.4 12.8C135.4 13 135.4 13.3 135.5 13.7C135.6 14.1 135.6 14.4 135.6 14.5C135.6 15.4 135.3 15.9 134.8 16.3C134.5 16.5 134.1 16.6 133.7 16.6C133 16.6 132.5 16.4 132.1 15.9C131.7 15.4 131.5 14.9 131.5 14.4C131.5 13.3 132.1 12.2 133.5 11.1C134.8 9.9 136.8 9.3 139.3 9.3C142.2 9.3 144.2 10.3 145.3 12.2C145.9 13.3 146.1 14.8 146.1 16.8V25.9C146.1 26.8 146.2 27.4 146.3 27.7C146.5 28.3 146.9 28.6 147.5 28.6C147.9 28.6 148.1 28.6 148.4 28.4C148.7 28.2 149 28 149.6 27.6V28.8C149.1 29.4 148.6 29.9 148 30.3C147.1 30.9 146.3 31.2 145.4 31.2C144.4 31.2 143.6 30.9 143.1 30.2C142.6 29.5 142.4 28.7 142.3 27.8C141.2 28.8 140.2 29.6 139.3 30C137.9 30.8 136.6 31.2 135.4 31.2C134.1 31.2 133 30.7 132 29.8C131 28.9 130.6 27.7 130.6 26.3C130.6 24.1 131.7 22.3 133.9 20.8Z" fill="white"/>
<path d="M150.4 30.2C151.5 30.1 152.2 29.8 152.7 29.4C153.1 29 153.4 28.1 153.4 26.7V15.2C153.4 14.2 153.3 13.5 153.1 13.1C152.8 12.5 152.2 12.2 151.3 12.2C151.2 12.2 151 12.2 150.9 12.2C150.8 12.2 150.6 12.2 150.4 12.3V11.5C151 11.3 152.5 10.9 154.8 10.1L156.9 9.4C157 9.4 157.1 9.4 157.1 9.5C157.1 9.6 157.1 9.7 157.1 9.8V13.1C158.5 11.8 159.6 10.9 160.4 10.4C161.6 9.7 162.8 9.3 164.1 9.3C165.1 9.3 166.1 9.6 166.9 10.2C168.5 11.3 169.4 13.4 169.4 16.4V27C169.4 28.1 169.6 28.9 170.1 29.4C170.6 29.9 171.3 30.1 172.3 30.2V30.8H162.6V30.2C163.7 30.1 164.5 29.7 164.9 29.3C165.3 28.8 165.6 27.8 165.6 26.3V16.6C165.6 15.3 165.4 14.2 164.9 13.4C164.4 12.5 163.5 12.1 162.2 12.1C161.3 12.1 160.4 12.4 159.5 13C159 13.4 158.3 13.9 157.5 14.7V27.5C157.5 28.6 157.7 29.3 158.2 29.7C158.7 30.1 159.5 30.3 160.5 30.3V30.9H150.5L150.4 30.2Z" fill="white"/>
<path d="M173.7 30.2C174.8 30.1 175.5 29.8 176 29.4C176.4 29 176.7 28.1 176.7 26.7V15.2C176.7 14.2 176.6 13.5 176.4 13.1C176.1 12.5 175.5 12.2 174.6 12.2C174.5 12.2 174.3 12.2 174.2 12.2C174.1 12.2 173.9 12.2 173.7 12.3V11.5C174.3 11.3 175.8 10.9 178.1 10.1L180.2 9.4C180.3 9.4 180.4 9.4 180.4 9.5C180.4 9.6 180.4 9.7 180.4 9.8V13.1C181.8 11.8 182.9 10.9 183.7 10.4C184.9 9.7 186.1 9.3 187.4 9.3C188.4 9.3 189.4 9.6 190.2 10.2C191.8 11.3 192.7 13.4 192.7 16.4V27C192.7 28.1 192.9 28.9 193.4 29.4C193.9 29.9 194.6 30.1 195.6 30.2V30.8H185.9V30.2C187 30.1 187.8 29.7 188.2 29.3C188.6 28.8 188.9 27.8 188.9 26.3V16.6C188.9 15.3 188.7 14.2 188.2 13.4C187.7 12.5 186.8 12.1 185.5 12.1C184.6 12.1 183.7 12.4 182.8 13C182.3 13.4 181.6 13.9 180.8 14.7V27.5C180.8 28.6 181 29.3 181.5 29.7C182 30.1 182.8 30.3 183.8 30.3V30.9H173.8L173.7 30.2Z" fill="white"/>
<path d="M12.9 53L12.7 53.1L11.7 53.5L10.7 53.9L9.69999 54.3L9.49999 54.4L9.39999 54.3V52.8C8.59999 53.9 7.59999 54.4 6.29999 54.4C3.59999 54.4 1.79999 52.3 1.79999 49.1C1.79999 45.7 4.09999 42.9 6.89999 42.9C7.89999 42.9 8.49999 43.2 9.39999 43.9V40C9.39999 39 9.19999 38.7 8.19999 38.7C7.99999 38.7 7.99999 38.7 7.79999 38.7H7.59999V38.3H7.79999C9.19999 38 9.89999 37.7 10.9 37.3L11.1 37.2H11.2V51.1C11.2 52.2 11.4 52.5 12.1 52.5H12.3H12.6H12.7L12.9 53ZM6.79999 43.5C4.99999 43.5 3.79999 45.3 3.79999 48.1C3.79999 51.1 5.09999 53.1 7.19999 53.1C7.69999 53.1 8.09999 53 8.49999 52.8C8.99999 52.5 9.39999 52 9.39999 51.7V46.1C9.29999 44.6 8.09999 43.5 6.79999 43.5Z" fill="white"/>
<path d="M23.9 53.1C23 54.1 22.5 54.3 21.7 54.3C20.7 54.3 20.3 53.8 20.2 52.5C18.7 53.8 17.7 54.3 16.7 54.3C15.2 54.3 14.1 53.2 14.1 51.7C14.1 50.9 14.3 50.3 14.8 49.7C15 49.4 15.3 49.2 15.7 48.9C16.5 48.3 17.3 48 19.7 47L20.2 46.8V45.3C20.2 44 19.5 43.3 18.4 43.3C17.4 43.3 16.6 43.8 16.6 44.5C16.6 44.7 16.6 44.8 16.7 45.2C16.7 45.4 16.7 45.4 16.7 45.5C16.7 46.1 16.2 46.5 15.6 46.5C15 46.5 14.6 46 14.6 45.4C14.6 43.9 16.4 42.7 18.7 42.7C19.9 42.7 20.8 43 21.4 43.7C22 44.3 22.2 45.1 22.2 46.7V51.5C22.2 52.6 22.4 52.9 22.9 52.9C23.3 52.9 23.6 52.8 24 52.4C23.9 52.4 23.9 53.1 23.9 53.1ZM17.8 48.5C16.7 49.1 16.1 50 16.1 51C16.1 52.1 16.8 52.9 17.6 52.9C18.2 52.9 19 52.6 19.5 52.2C19.9 51.9 20 51.7 20 51V47.5C18.7 48 18.5 48.1 17.8 48.5Z" fill="white"/>
<path d="M31.2 46.3C30.9 45.3 30.8 44.9 30.5 44.4C30.1 43.7 29.4 43.3 28.5 43.3C27.4 43.3 26.6 44 26.6 44.9C26.6 45.6 27 46.2 27.6 46.6L30.2 48.2C31.7 49.1 32.2 49.9 32.2 51.1C32.2 52.9 30.7 54.3 28.7 54.3C28.3 54.3 27.8 54.2 27.3 54.1L27 54C26.6 53.9 26.3 53.8 26.1 53.8C25.8 53.8 25.7 53.8 25.5 54.1H25.2V50.3H25.6C25.9 51.7 26.1 52.1 26.6 52.8C27 53.4 27.8 53.8 28.7 53.8C29.9 53.8 30.7 53.1 30.7 52C30.7 51.2 30.3 50.7 29.4 50.2L28 49.3C27 48.7 26.4 48.3 26 47.8C25.5 47.2 25.2 46.5 25.2 45.8C25.2 44 26.6 42.8 28.6 42.8C29.1 42.8 29.5 42.9 30 43.1L30.3 43.2C30.5 43.3 30.7 43.3 30.8 43.3C30.9 43.3 31.1 43.2 31.2 43H31.5L31.6 46.4L31.2 46.3Z" fill="white"/>
<path d="M55.8 37.8V38.3C55 38.4 54.9 38.4 54.4 38.5C53.8 38.7 53.1 39.2 52.1 40.2L47.5 44.8L53.2 50.9L53.6 51.3C55 52.8 55.4 53.1 56 53.4C56.3 53.5 56.5 53.6 57 53.6V54.1H49.6V53.6H49.8C51 53.6 51.3 53.4 51.3 53C51.3 52.4 49.9 50.6 48.1 48.8L45.5 46.2L44.9 46.7V51.3C44.9 53 45.2 53.3 46.9 53.5H47.1V54H40.3V53.5H40.5C42.2 53.3 42.5 53 42.5 51V40.5C42.5 38.8 42.2 38.5 40.5 38.3H40.3V37.8H47.2V38.3H47C45.2 38.5 45 38.7 45 40.5V45.5L45.4 45.1C46 44.5 46.8 43.8 47.7 43C49.2 41.6 49.7 41.1 50.6 40.2C51.1 39.7 51.2 39.4 51.2 38.9C51.2 38.4 50.9 38.2 49.7 38.2H49.6V37.7L55.8 37.8Z" fill="white"/>
<path d="M66.8 51.4C66.8 52.5 67.1 52.8 68.2 52.8H68.3V53.1L68 53.2C67.7 53.3 67.5 53.4 67.2 53.4C66.6 53.6 66.5 53.7 65 54.2L64.8 54.3H64.7V52.3L63.7 53.3C63 54 62.1 54.3 61.2 54.3C59.5 54.3 58.3 53 58.3 51.1V44.9C58.3 43.8 57.9 43.4 56.8 43.3V43H60.3V51C60.3 52.1 61.1 52.9 62.1 52.9C62.7 52.9 63.4 52.6 64 52.2C64.5 51.8 64.6 51.5 64.6 50.7V45C64.6 43.8 64.3 43.5 62.9 43.5H62.7V43H66.5L66.8 51.4Z" fill="white"/>
<path d="M69.3 53.7H69.5C70.9 53.6 71.2 53.2 71.2 52V40.2C71.2 39 71 38.7 70.2 38.7C70 38.7 69.8 38.7 69.4 38.7H69.3V38.3H69.5C69.9 38.2 70.4 38 70.9 37.9C71.7 37.7 72.1 37.6 72.9 37.3L73.1 37.2H73.2V52C73.2 53.3 73.5 53.7 74.9 53.7H75V54H69.3V53.7Z" fill="white"/>
<path d="M82.3 52.4C81.5 53.7 80.5 54.3 79.5 54.3C79 54.3 78.6 54.2 78.2 54C77.9 53.8 77.6 53.4 77.4 53C77.2 52.5 77.2 52.2 77.2 50.9V43.8H75.8V43.5C77.3 42.4 78.3 41.2 79 39.9H79.3V43H81.7V43.8H79.3V50.2V51.2C79.3 52.4 79.7 53 80.6 53C81.1 53 81.5 52.7 82.1 52.2L82.3 52.4Z" fill="white"/>
<path d="M92.4 51.4C92.4 52.5 92.7 52.8 93.8 52.8H93.9V53.1L93.7 53.2C93.4 53.3 93.2 53.4 92.9 53.4C92.3 53.6 92.2 53.7 90.7 54.2L90.5 54.3H90.4V52.3L89.4 53.3C88.7 54 87.8 54.3 86.8 54.3C85.1 54.3 83.9 53 83.9 51.1V44.9C83.9 43.8 83.5 43.4 82.4 43.3V43H86V51C86 52.1 86.8 52.9 87.8 52.9C88.4 52.9 89.1 52.6 89.7 52.2C90.2 51.8 90.3 51.5 90.3 50.7V45C90.3 43.8 90 43.5 88.6 43.5H88.4V43H92.2L92.4 51.4Z" fill="white"/>
<path d="M94.5 53.7H94.7C96.1 53.5 96.3 53.2 96.3 52V45.9C96.3 44.8 96.1 44.4 95.5 44.4C95.2 44.4 95 44.4 94.7 44.5V44.1L94.9 44C95.2 43.9 95.6 43.8 96 43.6C96.8 43.3 97.3 43.2 98.1 42.8L98.3 42.7H98.4V45H98.5C99.1 44.2 99.3 44 99.6 43.6C100.1 43.1 100.7 42.8 101.4 42.8C102.2 42.8 102.7 43.3 102.7 44.1C102.7 44.8 102.3 45.2 101.8 45.2C101.5 45.2 101.3 45.1 101 44.8L100.8 44.6C100.6 44.4 100.4 44.3 100.3 44.3C100.1 44.3 99.8 44.5 99.5 44.7C99 45.2 98.7 45.8 98.7 46.3V51.8C98.7 53.1 99.1 53.6 100.6 53.6H100.8V54H95L94.5 53.7Z" fill="white"/>
<path d="M118.9 37.8V38.3C118.1 38.4 118 38.4 117.5 38.5C116.9 38.7 116.2 39.2 115.2 40.2L110.6 44.8L116.3 50.9L116.7 51.3C118.1 52.8 118.5 53.1 119.1 53.4C119.4 53.5 119.6 53.6 120.1 53.6V54.1H112.7V53.6H112.9C114.1 53.6 114.4 53.4 114.4 53C114.4 52.4 113 50.6 111.2 48.8L108.6 46.2L108 46.7V51.3C108 53 108.3 53.3 110 53.5H110.2V54H103.4V53.5H103.6C105.3 53.3 105.6 53 105.6 51V40.5C105.6 38.8 105.3 38.5 103.6 38.3H103.4V37.8H110.3V38.3H110.1C108.3 38.5 108.1 38.7 108.1 40.5V45.5L108.5 45.1C109.1 44.5 109.9 43.8 110.8 43C112.3 41.6 112.8 41.1 113.7 40.2C114.2 39.7 114.3 39.4 114.3 38.9C114.3 38.4 114 38.2 112.8 38.2H112.7V37.7L118.9 37.8Z" fill="white"/>
<path d="M130.7 53.1C129.8 54.1 129.3 54.3 128.5 54.3C127.5 54.3 127.1 53.8 126.9 52.5C125.4 53.8 124.4 54.3 123.4 54.3C121.9 54.3 120.8 53.2 120.8 51.7C120.8 50.9 121 50.3 121.5 49.7C121.7 49.4 122 49.2 122.3 48.9C123.1 48.3 124 48 126.3 47L126.8 46.8V45.3C126.8 44 126.1 43.3 125 43.3C124 43.3 123.2 43.8 123.2 44.5C123.2 44.7 123.2 44.8 123.3 45.2C123.4 45.4 123.4 45.4 123.4 45.5C123.4 46.1 122.9 46.5 122.3 46.5C121.7 46.5 121.3 46 121.3 45.4C121.3 43.9 123.1 42.7 125.4 42.7C126.6 42.7 127.5 43 128.1 43.7C128.7 44.3 128.9 45.1 128.9 46.7V51.5C128.9 52.6 129.1 52.9 129.6 52.9C130 52.9 130.3 52.8 130.7 52.4V53.1ZM124.7 48.5C123.6 49.1 123 50 123 51C123 52.1 123.7 52.9 124.5 52.9C125.1 52.9 125.9 52.6 126.4 52.2C126.8 51.9 126.9 51.7 126.9 51V47.5C125.6 48 125.4 48.1 124.7 48.5Z" fill="white"/>
<path d="M140.9 51.4C140.9 52.5 141.2 52.8 142.3 52.8H142.4V53.1L142.2 53.2C141.9 53.3 141.7 53.4 141.4 53.4C140.8 53.6 140.7 53.7 139.2 54.2L139 54.3H138.9V52.3L137.9 53.3C137.2 54 136.3 54.3 135.3 54.3C133.6 54.3 132.4 53 132.4 51.1V44.9C132.4 43.8 132 43.4 130.9 43.3V43H134.4V51C134.4 52.1 135.2 52.9 136.2 52.9C136.8 52.9 137.5 52.6 138.1 52.2C138.6 51.8 138.7 51.5 138.7 50.7V45C138.7 43.8 138.4 43.5 137.1 43.5H137V43H140.8V51.4H140.9Z" fill="white"/>
<path d="M150.4 43.8H147.4V51.5C147.4 52.1 147.5 52.6 147.5 52.9C147.7 53.4 148.3 53.7 149.4 53.7H149.6V54H143.3V53.6H143.5C145 53.6 145.4 53.1 145.4 51.4V43.7H143.4V43H145.4C145.4 41.7 145.5 41.2 145.7 40.5C146.2 38.4 147.6 37.3 149.7 37.3C151.2 37.3 152.3 37.9 152.3 38.8C152.3 39.4 151.9 39.8 151.3 39.8C150.9 39.8 150.7 39.6 150.2 38.9C149.7 38.1 149.4 37.9 148.9 37.9C148 37.9 147.5 38.6 147.5 40.1V43H150.5L150.4 43.8Z" fill="white"/>
<path d="M158.7 54V53.6H158.8C160 53.4 160.3 53.1 160.3 51.5V46.7C160.3 45 159.7 44.1 158.5 44.1C157.6 44.1 156.9 44.5 155.8 45.6V51.5C155.8 53.1 156 53.4 157.3 53.6H157.4V54H152.2V53.6H152.3C153.5 53.4 153.7 53.2 153.7 51.5V40C153.7 39 153.5 38.7 152.7 38.7H152.6H152.4H152.3H152.2H152.1V38.3L152.3 38.2C153.6 37.8 154.1 37.7 154.6 37.5C154.9 37.4 155.1 37.3 155.5 37.2L155.6 37.3V44.7H155.7C156.8 43.3 157.8 42.7 159.2 42.7C161.2 42.7 162.2 44 162.2 46.6V51.5C162.2 53.1 162.4 53.4 163.5 53.6H163.6V54H158.7Z" fill="white"/>
<path d="M174.7 53.1C173.8 54.1 173.3 54.3 172.5 54.3C171.5 54.3 171.1 53.8 170.9 52.5C169.4 53.8 168.4 54.3 167.4 54.3C165.9 54.3 164.8 53.2 164.8 51.7C164.8 50.9 165 50.3 165.5 49.7C165.7 49.4 166 49.2 166.4 48.9C167.2 48.3 168 48 170.4 47L170.9 46.8V45.3C170.9 44 170.2 43.3 169 43.3C168 43.3 167.2 43.8 167.2 44.5C167.2 44.7 167.2 44.8 167.3 45.2C167.4 45.4 167.4 45.4 167.4 45.5C167.4 46.1 166.9 46.5 166.3 46.5C165.7 46.5 165.3 46 165.3 45.4C165.3 43.9 167.1 42.7 169.4 42.7C170.6 42.7 171.5 43 172.1 43.7C172.7 44.3 172.9 45.1 172.9 46.7V51.5C172.9 52.6 173.1 52.9 173.6 52.9C174 52.9 174.3 52.8 174.7 52.4V53.1ZM168.6 48.5C167.5 49.1 166.9 50 166.9 51C166.9 52.1 167.6 52.9 168.4 52.9C169 52.9 169.8 52.6 170.3 52.2C170.7 51.9 170.8 51.7 170.8 51V47.5C169.5 48 169.3 48.1 168.6 48.5Z" fill="white"/>
<path d="M184.4 51.4C184.4 52.5 184.7 52.8 185.8 52.8H185.9V53.1L185.7 53.2C185.4 53.3 185.2 53.4 184.9 53.4C184.3 53.6 184.2 53.7 182.7 54.2L182.5 54.3H182.4V52.3L181.4 53.3C180.7 54 179.8 54.3 178.8 54.3C177.1 54.3 175.9 53 175.9 51.1V44.9C175.9 43.8 175.5 43.4 174.4 43.3V43H177.9V51C177.9 52.1 178.7 52.9 179.7 52.9C180.3 52.9 181 52.6 181.6 52.2C182.1 51.8 182.2 51.5 182.2 50.7V45C182.2 43.8 181.9 43.5 180.6 43.5H180.5V43H184.3V51.4H184.4Z" fill="white"/>
<path d="M193.1 46.3C192.8 45.3 192.7 44.9 192.4 44.4C192 43.7 191.3 43.3 190.4 43.3C189.3 43.3 188.5 44 188.5 44.9C188.5 45.6 188.9 46.2 189.5 46.6L192.1 48.2C193.6 49.1 194.1 49.9 194.1 51.1C194.1 52.9 192.6 54.3 190.6 54.3C190.2 54.3 189.7 54.2 189.2 54.1L188.8 54C188.4 53.9 188.1 53.8 187.9 53.8C187.6 53.8 187.5 53.8 187.3 54.1H187V50.3H187.4C187.7 51.7 187.9 52.1 188.4 52.8C188.8 53.4 189.6 53.8 190.5 53.8C191.7 53.8 192.5 53.1 192.5 52C192.5 51.2 192.1 50.7 191.2 50.2L189.8 49.4C188.8 48.8 188.2 48.4 187.8 47.9C187.3 47.3 187 46.6 187 45.9C187 44.1 188.4 42.9 190.4 42.9C190.9 42.9 191.3 43 191.8 43.2L192.1 43.3C192.3 43.4 192.5 43.4 192.6 43.4C192.7 43.4 192.9 43.3 193 43.1H193.3L193.4 46.5L193.1 46.3Z" fill="white"/>
</g>
<defs>
<clipPath id="clip0_2_51">
<rect width="195.6" height="54.3" fill="white"/>
</clipPath>
</defs>
</svg>
