<?xml version="1.0" encoding="utf-8"?>
<!-- Generator: Adobe Illustrator 24.3.0, SVG Export Plug-In . SVG Version: 6.00 Build 0)  -->
<svg version="1.1" id="Layer_1" xmlns="http://www.w3.org/2000/svg" xmlns:xlink="http://www.w3.org/1999/xlink" x="0px" y="0px"
	 width="519px" height="174px" viewBox="0 0 519 174" style="enable-background:new 0 0 519 174;" xml:space="preserve">
<path d="M61.3,57.2c-2.2-11-7.6-13.8-14.5-14.4v-0.4c7.6-0.5,17.6-4.3,17.6-19c0-13.3-8.2-21.3-24.3-21.3H0.3V76h15.2V49h19.2
	c5.3,0,9.5,0.9,10.8,8.3c1.1,6.4,1.7,15.8,4.5,18.7h17.5C64,72.8,63.2,66.4,61.3,57.2z M34.2,36.1H15.5v-21h21.1
	c8.7,0,12.5,4.1,12.5,10.3C49,34.9,39.9,36.1,34.2,36.1z M97.7,20.8c-17.7,0-29.2,11.9-29.2,29c0,16.4,10.9,27.4,28.8,27.4
	c13.1,0,24.4-5.5,29-18.2l-12.4-3.8c-2,7.5-8.3,10.8-15.7,10.8c-9.9,0-14-6-14.7-14.4l42.7,0.1C126.7,31.6,114.8,20.8,97.7,20.8z
	 M97.7,31.7c6.8,0,11.5,3.4,13.1,10.8H84C85.8,35.1,90.8,31.7,97.7,31.7z M166.4,22.2h-15.7v-6.4c0-3.6,1-7.3,9-7.3
	c2,0,4.5,0.3,6.9,0.7v-7c-3.1-0.7-6.2-1.2-9.8-1.2c-11.2,0-17.6,5.5-17.6,14.3v7h-9.5v8.4h9.5V76h11.5V30.6h15.7L166.4,22.2
	L166.4,22.2z M207.2,21.6c-3.1,0-6.4,0.6-8.8,1.7c-6.7,3-10,8.4-12.2,17.2h-0.1V22.2h-11.2V76h11.5V56.8c0-14.6,7.8-25.2,20.8-25.2
	c1.8,0,3.4,0.3,4.9,0.6v-10C210.5,21.8,208.9,21.6,207.2,21.6z M270.9,70.3c-3.7,0-4.4-2.3-4.4-6.1V40.9c0-11.7-8.3-19.5-22.7-19.5
	c-10.8,0-21,4.3-25.9,18.1l7,3c3.8-11.3,10.1-14.8,18.1-14.8c8.9,0,15.1,4.6,15.3,12.7c-9.5,2.6-20,5.8-24.5,7.2
	c-10.4,3.2-16.7,6.5-16.7,14.7c0,8.1,6.6,14.9,18.1,14.9c9.4,0,19.2-4.6,23.3-12.7v4c0,5.3,2.8,8.6,9.3,8.6c2.8,0,5.7-0.8,7.4-1.8
	v-5.8C274.1,69.9,272.6,70.3,270.9,70.3z M237.4,70.4c-8.4,0-11.6-4.7-11.6-9.1c0-4.1,2.6-5.6,10.1-8.1c3.8-1.3,14.6-4.6,22.5-6.9
	v10.8C256.9,66,246.3,70.4,237.4,70.4z M332.3,53l-8.3-1c-1.2,10.8-7.4,18.5-19.4,18.5c-12.2,0-19.4-7.8-19.4-21.1
	c0-14.2,8.4-21.6,19.5-21.6c10.7,0,16.8,6.7,18.8,16.1l7.9-1.8c-2.3-12.7-12.8-20.9-26.8-20.9c-15.7,0-28.1,10.9-28.1,28.7
	c0,16,10.2,27.1,27.3,27.1C320.4,77.1,330.2,67.3,332.3,53z M335.2,22.4v6.4h9.9v35.6c0,7.5,3.1,12.4,14.5,12.4
	c4.3,0,7.8-0.4,12.4-1.3v-6.3c-3.6,0.7-6.4,1.2-9.2,1.2c-7.4,0-9.2-2.5-9.2-8.8V28.8h18.3v-6.4h-18.3l-0.2-15.7h-4l-3.6,15.7H335.2z
	 M385.5,2.1v9.7h8.6V2.1H385.5z M385.6,76h8.4V22.4h-8.4V76z M432,21.3c-17.5,0-28.6,11.9-28.6,27.7c0,15.9,10.9,28.2,28.6,28.2
	c17.4,0,28.4-12.3,28.4-28.2C460.4,33.2,449.4,21.3,432,21.3z M432,70.4c-12.2,0-20-8.3-20-21.3c0-12.8,7.8-21.3,20-21.3
	c12,0,19.6,8.6,19.6,21.3C451.7,62.1,444.1,70.4,432,70.4z M497.5,21.3c-10.6,0-18.1,5.3-21.3,14.2H476V22.4h-8.1V76h8.4V47.1
	c0-10.8,6.8-18.9,18.1-18.9c9.9,0,15.3,5.6,15.3,16V76h8.4V42.9C518.2,29.3,510.5,21.3,497.5,21.3z M54.4,105.4v-7.3H2.2V172h8.4
	v-33.1h36.9v-7.3H10.6v-26.2C10.6,105.4,54.4,105.4,54.4,105.4z M101.3,151.8c-2.8,9.7-9.8,14.7-19.4,14.7c-12.4,0-19-7.8-19.4-20.1
	H108c0.1-18.5-10.6-29.2-26.6-29.2c-17,0-27.1,12.2-27.1,28.7c0,15.9,9.9,27.1,27,27.1c12.9,0,22.9-6.3,27.2-19L101.3,151.8z
	 M81.4,123.9c10,0,16.5,6.3,17.9,16.6H62.7C64.3,129.7,71.1,123.9,81.4,123.9z M115.5,158.1c3.9,9.9,12.8,15,27.2,15
	s24.9-6.6,24.9-17.8c0-10.9-8.3-14.2-17.6-15.1c-4.7-0.4-10.4-0.8-13.8-1.1c-6-0.5-8.1-2-8.1-6c0-4.6,5.7-7.9,13.4-7.9
	c7.3,0,13.2,2.9,17.4,8.8l7-5.6c-5.3-8.1-15.1-11.3-24.7-11.3c-13.4,0-23.4,6.7-23.4,17.2c0,10.2,7.7,13.6,15.6,14.4
	c3.7,0.3,10.1,0.7,14.6,1.1c6.7,0.6,9.5,2.3,9.5,6.4c0,5.4-6.5,8.5-14.8,8.5c-9.3,0-15.8-3.4-18.7-10.2L115.5,158.1z M172.1,118.2
	v8.4h9.3v33.1c0,8.2,3.6,13.1,15.8,13.1c5.2,0,8.6-0.4,13.3-1.3v-8.3c-3.3,0.6-6.1,1.1-8.8,1.1c-6.9,0-8.7-2.2-8.7-8.8v-28.9h17.2
	v-8.4H193l-0.2-15.7h-5.3l-5.1,15.7H172.1z M219.6,98.1v13.1h15.6V98.1H219.6z M219.8,172H235v-54h-15.2V172z M287.6,118l-14.8,40.2
	h-0.6L257.9,118h-15.7l21.4,54h17.1l22-54H287.6z M366.9,159.4c-3.6,0-3.6-2.9-3.6-5.1V138c0-13.1-8.9-21.4-26.4-21.4
	c-13.5,0-24.3,4.4-29.9,18.3l14.2,5.3c3.4-8.5,8.7-10.8,14.2-10.8c5.4,0,9.4,2.5,9.6,7.5c-11,3.3-20.6,5.9-25.1,7.4
	c-9.2,3.1-13.7,7.2-13.7,14.1c0,8.3,7.4,14.8,18.2,14.8c10.4,0,17.4-5.8,20.8-12.6h0.4v1.8c0,6.5,3.5,10.5,13.2,10.5
	c4.5,0,9.2-1.1,12-2.3l0.1-11.6C369.4,159.3,367.9,159.4,366.9,159.4z M331.7,159.8c-4.8,0-7-2.7-7-5.4c0-2.3,1.6-3.4,5.9-5
	c2.5-0.9,9.4-3.2,14.3-4.9v8.3C343.4,156.4,338,159.8,331.7,159.8z M378.4,172h18.5V98.1h-18.5V172z"/>
</svg>
