<?xml version="1.0" encoding="utf-8"?>
<!-- Generator: Adobe Illustrator 24.3.0, SVG Export Plug-In . SVG Version: 6.00 Build 0)  -->
<svg version="1.1" id="Ebene_1" xmlns="http://www.w3.org/2000/svg" xmlns:xlink="http://www.w3.org/1999/xlink" x="0px" y="0px"
	 width="402.2px" height="164.7px" viewBox="0 0 402.2 164.7" style="enable-background:new 0 0 402.2 164.7;" xml:space="preserve"
	>
<style type="text/css">
	.st0{fill:#010202;}
</style>
<g>
	<polygon class="st0" points="120.7,98.5 120.7,87.3 65.2,87.3 65.2,109.2 65.2,164.7 120.7,164.7 120.7,153.5 76.3,153.5 
		76.3,142.5 120.7,142.5 120.7,131.3 76.3,131.3 76.3,120.4 120.7,120.4 120.7,109.2 76.3,109.2 76.3,98.5 	"/>
	<path class="st0" d="M158.1,87.3h-27.7v21.9v5v50.5h11.1v-22.2h16.6h5.5v22.2h11.1v-22.2h11.1v-28.2v-5v-22H158.1L158.1,87.3z
		 M174.8,130.7h-16.6h-16.6v-11.1h16.6h16.6V130.7z M158.1,109.2h-16.6V97.7h16.6h16.6v11.5H158.1z"/>
	<path class="st0" d="M195.6,87.2h11.1v66.3H251v11.2h-55.5L195.6,87.2L195.6,87.2z"/>
	<path class="st0" d="M260.7,87.2h11.1v77.5h-11.1V87.2z"/>
	<path class="st0" d="M55.5,87.3H44.4H0v21.9v55.5h44.4h11.1l0,0V87.3L55.5,87.3z M11.1,98.5h33.3v10.7H11.1V98.5z M11.1,120.4h33.3
		v11H11.1V120.4z M11.1,153.5v-11h33.3v11H11.1z"/>
	<path class="st0" d="M281.5,87.2H337v77.5h-11.1V98.4h-33.3v66.3h-11.1V87.2L281.5,87.2z"/>
</g>
<g>
	<path class="st0" d="M98.5,77.5H87.4V11.2H76.3v66.3H65.2V0h55.5v77.5h-11.1V11.2H98.5V77.5L98.5,77.5z"/>
	<path class="st0" d="M195.6,0h11.1v66.3H251v11.2h-55.5L195.6,0L195.6,0z"/>
	<polygon class="st0" points="260.7,0 260.7,22 260.7,55.5 260.7,77.5 271.8,77.5 271.8,55.5 271.8,22 271.8,0 	"/>
	<g>
		<polygon class="st0" points="337,11.2 337,0 281.5,0 281.5,22 281.5,55.5 281.5,77.5 292.6,77.5 292.6,55.5 292.6,55.3 337,55.3 
			337,43.5 292.6,43.5 292.6,32.3 337,32.3 337,22 292.6,22 292.6,11.2 		"/>
		<path class="st0" d="M346.7,0h11.1v44.1h33.3V0h11.1v77.5h-55.5V66.3h44.4v-11h-44.4V0L346.7,0z"/>
	</g>
	<path class="st0" d="M158.2,0h-27.7v22v0.6v55h11.1V55.3h16.6h27.7V25.5V22V0H158.2z M174.8,43.5h-16.6h-16.6V32.3h16.6h16.6V43.5z
		 M141.5,22V10.4h33.3V22H141.5L141.5,22z"/>
	<path class="st0" d="M55.5,0H27.7H0v22v55.5h11.1V55.3h16.6h16.6v22.2h11.1V22L55.5,0L55.5,0z M44.4,43.5H27.7H11.1V32.4h16.6h16.6
		L44.4,43.5L44.4,43.5z M27.7,22H11.1V10.4h16.6h16.6V22H27.7z"/>
</g>
</svg>
