<?xml version="1.0" encoding="utf-8"?>
<!-- Generator: Adobe Illustrator 24.3.0, SVG Export Plug-In . SVG Version: 6.00 Build 0)  -->
<svg version="1.1" id="Ebene_1" xmlns="http://www.w3.org/2000/svg" xmlns:xlink="http://www.w3.org/1999/xlink" x="0px" y="0px"
	 width="1999.7px" height="936.1px" viewBox="0 0 1999.7 936.1" style="enable-background:new 0 0 1999.7 936.1;"
	 xml:space="preserve">
<path d="M0,444.6c1-9.6,1.8-19.1,2.9-28.7C15.2,311.6,57.4,221.2,130,145.3C195.7,76.5,275.5,32.1,368.5,11.6
	c31-6.8,62.4-10.4,94.1-10.5c1.6,0,3.3,0,5.2,0c0,12.4,0,24.5,0,36.5c-150.5,5-271.1,66.7-356.8,191C50.7,316,28.2,414.1,40.5,519.5
	c25,214.1,207.6,380.8,430.5,379c117.6-0.9,219.2-43.5,302.3-126.8c83.2-83.3,123.9-185.1,126.1-302.9c12,0,24.1,0,36.5,0
	c0,6.8,0.3,13.5,0,20.3c-6.1,117.4-49.4,219-130.8,303.9c-61.9,64.5-136.7,107.3-223.4,129.2c-27.2,6.9-54.8,11.1-82.8,12.8
	c-1.6,0.1-3.2,0.5-4.8,0.8c-17,0-34,0-51,0c-1.8-0.3-3.6-0.6-5.4-0.8c-17.8-2.2-35.9-3.3-53.5-6.6c-111.9-21-204.7-75.3-277.4-162.8
	c-59.1-71.1-93.4-153.1-103.9-245c-1.1-9.4-1.9-18.8-2.8-28.2C0,476.5,0,460.5,0,444.6z"/>
<path d="M1999.7,500.5c-11.9,0-23.9,0-36.4,0c0,48.9,0,97.1,0,145.6c-13.1,0-25.7,0-38.8,0c0-48.4,0-96.5,0-145.3
	c-12.4,0-24.3,0-36.5,0c0-10.8,0-21.1,0-32.3c37.2,0,74.4,0,111.6,0C1999.7,479.2,1999.7,489.8,1999.7,500.5z"/>
<path d="M823.9,468.8c12.4,0,24.5,0,36.6,0C863.6,582.5,804,736.4,649.7,817c-148.4,77.5-331.8,52.3-454.1-65.2
	C69,630.1,40.7,443.8,116.2,293.3c79-157.6,234.3-219.8,351.7-216.9c0,12.2,0,24.5,0,36.8c-126,4.4-226.4,56.5-296.9,161.7
	c-48,71.4-65.5,151.1-55.4,236.4c21,177.9,174,313.9,356,312C668.7,821.2,824.2,659.8,823.9,468.8z"/>
<path d="M748.2,468.8c12.5,0,24.6,0,37.3,0c0,42.1-7.8,82.6-24.1,121.4c-27.1,64.7-70.8,115.4-131.1,151.3
	c-120.5,71.8-273.4,55.9-376.9-38.5c-103.2-94.3-133-245.2-72.6-370.8C244.1,200.6,373,149.3,467.7,152.1c0,12.2,0,24.4,0,36.8
	c-90.7,2.6-165.4,38-221.3,109.6c-44.1,56.4-63,121.3-57.2,192.5c12,145.6,132.8,257.1,278.4,256.9
	C629.2,747.7,749.4,615.7,748.2,468.8z"/>
<path d="M467.9,226.7c0,12.4,0,24.4,0,36.7c-65.3,1.8-119.4,27-160.4,77.9c-32.6,40.4-47.1,87.2-44.3,139
	c5.6,103.3,89.4,187.4,191.9,192.9c58.8,3.1,110.4-15.1,153.4-55.3c42.9-40.1,63.9-90.3,65.2-149c12.4,0,24.5,0,36.6,0
	c2.5,65.7-31.7,160.4-125,212c-91.1,50.4-205.4,36.6-281.7-34c-77.1-71.3-100-183.1-56.5-278.3C292.4,269.3,388.9,225,467.9,226.7z"
	/>
<path d="M765.5,342c-95.3,0-170.9-76-170.8-171.8C594.9,76,673.6-1,769.1,1c91.3,1.9,167.6,76.9,167.1,171.6
	C935.8,266.1,859.6,342,765.5,342z M765.3,304c72.4,0.3,132.4-59,132.7-131.3C898.3,99,839.3,39.4,765.6,39.1
	c-71.9-0.3-132.2,59-132.7,130.4C632.4,244.1,691.1,303.7,765.3,304z"/>
<path d="M467.9,300.9c0,12.5,0,24.8,0,37.2c-42.1,1.2-76.7,17.6-102.7,50.5c-21.3,26.9-29.7,57.9-27.1,92
	c5.1,65.3,62.4,118,128.9,118.3c71.5,0.4,131.1-56.2,132.2-130.1c12.1,0,24.1,0,36.2,0C639,534.1,588.8,621,490.9,635
	c-95.8,13.7-184.4-58.2-190.6-155.1C293.8,379.2,374,300.7,467.9,300.9z"/>
<path d="M1393.9,314c0.1,16.5-1.2,32.9-6,48.8c-8.5,28.5-27.6,44.7-57,47.3c-12.1,1.1-24.7,0.6-36.7-1.5
	c-23.7-4-39.8-18.6-47.2-41.1c-11.9-35.9-11.9-72.4,0-108.3c7.9-23.9,25.6-37.4,50.4-41.4c16.1-2.6,32.2-2.4,48,2.3
	c25.6,7.6,38.8,26.5,44.1,51.3c3,13.9,3.8,28.2,5.6,42.4C1394.8,313.9,1394.4,313.9,1393.9,314z M1354.5,314.1
	c-1.4-15.3-1.6-30.5-7.2-44.9c-5.1-13.1-14.8-19.6-28.8-20c-14.4-0.5-25.8,4.2-32,18.1c-4.6,10.2-6.1,21-6.6,32
	c-0.8,18.3-1.2,36.6,4.2,54.5c7,23.5,25.5,27.6,43.4,23.2c13.3-3.3,19.4-13.8,21.9-26C1351.9,338.9,1352.8,326.4,1354.5,314.1z"/>
<path d="M1244.6,569.6c0-33.5,0-67,0-100.7c11.8,0,23.1,0,34.8,0c0,58.9,0,117.9,0,177.5c-11,0-22.1,0.1-33.2-0.2
	c-1.3,0-2.9-2.3-3.8-3.9c-16.8-31.6-33.4-63.2-50.1-94.8c-0.4-0.8-0.9-1.6-2.1-3.7c0,35,0,68.5,0,102.3c-11.9,0-23.3,0-35.1,0
	c0-58.9,0-117.9,0-177.4c11.1,0,22-0.2,33,0.2c1.4,0,3.2,2.4,4.1,4.1c16.7,31.4,33.2,62.9,49.8,94.4c0.5,0.9,0.9,1.7,1.4,2.5
	C1243.8,569.8,1244.2,569.7,1244.6,569.6z"/>
<path d="M1837.6,405.6c-13,0-25.6,0-38.9,0c0-25.9,0-51.7,0-77.9c-20,0-39.4,0-59.3,0c0,25.9,0,51.8,0,77.9c-13.4,0-26.2,0-39.4,0
	c0-61.1,0-122.2,0-183.6c13,0,25.9,0,39.3,0c0,24,0,47.8,0,71.9c19.8,0,39.2,0,59.2,0c0-23.9,0-47.8,0-71.9c13.3,0,26.1,0,39.2,0
	C1837.6,283,1837.6,344,1837.6,405.6z"/>
<path d="M1202.6,259.2c-15.8-5.3-31.5-7.7-47.7-7.4c-27.6,0.6-44.6,15.1-49.2,42.2c-0.6,3.8-1.4,7.6-1.2,11.4
	c0.5,11.3,0.3,22.7,2.5,33.7c4.7,23.7,19.9,36,44,37.2c6.3,0.3,12.6,0,19.3,0c0-16,0-30.9,0-46.3c-8,0-16.1,0-24.5,0
	c0-10.9,0-21.3,0-31.9c21.1,0,42,0,63.2,0c0.1,1.3,0.4,2.6,0.4,3.9c0,31.1,0,62.3,0.1,93.4c0,3-0.9,4.5-3.7,5.5
	c-29.2,9.6-58.7,12.2-88.3,3c-26.1-8.2-42.2-26.5-49.4-52.5c-6.5-23.5-6.8-47.5-0.7-71.1c8.9-35,33.6-55.8,70-60.4
	c21.6-2.7,42.9-0.8,63.8,5.1c4,1.1,5.6,2.7,4.8,7.3C1204.5,241,1203.8,249.7,1202.6,259.2z"/>
<path d="M1916.9,254.5c0,13.6,0,26.5,0,40.1c21.4,0,42.7,0,64.4,0c0,11.1,0,21.7,0,32.7c-21.3,0-42.6,0-64.3,0c0,15.2,0,29.9,0,45.1
	c25.8,0,51.9,0,78.3,0c0,11.2,0,21.9,0,33c-39.2,0-78.6,0-118.2,0c0-61.2,0-122.2,0-183.5c38.7,0,77.1,0,115.8,0
	c0,10.8,0,21.6,0,32.6C1967.7,254.5,1942.6,254.5,1916.9,254.5z"/>
<path d="M1464.8,254.5c0,13.7,0,26.7,0,40.2c21.5,0,42.8,0,64.5,0c0,11.1,0,21.7,0,32.7c-21.5,0-42.7,0-64.3,0c0,15.2,0,29.9,0,45.2
	c26,0,52,0,78.4,0c0,11.1,0,21.7,0,32.7c-39.3,0-78.6,0-118.3,0c0-60.9,0-121.9,0-183.3c38.4,0,76.7,0,115.5,0c0,10.6,0,21.3,0,32.5
	C1515.5,254.5,1490.4,254.5,1464.8,254.5z"/>
<path d="M1739.9,468.9c13.2,0,25.6,0,38.9,0c0,2,0,4,0,5.9c0,36-0.1,71.9,0.1,107.9c0,5.8,0.6,11.7,2.1,17.2
	c3.1,11.6,11.7,16.8,25.8,16.5c12.4-0.2,20.2-6,23-17.4c1.2-5,1.7-10.2,1.8-15.3c0.1-36.1,0.1-72.2,0.1-108.4c0-2,0-4,0-6.2
	c12.8,0,25.2,0,38.3,0c0,1.8,0,3.6,0,5.3c0,37.5,0.2,74.9-0.1,112.4c-0.1,8.1-1.1,16.3-3.1,24.1c-4.6,18-16.4,29.8-34.3,35
	c-18,5.2-36.3,5.2-54.3,0.1c-23.1-6.6-34.3-23.3-37.2-46.3c-0.7-5.4-0.9-10.9-0.9-16.4c-0.1-36,0-71.9,0-107.9
	C1739.9,473.3,1739.9,471.4,1739.9,468.9z"/>
<path d="M1311.1,605.6c6.8,2.9,13.2,6,19.9,8.4c9,3.3,18.4,4.6,28,3.5c9.3-1,15.8-6,17.8-13.7c2.4-8.9,0.1-16.4-7.9-21.8
	c-5.7-3.9-12.2-6.7-18.4-9.9c-6.2-3.2-12.6-6-18.7-9.4c-19.7-11.2-27.1-28.6-24.5-50.5c3-25.8,18-41.2,44.3-45.3
	c17.6-2.7,34.8-0.7,51.5,5.9c2.9,1.1,4.1,2.5,3.5,5.8c-1.5,8.8-2.6,17.7-3.7,25.6c-10.9-2.1-21.5-4.7-32.2-6.1
	c-4.7-0.6-10.1,0.3-14.7,1.9c-12.6,4.3-15.2,19.9-4.6,27.9c5.1,3.9,11.2,6.5,16.9,9.4c7.1,3.6,14.6,6.5,21.4,10.6
	c21.3,12.6,29.6,32.6,24.8,58.6c-4.1,22.3-19.3,37.5-42.9,41.5c-21.4,3.7-42.1,0.8-61.7-8.9c-3-1.5-4-3.1-3.3-6.5
	C1308.4,623.7,1309.6,614.6,1311.1,605.6z"/>
<path d="M1557.6,221.8c39.9,0,79.5,0,119.5,0c0,10.8,0,21.5,0,32.9c-12.9,0-26,0-39.5,0c0,50.5,0,100.3,0,150.6
	c-13.5,0-26.6,0-40.3,0c0-49.9,0-99.9,0-150.3c-13.5,0-26.5,0-39.8,0C1557.6,243.9,1557.6,233.2,1557.6,221.8z"/>
<path d="M1495,646.2c-13.3,0-25.8,0-38.9,0c0-48.4,0-96.7,0-145.4c-12.4,0-24.2,0-36.3,0c0-10.8,0-21.2,0-31.8c37.1,0,74,0,111.4,0
	c0,10.3,0,20.7,0,31.6c-11.9,0-23.8,0-36.1,0C1495,549.4,1495,597.5,1495,646.2z"/>
<path d="M1610.1,500.8c0-11.2,0-21.4,0-31.9c37.2,0,74.1,0,111.3,0c0,10.5,0,20.9,0,31.6c-11.9,0-23.7,0-36.1,0
	c0,48.7,0,96.9,0,145.5c-13.2,0-25.7,0-38.8,0c0-48.4,0-96.5,0-145.2C1634.1,500.8,1622.3,500.8,1610.1,500.8z"/>
<path d="M1077,646.1c0-59.2,0-118,0-177.1c12.8,0,25.4,0,38.5,0c0,58.9,0,117.8,0,177.1C1102.9,646.1,1090.2,646.1,1077,646.1z"/>
<path d="M1551.2,468.9c13.1,0,25.7,0,38.6,0c0,59.1,0,117.9,0,177.1c-12.8,0-25.5,0-38.6,0C1551.2,587.1,1551.2,528.2,1551.2,468.9z
	"/>
</svg>
