<?xml version="1.0" encoding="utf-8"?>
<!-- Generator: Adobe Illustrator 24.3.0, SVG Export Plug-In . SVG Version: 6.00 Build 0)  -->
<svg version="1.1" id="Ebene_1" xmlns="http://www.w3.org/2000/svg" xmlns:xlink="http://www.w3.org/1999/xlink" x="0px" y="0px"
	 width="1138.5px" height="1138px" viewBox="0 0 1138.5 1138" style="enable-background:new 0 0 1138.5 1138;" xml:space="preserve"
	>
<path d="M569.4,1138c-314.1,0-569-255.4-568.9-570C0.6,254.6,256.2-0.1,570.4,0c313.6,0.1,568.3,255.8,568.1,570.3
	C1138.3,883.1,882.8,1138,569.4,1138z M16.2,568.7c-0.8,304.6,247,552.7,552.9,553.7c304.5,1,552.5-246.6,553.8-552.7
	c1.3-304.5-247.4-553.5-553.2-554C265,15.1,17,262.9,16.2,568.7z"/>
<path d="M810.5,646.4c0,38.3,0,76.6,0,115.1c-18.4,0-36.5,0-55.1,0c0-51.7,0-103.4,0-155.4c1.5-0.1,2.9-0.2,4.4-0.2
	c30,0,60,0,90-0.1c3.6,0,5.1,0.9,6.2,4.5c9.7,31.5,19.5,62.9,29.4,94.3c0.5,1.5,1,3,1.9,5.8c2-6.4,3.6-11.6,5.1-16.8
	c8.4-27.9,16.8-55.7,25.2-83.6c0.7-2.5,1.3-4.3,4.8-4.3c31.3,0.2,62.7,0.1,94,0.1c0.7,0,1.3,0.2,2.3,0.3c0,51.8,0,103.5,0,155.4
	c-20.1,0-39.9,0-60.4,0c0-38.4,0-76.7,0-115c-0.4-0.1-0.8-0.1-1.1-0.2c-0.6,1.4-1.2,2.9-1.8,4.3c-13,35.5-26,70.9-38.7,106.4
	c-1.3,3.6-2.9,4.8-6.7,4.7c-17.8-0.2-35.7-0.3-53.5,0c-4.2,0.1-5.7-1.5-6.9-5.1c-11.9-35.3-24.1-70.5-36.1-105.8
	c-0.6-1.7-1.2-3.3-1.8-4.9C811.4,646.2,810.9,646.3,810.5,646.4z"/>
<path d="M213.6,513.4c5.6,1.5,12.2,2.7,18.2,5.1c15.4,6.2,23.3,19.2,22.5,35.9c-0.8,17.1-10,30-26.3,34.3
	c-9.1,2.4-18.7,3.6-28.1,3.7c-41,0.4-82,0.3-123,0.3c-0.8,0-1.6-0.2-2.7-0.3c0-51.7,0-103.3,0-155.2c1.3-0.1,2.5-0.4,3.8-0.4
	c36.5,0,73-0.1,109.5,0.1c13,0.1,25.9,1.7,38.1,7c17.4,7.6,25.4,23.7,21,42c-2.2,9.2-7.9,15.7-16.1,20
	C224.8,509.1,218.7,511.2,213.6,513.4z M139.9,565.9c12.6-0.9,24.7-1.1,36.6-2.9c9.7-1.5,13.4-7.5,13.3-17c-0.1-9-4.2-15-13.5-16.4
	c-11.9-1.7-24-1.8-36.4-2.6C139.9,540.3,139.9,552.3,139.9,565.9z M140,465.4c0,12.2,0,23.3,0,35.3c11.1-0.9,21.8-1,32.2-2.7
	c8.5-1.4,12.2-7.5,11.8-16c-0.3-8.8-4-13.8-13-14.9C160.9,465.9,150.6,465.9,140,465.4z"/>
<path d="M187.6,705.7c0,18.7,0,37.2,0,55.9c-21.8,0-43.2,0-65.1,0c0-51.6,0-103.3,0-155.4c1.4-0.1,2.8-0.3,4.3-0.3
	c37.5,0,75-0.4,112.4,0.2c11.9,0.2,24,1.8,35.4,4.9c19.3,5.2,27.7,18.5,27.2,38.9c-0.5,17.3-10.9,29.9-29,34.8
	c-1.5,0.4-3,0.9-4.4,1.3c0,0.4,0,0.9,0.1,1.3c2.8,0.5,5.6,0.9,8.4,1.4c13.2,2.5,19.7,9.1,21.9,22.4c2.5,15.4,5,30.9,7.5,46.3
	c0.2,1.3,0.2,2.6,0.3,4.4c-7.4,0-14.6,0-21.7,0c-12.8,0-25.7-0.1-38.5,0.1c-3.9,0.1-5.4-0.8-6-5c-1.6-12.2-3.6-24.4-5.8-36.5
	c-2-10.7-5.4-14-16.3-14.7C208.3,705.2,198.3,705.7,187.6,705.7z M187.9,674c11.8,0,23.4,0.1,34.9-0.1c1.6,0,3.2-0.9,4.7-1.5
	c7.4-3.2,10-9.3,9.9-16.9c-0.1-7.8-3.5-13.3-10.7-15.7c-12.7-4.2-25.9-1.9-38.9-2.3C187.9,650.3,187.9,662.4,187.9,674z"/>
<path d="M369.1,597c-18.5-0.4-37-2-54.7-8.7c-30-11.4-46.1-33.3-48.7-65.1c-1-12.7,0-25.3,4.1-37.5c8.4-25.1,25.8-41.1,51.1-47.4
	c32.2-8.1,64.7-8.2,96.8,0.8c37.5,10.5,57.4,38.1,56.2,77.1c-0.3,8.9-1.5,18-3.9,26.5c-6.7,23.4-23.9,36.9-45.7,45.3
	C406.6,594.9,388.1,596.7,369.1,597z M408.2,514.6c-2-8.6-2.9-17.3-6-25.3c-5.6-14.5-17.3-21.1-32.5-21.1c-15,0-26.6,6.4-32.4,20.6
	c-7,17-7,34.6-0.1,51.6c5.8,14.4,17.4,20.9,32.8,20.8c15.4-0.1,26.9-6.8,32.4-21.3C405.4,532,406.3,523.3,408.2,514.6z"/>
<path d="M634.3,600.9c16.8,0.7,33.3,2.2,49.5,6.9c43.4,12.7,59.1,45.1,56.4,84.5c-2.5,34.9-22.1,56.3-54.3,66.4
	c-32.9,10.3-66.4,10.2-99.4,0.4c-40.2-12-56.4-42.4-54.2-80.5c0.6-9.8,2.7-19.9,6.2-29.1c10.1-25.9,30.8-39.4,57.3-44.3
	C608.4,602.9,621.4,602.3,634.3,600.9z M673.5,683.9c-0.2-9.8-1.3-19.4-5.9-28.2c-6.6-12.7-17.4-18.5-31.3-18.5
	c-14.1,0-25.6,5.5-31.6,18.7c-8.3,18.4-8.4,37.3,0,55.6c5.9,13,17.1,18.6,31.1,18.7c14.2,0.1,25.2-5.5,31.9-18.4
	C672.2,703.1,673.3,693.6,673.5,683.9z"/>
<path d="M414.3,601.2c21.4,0.5,42.3,2.6,62,11.4c27.5,12.3,41.2,34.1,43.3,63.7c0.8,11.7,0,23.3-3.3,34.6
	c-7,23.6-23.8,37.5-45.8,45.9c-21.9,8.4-44.7,9.9-67.8,8.6c-16.4-1-32.4-3.6-47.5-10.4c-27.7-12.4-41.5-34.3-43.5-64.1
	c-1.1-16,0.8-31.6,8.1-46.2c12.6-25.3,34.5-36.9,61.4-40.7C392,602.6,403.2,602.2,414.3,601.2z M454.3,683.9
	c-2.2-9.2-3.4-18.4-6.7-26.7c-5.7-14.1-17.5-20.1-32.2-20c-14.5,0.1-26,6.2-31.8,20c-7.4,17.7-7.5,35.8,0.1,53.4
	c5.9,13.7,17.3,19.7,32,19.6c14.7,0,26.2-6,31.8-19.8C450.8,702.3,452,693.1,454.3,683.9z"/>
<path d="M890.6,436.9c1.6,0,2.9,0,4.2,0c37.3,0,74.6-0.3,112,0.3c12,0.2,24.3,1.7,35.9,4.8c19.1,5.1,28,18.8,27.3,38.4
	c-0.6,17.8-10.9,30.4-29.1,35.4c-1.6,0.4-3.1,1-4.6,1.5c0.1,0.4,0.2,0.8,0.2,1.2c2.7,0.4,5.4,0.7,8.1,1.2c13.4,2.5,19.7,8.8,22,22.2
	c2.7,15.4,5.1,30.9,7.6,46.3c0.2,1.3,0.1,2.6,0.2,4.2c-21.7,0-43.1,0-65.2,0c-1.3-8-2.5-16.2-3.9-24.4c-1.1-6.7-2.3-13.4-3.7-20.1
	c-1.5-6.9-6.1-10.8-13-11c-10.8-0.3-21.5-0.1-33-0.1c0,18.2,0,36.8,0,55.6c-22,0-43.5,0-65.2,0C890.6,540.8,890.6,489.2,890.6,436.9
	z M956.1,505.1c11.4,0,22.5,0.1,33.6-0.1c1.9,0,3.9-0.8,5.7-1.6c7.1-2.9,10.3-8.5,10.1-17.2c-0.1-7.9-3.6-13.2-10.9-15.6
	c-12.6-4.1-25.6-1.6-38.6-2.3C956.1,481.3,956.1,493.4,956.1,505.1z"/>
<path d="M785.7,531.1c0,10,0,19.1,0,28.7c28.8,0,57.3,0,86.2,0c0,11.1,0,21.7,0,32.6c-49.8,0-99.6,0-149.7,0c0-51.7,0-103.3,0-155.3
	c49.6,0,99,0,148.8,0c0,10.7,0,21.4,0,32.6c-28.4,0-56.7,0-85.2,0c0,9.5,0,18.6,0,28.4c26.4,0,53,0,79.8,0c0,11.3,0,21.9,0,32.9
	C838.9,531.1,812.5,531.1,785.7,531.1z"/>
<path d="M640.4,437.2c0,39.2,0,78.1,0,117.5c24.1,0,47.7,0,71.6,0c0,12.8,0,25,0,37.7c-45.5,0-91,0-137,0c0-51.6,0-103.3,0-155.2
	C596.7,437.2,618.3,437.2,640.4,437.2z"/>
<path d="M489.6,437.1c21.8,0,43.2,0,64.9,0c0,51.8,0,103.4,0,155.3c-21.6,0-43.1,0-64.9,0C489.6,540.7,489.6,489.2,489.6,437.1z"/>
</svg>
