<svg width="403" height="165" viewBox="0 0 403 165" fill="none" xmlns="http://www.w3.org/2000/svg">
<g clip-path="url(#clip0_2_34)">
<path d="M120.7 98.5V87.3H65.2V109.2V164.7H120.7V153.5H76.3V142.5H120.7V131.3H76.3V120.4H120.7V109.2H76.3V98.5H120.7Z" fill="white"/>
<path d="M158.1 87.3H130.4V109.2V114.2V164.7H141.5V142.5H158.1H163.6V164.7H174.7V142.5H185.8V114.3V109.3V87.3H158.1ZM174.8 130.7H158.2H141.6V119.6H158.2H174.8V130.7ZM158.1 109.2H141.5V97.7H158.1H174.7V109.2H158.1Z" fill="white"/>
<path d="M195.6 87.2H206.7V153.5H251V164.7H195.5L195.6 87.2Z" fill="white"/>
<path d="M260.7 87.2H271.8V164.7H260.7V87.2Z" fill="white"/>
<path d="M55.5 87.3H44.4H0V109.2V164.7H44.4H55.5V87.3ZM11.1 98.5H44.4V109.2H11.1V98.5ZM11.1 120.4H44.4V131.4H11.1V120.4ZM11.1 153.5V142.5H44.4V153.5H11.1Z" fill="white"/>
<path d="M281.5 87.2H337V164.7H325.9V98.4H292.6V164.7H281.5V87.2Z" fill="white"/>
<path d="M98.5 77.5H87.4V11.2H76.3V77.5H65.2V0H120.7V77.5H109.6V11.2H98.5V77.5Z" fill="white"/>
<path d="M195.6 0H206.7V66.3H251V77.5H195.5L195.6 0Z" fill="white"/>
<path d="M260.7 0V22V55.5V77.5H271.8V55.5V22V0H260.7Z" fill="white"/>
<path d="M337 11.2V0H281.5V22V55.5V77.5H292.6V55.5V55.3H337V43.5H292.6V32.3H337V22H292.6V11.2H337Z" fill="white"/>
<path d="M346.7 0H357.8V44.1H391.1V0H402.2V77.5H346.7V66.3H391.1V55.3H346.7V0Z" fill="white"/>
<path d="M158.2 0H130.5V22V22.6V77.6H141.6V55.3H158.2H185.9V25.5V22V0H158.2ZM174.8 43.5H158.2H141.6V32.3H158.2H174.8V43.5ZM141.5 22V10.4H174.8V22H141.5Z" fill="white"/>
<path d="M55.5 0H27.7H0V22V77.5H11.1V55.3H27.7H44.3V77.5H55.4V22L55.5 0ZM44.4 43.5H27.7H11.1V32.4H27.7H44.3L44.4 43.5ZM27.7 22H11.1V10.4H27.7H44.3V22H27.7Z" fill="white"/>
</g>
<defs>
<clipPath id="clip0_2_34">
<rect width="402.2" height="164.7" fill="white"/>
</clipPath>
</defs>
</svg>
