<svg width="300" height="300" viewBox="0 0 300 300" fill="none" xmlns="http://www.w3.org/2000/svg">
<g clip-path="url(#clip0_3_103)">
<path d="M150.04 299.868C67.2727 299.868 0.105402 232.569 0.131752 149.671C0.158103 67.0883 67.5099 -0.0263427 150.303 7.75661e-06C232.938 0.0263582 300.053 67.4045 300 150.277C299.947 232.701 232.622 299.868 150.04 299.868ZM4.26877 149.855C4.05797 230.119 69.3544 295.494 149.96 295.758C230.198 296.021 295.547 230.777 295.889 150.119C296.232 69.8814 230.698 4.26878 150.119 4.13703C69.8287 3.97893 4.47958 69.2754 4.26877 149.855Z" fill="white"/>
<path d="M213.57 170.329C213.57 180.422 213.57 190.514 213.57 200.659C208.722 200.659 203.953 200.659 199.051 200.659C199.051 187.036 199.051 173.412 199.051 159.71C199.447 159.684 199.816 159.657 200.211 159.657C208.116 159.657 216.021 159.657 223.926 159.631C224.875 159.631 225.27 159.868 225.56 160.817C228.116 169.117 230.698 177.391 233.307 185.665C233.439 186.061 233.57 186.456 233.808 187.194C234.335 185.507 234.756 184.137 235.152 182.767C237.365 175.415 239.578 168.09 241.792 160.738C241.976 160.079 242.134 159.605 243.057 159.605C251.304 159.657 259.578 159.631 267.826 159.631C268.011 159.631 268.169 159.684 268.432 159.71C268.432 173.36 268.432 186.983 268.432 200.659C263.136 200.659 257.918 200.659 252.516 200.659C252.516 190.54 252.516 180.448 252.516 170.356C252.411 170.329 252.306 170.329 252.227 170.303C252.069 170.672 251.91 171.067 251.752 171.436C248.327 180.791 244.901 190.119 241.555 199.473C241.212 200.422 240.791 200.738 239.789 200.711C235.099 200.659 230.382 200.632 225.692 200.711C224.585 200.738 224.19 200.316 223.874 199.368C220.738 190.066 217.523 180.791 214.361 171.489C214.203 171.041 214.045 170.619 213.887 170.198C213.808 170.277 213.676 170.303 213.57 170.329Z" fill="white"/>
<path d="M56.2846 135.283C57.7602 135.679 59.4993 135.995 61.0804 136.627C65.1383 138.261 67.22 141.686 67.0092 146.087C66.7984 150.593 64.3742 153.992 60.079 155.125C57.6812 155.758 55.1515 156.074 52.6746 156.1C41.8709 156.206 31.0672 156.179 20.2635 156.179C20.0527 156.179 19.8419 156.126 19.552 156.1C19.552 142.477 19.552 128.88 19.552 115.204C19.8946 115.178 20.2108 115.099 20.5534 115.099C30.1713 115.099 39.7892 115.072 49.4071 115.125C52.8327 115.152 56.2319 115.573 59.4466 116.97C64.0316 118.972 66.1397 123.215 64.9802 128.037C64.4005 130.461 62.8985 132.174 60.7378 133.307C59.2358 134.15 57.6285 134.704 56.2846 135.283ZM36.8643 149.117C40.1844 148.88 43.3729 148.827 46.5086 148.353C49.0646 147.958 50.0395 146.377 50.0132 143.874C49.9868 141.502 48.9065 139.921 46.4559 139.552C43.3202 139.104 40.1317 139.078 36.8643 138.867C36.8643 142.372 36.8643 145.534 36.8643 149.117ZM36.8906 122.635C36.8906 125.85 36.8906 128.775 36.8906 131.937C39.8155 131.7 42.635 131.673 45.3755 131.225C47.6153 130.856 48.5902 129.249 48.4848 127.009C48.4058 124.69 47.4308 123.373 45.0593 123.083C42.3979 122.767 39.6838 122.767 36.8906 122.635Z" fill="white"/>
<path d="M49.4335 185.955C49.4335 190.883 49.4335 195.758 49.4335 200.685C43.6891 200.685 38.0501 200.685 32.2793 200.685C32.2793 187.088 32.2793 173.465 32.2793 159.737C32.6482 159.71 33.0171 159.657 33.4124 159.657C43.2938 159.657 53.1752 159.552 63.0303 159.71C66.166 159.763 69.3544 160.184 72.3584 161.001C77.444 162.372 79.6574 165.876 79.5257 171.252C79.3939 175.81 76.6535 179.13 71.884 180.422C71.4888 180.527 71.0935 180.659 70.7246 180.764C70.7246 180.87 70.7246 181.001 70.751 181.107C71.4888 181.238 72.2266 181.344 72.9644 181.476C76.4427 182.134 78.1555 183.874 78.7352 187.378C79.3939 191.436 80.0527 195.52 80.7115 199.578C80.7642 199.921 80.7642 200.264 80.7905 200.738C78.8406 200.738 76.9433 200.738 75.0725 200.738C71.6996 200.738 68.3004 200.711 64.9275 200.764C63.8999 200.791 63.5046 200.553 63.3465 199.447C62.9249 196.232 62.3979 193.017 61.8182 189.829C61.2912 187.009 60.3953 186.14 57.5231 185.955C54.888 185.823 52.253 185.955 49.4335 185.955ZM49.5125 177.602C52.6219 177.602 55.6785 177.628 58.7088 177.576C59.1304 177.576 59.552 177.339 59.9473 177.181C61.8972 176.337 62.5823 174.73 62.556 172.727C62.5296 170.672 61.6337 169.223 59.7365 168.59C56.39 167.484 52.9117 168.09 49.4862 167.984C49.5125 171.357 49.5125 174.545 49.5125 177.602Z" fill="white"/>
<path d="M97.2596 157.312C92.3847 157.207 87.5099 156.785 82.8458 155.02C74.9407 152.016 70.6983 146.245 70.0132 137.866C69.7497 134.519 70.0132 131.199 71.0935 127.984C73.307 121.37 77.892 117.154 84.5586 115.494C93.0435 113.36 101.607 113.333 110.066 115.705C119.947 118.472 125.191 125.744 124.875 136.021C124.796 138.366 124.48 140.764 123.847 143.004C122.082 149.17 117.549 152.727 111.805 154.941C107.141 156.759 102.266 157.233 97.2596 157.312ZM107.563 135.599C107.036 133.333 106.798 131.041 105.982 128.933C104.506 125.112 101.423 123.373 97.4177 123.373C93.4651 123.373 90.4084 125.059 88.8801 128.801C87.0356 133.281 87.0356 137.918 88.8538 142.398C90.3821 146.192 93.4387 147.905 97.4967 147.879C101.555 147.852 104.585 146.087 106.034 142.266C106.825 140.184 107.062 137.892 107.563 135.599Z" fill="white"/>
<path d="M167.141 158.34C171.568 158.524 175.916 158.92 180.184 160.158C191.621 163.505 195.758 172.042 195.046 182.424C194.387 191.621 189.223 197.26 180.738 199.921C172.069 202.635 163.241 202.609 154.545 200.026C143.953 196.864 139.684 188.854 140.263 178.814C140.422 176.232 140.975 173.57 141.897 171.146C144.559 164.321 150.013 160.764 156.996 159.473C160.316 158.867 163.742 158.709 167.141 158.34ZM177.47 180.211C177.418 177.628 177.128 175.099 175.916 172.78C174.177 169.433 171.331 167.905 167.668 167.905C163.953 167.905 160.922 169.354 159.341 172.833C157.154 177.681 157.128 182.661 159.341 187.484C160.896 190.909 163.847 192.385 167.536 192.411C171.278 192.437 174.177 190.962 175.942 187.563C177.128 185.27 177.418 182.767 177.47 180.211Z" fill="white"/>
<path d="M109.17 158.419C114.809 158.551 120.316 159.104 125.507 161.423C132.754 164.664 136.364 170.408 136.917 178.208C137.128 181.291 136.917 184.348 136.047 187.325C134.203 193.544 129.776 197.207 123.979 199.42C118.208 201.634 112.2 202.029 106.113 201.686C101.792 201.423 97.5758 200.738 93.5968 198.946C86.2978 195.679 82.6614 189.908 82.1344 182.055C81.8445 177.839 82.3452 173.729 84.2688 169.881C87.5889 163.215 93.3597 160.158 100.448 159.157C103.294 158.788 106.245 158.682 109.17 158.419ZM119.71 180.211C119.13 177.787 118.814 175.362 117.945 173.175C116.443 169.46 113.333 167.879 109.46 167.905C105.639 167.931 102.609 169.539 101.08 173.175C99.1304 177.839 99.1041 182.609 101.107 187.246C102.661 190.856 105.665 192.437 109.539 192.411C113.412 192.411 116.443 190.83 117.918 187.194C118.788 185.059 119.104 182.635 119.71 180.211Z" fill="white"/>
<path d="M234.677 115.125C235.099 115.125 235.441 115.125 235.784 115.125C245.613 115.125 255.441 115.046 265.296 115.204C268.458 115.257 271.7 115.652 274.756 116.469C279.789 117.813 282.134 121.423 281.95 126.588C281.792 131.278 279.078 134.598 274.282 135.916C273.86 136.021 273.465 136.179 273.07 136.311C273.096 136.416 273.123 136.522 273.123 136.627C273.834 136.733 274.545 136.812 275.257 136.943C278.788 137.602 280.448 139.262 281.054 142.793C281.765 146.851 282.398 150.935 283.057 154.993C283.109 155.336 283.083 155.679 283.109 156.1C277.391 156.1 271.752 156.1 265.929 156.1C265.586 153.992 265.27 151.831 264.901 149.671C264.611 147.905 264.295 146.14 263.926 144.374C263.531 142.556 262.319 141.528 260.501 141.476C257.655 141.397 254.835 141.449 251.805 141.449C251.805 146.245 251.805 151.146 251.805 156.1C246.008 156.1 240.343 156.1 234.625 156.1C234.677 142.503 234.677 128.906 234.677 115.125ZM251.937 133.096C254.941 133.096 257.866 133.123 260.791 133.07C261.291 133.07 261.818 132.859 262.292 132.648C264.163 131.884 265.007 130.408 264.954 128.116C264.928 126.034 264.005 124.638 262.082 124.005C258.762 122.925 255.336 123.584 251.91 123.399C251.937 126.825 251.937 130.013 251.937 133.096Z" fill="white"/>
<path d="M207.036 139.947C207.036 142.582 207.036 144.98 207.036 147.51C214.625 147.51 222.134 147.51 229.75 147.51C229.75 150.435 229.75 153.228 229.75 156.1C216.627 156.1 203.505 156.1 190.303 156.1C190.303 142.477 190.303 128.88 190.303 115.178C203.373 115.178 216.39 115.178 229.513 115.178C229.513 117.997 229.513 120.817 229.513 123.768C222.029 123.768 214.572 123.768 207.062 123.768C207.062 126.271 207.062 128.669 207.062 131.252C214.018 131.252 221.028 131.252 228.09 131.252C228.09 134.229 228.09 137.022 228.09 139.921C221.054 139.947 214.098 139.947 207.036 139.947Z" fill="white"/>
<path d="M168.748 115.204C168.748 125.534 168.748 135.784 168.748 146.166C175.099 146.166 181.318 146.166 187.615 146.166C187.615 149.539 187.615 152.754 187.615 156.1C175.626 156.1 163.636 156.1 151.515 156.1C151.515 142.503 151.515 128.88 151.515 115.204C157.233 115.204 162.925 115.204 168.748 115.204Z" fill="white"/>
<path d="M129.012 115.178C134.756 115.178 140.395 115.178 146.113 115.178C146.113 128.827 146.113 142.424 146.113 156.1C140.422 156.1 134.756 156.1 129.012 156.1C129.012 142.477 129.012 128.906 129.012 115.178Z" fill="white"/>
</g>
<defs>
<clipPath id="clip0_3_103">
<rect width="300" height="299.868" fill="white"/>
</clipPath>
</defs>
</svg>
