<?xml version="1.0" encoding="utf-8"?>
<!-- Generator: Adobe Illustrator 24.3.0, SVG Export Plug-In . SVG Version: 6.00 Build 0)  -->
<svg version="1.1" id="Ebene_1" xmlns="http://www.w3.org/2000/svg" xmlns:xlink="http://www.w3.org/1999/xlink" x="0px" y="0px"
	 width="195.6px" height="54.3px" viewBox="0 0 195.6 54.3" style="enable-background:new 0 0 195.6 54.3;" xml:space="preserve">
<style type="text/css">
	.st0{fill-rule:evenodd;clip-rule:evenodd;}
</style>
<g>
	<path class="st0" d="M9.4,28.8c0.4,0.2,1.1,0.4,2.3,0.4c3.7,0,6.6-0.7,9-2.2c3.6-2.2,5.4-6,5.4-11.4c0-4.8-1.5-8.4-4.5-10.8
		c-2.5-2.1-5.9-3.1-10.1-3.1c-1.1,0-1.8,0.1-2.1,0.3C9,2.3,8.8,2.8,8.8,3.5v23.7C8.8,28,9,28.5,9.4,28.8L9.4,28.8z M0,30
		c1.7-0.2,2.8-0.5,3.3-0.9s0.8-1.5,0.8-3.3V5.1c0-1.7-0.3-2.8-0.8-3.3S1.7,1,0,0.9V0h12.6c4.2,0,7.8,0.7,10.8,2.1
		c5.3,2.5,7.9,7,7.9,13.4c0,2.3-0.5,4.5-1.4,6.6s-2.4,3.9-4.3,5.3c-1.2,0.9-2.5,1.6-3.8,2.1c-2.4,0.9-5.3,1.3-8.8,1.3H0V30L0,30z"/>
	<path d="M40.2,9.8v14.6c0,1,0.1,1.9,0.4,2.5c0.6,1.1,1.6,1.7,3.1,1.7c1,0,2-0.3,3-1c0.6-0.4,1.1-0.9,1.7-1.6V13.5
		c0-1.2-0.2-1.9-0.7-2.3c-0.5-0.4-1.4-0.6-2.7-0.7V9.8h7.4v16c0,1,0.2,1.8,0.5,2.1c0.4,0.4,1.2,0.5,2.4,0.5V29
		c-0.8,0.2-1.5,0.4-1.8,0.5c-0.4,0.1-1.1,0.3-2,0.6c-0.4,0.1-1.3,0.5-2.6,1c-0.1,0-0.1,0-0.1-0.1s0-0.1,0-0.2v-3.7
		c-1,1.2-2,2.1-2.8,2.7c-1.3,0.9-2.7,1.4-4.1,1.4c-1.3,0-2.6-0.5-3.7-1.4c-1.2-0.9-1.8-2.5-1.8-4.7V13.4c0-1.2-0.3-2-0.8-2.4
		c-0.3-0.3-1-0.4-2.1-0.6V9.8H40.2L40.2,9.8z"/>
	<path d="M58.7,23.7h0.8c0.3,1.7,0.8,3.1,1.4,4c1.1,1.7,2.6,2.5,4.7,2.5c1.1,0,2-0.3,2.7-0.9s1-1.5,1-2.5c0-0.6-0.2-1.3-0.6-1.9
		s-1.1-1.2-2-1.7l-2.6-1.5c-1.9-1-3.2-2-4.1-3c-0.9-1-1.3-2.2-1.3-3.6c0-1.7,0.6-3.1,1.8-4.2s2.7-1.6,4.6-1.6c0.8,0,1.7,0.1,2.6,0.5
		c1,0.3,1.5,0.5,1.6,0.5c0.3,0,0.5,0,0.6-0.1s0.2-0.2,0.3-0.4h0.6l0.2,6.3h-0.7c-0.3-1.5-0.7-2.6-1.2-3.4c-0.9-1.5-2.3-2.3-4.1-2.3
		c-1.1,0-1.9,0.3-2.5,1c-0.6,0.6-0.9,1.4-0.9,2.3c0,1.4,1,2.6,3.1,3.7l3,1.6c3.2,1.8,4.8,3.8,4.8,6.1c0,1.8-0.7,3.3-2,4.4
		s-3.1,1.7-5.3,1.7c-0.9,0-1.9-0.1-3.1-0.5c-1.2-0.3-1.8-0.5-2-0.5s-0.3,0.1-0.5,0.2c-0.1,0.1-0.2,0.3-0.3,0.5h-0.6V23.7L58.7,23.7z
		"/>
	<path d="M76.8,23.7h0.8c0.3,1.7,0.8,3.1,1.4,4c1.1,1.7,2.6,2.5,4.7,2.5c1.1,0,2-0.3,2.7-0.9s1-1.5,1-2.5c0-0.6-0.2-1.3-0.6-1.9
		s-1.1-1.2-2-1.7l-2.6-1.5c-1.9-1-3.2-2-4.1-3s-1.3-2.2-1.3-3.6c0-1.7,0.6-3.1,1.8-4.2s2.7-1.6,4.6-1.6c0.8,0,1.7,0.1,2.6,0.5
		c1,0.3,1.5,0.5,1.6,0.5c0.3,0,0.5,0,0.6-0.1s0.2-0.2,0.3-0.4h0.6l0.2,6.3h-0.7c-0.3-1.5-0.7-2.6-1.2-3.4c-0.9-1.5-2.3-2.3-4.1-2.3
		c-1.1,0-1.9,0.3-2.5,1c-0.6,0.6-0.9,1.4-0.9,2.3c0,1.4,1.1,2.6,3.1,3.7l3,1.6c3.2,1.8,4.8,3.8,4.8,6.1c0,1.8-0.7,3.3-2,4.4
		s-3.1,1.7-5.3,1.7c-0.9,0-1.9-0.1-3.1-0.5c-1.2-0.3-1.8-0.5-2.1-0.5c-0.2,0-0.3,0.1-0.5,0.2c-0.1,0.1-0.2,0.3-0.3,0.5h-0.6
		L76.8,23.7L76.8,23.7z"/>
	<path d="M93.3,30.3c1.2-0.1,2-0.3,2.4-0.6c0.6-0.4,0.9-1.3,0.9-2.6V15.3c0-1.1-0.2-1.9-0.5-2.2c-0.3-0.4-0.8-0.5-1.5-0.5
		c-0.3,0-0.6,0-0.7,0.1c-0.2,0-0.3,0.1-0.6,0.2v-0.8l1.6-0.6c0.6-0.2,1.6-0.6,2.9-1.1s2.1-0.8,2.1-0.8s0.1,0,0.1,0.1s0,0.2,0,0.4
		v3.1c1.5-1.4,2.8-2.3,3.9-2.8s2.2-0.8,3.4-0.8c1.6,0,2.8,0.5,3.7,1.6c0.5,0.6,0.9,1.4,1.2,2.4c1.1-1.1,2.1-2,2.9-2.5
		c1.4-0.9,2.9-1.4,4.4-1.4c2.4,0,4.1,1,4.9,3c0.5,1.1,0.7,2.9,0.7,5.3v9.5c0,1.1,0.2,1.8,0.7,2.2c0.5,0.4,1.3,0.6,2.6,0.8v0.6h-10.3
		v-0.6c1.3-0.1,2.2-0.4,2.6-0.8s0.6-1.3,0.6-2.5v-9.8c0-1.5-0.2-2.6-0.5-3.3c-0.6-1.3-1.7-1.9-3.3-1.9c-1,0-2,0.3-2.9,1
		c-0.6,0.4-1.3,1-2.1,1.8v11.7c0,1.2,0.2,2.2,0.6,2.8c0.4,0.6,1.4,1,2.8,1v0.6h-10.5v-0.6c1.4-0.2,2.4-0.5,2.8-1s0.6-1.8,0.6-3.8V19
		c0-2.3-0.2-3.9-0.5-4.8c-0.5-1.5-1.6-2.2-3.2-2.2c-0.9,0-1.8,0.3-2.7,0.8c-0.9,0.5-1.7,1.2-2.4,2v12.5c0,1.1,0.2,2,0.6,2.4
		s1.3,0.7,2.6,0.7V31h-9.9V30.3L93.3,30.3z"/>
	<path class="st0" d="M142.2,18.3c-1.8,0.6-3.2,1.2-4.3,1.9c-2.2,1.4-3.3,2.9-3.3,4.6c0,1.4,0.5,2.4,1.4,3c0.6,0.4,1.3,0.6,2,0.6
		c1,0,2-0.3,2.9-0.8c0.9-0.6,1.4-1.3,1.4-2.1L142.2,18.3L142.2,18.3z M133.9,20.8c1.4-0.9,4.2-2.1,8.4-3.7v-1.9
		c0-1.6-0.1-2.6-0.4-3.2c-0.5-1-1.6-1.5-3.2-1.5c-0.8,0-1.5,0.2-2.2,0.6c-0.7,0.4-1.1,1-1.1,1.7c0,0.2,0,0.5,0.1,0.9
		s0.1,0.7,0.1,0.8c0,0.9-0.3,1.4-0.8,1.8c-0.3,0.2-0.7,0.3-1.1,0.3c-0.7,0-1.2-0.2-1.6-0.7c-0.4-0.5-0.6-1-0.6-1.5
		c0-1.1,0.6-2.2,2-3.3c1.3-1.2,3.3-1.8,5.8-1.8c2.9,0,4.9,1,6,2.9c0.6,1.1,0.8,2.6,0.8,4.6v9.1c0,0.9,0.1,1.5,0.2,1.8
		c0.2,0.6,0.6,0.9,1.2,0.9c0.4,0,0.6,0,0.9-0.2s0.6-0.4,1.2-0.8v1.2c-0.5,0.6-1,1.1-1.6,1.5c-0.9,0.6-1.7,0.9-2.6,0.9
		c-1,0-1.8-0.3-2.3-1s-0.7-1.5-0.8-2.4c-1.1,1-2.1,1.8-3,2.2c-1.4,0.8-2.7,1.2-3.9,1.2c-1.3,0-2.4-0.5-3.4-1.4s-1.4-2.1-1.4-3.5
		C130.6,24.1,131.7,22.3,133.9,20.8L133.9,20.8z"/>
	<path d="M150.4,30.2c1.1-0.1,1.8-0.4,2.3-0.8c0.4-0.4,0.7-1.3,0.7-2.7V15.2c0-1-0.1-1.7-0.3-2.1c-0.3-0.6-0.9-0.9-1.8-0.9
		c-0.1,0-0.3,0-0.4,0c-0.1,0-0.3,0-0.5,0.1v-0.8c0.6-0.2,2.1-0.6,4.4-1.4l2.1-0.7c0.1,0,0.2,0,0.2,0.1s0,0.2,0,0.3v3.3
		c1.4-1.3,2.5-2.2,3.3-2.7c1.2-0.7,2.4-1.1,3.7-1.1c1,0,2,0.3,2.8,0.9c1.6,1.1,2.5,3.2,2.5,6.2V27c0,1.1,0.2,1.9,0.7,2.4
		s1.2,0.7,2.2,0.8v0.6h-9.7v-0.6c1.1-0.1,1.9-0.5,2.3-0.9c0.4-0.5,0.7-1.5,0.7-3v-9.7c0-1.3-0.2-2.4-0.7-3.2
		c-0.5-0.9-1.4-1.3-2.7-1.3c-0.9,0-1.8,0.3-2.7,0.9c-0.5,0.4-1.2,0.9-2,1.7v12.8c0,1.1,0.2,1.8,0.7,2.2c0.5,0.4,1.3,0.6,2.3,0.6v0.6
		h-10L150.4,30.2L150.4,30.2z"/>
	<path d="M173.7,30.2c1.1-0.1,1.8-0.4,2.3-0.8c0.4-0.4,0.7-1.3,0.7-2.7V15.2c0-1-0.1-1.7-0.3-2.1c-0.3-0.6-0.9-0.9-1.8-0.9
		c-0.1,0-0.3,0-0.4,0c-0.1,0-0.3,0-0.5,0.1v-0.8c0.6-0.2,2.1-0.6,4.4-1.4l2.1-0.7c0.1,0,0.2,0,0.2,0.1s0,0.2,0,0.3v3.3
		c1.4-1.3,2.5-2.2,3.3-2.7c1.2-0.7,2.4-1.1,3.7-1.1c1,0,2,0.3,2.8,0.9c1.6,1.1,2.5,3.2,2.5,6.2V27c0,1.1,0.2,1.9,0.7,2.4
		s1.2,0.7,2.2,0.8v0.6h-9.7v-0.6c1.1-0.1,1.9-0.5,2.3-0.9c0.4-0.5,0.7-1.5,0.7-3v-9.7c0-1.3-0.2-2.4-0.7-3.2
		c-0.5-0.9-1.4-1.3-2.7-1.3c-0.9,0-1.8,0.3-2.7,0.9c-0.5,0.4-1.2,0.9-2,1.7v12.8c0,1.1,0.2,1.8,0.7,2.2c0.5,0.4,1.3,0.6,2.3,0.6v0.6
		h-10L173.7,30.2L173.7,30.2z"/>
</g>
<g>
	<g>
		<path d="M12.9,53l-0.2,0.1l-1,0.4l-1,0.4l-1,0.4l-0.2,0.1l-0.1-0.1v-1.5l0,0c-0.8,1.1-1.8,1.6-3.1,1.6c-2.7,0-4.5-2.1-4.5-5.3
			c0-3.4,2.3-6.2,5.1-6.2c1,0,1.6,0.3,2.5,1V40c0-1-0.2-1.3-1.2-1.3c-0.2,0-0.2,0-0.4,0H7.6v-0.4h0.2c1.4-0.3,2.1-0.6,3.1-1l0.2-0.1
			h0.1v13.9c0,1.1,0.2,1.4,0.9,1.4h0.2h0.3h0.1L12.9,53L12.9,53z M6.8,43.5c-1.8,0-3,1.8-3,4.6c0,3,1.3,5,3.4,5
			c0.5,0,0.9-0.1,1.3-0.3C9,52.5,9.4,52,9.4,51.7v-5.6C9.3,44.6,8.1,43.5,6.8,43.5z"/>
		<path d="M23.9,53.1c-0.9,1-1.4,1.2-2.2,1.2c-1,0-1.4-0.5-1.5-1.8c-1.5,1.3-2.5,1.8-3.5,1.8c-1.5,0-2.6-1.1-2.6-2.6
			c0-0.8,0.2-1.4,0.7-2c0.2-0.3,0.5-0.5,0.9-0.8c0.8-0.6,1.6-0.9,4-1.9l0.5-0.2v-1.5c0-1.3-0.7-2-1.8-2c-1,0-1.8,0.5-1.8,1.2
			c0,0.2,0,0.3,0.1,0.7c0,0.2,0,0.2,0,0.3c0,0.6-0.5,1-1.1,1s-1-0.5-1-1.1c0-1.5,1.8-2.7,4.1-2.7c1.2,0,2.1,0.3,2.7,1
			c0.6,0.6,0.8,1.4,0.8,3v4.8c0,1.1,0.2,1.4,0.7,1.4c0.4,0,0.7-0.1,1.1-0.5C23.9,52.4,23.9,53.1,23.9,53.1z M17.8,48.5
			c-1.1,0.6-1.7,1.5-1.7,2.5c0,1.1,0.7,1.9,1.5,1.9c0.6,0,1.4-0.3,1.9-0.7c0.4-0.3,0.5-0.5,0.5-1.2v-3.5
			C18.7,48,18.5,48.1,17.8,48.5z"/>
		<path d="M31.2,46.3c-0.3-1-0.4-1.4-0.7-1.9c-0.4-0.7-1.1-1.1-2-1.1c-1.1,0-1.9,0.7-1.9,1.6c0,0.7,0.4,1.3,1,1.7l2.6,1.6
			c1.5,0.9,2,1.7,2,2.9c0,1.8-1.5,3.2-3.5,3.2c-0.4,0-0.9-0.1-1.4-0.2L27,54c-0.4-0.1-0.7-0.2-0.9-0.2c-0.3,0-0.4,0-0.6,0.3h-0.3
			v-3.8h0.4c0.3,1.4,0.5,1.8,1,2.5c0.4,0.6,1.2,1,2.1,1c1.2,0,2-0.7,2-1.8c0-0.8-0.4-1.3-1.3-1.8L28,49.3c-1-0.6-1.6-1-2-1.5
			c-0.5-0.6-0.8-1.3-0.8-2c0-1.8,1.4-3,3.4-3c0.5,0,0.9,0.1,1.4,0.3l0.3,0.1c0.2,0.1,0.4,0.1,0.5,0.1s0.3-0.1,0.4-0.3h0.3l0.1,3.4
			L31.2,46.3L31.2,46.3z"/>
		<path d="M55.8,37.8v0.5c-0.8,0.1-0.9,0.1-1.4,0.2c-0.6,0.2-1.3,0.7-2.3,1.7l-4.6,4.6l5.7,6.1l0.4,0.4c1.4,1.5,1.8,1.8,2.4,2.1
			c0.3,0.1,0.5,0.2,1,0.2v0.5h-7.4v-0.5h0.2c1.2,0,1.5-0.2,1.5-0.6c0-0.6-1.4-2.4-3.2-4.2l-2.6-2.6l-0.6,0.5v4.6c0,1.7,0.3,2,2,2.2
			h0.2V54h-6.8v-0.5h0.2c1.7-0.2,2-0.5,2-2.5V40.5c0-1.7-0.3-2-2-2.2h-0.2v-0.5h6.9v0.5H47c-1.8,0.2-2,0.4-2,2.2v5l0.4-0.4
			c0.6-0.6,1.4-1.3,2.3-2.1c1.5-1.4,2-1.9,2.9-2.8c0.5-0.5,0.6-0.8,0.6-1.3s-0.3-0.7-1.5-0.7h-0.1v-0.5L55.8,37.8L55.8,37.8z"/>
		<path d="M66.8,51.4c0,1.1,0.3,1.4,1.4,1.4h0.1v0.3L68,53.2c-0.3,0.1-0.5,0.2-0.8,0.2c-0.6,0.2-0.7,0.3-2.2,0.8l-0.2,0.1h-0.1v-2
			l-1,1c-0.7,0.7-1.6,1-2.5,1c-1.7,0-2.9-1.3-2.9-3.2v-6.2c0-1.1-0.4-1.5-1.5-1.6V43h3.5v8c0,1.1,0.8,1.9,1.8,1.9
			c0.6,0,1.3-0.3,1.9-0.7c0.5-0.4,0.6-0.7,0.6-1.5V45c0-1.2-0.3-1.5-1.7-1.5h-0.2V43h3.8L66.8,51.4L66.8,51.4z"/>
		<path d="M69.3,53.7h0.2c1.4-0.1,1.7-0.5,1.7-1.7V40.2c0-1.2-0.2-1.5-1-1.5c-0.2,0-0.4,0-0.8,0h-0.1v-0.4h0.2
			c0.4-0.1,0.9-0.3,1.4-0.4c0.8-0.2,1.2-0.3,2-0.6l0.2-0.1h0.1V52c0,1.3,0.3,1.7,1.7,1.7H75V54h-5.7V53.7z"/>
		<path d="M82.3,52.4c-0.8,1.3-1.8,1.9-2.8,1.9c-0.5,0-0.9-0.1-1.3-0.3c-0.3-0.2-0.6-0.6-0.8-1c-0.2-0.5-0.2-0.8-0.2-2.1v-7.1h-1.4
			v-0.3c1.5-1.1,2.5-2.3,3.2-3.6h0.3V43h2.4v0.8h-2.4v6.4v1c0,1.2,0.4,1.8,1.3,1.8c0.5,0,0.9-0.3,1.5-0.8L82.3,52.4z"/>
		<path d="M92.4,51.4c0,1.1,0.3,1.4,1.4,1.4h0.1v0.3l-0.2,0.1c-0.3,0.1-0.5,0.2-0.8,0.2c-0.6,0.2-0.7,0.3-2.2,0.8l-0.2,0.1h-0.1v-2
			l-1,1c-0.7,0.7-1.6,1-2.6,1c-1.7,0-2.9-1.3-2.9-3.2v-6.2c0-1.1-0.4-1.5-1.5-1.6V43H86v8c0,1.1,0.8,1.9,1.8,1.9
			c0.6,0,1.3-0.3,1.9-0.7c0.5-0.4,0.6-0.7,0.6-1.5V45c0-1.2-0.3-1.5-1.7-1.5h-0.2V43h3.8L92.4,51.4L92.4,51.4z"/>
		<path d="M94.5,53.7h0.2c1.4-0.2,1.6-0.5,1.6-1.7v-6.1c0-1.1-0.2-1.5-0.8-1.5c-0.3,0-0.5,0-0.8,0.1v-0.4l0.2-0.1
			c0.3-0.1,0.7-0.2,1.1-0.4c0.8-0.3,1.3-0.4,2.1-0.8l0.2-0.1h0.1V45h0.1c0.6-0.8,0.8-1,1.1-1.4c0.5-0.5,1.1-0.8,1.8-0.8
			c0.8,0,1.3,0.5,1.3,1.3c0,0.7-0.4,1.1-0.9,1.1c-0.3,0-0.5-0.1-0.8-0.4l-0.2-0.2c-0.2-0.2-0.4-0.3-0.5-0.3c-0.2,0-0.5,0.2-0.8,0.4
			c-0.5,0.5-0.8,1.1-0.8,1.6v5.5c0,1.3,0.4,1.8,1.9,1.8h0.2V54H95L94.5,53.7L94.5,53.7z"/>
		<path d="M118.9,37.8v0.5c-0.8,0.1-0.9,0.1-1.4,0.2c-0.6,0.2-1.3,0.7-2.3,1.7l-4.6,4.6l5.7,6.1l0.4,0.4c1.4,1.5,1.8,1.8,2.4,2.1
			c0.3,0.1,0.5,0.2,1,0.2v0.5h-7.4v-0.5h0.2c1.2,0,1.5-0.2,1.5-0.6c0-0.6-1.4-2.4-3.2-4.2l-2.6-2.6l-0.6,0.5v4.6c0,1.7,0.3,2,2,2.2
			h0.2V54h-6.8v-0.5h0.2c1.7-0.2,2-0.5,2-2.5V40.5c0-1.7-0.3-2-2-2.2h-0.2v-0.5h6.9v0.5h-0.2c-1.8,0.2-2,0.4-2,2.2v5l0.4-0.4
			c0.6-0.6,1.4-1.3,2.3-2.1c1.5-1.4,2-1.9,2.9-2.8c0.5-0.5,0.6-0.8,0.6-1.3s-0.3-0.7-1.5-0.7h-0.1v-0.5L118.9,37.8L118.9,37.8z"/>
		<path d="M130.7,53.1c-0.9,1-1.4,1.2-2.2,1.2c-1,0-1.4-0.5-1.6-1.8c-1.5,1.3-2.5,1.8-3.5,1.8c-1.5,0-2.6-1.1-2.6-2.6
			c0-0.8,0.2-1.4,0.7-2c0.2-0.3,0.5-0.5,0.8-0.8c0.8-0.6,1.7-0.9,4-1.9l0.5-0.2v-1.5c0-1.3-0.7-2-1.8-2c-1,0-1.8,0.5-1.8,1.2
			c0,0.2,0,0.3,0.1,0.7c0.1,0.2,0.1,0.2,0.1,0.3c0,0.6-0.5,1-1.1,1s-1-0.5-1-1.1c0-1.5,1.8-2.7,4.1-2.7c1.2,0,2.1,0.3,2.7,1
			c0.6,0.6,0.8,1.4,0.8,3v4.8c0,1.1,0.2,1.4,0.7,1.4c0.4,0,0.7-0.1,1.1-0.5V53.1L130.7,53.1z M124.7,48.5c-1.1,0.6-1.7,1.5-1.7,2.5
			c0,1.1,0.7,1.9,1.5,1.9c0.6,0,1.4-0.3,1.9-0.7c0.4-0.3,0.5-0.5,0.5-1.2v-3.5C125.6,48,125.4,48.1,124.7,48.5z"/>
		<path d="M140.9,51.4c0,1.1,0.3,1.4,1.4,1.4h0.1v0.3l-0.2,0.1c-0.3,0.1-0.5,0.2-0.8,0.2c-0.6,0.2-0.7,0.3-2.2,0.8l-0.2,0.1h-0.1v-2
			l-1,1c-0.7,0.7-1.6,1-2.6,1c-1.7,0-2.9-1.3-2.9-3.2v-6.2c0-1.1-0.4-1.5-1.5-1.6V43h3.5v8c0,1.1,0.8,1.9,1.8,1.9
			c0.6,0,1.3-0.3,1.9-0.7c0.5-0.4,0.6-0.7,0.6-1.5V45c0-1.2-0.3-1.5-1.6-1.5H137V43h3.8v8.4H140.9z"/>
		<path d="M150.4,43.8h-3v7.7c0,0.6,0.1,1.1,0.1,1.4c0.2,0.5,0.8,0.8,1.9,0.8h0.2V54h-6.3v-0.4h0.2c1.5,0,1.9-0.5,1.9-2.2v-7.7h-2
			V43h2c0-1.3,0.1-1.8,0.3-2.5c0.5-2.1,1.9-3.2,4-3.2c1.5,0,2.6,0.6,2.6,1.5c0,0.6-0.4,1-1,1c-0.4,0-0.6-0.2-1.1-0.9
			c-0.5-0.8-0.8-1-1.3-1c-0.9,0-1.4,0.7-1.4,2.2V43h3L150.4,43.8L150.4,43.8z"/>
		<path d="M158.7,54v-0.4h0.1c1.2-0.2,1.5-0.5,1.5-2.1v-4.8c0-1.7-0.6-2.6-1.8-2.6c-0.9,0-1.6,0.4-2.7,1.5v5.9
			c0,1.6,0.2,1.9,1.5,2.1h0.1V54h-5.2v-0.4h0.1c1.2-0.2,1.4-0.4,1.4-2.1V40c0-1-0.2-1.3-1-1.3h-0.1h-0.2h-0.1h-0.1h-0.1v-0.4
			l0.2-0.1c1.3-0.4,1.8-0.5,2.3-0.7c0.3-0.1,0.5-0.2,0.9-0.3l0.1,0.1v7.4h0.1c1.1-1.4,2.1-2,3.5-2c2,0,3,1.3,3,3.9v4.9
			c0,1.6,0.2,1.9,1.3,2.1h0.1V54L158.7,54L158.7,54z"/>
		<path d="M174.7,53.1c-0.9,1-1.4,1.2-2.2,1.2c-1,0-1.4-0.5-1.6-1.8c-1.5,1.3-2.5,1.8-3.5,1.8c-1.5,0-2.6-1.1-2.6-2.6
			c0-0.8,0.2-1.4,0.7-2c0.2-0.3,0.5-0.5,0.9-0.8c0.8-0.6,1.6-0.9,4-1.9l0.5-0.2v-1.5c0-1.3-0.7-2-1.9-2c-1,0-1.8,0.5-1.8,1.2
			c0,0.2,0,0.3,0.1,0.7c0.1,0.2,0.1,0.2,0.1,0.3c0,0.6-0.5,1-1.1,1s-1-0.5-1-1.1c0-1.5,1.8-2.7,4.1-2.7c1.2,0,2.1,0.3,2.7,1
			c0.6,0.6,0.8,1.4,0.8,3v4.8c0,1.1,0.2,1.4,0.7,1.4c0.4,0,0.7-0.1,1.1-0.5V53.1L174.7,53.1z M168.6,48.5c-1.1,0.6-1.7,1.5-1.7,2.5
			c0,1.1,0.7,1.9,1.5,1.9c0.6,0,1.4-0.3,1.9-0.7c0.4-0.3,0.5-0.5,0.5-1.2v-3.5C169.5,48,169.3,48.1,168.6,48.5z"/>
		<path d="M184.4,51.4c0,1.1,0.3,1.4,1.4,1.4h0.1v0.3l-0.2,0.1c-0.3,0.1-0.5,0.2-0.8,0.2c-0.6,0.2-0.7,0.3-2.2,0.8l-0.2,0.1h-0.1v-2
			l-1,1c-0.7,0.7-1.6,1-2.6,1c-1.7,0-2.9-1.3-2.9-3.2v-6.2c0-1.1-0.4-1.5-1.5-1.6V43h3.5v8c0,1.1,0.8,1.9,1.8,1.9
			c0.6,0,1.3-0.3,1.9-0.7c0.5-0.4,0.6-0.7,0.6-1.5V45c0-1.2-0.3-1.5-1.6-1.5h-0.1V43h3.8v8.4H184.4z"/>
		<path d="M193.1,46.3c-0.3-1-0.4-1.4-0.7-1.9c-0.4-0.7-1.1-1.1-2-1.1c-1.1,0-1.9,0.7-1.9,1.6c0,0.7,0.4,1.3,1,1.7l2.6,1.6
			c1.5,0.9,2,1.7,2,2.9c0,1.8-1.5,3.2-3.5,3.2c-0.4,0-0.9-0.1-1.4-0.2l-0.4-0.1c-0.4-0.1-0.7-0.2-0.9-0.2c-0.3,0-0.4,0-0.6,0.3H187
			v-3.8h0.4c0.3,1.4,0.5,1.8,1,2.5c0.4,0.6,1.2,1,2.1,1c1.2,0,2-0.7,2-1.8c0-0.8-0.4-1.3-1.3-1.8l-1.4-0.8c-1-0.6-1.6-1-2-1.5
			c-0.5-0.6-0.8-1.3-0.8-2c0-1.8,1.4-3,3.4-3c0.5,0,0.9,0.1,1.4,0.3l0.3,0.1c0.2,0.1,0.4,0.1,0.5,0.1s0.3-0.1,0.4-0.3h0.3l0.1,3.4
			L193.1,46.3L193.1,46.3z"/>
	</g>
</g>
</svg>
