<svg width="548" height="55" viewBox="0 0 548 55" fill="none" xmlns="http://www.w3.org/2000/svg">
<g clip-path="url(#clip0_1_5)">
<path d="M133 48.3H126.2C125.7 48.3 125.5 48.1 125.5 47.6V4.09999C125.5 3.59999 125.7 3.39999 126.2 3.39999H133C133.4 3.39999 133.7 3.59999 133.7 4.09999V47.6C133.7 48.1 133.5 48.3 133 48.3Z" fill="white"/>
<path d="M178.9 40.5C178.9 41.2 177.9 43.3 175.5 45.8C173.4 48 170.3 49.1 166.3 49.1H162.8C154.7 49.1 149.5 44 149.5 36.5V15.3C149.5 7.70001 154.8 2.70001 162.8 2.70001H166.3C169.5 2.70001 172.1 3.40001 174.4 5.10001C177.2 7.20001 179 10.4 179 11.2C179 11.5 178.8 11.6 178.6 11.8L172.4 14.9C172.3 15 172.1 15 172 15C171.6 15 171.4 14.6 171 13.8C169.8 11.6 168.4 10.4 166.4 10.4H162.9C160 10.4 157.8 12.7 157.8 15.5V36.6C157.8 39.5 160.1 41.7 162.9 41.7H166.4C168.5 41.7 169.8 40.6 171 38.3C171.4 37.4 171.7 36.9 172.1 36.9C172.3 36.9 172.3 36.9 172.5 37L178.7 40.1C178.7 40 178.9 40.2 178.9 40.5Z" fill="white"/>
<path d="M218.9 10.9H208.8C208.3 10.9 208.1 11.1 208.1 11.6V47.6C208.1 48.1 207.9 48.3 207.4 48.3H200.7C200.2 48.3 200 48.1 200 47.6V11.6C200 11.1 199.8 10.9 199.3 10.9H189.2C188.7 10.9 188.5 10.7 188.5 10.2V4.09999C188.5 3.59999 188.7 3.39999 189.2 3.39999H219C219.4 3.39999 219.7 3.59999 219.7 4.09999V10.2C219.6 10.7 219.4 10.9 218.9 10.9Z" fill="white"/>
<path d="M249.4 49H243.5C235.4 49 230.2 43.9 230.2 36.4V15.3C230.2 7.70001 235.5 2.70001 243.5 2.70001H249.4C257.4 2.70001 262.7 7.80001 262.7 15.3V36.4C262.6 44 257.3 49 249.4 49ZM254.4 15.3C254.4 12.4 252.2 10.2 249.3 10.2H243.4C240.5 10.2 238.3 12.5 238.3 15.3V36.4C238.3 39.3 240.6 41.5 243.4 41.5H249.3C252.2 41.5 254.4 39.3 254.4 36.4V15.3Z" fill="white"/>
<path d="M112.8 16C112.8 16.2 112.8 22.3 112.8 22.5C112.8 29.8 107.5 35.1 99.5 35.1H91.7C91.2 35.1 91 35.3 91 35.8V47.6C91 48.1 90.8 48.3 90.3 48.3H83.5C83 48.3 82.8 48.1 82.8 47.6V4.09999C82.8 3.59999 83 3.39999 83.5 3.39999H99.5C107.3 3.39999 112.5 8.29999 112.8 16ZM104.6 16C104.6 13.2 102.3 10.9 99.5 10.9H91.7C91.2 10.9 91 11.1 91 11.6V26.9C91 27.4 91.2 27.6 91.7 27.6H99.5C102.4 27.6 104.6 25.3 104.6 22.5V16Z" fill="white"/>
<path d="M547.5 20.7V15.3C547.5 7.70001 542.2 2.70001 534.3 2.70001H527.7C519.7 2.70001 514.4 7.80001 514.4 15.3V20.7V47.6C514.4 48.1 514.6 48.3 515.1 48.3H521.8C522.3 48.3 522.5 48.1 522.5 47.6V36.4V35.8C522.5 35.3 522.7 35.1 523.2 35.1H538.6C539.1 35.1 539.3 35.3 539.3 35.8V36.4V47.6C539.3 48.1 539.5 48.3 540 48.3H546.8C547.3 48.3 547.5 48.1 547.5 47.6V20.7ZM522.5 15.3C522.5 12.4 524.8 10.2 527.6 10.2H534.2C537 10.2 539.3 12.4 539.3 15.3V26.9C539.3 27.4 539.1 27.6 538.6 27.6H523.1C522.6 27.6 522.4 27.4 522.4 26.9V26.3V20.7V15.3H522.5Z" fill="white"/>
<path d="M345.5 48.3H322.7C322.2 48.3 322 48.1 322 47.6V4.09999C322 3.59999 322.2 3.39999 322.7 3.39999H329.5C329.9 3.39999 330.2 3.59999 330.2 4.09999V40.1C330.2 40.6 330.4 40.8 330.9 40.8H345.5C345.9 40.8 346.2 41 346.2 41.5V47.6C346.2 48.1 346 48.3 345.5 48.3Z" fill="white"/>
<path d="M415.5 15.3C415.5 18.6 418.8 19.6 423.8 21.9C431.4 25.4 435 29.3 435 36.4C435 44 429.8 49 421.7 49H418.8C414.7 49 411.7 47.9 409.5 45.6C407.1 43.2 406.2 41.1 406.2 40.4C406.2 40.3 406.3 40.1 406.6 39.9L412.8 36.8C412.9 36.7 413 36.7 413.2 36.7C413.7 36.7 413.8 37.4 414.5 38.8C415.3 40.3 417.1 41.4 418.7 41.4H421.6C424.4 41.4 426.7 39.1 426.7 36.3C426.7 32.7 423.7 31.5 419.1 29.2C411.3 25.4 407.3 22.2 407.3 15.2C407.3 7.60001 412.6 2.60001 420.6 2.60001H421.7C425 2.60001 427.5 3.30001 429.8 5.00001C432.6 7.00001 434.4 10.2 434.4 11.1C434.4 11.4 434.2 11.5 434 11.7L427.8 14.8C427.6 14.9 427.5 14.9 427.4 14.9C427 14.9 426.9 14.5 426.5 13.8C425.1 11.5 423.9 10.2 421.7 10.2H420.6C417.9 10.2 415.5 12.4 415.5 15.3Z" fill="white"/>
<path d="M308 16C308 16.2 308 22.3 308 22.5C308 29.8 302.7 35.1 294.7 35.1H287C286.5 35.1 286.3 35.3 286.3 35.8V47.6C286.3 48.1 286.1 48.3 285.6 48.3H278.8C278.3 48.3 278.1 48.1 278.1 47.6V4.09999C278.1 3.59999 278.3 3.39999 278.8 3.39999H294.8C302.6 3.39999 307.7 8.29999 308 16ZM299.8 16C299.8 13.2 297.5 10.9 294.7 10.9H287C286.5 10.9 286.3 11.1 286.3 11.6V26.9C286.3 27.4 286.5 27.6 287 27.6H294.8C297.6 27.6 299.9 25.3 299.9 22.5V16H299.8Z" fill="white"/>
<path d="M392.4 20.7V15.3C392.4 7.70001 387.1 2.70001 379.1 2.70001H372.5C364.5 2.70001 359.2 7.80001 359.2 15.3V20.7V47.6C359.2 48.1 359.4 48.3 359.9 48.3H366.6C367.1 48.3 367.3 48.1 367.3 47.6V36.4V35.8C367.3 35.3 367.5 35.1 368 35.1H383.4C383.9 35.1 384.1 35.3 384.1 35.8V36.4V47.6C384.1 48.1 384.3 48.3 384.8 48.3H391.6C392.1 48.3 392.3 48.1 392.3 47.6L392.4 20.7ZM367.4 15.3C367.4 12.4 369.7 10.2 372.5 10.2H379.1C382 10.2 384.2 12.4 384.2 15.3V26.9C384.2 27.4 384 27.6 383.5 27.6H368.1C367.6 27.6 367.4 27.4 367.4 26.9V26.3V20.7V15.3Z" fill="white"/>
<path d="M499.4 15.3C499.4 7.70001 494.1 2.70001 486.1 2.70001H483.5C479.7 2.70001 476.6 3.90001 474.3 5.80001C472 3.80001 468.9 2.70001 465.1 2.70001H462.5C454.5 2.70001 449.2 7.80001 449.2 15.3V25.4C449.2 25.4 449.2 25.4 449.2 25.5V47.6C449.2 48.1 449.4 48.3 449.9 48.3H456.6C457.1 48.3 457.3 48.1 457.3 47.6V34V15.3C457.3 12.4 459.6 10.2 462.4 10.2H465C467.8 10.2 470.1 12.4 470.1 15.3V34V47.6C470.1 48.1 470.3 48.3 470.8 48.3H477.6C478.1 48.3 478.3 48.1 478.3 47.6V34V15.3C478.3 15.2 478.3 15.2 478.3 15.1C478.4 12.3 480.6 10.2 483.4 10.2H486C488.9 10.2 491.1 12.4 491.1 15.3V34V47.6C491.1 48.1 491.3 48.3 491.8 48.3H498.6C499.1 48.3 499.3 48.1 499.3 47.6V34L499.4 15.3Z" fill="white"/>
<path d="M1 39.6C1 42.7 3.5 45.2 6.6 45.2H29.6C32.7 45.2 36.8 47.1 38.8 49.4L41.6 52.6C43.6 54.9 45.2 54.3 45.2 51.3V6.6C45.2 3.5 42.7 1 39.6 1H6.6C3.5 1 1 3.5 1 6.6V39.6Z" fill="#1D1D1B"/>
<mask id="mask0_1_5" style="mask-type:luminance" maskUnits="userSpaceOnUse" x="0" y="0" width="47" height="55">
<path d="M46.1 0H0V55H46.1V0Z" fill="white"/>
</mask>
<g mask="url(#mask0_1_5)">
<path d="M1 39.6C1 42.7 3.5 45.2 6.6 45.2H29.6C32.7 45.2 36.8 47.1 38.8 49.4L41.6 52.6C43.6 54.9 45.2 54.3 45.2 51.3V6.6C45.2 3.5 42.7 1 39.6 1H6.6C3.5 1 1 3.5 1 6.6V39.6Z" stroke="#1D1D1B" stroke-width="1.9705" stroke-linecap="round" stroke-linejoin="round"/>
</g>
<path d="M30.6 28.3C25.5 30.6 18 28.2 17.6 24.8C17.3 21.6 21.1 20.7 25.9 17.3C30.5 14 36.1 15.3 37.4 18.3C38.7 21.4 36.1 25.8 30.6 28.3ZM28.5 32.4C28.1 33.3 27.1 33.6 26.3 33.2C25.5 32.8 24.5 31.5 24.9 30.6C25.3 29.7 26.9 29.8 27.7 30.1C28.6 30.3 28.9 31.5 28.5 32.4ZM23 35.5C21.7 36.1 20.1 35.5 19.4 33.7C18.7 32 17.9 29.1 19.2 28.4C20.5 27.8 23.4 29.7 24.1 31.4C24.8 33 24.3 34.9 23 35.5ZM16.2 33.8C13.7 35.4 10.9 34.3 9.39999 31.6C7.79999 28.9 7.59999 24.5 10.4 23.6C13.5 22.6 15.8 23.3 17.1 26.1C18.6 29.6 18.7 32.2 16.2 33.8ZM6.69999 23.4C6.39999 22.7 6.69999 21.8 7.39999 21.5C8.19999 21.1 9.69999 21.9 9.99999 22.6C10.3 23.3 9.19999 23.9 8.49999 24.1C7.69999 24.3 6.99999 24.1 6.69999 23.4ZM11.2 12.2C13.9 10.9 17.1 12.2 18.3 15.1C19.5 18 21.7 21.3 15.7 22.7C12.9 23.4 9.79999 22.7 8.59999 19.8C7.29999 17 8.49999 13.5 11.2 12.2ZM20.7 16.1C21.4 15.5 22.4 15.5 23 16.2C23.6 16.9 23.5 18 22.8 18.6C22.1 19.2 20.9 20 20.3 19.3C19.8 18.6 20 16.8 20.7 16.1ZM24.6 14.6C25.4 14.2 26.4 14.5 26.7 15.4C26.9 16 26.7 16.5 25.9 16.9C25.1 17.3 24.4 17.6 23.9 17C23.4 16.1 23.9 15 24.6 14.6ZM27.7 12.9C28.4 12.6 29.1 12.8 29.4 13.5C29.7 14.1 29.4 14.9 28.7 15.3C28 15.6 27.3 15.4 27 14.7C26.7 14 27 13.2 27.7 12.9ZM30.5 14.7C31 13.9 31.2 13.2 30.7 12.3C30.1 11.4 28.9 11.1 28 11.5C27.1 12 26.2 13 26.5 14C26 13.4 25.2 13.1 24.5 13.4C23.6 13.8 23.2 14.7 23.2 15.5C23.2 15.5 22.6 14.3 21.1 14.7C20.4 14.9 19.9 15.3 19.7 16.8C18.5 9.40001 13.2 9.20001 10.2 10.6C7.19999 12.1 6.09999 16.1 7.49999 19.4C7.79999 20.1 7.69999 20 8.29999 20.8C7.69999 20.6 6.99999 20.5 6.09999 21.2C5.29999 21.9 5.09999 23 5.49999 24C5.89999 25 7.59999 25.1 8.09999 24.9C2.69999 35 16.4 40.5 18.4 32.6C18.7 34.1 19 34.6 19.5 35.4C20.7 37.5 22.4 38.4 24 37.6C25.3 37 25.6 34.8 25.3 33.1C27.4 34.6 29.4 34.7 30.3 33.1C31.4 31.1 29.5 29.8 29.5 29.8C45.9 24.7 43.1 10.8 30.5 14.7Z" fill="white"/>
<mask id="mask1_1_5" style="mask-type:luminance" maskUnits="userSpaceOnUse" x="0" y="0" width="47" height="55">
<path d="M46.1 0H0V55H46.1V0Z" fill="white"/>
</mask>
<g mask="url(#mask1_1_5)">
<path d="M30.6 28.3C25.5 30.6 18 28.2 17.6 24.8C17.3 21.6 21.1 20.7 25.9 17.3C30.5 14 36.1 15.3 37.4 18.3C38.7 21.4 36.1 25.8 30.6 28.3ZM28.5 32.4C28.1 33.3 27.1 33.6 26.3 33.2C25.5 32.8 24.5 31.5 24.9 30.6C25.3 29.7 26.9 29.8 27.7 30.1C28.6 30.3 28.9 31.5 28.5 32.4ZM23 35.5C21.7 36.1 20.1 35.5 19.4 33.7C18.7 32 17.9 29.1 19.2 28.4C20.5 27.8 23.4 29.7 24.1 31.4C24.8 33 24.3 34.9 23 35.5ZM16.2 33.8C13.7 35.4 10.9 34.3 9.39999 31.6C7.79999 28.9 7.59999 24.5 10.4 23.6C13.5 22.6 15.8 23.3 17.1 26.1C18.6 29.6 18.7 32.2 16.2 33.8ZM6.69999 23.4C6.39999 22.7 6.69999 21.8 7.39999 21.5C8.19999 21.1 9.69999 21.9 9.99999 22.6C10.3 23.3 9.19999 23.9 8.49999 24.1C7.69999 24.3 6.99999 24.1 6.69999 23.4ZM11.2 12.2C13.9 10.9 17.1 12.2 18.3 15.1C19.5 18 21.7 21.3 15.7 22.7C12.9 23.4 9.79999 22.7 8.59999 19.8C7.29999 17 8.49999 13.5 11.2 12.2ZM20.7 16.1C21.4 15.5 22.4 15.5 23 16.2C23.6 16.9 23.5 18 22.8 18.6C22.1 19.2 20.9 20 20.3 19.3C19.8 18.6 20 16.8 20.7 16.1ZM24.6 14.6C25.4 14.2 26.4 14.5 26.7 15.4C26.9 16 26.7 16.5 25.9 16.9C25.1 17.3 24.4 17.6 23.9 17C23.4 16.1 23.9 15 24.6 14.6ZM27.7 12.9C28.4 12.6 29.1 12.8 29.4 13.5C29.7 14.1 29.4 14.9 28.7 15.3C28 15.6 27.3 15.4 27 14.7C26.7 14 27 13.2 27.7 12.9ZM30.5 14.7C31 13.9 31.2 13.2 30.7 12.3C30.1 11.4 28.9 11.1 28 11.5C27.1 12 26.2 13 26.5 14C26 13.4 25.2 13.1 24.5 13.4C23.6 13.8 23.2 14.7 23.2 15.5C23.2 15.5 22.6 14.3 21.1 14.7C20.4 14.9 19.9 15.3 19.7 16.8C18.5 9.40001 13.2 9.20001 10.2 10.6C7.19999 12.1 6.09999 16.1 7.49999 19.4C7.79999 20.1 7.69999 20 8.29999 20.8C7.69999 20.6 6.99999 20.5 6.09999 21.2C5.29999 21.9 5.09999 23 5.49999 24C5.89999 25 7.59999 25.1 8.09999 24.9C2.69999 35 16.4 40.5 18.4 32.6C18.7 34.1 19 34.6 19.5 35.4C20.7 37.5 22.4 38.4 24 37.6C25.3 37 25.6 34.8 25.3 33.1C27.4 34.6 29.4 34.7 30.3 33.1C31.4 31.1 29.5 29.8 29.5 29.8C45.9 24.7 43.1 10.8 30.5 14.7Z" stroke="white" stroke-width="0.2059" stroke-linecap="round" stroke-linejoin="round"/>
</g>
</g>
<defs>
<clipPath id="clip0_1_5">
<rect width="547.6" height="55" fill="white"/>
</clipPath>
</defs>
</svg>
