<svg width="500" height="235" viewBox="0 0 500 235" fill="none" xmlns="http://www.w3.org/2000/svg">
<g clip-path="url(#clip0_2_80)">
<path d="M0 111.167C0.250038 108.766 0.450068 106.391 0.725109 103.991C3.80057 77.9117 14.3522 55.3083 32.5049 36.3304C48.9323 19.1279 68.8853 8.0262 92.1388 2.90043C99.89 1.20018 107.741 0.300043 115.667 0.27504C116.067 0.27504 116.492 0.27504 116.968 0.27504C116.968 3.3755 116.968 6.40096 116.968 9.40141C79.3369 10.6516 49.1824 26.0789 27.7542 57.1586C12.6769 79.0119 7.05106 103.541 10.1265 129.894C16.3775 183.428 62.0343 225.109 117.768 224.659C147.172 224.434 172.576 213.782 193.354 192.954C214.157 172.126 224.334 146.672 224.884 117.218C227.884 117.218 230.91 117.218 234.01 117.218C234.01 118.918 234.085 120.593 234.01 122.293C232.485 151.648 221.658 177.052 201.305 198.28C185.828 214.407 167.125 225.109 145.447 230.585C138.646 232.31 131.745 233.36 124.744 233.785C124.344 233.81 123.944 233.91 123.544 233.985C119.293 233.985 115.042 233.985 110.792 233.985C110.342 233.91 109.891 233.835 109.441 233.785C104.991 233.235 100.465 232.96 96.0644 232.135C68.0852 226.884 44.8817 213.307 26.704 191.429C11.9268 173.651 3.3505 153.148 0.725109 130.17C0.450068 127.819 0.250038 125.469 0.0250038 123.118C0 119.143 0 115.142 0 111.167Z" fill="white"/>
<path d="M500 125.144C497.025 125.144 494.024 125.144 490.899 125.144C490.899 137.371 490.899 149.422 490.899 161.549C487.623 161.549 484.473 161.549 481.197 161.549C481.197 149.447 481.197 137.421 481.197 125.219C478.097 125.219 475.121 125.219 472.071 125.219C472.071 122.518 472.071 119.943 472.071 117.143C481.372 117.143 490.674 117.143 499.975 117.143C500 119.818 500 122.468 500 125.144Z" fill="white"/>
<path d="M206.006 117.218C209.106 117.218 212.132 117.218 215.157 117.218C215.932 145.647 201.03 184.128 162.449 204.281C125.344 223.659 79.4869 217.358 48.9073 187.978C17.2526 157.549 10.1765 110.967 29.0543 73.336C48.8073 33.9301 87.6381 18.3778 116.993 19.1029C116.993 22.1533 116.993 25.2288 116.993 28.3042C85.4878 29.4044 60.384 42.4314 42.7564 68.7353C30.7546 86.588 26.3789 106.516 28.9043 127.844C34.1551 172.326 72.4108 206.331 117.918 205.856C167.2 205.331 206.081 164.975 206.006 117.218Z" fill="white"/>
<path d="M187.078 117.218C190.204 117.218 193.229 117.218 196.404 117.218C196.404 127.744 194.454 137.871 190.379 147.572C183.603 163.75 172.676 176.426 157.599 185.403C127.469 203.356 89.2384 199.38 63.3595 175.776C37.5557 152.198 30.1045 114.467 45.2068 83.0625C61.0342 50.1575 93.264 37.3306 116.943 38.0307C116.943 41.0812 116.943 44.1316 116.943 47.2321C94.2642 47.8822 75.5864 56.7335 61.6093 74.6362C50.5826 88.7383 45.8569 104.966 47.3071 122.768C50.3076 159.174 80.5121 187.053 116.918 187.003C157.324 186.953 187.378 153.948 187.078 117.218Z" fill="white"/>
<path d="M116.993 56.6835C116.993 59.784 116.993 62.7844 116.993 65.8599C100.665 66.3099 87.1381 72.6109 76.8865 85.3378C68.7353 95.4393 65.1098 107.141 65.8099 120.093C67.2101 145.922 88.1632 166.95 113.792 168.325C128.494 169.1 141.396 164.55 152.148 154.498C162.874 144.472 168.125 131.92 168.45 117.243C171.551 117.243 174.576 117.243 177.602 117.243C178.227 133.67 169.675 157.349 146.347 170.251C123.569 182.852 94.9892 179.402 75.9114 161.749C56.6335 143.922 50.9076 115.967 61.7843 92.1638C73.1109 67.3351 97.2396 56.2584 116.993 56.6835Z" fill="white"/>
<path d="M191.404 85.5128C167.575 85.5128 148.672 66.51 148.697 42.5564C148.747 19.0028 168.425 -0.250039 192.304 0.250036C215.132 0.725107 234.21 19.4779 234.085 43.1565C233.985 66.535 214.932 85.5128 191.404 85.5128ZM191.354 76.0114C209.456 76.0864 224.459 61.2592 224.534 43.1815C224.609 24.7537 209.856 9.85148 191.429 9.77646C173.451 9.70145 158.374 24.5287 158.249 42.3814C158.124 61.0342 172.801 75.9364 191.354 76.0114Z" fill="white"/>
<path d="M116.993 75.2363C116.993 78.3618 116.993 81.4372 116.993 84.5377C106.466 84.8377 97.8147 88.9383 91.3137 97.1646C85.9879 103.891 83.8876 111.642 84.5377 120.168C85.8129 136.495 100.14 149.672 116.768 149.747C134.645 149.847 149.547 135.695 149.822 117.218C152.848 117.218 155.848 117.218 158.874 117.218C159.774 133.545 147.222 155.273 122.743 158.774C98.7898 162.199 76.6365 144.222 75.0863 119.993C73.461 94.8142 93.514 75.1863 116.993 75.2363Z" fill="white"/>
<path d="M348.527 78.5118C348.552 82.6374 348.227 86.738 347.027 90.7136C344.902 97.8397 340.126 101.89 332.775 102.54C329.749 102.815 326.599 102.69 323.599 102.165C317.673 101.165 313.647 97.5146 311.797 91.8888C308.821 82.9124 308.821 73.7861 311.797 64.8097C313.772 58.8338 318.198 55.4583 324.399 54.4582C328.424 53.8081 332.45 53.8581 336.4 55.0333C342.801 56.9335 346.102 61.6593 347.427 67.8602C348.177 71.3357 348.377 74.9112 348.827 78.4618C348.752 78.4868 348.652 78.4868 348.527 78.5118ZM338.676 78.5368C338.326 74.7112 338.276 70.9106 336.876 67.3101C335.6 64.0346 333.175 62.4094 329.674 62.3093C326.074 62.1843 323.223 63.3595 321.673 66.835C320.523 69.3854 320.148 72.0858 320.023 74.8362C319.823 79.4119 319.723 83.9876 321.073 88.4633C322.823 94.3392 327.449 95.3643 331.925 94.2641C335.25 93.439 336.776 90.8136 337.401 87.7632C338.026 84.7377 338.251 81.6122 338.676 78.5368Z" fill="white"/>
<path d="M311.197 142.421C311.197 134.045 311.197 125.669 311.197 117.243C314.147 117.243 316.973 117.243 319.898 117.243C319.898 131.97 319.898 146.722 319.898 161.624C317.148 161.624 314.372 161.649 311.597 161.574C311.272 161.574 310.872 160.999 310.647 160.599C306.446 152.698 302.295 144.797 298.12 136.896C298.02 136.696 297.895 136.495 297.595 135.97C297.595 144.722 297.595 153.098 297.595 161.549C294.619 161.549 291.769 161.549 288.818 161.549C288.818 146.822 288.818 132.07 288.818 117.193C291.594 117.193 294.319 117.143 297.07 117.243C297.42 117.243 297.87 117.843 298.095 118.268C302.27 126.119 306.396 133.995 310.547 141.871C310.672 142.096 310.772 142.296 310.897 142.496C310.997 142.471 311.097 142.446 311.197 142.421Z" fill="white"/>
<path d="M459.469 101.415C456.218 101.415 453.068 101.415 449.742 101.415C449.742 94.9392 449.742 88.4883 449.742 81.9373C444.742 81.9373 439.891 81.9373 434.915 81.9373C434.915 88.4133 434.915 94.8892 434.915 101.415C431.565 101.415 428.364 101.415 425.064 101.415C425.064 86.1379 425.064 70.8606 425.064 55.5083C428.314 55.5083 431.54 55.5083 434.89 55.5083C434.89 61.5092 434.89 67.4601 434.89 73.486C439.841 73.486 444.692 73.486 449.692 73.486C449.692 67.5101 449.692 61.5342 449.692 55.5083C453.018 55.5083 456.218 55.5083 459.494 55.5083C459.469 70.7606 459.469 86.0129 459.469 101.415Z" fill="white"/>
<path d="M300.695 64.8097C296.745 63.4845 292.819 62.8844 288.768 62.9594C281.867 63.1095 277.617 66.735 276.467 73.511C276.316 74.4612 276.116 75.4113 276.166 76.3614C276.291 79.1869 276.241 82.0373 276.792 84.7877C277.967 90.7136 281.767 93.7891 287.793 94.0891C289.368 94.1641 290.944 94.0891 292.619 94.0891C292.619 90.0885 292.619 86.3629 292.619 82.5124C290.619 82.5124 288.593 82.5124 286.493 82.5124C286.493 79.787 286.493 77.1866 286.493 74.5362C291.769 74.5362 296.995 74.5362 302.295 74.5362C302.32 74.8612 302.395 75.1863 302.395 75.5113C302.395 83.2875 302.395 91.0887 302.42 98.8648C302.42 99.6149 302.195 99.99 301.495 100.24C294.194 102.64 286.818 103.29 279.417 100.99C272.891 98.9398 268.865 94.3641 267.065 87.8632C265.44 81.9873 265.365 75.9864 266.89 70.0855C269.115 61.3342 275.291 56.1334 284.393 54.9832C289.794 54.3081 295.119 54.7832 300.345 56.2584C301.345 56.5335 301.745 56.9335 301.545 58.0837C301.17 60.259 300.995 62.4344 300.695 64.8097Z" fill="white"/>
<path d="M479.297 63.6345C479.297 67.0351 479.297 70.2605 479.297 73.6611C484.648 73.6611 489.974 73.6611 495.399 73.6611C495.399 76.4365 495.399 79.0869 495.399 81.8373C490.074 81.8373 484.748 81.8373 479.322 81.8373C479.322 85.6378 479.322 89.3134 479.322 93.114C485.773 93.114 492.299 93.114 498.9 93.114C498.9 95.9144 498.9 98.5898 498.9 101.365C489.098 101.365 479.247 101.365 469.345 101.365C469.345 86.0629 469.345 70.8106 469.345 55.4833C479.022 55.4833 488.623 55.4833 498.3 55.4833C498.3 58.1837 498.3 60.8841 498.3 63.6345C491.999 63.6345 485.723 63.6345 479.297 63.6345Z" fill="white"/>
<path d="M366.255 63.6345C366.255 67.0601 366.255 70.3106 366.255 73.6861C371.631 73.6861 376.957 73.6861 382.382 73.6861C382.382 76.4615 382.382 79.1119 382.382 81.8623C377.007 81.8623 371.706 81.8623 366.305 81.8623C366.305 85.6629 366.305 89.3384 366.305 93.164C372.806 93.164 379.307 93.164 385.908 93.164C385.908 95.9394 385.908 98.5898 385.908 101.34C376.081 101.34 366.255 101.34 356.328 101.34C356.328 86.1129 356.328 70.8606 356.328 55.5083C365.93 55.5083 375.506 55.5083 385.208 55.5083C385.208 58.1587 385.208 60.8341 385.208 63.6345C378.932 63.6345 372.656 63.6345 366.255 63.6345Z" fill="white"/>
<path d="M435.04 117.243C438.341 117.243 441.441 117.243 444.767 117.243C444.767 117.743 444.767 118.243 444.767 118.718C444.767 127.719 444.742 136.696 444.792 145.697C444.792 147.147 444.942 148.622 445.317 149.998C446.092 152.898 448.242 154.198 451.768 154.123C454.868 154.073 456.819 152.623 457.519 149.772C457.819 148.522 457.944 147.222 457.969 145.947C457.994 136.921 457.994 127.894 457.994 118.843C457.994 118.343 457.994 117.843 457.994 117.293C461.194 117.293 464.295 117.293 467.57 117.293C467.57 117.743 467.57 118.193 467.57 118.618C467.57 127.994 467.62 137.346 467.545 146.722C467.52 148.747 467.27 150.798 466.77 152.748C465.62 157.249 462.669 160.199 458.194 161.499C453.693 162.799 449.117 162.799 444.617 161.524C438.841 159.874 436.04 155.698 435.315 149.947C435.14 148.597 435.09 147.222 435.09 145.847C435.065 136.846 435.09 127.869 435.09 118.868C435.04 118.343 435.04 117.868 435.04 117.243Z" fill="white"/>
<path d="M327.824 151.423C329.524 152.148 331.125 152.923 332.8 153.523C335.05 154.348 337.401 154.673 339.801 154.398C342.126 154.148 343.752 152.898 344.252 150.973C344.852 148.747 344.277 146.872 342.276 145.522C340.851 144.547 339.226 143.847 337.676 143.046C336.125 142.246 334.525 141.546 333 140.696C328.074 137.896 326.224 133.545 326.874 128.069C327.624 121.618 331.375 117.768 337.951 116.743C342.351 116.067 346.652 116.567 350.828 118.218C351.553 118.493 351.853 118.843 351.703 119.668C351.328 121.868 351.053 124.094 350.778 126.069C348.052 125.544 345.402 124.894 342.726 124.544C341.551 124.394 340.201 124.619 339.051 125.019C335.9 126.094 335.25 129.995 337.901 131.995C339.176 132.97 340.701 133.62 342.126 134.345C343.902 135.245 345.777 135.97 347.477 136.996C352.803 140.146 354.878 145.147 353.678 151.648C352.653 157.224 348.852 161.024 342.951 162.024C337.601 162.949 332.425 162.224 327.524 159.799C326.774 159.424 326.524 159.024 326.699 158.174C327.149 155.948 327.449 153.673 327.824 151.423Z" fill="white"/>
<path d="M389.458 55.4583C399.435 55.4583 409.336 55.4583 419.338 55.4583C419.338 58.1587 419.338 60.8341 419.338 63.6845C416.112 63.6845 412.837 63.6845 409.461 63.6845C409.461 76.3114 409.461 88.7633 409.461 101.34C406.086 101.34 402.81 101.34 399.385 101.34C399.385 88.8633 399.385 76.3614 399.385 63.7596C396.009 63.7596 392.759 63.7596 389.433 63.7596C389.458 60.9841 389.458 58.3087 389.458 55.4583Z" fill="white"/>
<path d="M373.806 161.574C370.481 161.574 367.355 161.574 364.08 161.574C364.08 149.472 364.08 137.396 364.08 125.219C360.979 125.219 358.029 125.219 355.003 125.219C355.003 122.518 355.003 119.918 355.003 117.268C364.28 117.268 373.506 117.268 382.857 117.268C382.857 119.843 382.857 122.443 382.857 125.169C379.882 125.169 376.907 125.169 373.831 125.169C373.806 137.371 373.806 149.397 373.806 161.574Z" fill="white"/>
<path d="M402.585 125.219C402.585 122.418 402.585 119.868 402.585 117.243C411.887 117.243 421.113 117.243 430.415 117.243C430.415 119.868 430.415 122.468 430.415 125.144C427.439 125.144 424.489 125.144 421.388 125.144C421.388 137.321 421.388 149.372 421.388 161.524C418.088 161.524 414.962 161.524 411.687 161.524C411.687 149.422 411.687 137.396 411.687 125.219C408.586 125.219 405.636 125.219 402.585 125.219Z" fill="white"/>
<path d="M269.29 161.549C269.29 146.747 269.29 132.045 269.29 117.268C272.491 117.268 275.641 117.268 278.917 117.268C278.917 131.995 278.917 146.722 278.917 161.549C275.766 161.549 272.591 161.549 269.29 161.549Z" fill="white"/>
<path d="M387.858 117.243C391.134 117.243 394.284 117.243 397.51 117.243C397.51 132.02 397.51 146.722 397.51 161.524C394.309 161.524 391.134 161.524 387.858 161.524C387.858 146.797 387.858 132.07 387.858 117.243Z" fill="white"/>
</g>
<defs>
<clipPath id="clip0_2_80">
<rect width="500" height="234.06" fill="white"/>
</clipPath>
</defs>
</svg>
