<?xml version="1.0" encoding="utf-8"?>
<!-- Generator: Adobe Illustrator 24.3.0, SVG Export Plug-In . SVG Version: 6.00 Build 0)  -->
<svg version="1.1" id="Layer_1" xmlns="http://www.w3.org/2000/svg" xmlns:xlink="http://www.w3.org/1999/xlink" x="0px" y="0px"
	 width="547.6px" height="55px" viewBox="0 0 547.6 55" style="enable-background:new 0 0 547.6 55;" xml:space="preserve">
<style type="text/css">
	.st0{fill:#1D1D1B;}
	.st1{clip-path:url(#SVGID_2_);fill:none;stroke:#1D1D1B;stroke-width:1.9705;stroke-linecap:round;stroke-linejoin:round;}
	.st2{fill:#FFFFFF;}
	.st3{clip-path:url(#SVGID_4_);fill:none;stroke:#FFFFFF;stroke-width:0.2059;stroke-linecap:round;stroke-linejoin:round;}
</style>
<g>
	<g>
		<path d="M133,48.3h-6.8c-0.5,0-0.7-0.2-0.7-0.7V4.1c0-0.5,0.2-0.7,0.7-0.7h6.8c0.4,0,0.7,0.2,0.7,0.7v43.5
			C133.7,48.1,133.5,48.3,133,48.3z"/>
		<path d="M178.9,40.5c0,0.7-1,2.8-3.4,5.3c-2.1,2.2-5.2,3.3-9.2,3.3h-3.5c-8.1,0-13.3-5.1-13.3-12.6V15.3c0-7.6,5.3-12.6,13.3-12.6
			h3.5c3.2,0,5.8,0.7,8.1,2.4c2.8,2.1,4.6,5.3,4.6,6.1c0,0.3-0.2,0.4-0.4,0.6l-6.2,3.1c-0.1,0.1-0.3,0.1-0.4,0.1
			c-0.4,0-0.6-0.4-1-1.2c-1.2-2.2-2.6-3.4-4.6-3.4h-3.5c-2.9,0-5.1,2.3-5.1,5.1v21.1c0,2.9,2.3,5.1,5.1,5.1h3.5
			c2.1,0,3.4-1.1,4.6-3.4c0.4-0.9,0.7-1.4,1.1-1.4c0.2,0,0.2,0,0.4,0.1l6.2,3.1C178.7,40,178.9,40.2,178.9,40.5z"/>
		<path d="M218.9,10.9h-10.1c-0.5,0-0.7,0.2-0.7,0.7v36c0,0.5-0.2,0.7-0.7,0.7h-6.7c-0.5,0-0.7-0.2-0.7-0.7v-36
			c0-0.5-0.2-0.7-0.7-0.7h-10.1c-0.5,0-0.7-0.2-0.7-0.7V4.1c0-0.5,0.2-0.7,0.7-0.7H219c0.4,0,0.7,0.2,0.7,0.7v6.1
			C219.6,10.7,219.4,10.9,218.9,10.9z"/>
		<path d="M249.4,49h-5.9c-8.1,0-13.3-5.1-13.3-12.6V15.3c0-7.6,5.3-12.6,13.3-12.6h5.9c8,0,13.3,5.1,13.3,12.6v21.1
			C262.6,44,257.3,49,249.4,49z M254.4,15.3c0-2.9-2.2-5.1-5.1-5.1h-5.9c-2.9,0-5.1,2.3-5.1,5.1v21.1c0,2.9,2.3,5.1,5.1,5.1h5.9
			c2.9,0,5.1-2.2,5.1-5.1V15.3z"/>
		<path d="M112.8,16c0,0.2,0,6.3,0,6.5c0,7.3-5.3,12.6-13.3,12.6h-7.8c-0.5,0-0.7,0.2-0.7,0.7v11.8c0,0.5-0.2,0.7-0.7,0.7h-6.8
			c-0.5,0-0.7-0.2-0.7-0.7V4.1c0-0.5,0.2-0.7,0.7-0.7h16C107.3,3.4,112.5,8.3,112.8,16z M104.6,16c0-2.8-2.3-5.1-5.1-5.1h-7.8
			c-0.5,0-0.7,0.2-0.7,0.7v15.3c0,0.5,0.2,0.7,0.7,0.7h7.8c2.9,0,5.1-2.3,5.1-5.1V16z"/>
		<path d="M547.5,20.7v-5.4c0-7.6-5.3-12.6-13.2-12.6h-6.6c-8,0-13.3,5.1-13.3,12.6v5.4l0,0v26.9c0,0.5,0.2,0.7,0.7,0.7h6.7
			c0.5,0,0.7-0.2,0.7-0.7V36.4v-0.6c0-0.5,0.2-0.7,0.7-0.7h15.4c0.5,0,0.7,0.2,0.7,0.7v0.6l0,0v11.2c0,0.5,0.2,0.7,0.7,0.7h6.8
			c0.5,0,0.7-0.2,0.7-0.7L547.5,20.7C547.6,20.7,547.5,20.7,547.5,20.7z M522.5,15.3c0-2.9,2.3-5.1,5.1-5.1h6.6
			c2.8,0,5.1,2.2,5.1,5.1v11.6c0,0.5-0.2,0.7-0.7,0.7h-15.5c-0.5,0-0.7-0.2-0.7-0.7v-0.6v-5.6l0,0v-5.4H522.5z"/>
		<path d="M345.5,48.3h-22.8c-0.5,0-0.7-0.2-0.7-0.7V4.1c0-0.5,0.2-0.7,0.7-0.7h6.8c0.4,0,0.7,0.2,0.7,0.7v36c0,0.5,0.2,0.7,0.7,0.7
			h14.6c0.4,0,0.7,0.2,0.7,0.7v6.1C346.2,48.1,346,48.3,345.5,48.3z"/>
		<path d="M415.5,15.3c0,3.3,3.3,4.3,8.3,6.6c7.6,3.5,11.2,7.4,11.2,14.5c0,7.6-5.2,12.6-13.3,12.6h-2.9c-4.1,0-7.1-1.1-9.3-3.4
			c-2.4-2.4-3.3-4.5-3.3-5.2c0-0.1,0.1-0.3,0.4-0.5l6.2-3.1c0.1-0.1,0.2-0.1,0.4-0.1c0.5,0,0.6,0.7,1.3,2.1c0.8,1.5,2.6,2.6,4.2,2.6
			h2.9c2.8,0,5.1-2.3,5.1-5.1c0-3.6-3-4.8-7.6-7.1c-7.8-3.8-11.8-7-11.8-14c0-7.6,5.3-12.6,13.3-12.6h1.1c3.3,0,5.8,0.7,8.1,2.4
			c2.8,2,4.6,5.2,4.6,6.1c0,0.3-0.2,0.4-0.4,0.6l-6.2,3.1c-0.2,0.1-0.3,0.1-0.4,0.1c-0.4,0-0.5-0.4-0.9-1.1
			c-1.4-2.3-2.6-3.6-4.8-3.6h-1.1C417.9,10.2,415.5,12.4,415.5,15.3z"/>
		<path d="M308,16c0,0.2,0,6.3,0,6.5c0,7.3-5.3,12.6-13.3,12.6H287c-0.5,0-0.7,0.2-0.7,0.7v11.8c0,0.5-0.2,0.7-0.7,0.7h-6.8
			c-0.5,0-0.7-0.2-0.7-0.7V4.1c0-0.5,0.2-0.7,0.7-0.7h16C302.6,3.4,307.7,8.3,308,16z M299.8,16c0-2.8-2.3-5.1-5.1-5.1H287
			c-0.5,0-0.7,0.2-0.7,0.7v15.3c0,0.5,0.2,0.7,0.7,0.7h7.8c2.8,0,5.1-2.3,5.1-5.1V16H299.8z"/>
		<path d="M392.4,20.7v-5.4c0-7.6-5.3-12.6-13.3-12.6h-6.6c-8,0-13.3,5.1-13.3,12.6v5.4l0,0v26.9c0,0.5,0.2,0.7,0.7,0.7h6.7
			c0.5,0,0.7-0.2,0.7-0.7V36.4v-0.6c0-0.5,0.2-0.7,0.7-0.7h15.4c0.5,0,0.7,0.2,0.7,0.7v0.6l0,0v11.2c0,0.5,0.2,0.7,0.7,0.7h6.8
			c0.5,0,0.7-0.2,0.7-0.7L392.4,20.7C392.4,20.7,392.4,20.7,392.4,20.7z M367.4,15.3c0-2.9,2.3-5.1,5.1-5.1h6.6
			c2.9,0,5.1,2.2,5.1,5.1v11.6c0,0.5-0.2,0.7-0.7,0.7h-15.4c-0.5,0-0.7-0.2-0.7-0.7v-0.6v-5.6l0,0V15.3z"/>
		<path d="M499.4,15.3c0-7.6-5.3-12.6-13.3-12.6h-2.6c-3.8,0-6.9,1.2-9.2,3.1c-2.3-2-5.4-3.1-9.2-3.1h-2.6c-8,0-13.3,5.1-13.3,12.6
			v10.1c0,0,0,0,0,0.1v22.1c0,0.5,0.2,0.7,0.7,0.7h6.7c0.5,0,0.7-0.2,0.7-0.7V34l0,0V15.3c0-2.9,2.3-5.1,5.1-5.1h2.6
			c2.8,0,5.1,2.2,5.1,5.1V34l0,0v13.6c0,0.5,0.2,0.7,0.7,0.7h6.8c0.5,0,0.7-0.2,0.7-0.7V34l0,0V15.3c0-0.1,0-0.1,0-0.2
			c0.1-2.8,2.3-4.9,5.1-4.9h2.6c2.9,0,5.1,2.2,5.1,5.1V34l0,0v13.6c0,0.5,0.2,0.7,0.7,0.7h6.8c0.5,0,0.7-0.2,0.7-0.7V34l0,0
			L499.4,15.3L499.4,15.3z"/>
	</g>
</g>
<g>
	<path class="st0" d="M1,39.6c0,3.1,2.5,5.6,5.6,5.6h23c3.1,0,7.2,1.9,9.2,4.2l2.8,3.2c2,2.3,3.6,1.7,3.6-1.3V6.6
		c0-3.1-2.5-5.6-5.6-5.6h-33C3.5,1,1,3.5,1,6.6V39.6L1,39.6z"/>
	<g>
		<g>
			<defs>
				<rect id="SVGID_1_" width="46.1" height="55"/>
			</defs>
			<clipPath id="SVGID_2_">
				<use xlink:href="#SVGID_1_"  style="overflow:visible;"/>
			</clipPath>
			<path class="st1" d="M1,39.6c0,3.1,2.5,5.6,5.6,5.6h23c3.1,0,7.2,1.9,9.2,4.2l2.8,3.2c2,2.3,3.6,1.7,3.6-1.3V6.6
				c0-3.1-2.5-5.6-5.6-5.6h-33C3.5,1,1,3.5,1,6.6V39.6L1,39.6z"/>
		</g>
	</g>
	<path class="st2" d="M30.6,28.3c-5.1,2.3-12.6-0.1-13-3.5c-0.3-3.2,3.5-4.1,8.3-7.5c4.6-3.3,10.2-2,11.5,1
		C38.7,21.4,36.1,25.8,30.6,28.3L30.6,28.3z M28.5,32.4c-0.4,0.9-1.4,1.2-2.2,0.8c-0.8-0.4-1.8-1.7-1.4-2.6s2-0.8,2.8-0.5
		C28.6,30.3,28.9,31.5,28.5,32.4L28.5,32.4z M23,35.5c-1.3,0.6-2.9,0-3.6-1.8c-0.7-1.7-1.5-4.6-0.2-5.3c1.3-0.6,4.2,1.3,4.9,3
		C24.8,33,24.3,34.9,23,35.5L23,35.5z M16.2,33.8c-2.5,1.6-5.3,0.5-6.8-2.2c-1.6-2.7-1.8-7.1,1-8c3.1-1,5.4-0.3,6.7,2.5
		C18.6,29.6,18.7,32.2,16.2,33.8L16.2,33.8z M6.7,23.4c-0.3-0.7,0-1.6,0.7-1.9c0.8-0.4,2.3,0.4,2.6,1.1s-0.8,1.3-1.5,1.5
		C7.7,24.3,7,24.1,6.7,23.4L6.7,23.4z M11.2,12.2c2.7-1.3,5.9,0,7.1,2.9c1.2,2.9,3.4,6.2-2.6,7.6c-2.8,0.7-5.9,0-7.1-2.9
		C7.3,17,8.5,13.5,11.2,12.2L11.2,12.2z M20.7,16.1c0.7-0.6,1.7-0.6,2.3,0.1c0.6,0.7,0.5,1.8-0.2,2.4s-1.9,1.4-2.5,0.7
		C19.8,18.6,20,16.8,20.7,16.1L20.7,16.1z M24.6,14.6c0.8-0.4,1.8-0.1,2.1,0.8c0.2,0.6,0,1.1-0.8,1.5c-0.8,0.4-1.5,0.7-2,0.1
		C23.4,16.1,23.9,15,24.6,14.6L24.6,14.6z M27.7,12.9c0.7-0.3,1.4-0.1,1.7,0.6c0.3,0.6,0,1.4-0.7,1.8c-0.7,0.3-1.4,0.1-1.7-0.6
		C26.7,14,27,13.2,27.7,12.9L27.7,12.9z M30.5,14.7c0.5-0.8,0.7-1.5,0.2-2.4c-0.6-0.9-1.8-1.2-2.7-0.8C27.1,12,26.2,13,26.5,14
		c-0.5-0.6-1.3-0.9-2-0.6c-0.9,0.4-1.3,1.3-1.3,2.1c0,0-0.6-1.2-2.1-0.8c-0.7,0.2-1.2,0.6-1.4,2.1c-1.2-7.4-6.5-7.6-9.5-6.2
		c-3,1.5-4.1,5.5-2.7,8.8c0.3,0.7,0.2,0.6,0.8,1.4c-0.6-0.2-1.3-0.3-2.2,0.4c-0.8,0.7-1,1.8-0.6,2.8s2.1,1.1,2.6,0.9
		C2.7,35,16.4,40.5,18.4,32.6c0.3,1.5,0.6,2,1.1,2.8c1.2,2.1,2.9,3,4.5,2.2c1.3-0.6,1.6-2.8,1.3-4.5c2.1,1.5,4.1,1.6,5,0
		c1.1-2-0.8-3.3-0.8-3.3C45.9,24.7,43.1,10.8,30.5,14.7L30.5,14.7z"/>
	<g>
		<g>
			<defs>
				<rect id="SVGID_3_" width="46.1" height="55"/>
			</defs>
			<clipPath id="SVGID_4_">
				<use xlink:href="#SVGID_3_"  style="overflow:visible;"/>
			</clipPath>
			<path class="st3" d="M30.6,28.3c-5.1,2.3-12.6-0.1-13-3.5c-0.3-3.2,3.5-4.1,8.3-7.5c4.6-3.3,10.2-2,11.5,1
				C38.7,21.4,36.1,25.8,30.6,28.3L30.6,28.3z M28.5,32.4c-0.4,0.9-1.4,1.2-2.2,0.8c-0.8-0.4-1.8-1.7-1.4-2.6s2-0.8,2.8-0.5
				C28.6,30.3,28.9,31.5,28.5,32.4L28.5,32.4z M23,35.5c-1.3,0.6-2.9,0-3.6-1.8c-0.7-1.7-1.5-4.6-0.2-5.3c1.3-0.6,4.2,1.3,4.9,3
				C24.8,33,24.3,34.9,23,35.5L23,35.5z M16.2,33.8c-2.5,1.6-5.3,0.5-6.8-2.2c-1.6-2.7-1.8-7.1,1-8c3.1-1,5.4-0.3,6.7,2.5
				C18.6,29.6,18.7,32.2,16.2,33.8L16.2,33.8z M6.7,23.4c-0.3-0.7,0-1.6,0.7-1.9c0.8-0.4,2.3,0.4,2.6,1.1s-0.8,1.3-1.5,1.5
				C7.7,24.3,7,24.1,6.7,23.4L6.7,23.4z M11.2,12.2c2.7-1.3,5.9,0,7.1,2.9c1.2,2.9,3.4,6.2-2.6,7.6c-2.8,0.7-5.9,0-7.1-2.9
				C7.3,17,8.5,13.5,11.2,12.2L11.2,12.2z M20.7,16.1c0.7-0.6,1.7-0.6,2.3,0.1c0.6,0.7,0.5,1.8-0.2,2.4s-1.9,1.4-2.5,0.7
				C19.8,18.6,20,16.8,20.7,16.1L20.7,16.1z M24.6,14.6c0.8-0.4,1.8-0.1,2.1,0.8c0.2,0.6,0,1.1-0.8,1.5c-0.8,0.4-1.5,0.7-2,0.1
				C23.4,16.1,23.9,15,24.6,14.6L24.6,14.6z M27.7,12.9c0.7-0.3,1.4-0.1,1.7,0.6c0.3,0.6,0,1.4-0.7,1.8c-0.7,0.3-1.4,0.1-1.7-0.6
				C26.7,14,27,13.2,27.7,12.9L27.7,12.9z M30.5,14.7c0.5-0.8,0.7-1.5,0.2-2.4c-0.6-0.9-1.8-1.2-2.7-0.8C27.1,12,26.2,13,26.5,14
				c-0.5-0.6-1.3-0.9-2-0.6c-0.9,0.4-1.3,1.3-1.3,2.1c0,0-0.6-1.2-2.1-0.8c-0.7,0.2-1.2,0.6-1.4,2.1c-1.2-7.4-6.5-7.6-9.5-6.2
				c-3,1.5-4.1,5.5-2.7,8.8c0.3,0.7,0.2,0.6,0.8,1.4c-0.6-0.2-1.3-0.3-2.2,0.4c-0.8,0.7-1,1.8-0.6,2.8s2.1,1.1,2.6,0.9
				C2.7,35,16.4,40.5,18.4,32.6c0.3,1.5,0.6,2,1.1,2.8c1.2,2.1,2.9,3,4.5,2.2c1.3-0.6,1.6-2.8,1.3-4.5c2.1,1.5,4.1,1.6,5,0
				c1.1-2-0.8-3.3-0.8-3.3C45.9,24.7,43.1,10.8,30.5,14.7L30.5,14.7z"/>
		</g>
	</g>
</g>
</svg>
