<svg width="517" height="144" viewBox="0 0 517 144" fill="none" xmlns="http://www.w3.org/2000/svg">
<path d="M49.057 28.282H67.68V58.862C72.05 54.954 76.19 53.457 82.395 53.457C98.029 53.457 109.297 65.645 109.297 82.428C109.297 90.592 106.308 98.293 101.249 103.469C96.647 108.18 90.558 110.481 82.967 110.481C75.381 110.481 70.896 108.643 66.871 104.045V108.527H49.057V28.282ZM66.414 81.855C66.414 89.789 71.242 95.193 78.37 95.193C85.499 95.193 89.869 90.365 89.869 82.433C89.869 74.384 85.384 69.326 78.144 69.326C71.016 69.326 66.414 74.385 66.414 81.855Z" fill="white"/>
<path d="M154.134 104.85C149.306 109.221 145.971 110.481 138.615 110.481C130.22 110.481 124.242 108.18 119.53 103.237C114.47 97.948 111.828 90.592 111.828 82.083C111.828 65.414 122.865 53.688 138.384 53.688C145.166 53.688 148.959 55.18 154.134 60.013V55.416H171.953V108.528H154.134V104.85ZM131.14 82.66C131.14 90.592 135.511 95.305 142.866 95.305C149.995 95.305 154.592 90.131 154.592 82.082C154.592 74.496 149.995 69.322 143.098 69.322C136.199 69.326 131.14 74.957 131.14 82.66Z" fill="white"/>
<path d="M177.128 55.416H194.947V62.083C198.855 55.989 202.763 53.804 209.204 53.804C210.471 53.804 211.273 53.919 215.64 54.377V71.392C213.455 70.816 212.305 70.704 210.813 70.704C200.926 70.704 195.751 75.993 195.751 86.106V108.522H177.128V55.416Z" fill="white"/>
<path d="M218.859 28.282H237.483V58.862C241.853 54.954 245.988 53.457 252.197 53.457C267.832 53.457 279.099 65.645 279.099 82.428C279.099 90.592 276.111 98.293 271.052 103.469C266.454 108.18 260.361 110.481 252.775 110.481C245.189 110.481 240.703 108.643 236.679 104.045V108.527H218.859V28.282ZM236.217 81.855C236.217 89.789 241.045 95.193 248.174 95.193C255.303 95.193 259.669 90.365 259.669 82.433C259.669 74.384 255.188 69.326 247.944 69.326C240.814 69.326 236.217 74.385 236.217 81.855Z" fill="white"/>
<path d="M302.32 40.008C302.32 45.755 297.723 50.357 291.971 50.357C286.339 50.357 281.738 45.76 281.738 40.008C281.738 34.376 286.335 29.775 291.971 29.775C297.724 29.779 302.32 34.376 302.32 40.008ZM282.777 55.416H301.4V108.528H282.777V55.416Z" fill="white"/>
<path d="M347.619 106.227C339.918 110.02 337.155 110.713 330.719 110.713C323.36 110.713 317.613 108.758 313.588 104.734C308.303 99.675 305.31 91.742 305.31 82.775C305.31 65.302 316 53.345 331.524 53.345C337.503 53.345 341.526 54.495 347.62 58.173V76.797C343.25 71.623 340.491 70.014 336.011 70.014C329.228 70.014 325.089 74.612 325.089 82.086C325.089 89.445 329.228 94.043 335.895 94.043C340.15 94.043 343.255 92.436 347.621 88.064V106.227H347.619Z" fill="white"/>
<path d="M391.879 104.85C387.051 109.221 383.715 110.481 376.36 110.481C367.965 110.481 361.992 108.18 357.275 103.237C352.216 97.948 349.574 90.592 349.574 82.083C349.574 65.414 360.611 53.688 376.129 53.688C382.912 53.688 386.705 55.18 391.879 60.013V55.416H409.698V108.528H391.879V104.85ZM368.885 82.66C368.885 90.592 373.251 95.305 380.612 95.305C387.74 95.305 392.337 90.131 392.337 82.082C392.337 74.496 387.74 69.322 380.843 69.322C373.944 69.326 368.885 74.957 368.885 82.66Z" fill="white"/>
<path d="M414.873 55.416H433.266V61.51C437.978 55.416 442.118 53.462 449.707 53.462C457.986 53.462 464.885 56.798 467.988 62.314C469.596 65.188 470.405 68.523 470.405 72.663V108.532H451.781V79.333C451.781 72.206 449.138 68.87 443.503 68.87C437.524 68.87 433.5 73.009 433.5 79.333V108.532H414.877V55.416H414.873Z" fill="white"/>
</svg>
