<?xml version="1.0" encoding="iso-8859-1"?>
<!-- Generator: Adobe Illustrator 16.0.0, SVG Export Plug-In . SVG Version: 6.00 Build 0)  -->
<!DOCTYPE svg PUBLIC "-//W3C//DTD SVG 1.1//EN" "http://www.w3.org/Graphics/SVG/1.1/DTD/svg11.dtd">
<svg version="1.1" id="Layer_1" xmlns="http://www.w3.org/2000/svg" xmlns:xlink="http://www.w3.org/1999/xlink" x="0px" y="0px"
	 width="517px" height="144px" viewBox="150.5 156.5 517 144" style="enable-background:new 150.5 156.5 517 144;"
	 xml:space="preserve">
<g>
	<path d="M199.557,184.782h18.623v30.58c4.37-3.908,8.51-5.405,14.715-5.405c15.634,0,26.902,12.188,26.902,28.971
		c0,8.164-2.989,15.865-8.048,21.041c-4.602,4.711-10.691,7.012-18.282,7.012c-7.586,0-12.071-1.838-16.096-6.436v4.482h-17.814
		V184.782z M216.914,238.355c0,7.934,4.828,13.338,11.956,13.338c7.129,0,11.499-4.828,11.499-12.76
		c0-8.049-4.485-13.107-11.725-13.107C221.516,225.826,216.914,230.885,216.914,238.355z"/>
	<path d="M304.634,261.35c-4.828,4.371-8.163,5.631-15.519,5.631c-8.395,0-14.373-2.301-19.085-7.244
		c-5.06-5.289-7.702-12.645-7.702-21.154c0-16.669,11.037-28.395,26.556-28.395c6.782,0,10.575,1.492,15.75,6.325v-4.597h17.819
		v53.112h-17.819V261.35z M281.64,239.16c0,7.932,4.371,12.645,11.726,12.645c7.129,0,11.726-5.174,11.726-13.223
		c0-7.586-4.597-12.76-11.494-12.76C286.699,225.826,281.64,231.457,281.64,239.16z"/>
	<path d="M327.628,211.916h17.819v6.667c3.908-6.094,7.816-8.279,14.257-8.279c1.267,0,2.069,0.115,6.436,0.573v17.015
		c-2.185-0.576-3.335-0.688-4.827-0.688c-9.887,0-15.062,5.289-15.062,15.402v22.416h-18.623V211.916z"/>
	<path d="M369.359,184.782h18.624v30.58c4.37-3.908,8.505-5.405,14.714-5.405c15.635,0,26.902,12.188,26.902,28.971
		c0,8.164-2.988,15.865-8.047,21.041c-4.598,4.711-10.691,7.012-18.277,7.012s-12.072-1.838-16.096-6.436v4.482h-17.82V184.782
		L369.359,184.782z M386.717,238.355c0,7.934,4.828,13.338,11.957,13.338s11.495-4.828,11.495-12.76
		c0-8.049-4.481-13.107-11.725-13.107C391.314,225.826,386.717,230.885,386.717,238.355z"/>
	<path d="M452.82,196.508c0,5.747-4.597,10.349-10.349,10.349c-5.632,0-10.233-4.597-10.233-10.349
		c0-5.632,4.597-10.233,10.233-10.233C448.224,186.279,452.82,190.876,452.82,196.508z M433.277,211.916H451.9v53.112h-18.623
		V211.916z"/>
	<path d="M498.119,262.727c-7.701,3.793-10.464,4.486-16.9,4.486c-7.359,0-13.106-1.955-17.131-5.979
		c-5.285-5.059-8.278-12.992-8.278-21.959c0-17.473,10.69-29.43,26.214-29.43c5.979,0,10.002,1.15,16.096,4.828v18.624
		c-4.37-5.174-7.129-6.783-11.609-6.783c-6.783,0-10.922,4.598-10.922,12.072c0,7.359,4.139,11.957,10.806,11.957
		c4.255,0,7.36-1.607,11.726-5.979V262.727L498.119,262.727z"/>
	<path d="M542.379,261.35c-4.828,4.371-8.164,5.631-15.519,5.631c-8.395,0-14.368-2.301-19.085-7.244
		c-5.059-5.289-7.701-12.645-7.701-21.154c0-16.669,11.037-28.395,26.555-28.395c6.783,0,10.576,1.492,15.75,6.325v-4.597h17.819
		v53.112h-17.819V261.35L542.379,261.35z M519.385,239.16c0,7.932,4.366,12.645,11.727,12.645c7.128,0,11.725-5.174,11.725-13.223
		c0-7.586-4.597-12.76-11.494-12.76C524.444,225.826,519.385,231.457,519.385,239.16z"/>
	<path d="M565.373,211.916h18.393v6.094c4.712-6.094,8.852-8.048,16.441-8.048c8.279,0,15.178,3.336,18.281,8.852
		c1.608,2.874,2.417,6.209,2.417,10.349v35.869h-18.624v-29.199c0-7.127-2.643-10.463-8.278-10.463
		c-5.979,0-10.003,4.139-10.003,10.463v29.199h-18.623v-53.116H565.373z"/>
</g>
</svg>
