<svg width="226" height="101" viewBox="0 0 226 101" fill="none" xmlns="http://www.w3.org/2000/svg">
<path d="M23.2877 23.2872H60.4042V77.1419H23.2877V23.2872ZM20.9235 79.5061H62.7684V20.9235H20.9235V79.5061Z" fill="white"/>
<path d="M103.865 46.8524H102.325V54.6431H103.865V46.8524Z" fill="white"/>
<path d="M103.087 43.0397C102.952 43.041 102.819 43.0692 102.695 43.1226C102.571 43.176 102.459 43.2536 102.366 43.3509C102.272 43.4481 102.199 43.563 102.15 43.6889C102.101 43.8148 102.078 43.9491 102.082 44.084C102.079 44.2181 102.102 44.3515 102.151 44.4763C102.2 44.6012 102.273 44.7149 102.367 44.8108C102.461 44.9067 102.573 44.9827 102.697 45.0345C102.82 45.0862 102.953 45.1125 103.087 45.1119C103.222 45.1128 103.356 45.0868 103.481 45.0354C103.606 44.984 103.719 44.9082 103.814 44.8125C103.909 44.7168 103.984 44.603 104.035 44.478C104.086 44.3529 104.111 44.2189 104.109 44.084C104.111 43.9482 104.086 43.8134 104.036 43.6872C103.985 43.5611 103.911 43.4462 103.816 43.3491C103.721 43.252 103.607 43.1747 103.482 43.1216C103.357 43.0685 103.223 43.0407 103.087 43.0397Z" fill="white"/>
<path d="M99.8443 42.8739H98.3041V54.6436H99.8443V42.8739Z" fill="white"/>
<path d="M109.995 46.6867C109.143 46.6806 108.322 47.0077 107.709 47.5983V46.8524H106.216V54.6436H107.757V49.2893C108.013 48.95 108.344 48.6736 108.723 48.481C109.103 48.2885 109.521 48.185 109.946 48.1782C110.249 48.1775 110.548 48.2458 110.82 48.378C111.093 48.5101 111.332 48.7027 111.519 48.9409C111.882 49.4692 112.043 50.1105 111.973 50.7477V54.6435H113.513V50.8309C113.595 49.8493 113.331 48.8699 112.767 48.0624C112.442 47.6351 112.023 47.2886 111.542 47.05C111.061 46.8113 110.532 46.687 109.995 46.6867Z" fill="white"/>
<path d="M79.7708 48.1288C80.0493 47.8596 80.2715 47.5378 80.4246 47.1821C80.5778 46.8264 80.6588 46.4439 80.6629 46.0566C80.6648 45.6445 80.5823 45.2363 80.4206 44.8571C80.2589 44.478 80.0214 44.1359 79.7227 43.8519C79.4069 43.5681 79.0378 43.3501 78.6369 43.2107C78.2359 43.0712 77.8112 43.0131 77.3875 43.0397H73.5286V54.6436H77.9063C78.8018 54.7043 79.6874 54.4261 80.3872 53.8641C80.8261 53.499 81.168 53.0311 81.3824 52.502C81.5968 51.9728 81.6771 51.3989 81.6161 50.8312C81.5551 50.2636 81.3547 49.7198 81.0327 49.2483C80.7108 48.7768 80.2773 48.3922 79.7708 48.1288ZM75.1501 44.6145H77.0954C78.0034 44.6145 78.3927 44.7966 78.652 45.0951C78.9026 45.3723 79.0413 45.7327 79.0413 46.1064C79.0413 46.4801 78.9026 46.8405 78.652 47.1177C78.3927 47.4162 78.0034 47.5983 77.0954 47.5983H75.1501V44.6145ZM79.4792 52.472C79.2298 52.7001 78.9339 52.8715 78.612 52.9745C78.2901 53.0774 77.9497 53.1095 77.6142 53.0684H75.1501V49.173H77.6142C77.9497 49.132 78.2901 49.1641 78.6121 49.2672C78.934 49.3702 79.2298 49.5417 79.4792 49.7699C79.8225 50.1327 80.0139 50.6131 80.0142 51.1125C80.0139 51.617 79.8227 52.1026 79.4792 52.472Z" fill="white"/>
<path d="M93.7157 47.7476V46.8524H92.224V54.6435H93.7643V49.4878C93.9705 49.1146 94.2671 48.7991 94.6269 48.5703C94.9867 48.3415 95.3982 48.2067 95.8237 48.1782C96.0258 48.172 96.2279 48.1945 96.4237 48.245L96.6017 46.7362C96.4034 46.7038 96.2027 46.6873 96.0017 46.6866C95.5639 46.6699 95.1284 46.7574 94.731 46.9419C94.3335 47.1263 93.9856 47.4025 93.7157 47.7476Z" fill="white"/>
<path d="M204.232 50.7477C204.281 50.2335 204.223 49.7146 204.06 49.2243C203.897 48.734 203.634 48.2831 203.286 47.9007C202.939 47.5183 202.515 47.2127 202.043 47.0036C201.571 46.7945 201.06 46.6864 200.543 46.6864C200.026 46.6864 199.516 46.7945 199.043 47.0036C198.571 47.2127 198.147 47.5183 197.8 47.9007C197.453 48.2831 197.189 48.734 197.026 49.2243C196.863 49.7146 196.805 50.2335 196.854 50.7477C196.835 51.2761 196.922 51.803 197.112 52.2966C197.301 52.7903 197.589 53.2404 197.957 53.6199C198.325 53.9995 198.766 54.3005 199.254 54.5049C199.742 54.7093 200.266 54.8129 200.794 54.8093C201.406 54.8308 202.014 54.7102 202.571 54.4571C203.128 54.2039 203.619 53.8252 204.005 53.3504L202.999 52.3725C202.742 52.7066 202.41 52.9763 202.03 53.1604C201.65 53.3445 201.233 53.438 200.811 53.4335C200.177 53.4306 199.568 53.1849 199.11 52.7471C198.651 52.3092 198.378 51.7124 198.346 51.0794H204.215C204.227 50.9692 204.233 50.8585 204.232 50.7477ZM198.476 49.7535C198.594 49.274 198.869 48.8475 199.256 48.5413C199.644 48.2351 200.122 48.0666 200.616 48.0624C201.091 48.0808 201.547 48.257 201.911 48.5632C202.275 48.8695 202.527 49.2883 202.627 49.7535H198.476Z" fill="white"/>
<path d="M195.119 42.8739H193.579V54.6436H195.119V42.8739Z" fill="white"/>
<path d="M86.7594 46.6867C86.2439 46.6938 85.7353 46.8065 85.265 47.0176C84.7947 47.2288 84.3726 47.534 84.0248 47.9144C83.6769 48.2949 83.4106 48.7426 83.2423 49.2299C83.074 49.7171 83.0072 50.2337 83.0461 50.7478C83.0266 51.2762 83.1142 51.8031 83.3037 52.2967C83.4932 52.7904 83.7808 53.2405 84.149 53.62C84.5171 53.9996 84.9584 54.3006 85.446 54.505C85.9337 54.7094 86.4577 54.813 86.9865 54.8094C87.5979 54.8308 88.206 54.7102 88.763 54.4571C89.3201 54.2039 89.8108 53.8252 90.1968 53.3505L89.1916 52.3725C88.9337 52.7067 88.6018 52.9764 88.222 53.1605C87.8422 53.3446 87.4248 53.4381 87.0028 53.4336C86.3688 53.4306 85.7601 53.185 85.3016 52.7472C84.8432 52.3093 84.5698 51.7125 84.5378 51.0794H90.4075C90.4193 50.9693 90.4248 50.8585 90.4239 50.7478C90.4624 50.2378 90.3969 49.7253 90.2315 49.2413C90.066 48.7574 89.8041 48.3121 89.4614 47.9323C89.1188 47.5526 88.7026 47.2464 88.2382 47.0323C87.7737 46.8182 87.2706 46.7006 86.7594 46.6867ZM84.6677 49.7536C84.786 49.274 85.0606 48.8475 85.4481 48.5413C85.8357 48.2351 86.3141 48.0666 86.808 48.0624C87.2834 48.0809 87.7391 48.2571 88.1032 48.5633C88.4673 48.8696 88.7191 49.2883 88.8188 49.7535L84.6677 49.7536Z" fill="white"/>
<path d="M118.913 46.6867C118.397 46.6938 117.889 46.8065 117.418 47.0176C116.948 47.2288 116.526 47.534 116.178 47.9144C115.83 48.2949 115.564 48.7426 115.396 49.2298C115.227 49.7171 115.161 50.2337 115.199 50.7477C115.18 51.2761 115.267 51.803 115.457 52.2966C115.646 52.7903 115.934 53.2404 116.302 53.6199C116.67 53.9995 117.111 54.3005 117.599 54.5049C118.087 54.7093 118.611 54.8129 119.139 54.8093C119.751 54.8308 120.359 54.7102 120.916 54.4571C121.473 54.204 121.964 53.8252 122.35 53.3504L121.345 52.3725C121.087 52.7066 120.755 52.9763 120.375 53.1604C119.995 53.3445 119.578 53.438 119.156 53.4335C118.522 53.4306 117.913 53.1849 117.455 52.7471C116.996 52.3092 116.723 51.7124 116.691 51.0794H122.561C122.572 50.9692 122.578 50.8585 122.577 50.7477C122.615 50.2378 122.55 49.7253 122.385 49.2413C122.219 48.7574 121.957 48.3121 121.615 47.9324C121.272 47.5526 120.856 47.2464 120.391 47.0323C119.927 46.8182 119.424 46.7006 118.913 46.6867ZM116.821 49.7536C116.939 49.2741 117.214 48.8476 117.601 48.5414C117.989 48.2352 118.467 48.0667 118.961 48.0625C119.436 48.0809 119.892 48.2571 120.256 48.5633C120.62 48.8695 120.872 49.2883 120.972 49.7536H116.821Z" fill="white"/>
<path d="M167.037 49.9524C166.274 49.7535 165.674 49.5709 165.674 49.0404C165.674 48.4272 166.307 48.0625 167.053 48.0625C167.652 48.0771 168.229 48.2931 168.69 48.6757L169.485 47.5488C168.773 46.966 167.875 46.6599 166.955 46.6866C166.608 46.6494 166.256 46.684 165.923 46.7883C165.589 46.8925 165.28 47.0642 165.016 47.2927C164.751 47.5212 164.537 47.8016 164.385 48.1166C164.233 48.4315 164.148 48.7742 164.134 49.1235C164.164 49.6042 164.352 50.0616 164.668 50.4244C164.985 50.7872 165.413 51.0351 165.885 51.1293C167.004 51.5104 168.268 51.5599 168.268 52.4552C168.268 53.0684 167.604 53.4335 166.939 53.4335C166.112 53.409 165.317 53.105 164.685 52.571L163.891 53.7315C164.756 54.4479 165.849 54.8303 166.972 54.8094C167.316 54.8442 167.663 54.8097 167.994 54.7077C168.324 54.6058 168.631 54.4385 168.895 54.2159C169.16 53.9932 169.377 53.7197 169.534 53.4116C169.691 53.1034 169.784 52.7669 169.809 52.422C169.809 50.8141 168.236 50.2672 167.037 49.9524Z" fill="white"/>
<path d="M160.031 44.6972H158.491V46.8524H156.546V48.2614H158.491V51.8251C158.435 52.5682 158.654 53.306 159.107 53.8973C159.376 54.2001 159.71 54.4392 160.083 54.5969C160.456 54.7547 160.859 54.8273 161.264 54.8093C161.67 54.8134 162.074 54.7576 162.464 54.6435L162.156 53.2178C161.879 53.2835 161.596 53.3169 161.312 53.3172C161.117 53.3253 160.923 53.2926 160.742 53.2213C160.56 53.1499 160.396 53.0415 160.258 52.903C160.072 52.6069 159.992 52.2561 160.031 51.9083V48.2614H162.464V46.8524H160.031L160.031 44.6972Z" fill="white"/>
<path d="M177.332 47.184C176.768 46.8497 176.123 46.6776 175.468 46.6867C174.592 46.6729 173.742 46.9861 173.084 47.5652V46.8524H171.592V58.622H173.133V53.9635C173.767 54.524 174.589 54.8259 175.435 54.8093C176.107 54.8083 176.767 54.631 177.349 54.2952C177.952 53.923 178.449 53.4003 178.79 52.7785C179.131 52.1566 179.305 51.4569 179.294 50.7477C179.302 50.035 179.125 49.3324 178.782 48.708C178.438 48.0836 177.939 47.5586 177.332 47.184ZM175.224 53.3172C174.813 53.3087 174.41 53.2038 174.046 53.011C173.683 52.8181 173.37 52.5426 173.133 52.2067V49.2893C173.384 48.9481 173.711 48.6701 174.088 48.4772C174.465 48.2843 174.882 48.182 175.305 48.1782C175.636 48.1807 175.963 48.2498 176.267 48.3813C176.571 48.5129 176.846 48.7042 177.074 48.9439C177.303 49.1837 177.48 49.4669 177.597 49.7768C177.714 50.0867 177.767 50.4169 177.754 50.7477C177.761 51.0837 177.701 51.4177 177.576 51.73C177.452 52.0423 177.267 52.3266 177.031 52.5661C176.795 52.8056 176.514 52.9955 176.204 53.1245C175.893 53.2535 175.56 53.319 175.224 53.3172Z" fill="white"/>
<path d="M182.618 46.8524H181.078V54.6431H182.618V46.8524Z" fill="white"/>
<path d="M152.735 49.9524C151.973 49.7535 151.373 49.5709 151.373 49.0404C151.373 48.4272 152.006 48.0625 152.752 48.0625C153.351 48.0772 153.928 48.2932 154.389 48.6757L155.183 47.5488C154.472 46.966 153.574 46.6599 152.654 46.6866C152.307 46.6494 151.955 46.684 151.622 46.7883C151.288 46.8925 150.979 47.0642 150.715 47.2927C150.45 47.5212 150.235 47.8016 150.084 48.1165C149.932 48.4315 149.847 48.7742 149.833 49.1235C149.863 49.6042 150.05 50.0615 150.367 50.4243C150.684 50.7871 151.112 51.035 151.584 51.1293C152.703 51.5104 153.968 51.5599 153.968 52.4552C153.968 53.0684 153.303 53.4335 152.638 53.4335C151.811 53.409 151.016 53.105 150.384 52.571L149.59 53.7315C150.455 54.4478 151.548 54.8303 152.67 54.8094C153.014 54.8442 153.362 54.8097 153.692 54.7077C154.023 54.6058 154.329 54.4385 154.594 54.2159C154.859 53.9933 155.076 53.7198 155.233 53.4116C155.39 53.1035 155.483 52.7669 155.508 52.422C155.508 50.8141 153.935 50.2672 152.735 49.9524Z" fill="white"/>
<path d="M133.879 54.644H135.5V49.1733H139.229V47.5987H135.5V44.6147H140.364V43.04H133.879V54.644Z" fill="white"/>
<path d="M125.917 47.7477V46.8524H124.425V54.6436H125.966V49.4878C126.172 49.1146 126.468 48.7992 126.828 48.5704C127.188 48.3416 127.599 48.2067 128.025 48.1782C128.227 48.172 128.429 48.1945 128.625 48.245L128.803 46.7362C128.604 46.7038 128.404 46.6873 128.203 46.6866C127.765 46.6699 127.33 46.7574 126.932 46.9418C126.535 47.1263 126.187 47.4025 125.917 47.7477Z" fill="white"/>
<path d="M181.84 43.0397C181.705 43.041 181.572 43.0692 181.448 43.1226C181.324 43.176 181.212 43.2536 181.118 43.3508C181.024 43.4481 180.951 43.563 180.903 43.6889C180.854 43.8148 180.831 43.9491 180.835 44.084C180.831 44.2181 180.854 44.3515 180.903 44.4763C180.952 44.6012 181.026 44.7149 181.12 44.8108C181.213 44.9067 181.325 44.9828 181.449 45.0345C181.573 45.0862 181.706 45.1125 181.84 45.1119C181.975 45.1128 182.109 45.0868 182.233 45.0354C182.358 44.984 182.471 44.9082 182.567 44.8125C182.662 44.7168 182.737 44.603 182.787 44.478C182.838 44.3529 182.863 44.2189 182.861 44.084C182.863 43.9482 182.839 43.8134 182.788 43.6873C182.738 43.5611 182.663 43.4462 182.568 43.3491C182.473 43.2521 182.36 43.1747 182.235 43.1216C182.11 43.0685 181.976 43.0407 181.84 43.0397Z" fill="white"/>
<path d="M188.164 46.6867C187.648 46.6938 187.139 46.8065 186.669 47.0176C186.199 47.2288 185.777 47.534 185.429 47.9144C185.081 48.2949 184.815 48.7426 184.646 49.2299C184.478 49.7171 184.411 50.2337 184.45 50.7478C184.431 51.2762 184.518 51.8031 184.708 52.2967C184.897 52.7903 185.185 53.2405 185.553 53.62C185.921 53.9995 186.362 54.3006 186.85 54.505C187.337 54.7094 187.861 54.8129 188.39 54.8094C189.002 54.8308 189.61 54.7103 190.167 54.4571C190.724 54.204 191.215 53.8252 191.601 53.3505L190.595 52.3725C190.337 52.7067 190.006 52.9764 189.626 53.1605C189.246 53.3446 188.829 53.4381 188.407 53.4336C187.773 53.4306 187.164 53.185 186.706 52.7471C186.247 52.3093 185.974 51.7125 185.942 51.0794H191.812C191.823 50.9692 191.829 50.8585 191.828 50.7478C191.866 50.2378 191.801 49.7253 191.635 49.2414C191.47 48.7574 191.208 48.3121 190.865 47.9324C190.523 47.5527 190.107 47.2465 189.642 47.0323C189.178 46.8182 188.675 46.7006 188.164 46.6867ZM186.072 49.7536C186.19 49.274 186.465 48.8475 186.852 48.5413C187.24 48.2351 187.718 48.0666 188.212 48.0625C188.687 48.0809 189.143 48.2572 189.507 48.5634C189.871 48.8696 190.123 49.2884 190.222 49.7536H186.072Z" fill="white"/>
<path d="M144.531 46.6867C144.015 46.6938 143.507 46.8065 143.036 47.0176C142.566 47.2288 142.144 47.534 141.796 47.9145C141.448 48.2949 141.182 48.7426 141.014 49.2299C140.845 49.7172 140.779 50.2337 140.818 50.7478C140.798 51.2762 140.886 51.8031 141.075 52.2967C141.265 52.7904 141.552 53.2405 141.92 53.62C142.289 53.9996 142.73 54.3006 143.217 54.505C143.705 54.7094 144.229 54.8129 144.758 54.8094C145.369 54.8308 145.977 54.7102 146.534 54.457C147.091 54.2039 147.582 53.8252 147.968 53.3505L146.963 52.3725C146.705 52.7066 146.373 52.9763 145.993 53.1604C145.614 53.3445 145.196 53.438 144.774 53.4336C144.14 53.4306 143.532 53.185 143.073 52.7472C142.615 52.3093 142.341 51.7125 142.309 51.0794H148.179C148.191 50.9693 148.196 50.8585 148.195 50.7478C148.234 50.2378 148.168 49.7253 148.003 49.2413C147.838 48.7574 147.576 48.312 147.233 47.9323C146.89 47.5526 146.474 47.2464 146.01 47.0323C145.545 46.8182 145.042 46.7006 144.531 46.6867ZM142.439 49.7536C142.557 49.274 142.832 48.8475 143.22 48.5413C143.607 48.2351 144.086 48.0667 144.579 48.0625C145.055 48.0809 145.511 48.2572 145.875 48.5634C146.239 48.8696 146.49 49.2884 146.59 49.7536H142.439Z" fill="white"/>
<path d="M104.751 65.5115C104.063 65.4869 103.377 65.6086 102.738 65.8686C102.1 66.1286 101.524 66.521 101.048 67.0199C100.573 67.5187 100.209 68.1128 99.9794 68.7628C99.7503 69.4128 99.6616 70.104 99.7192 70.7909C99.6575 71.4768 99.7426 72.1681 99.969 72.8186C100.195 73.4691 100.558 74.0639 101.032 74.5635C101.506 75.063 102.081 75.4558 102.719 75.7157C103.357 75.9755 104.043 76.0966 104.731 76.0707C107.102 76.0707 109.02 74.936 109.474 72.709H107.329C107.152 73.251 106.797 73.7172 106.322 74.0317C105.846 74.3463 105.278 74.4906 104.71 74.4413C104.323 74.4348 103.942 74.3514 103.587 74.196C103.233 74.0405 102.913 73.8162 102.646 73.536C102.38 73.2558 102.171 72.9253 102.034 72.5638C101.896 72.2023 101.831 71.817 101.844 71.4303H109.639V70.7295C109.639 67.347 107.68 65.5115 104.751 65.5115ZM101.864 69.9042C101.903 69.1533 102.228 68.4459 102.773 67.9279C103.318 67.4099 104.041 67.1208 104.793 67.1204C105.158 67.1141 105.521 67.1822 105.859 67.3204C106.198 67.4587 106.504 67.6642 106.761 67.9245C107.017 68.1848 107.218 68.4945 107.351 68.8348C107.484 69.1751 107.547 69.539 107.535 69.9042H101.864Z" fill="white"/>
<path d="M94.5225 65.5115C92.1511 65.5115 90.2742 66.5426 90.1711 68.7287H92.2747C92.3573 67.6772 93.1408 67.1204 94.5226 67.1204C95.9043 67.1204 96.8945 67.6359 96.8945 68.9762V69.4096L93.0995 70.0487C91.2436 70.3784 89.8205 71.3272 89.8205 73.1423C89.8205 75.0809 91.4085 76.0706 93.2644 76.0706C93.9893 76.1191 94.7146 75.9816 95.3715 75.6712C96.0284 75.3608 96.5952 74.8877 97.018 74.2969V75.8849H98.9152V69.1825C98.9152 66.6457 97.2446 65.5115 94.5225 65.5115ZM96.8944 71.5957C96.8925 71.9984 96.8065 72.3962 96.642 72.7637C96.4775 73.1313 96.2382 73.4605 95.9392 73.7302C95.6402 74 95.2883 74.2044 94.9058 74.3304C94.5234 74.4563 94.1188 74.5011 93.7181 74.4618C92.5222 74.4618 91.8622 73.9258 91.8622 73.1214C91.8622 72.2144 92.4396 71.7192 93.6977 71.4921L96.8944 70.9561V71.5957Z" fill="white"/>
<path d="M112.815 67.6977V65.7182H110.835V75.8848H112.918V70.5642C112.883 70.1777 112.93 69.7881 113.058 69.4216C113.185 69.055 113.39 68.7199 113.657 68.4388C113.925 68.1576 114.249 67.9368 114.609 67.7912C114.969 67.6457 115.356 67.5786 115.743 67.5946C116.053 67.5946 116.382 67.5946 116.733 67.615V65.5528C116.465 65.5324 116.3 65.5324 116.176 65.5324C115.461 65.5006 114.753 65.6919 114.151 66.0798C113.549 66.4677 113.082 67.033 112.815 67.6977Z" fill="white"/>
<path d="M81.2413 73.5747L76.7867 61.572H73.528V75.8853H75.6534V63.9853L80.0453 75.8853H82.396L86.8094 63.9853V75.8853H88.9333V61.572H85.696L81.2413 73.5747Z" fill="white"/>
<path d="M152.19 71.2864C152.234 71.6639 152.2 72.0465 152.089 72.4101C151.978 72.7736 151.793 73.1103 151.546 73.3989C151.298 73.6876 150.994 73.9219 150.651 74.0871C150.309 74.2524 149.936 74.345 149.556 74.3591C148.218 74.3591 147.347 73.596 147.347 71.6365V65.7182H145.223V72.173C145.223 74.5653 146.497 76.0706 148.855 76.0706C149.524 76.1053 150.191 75.9659 150.791 75.6659C151.39 75.3659 151.901 74.9157 152.275 74.3591V75.8853H154.314V65.7182H152.19V71.2864Z" fill="white"/>
<path d="M169.124 61.8823H166.663V63.9649H169.124V61.8823Z" fill="white"/>
<path d="M168.956 65.7182H166.831V75.8853H168.956V65.7182Z" fill="white"/>
<path d="M176.449 69.7813L180.636 65.7187H177.996L173.397 70.1733V61.5733H171.315V75.8853H173.397V72.544L174.861 71.1L178.284 75.8853H180.78L176.449 69.7813Z" fill="white"/>
<path d="M135.589 73.5747L131.136 61.5733H127.877V75.8853H130.001V63.9853L134.393 75.8853H136.745L141.159 63.9853V75.8853H143.281V61.5733H140.044L135.589 73.5747Z" fill="white"/>
<path d="M117.311 67.4707H122.817L117.021 74.3587V75.8853H125.56V74.1107H119.744L125.56 67.244V65.7187H117.311V67.4707Z" fill="white"/>
<path d="M162.067 70.1104L159.816 69.6776C158.796 69.4713 158.244 69.1207 158.244 68.4402C158.244 67.6567 159.072 67.0999 160.368 67.0999C161.727 67.0999 162.598 67.6976 162.662 68.7082H164.807C164.765 66.543 162.683 65.5119 160.41 65.5119C157.904 65.5119 156.12 66.7079 156.12 68.5847C156.12 70.1517 157.139 71.0801 159.051 71.4303L161.324 71.8636C162.343 72.0494 162.896 72.4414 162.896 73.101C162.896 73.8849 162.237 74.5036 160.602 74.5036C158.966 74.5036 158.138 73.7609 158.053 72.709H155.843C155.886 74.7715 157.628 76.0706 160.517 76.0706C163.363 76.0706 164.999 74.8129 164.999 72.9565C164.998 71.3891 163.979 70.4615 162.067 70.1104Z" fill="white"/>
</svg>
