<svg id="Layer_1" data-name="Layer 1" xmlns="http://www.w3.org/2000/svg" width="59.57205mm" height="26.57mm" viewBox="0 0 168.86565 75.31654"><title>BFS_Logo_mono_RGB_css</title><path d="M17.46574,17.46539h27.8374V57.85647H17.46574ZM15.6926,59.62961H47.07627V15.6926H15.6926Z"/><rect x="76.74396" y="35.13929" width="1.15515" height="5.84302"/><path d="M77.31555,32.27979a.76137.76137,0,0,0-.75384.78321.75066.75066,0,0,0,.75384.77093.76106.76106,0,0,0,.76618-.77093A.77176.77176,0,0,0,77.31555,32.27979Z"/><rect x="73.72809" y="32.15546" width="1.15515" height="8.82721"/><path d="M82.496,35.015a2.44766,2.44766,0,0,0-1.71454.68372v-.55939H79.66235v5.84338h1.15522V36.967a2.1,2.1,0,0,1,1.642-.83332,1.4945,1.4945,0,0,1,1.17939.572,2.00487,2.00487,0,0,1,.34063,1.3551v2.92187h1.15522V38.12318a3.1649,3.1649,0,0,0-.55939-2.07636A2.61443,2.61443,0,0,0,82.496,35.015Z"/><path d="M59.82812,36.09657a2.19436,2.19436,0,0,0,.66907-1.55408,2.26769,2.26769,0,0,0-.7052-1.65357,2.39524,2.39524,0,0,0-1.75134-.60913H55.14642v8.70288h3.28327a2.6817,2.6817,0,0,0,1.86072-.58459,2.5976,2.5976,0,0,0-.46229-4.30151Zm-3.46557-2.63569h1.459c.681,0,.973.1366,1.16748.36042a1.13126,1.13126,0,0,1,0,1.517c-.19451.22382-.48645.36042-1.16748.36042h-1.459ZM59.60938,39.354a1.75648,1.75648,0,0,1-1.39875.44733H56.36255V36.87977h1.84808a1.75643,1.75643,0,0,1,1.39875.44763,1.46652,1.46652,0,0,1,.4013,1.007A1.49879,1.49879,0,0,1,59.60938,39.354Z"/><path d="M70.28674,35.81074v-.67145H69.168v5.84338h1.15521V37.11585a1.91015,1.91015,0,0,1,1.54456-.98218,1.6042,1.6042,0,0,1,.45.05011l.13354-1.13165a2.85484,2.85484,0,0,0-.45-.03717A2.07633,2.07633,0,0,0,70.28674,35.81074Z"/><path d="M153.17383,38.0608a2.77932,2.77932,0,1,0-5.533,0,2.93715,2.93715,0,0,0,2.95489,3.0462,2.96911,2.96911,0,0,0,2.40778-1.09417l-.75391-.73346a2.04616,2.04616,0,0,1-1.6416.79577,1.85948,1.85948,0,0,1-1.84845-1.76562h4.402A2.16912,2.16912,0,0,0,153.17383,38.0608Zm-4.3169-.74567a1.66755,1.66755,0,0,1,1.60486-1.26831,1.60575,1.60575,0,0,1,1.50812,1.26831Z"/><rect x="145.18433" y="32.15546" width="1.15515" height="8.82721"/><path d="M65.06952,35.015a2.83235,2.83235,0,0,0-2.78491,3.04584,2.93745,2.93745,0,0,0,2.95526,3.0462,2.96964,2.96964,0,0,0,2.40777-1.09417l-.7539-.73346a2.04631,2.04631,0,0,1-1.64166.79577,1.85975,1.85975,0,0,1-1.84876-1.76562h4.40234a2.16912,2.16912,0,0,0,.01227-.24872A2.83367,2.83367,0,0,0,65.06952,35.015Zm-1.56873,2.30017A1.66785,1.66785,0,0,1,65.106,36.04682a1.60606,1.60606,0,0,1,1.50811,1.26831Z"/><path d="M89.18451,35.015A2.83239,2.83239,0,0,0,86.3996,38.0608a2.93715,2.93715,0,0,0,2.95489,3.0462,2.969,2.969,0,0,0,2.40778-1.09417l-.75385-.73346a2.04639,2.04639,0,0,1-1.64166.79577,1.85938,1.85938,0,0,1-1.84839-1.76562h4.402a2.16912,2.16912,0,0,0,.01227-.24872A2.8334,2.8334,0,0,0,89.18451,35.015Zm-1.56873,2.30017a1.6675,1.6675,0,0,1,1.60486-1.26831,1.60568,1.60568,0,0,1,1.50806,1.26831Z"/><path d="M125.27747,37.4643c-.572-.14917-1.02161-.28613-1.02161-.684,0-.4599.47418-.73346,1.03351-.73346a2.00057,2.00057,0,0,1,1.22809.4599l.59619-.84515a2.86314,2.86314,0,0,0-1.89716-.64661,1.91354,1.91354,0,0,0-2.11584,1.82764,1.6367,1.6367,0,0,0,1.31323,1.50439c.83905.28577,1.78747.32294,1.78747.99439,0,.4599-.49841.73376-.99713.73376a2.74592,2.74592,0,0,1-1.69037-.64691l-.59576.87036a3.51913,3.51913,0,0,0,2.31067.80841,1.93719,1.93719,0,0,0,2.12775-1.79053C127.35651,38.11054,126.17712,37.70039,125.27747,37.4643Z"/><path d="M120.02344,33.5229h-1.15515v1.61639h-1.45905v1.05676h1.45905v2.67279a2.27094,2.27094,0,0,0,.46228,1.55414,2.04239,2.04239,0,0,0,1.61743.684,3.09117,3.09117,0,0,0,.89972-.12433l-.231-1.06933a2.74534,2.74534,0,0,1-.63263.07458,1.051,1.051,0,0,1-.79034-.31067,1.15363,1.15363,0,0,1-.17035-.746V36.19605h1.82428V35.13929h-1.82428Z"/><path d="M132.99921,35.388a2.67012,2.67012,0,0,0-1.39838-.373,2.64255,2.64255,0,0,0-1.78778.65888v-.53455h-1.11878V43.9665h1.15522V40.47266a2.53314,2.53314,0,0,0,1.7268.63434,2.88045,2.88045,0,0,0,1.43518-.38562,3.071,3.071,0,0,0,1.459-2.66058A3.102,3.102,0,0,0,132.99921,35.388Zm-1.581,4.59991a1.97055,1.97055,0,0,1-1.56872-.83288V36.967a2.045,2.045,0,0,1,1.62933-.83332,1.852,1.852,0,0,1,1.83655,1.92713A1.88757,1.88757,0,0,1,131.41821,39.98792Z"/><rect x="135.80829" y="35.13929" width="1.15521" height="5.84302"/><path d="M114.55145,37.4643c-.57165-.14917-1.02166-.28613-1.02166-.684,0-.4599.47454-.73346,1.03393-.73346a2.00154,2.00154,0,0,1,1.22809.4599l.59576-.84515a2.86208,2.86208,0,0,0-1.89679-.64661,1.91385,1.91385,0,0,0-2.11615,1.82764,1.63711,1.63711,0,0,0,1.31324,1.50439c.83905.28577,1.78778.32294,1.78778.99439,0,.4599-.49872.73376-.99713.73376a2.74559,2.74559,0,0,1-1.69031-.64691l-.59583.87036a3.519,3.519,0,0,0,2.31037.80841,1.93747,1.93747,0,0,0,2.128-1.79053C116.6308,38.11054,115.45148,37.70039,114.55145,37.4643Z"/><polygon points="100.409 40.983 101.625 40.983 101.625 36.88 104.422 36.88 104.422 35.699 101.625 35.699 101.625 33.461 105.273 33.461 105.273 32.28 100.409 32.28 100.409 40.983"/><path d="M94.43787,35.81074v-.67145H93.31879v5.84338H94.4743V37.11585a1.91009,1.91009,0,0,1,1.54419-.98218,1.604,1.604,0,0,1,.45.05011l.13354-1.13165a2.85032,2.85032,0,0,0-.44965-.03717A2.07575,2.07575,0,0,0,94.43787,35.81074Z"/><path d="M136.37994,32.27979a.76139.76139,0,0,0-.7539.78321.75068.75068,0,0,0,.7539.77093.761.761,0,0,0,.76612-.77093A.77171.77171,0,0,0,136.37994,32.27979Z"/><path d="M141.12262,35.015a2.83235,2.83235,0,0,0-2.78491,3.04584,2.93715,2.93715,0,0,0,2.95489,3.0462,2.96911,2.96911,0,0,0,2.40778-1.09417l-.75385-.73346a2.04639,2.04639,0,0,1-1.64166.79577,1.85948,1.85948,0,0,1-1.84845-1.76562h4.40234a2.22306,2.22306,0,0,0,.012-.24872A2.83343,2.83343,0,0,0,141.12262,35.015Zm-1.56873,2.30017a1.66758,1.66758,0,0,1,1.60517-1.26831,1.60567,1.60567,0,0,1,1.50775,1.26831Z"/><path d="M108.39807,35.015a2.83234,2.83234,0,0,0-2.78485,3.04584,2.9374,2.9374,0,0,0,2.9552,3.0462,2.96967,2.96967,0,0,0,2.40778-1.09417l-.75385-.73346a2.047,2.047,0,0,1-1.64166.79577,1.85976,1.85976,0,0,1-1.84876-1.76562h4.40235a2.16912,2.16912,0,0,0,.01227-.24872A2.83368,2.83368,0,0,0,108.39807,35.015Zm-1.56872,2.30017a1.66789,1.66789,0,0,1,1.60522-1.26831,1.606,1.606,0,0,1,1.50806,1.26831Z"/><path d="M78.5636,49.13361a3.65643,3.65643,0,0,0-3.77423,3.95954A3.63668,3.63668,0,0,0,78.54822,57.053c1.77862,0,3.21686-.851,3.55719-2.52124H80.49683A1.8939,1.8939,0,0,1,78.53259,55.831a2.188,2.188,0,0,1-2.1499-2.25824h5.84637v-.52563C82.22906,50.51026,80.75983,49.13361,78.5636,49.13361ZM76.398,52.42817a2.20076,2.20076,0,0,1,2.19653-2.08789,2.02355,2.02355,0,0,1,2.057,2.08789Z"/><path d="M70.89191,49.13361c-1.77857,0-3.18622.77332-3.26355,2.41291H69.206c.062-.78864.6496-1.20624,1.68592-1.20624s1.77893.38666,1.77893,1.39191v.325l-2.84626.47931c-1.3919.24731-2.45922.95892-2.45922,2.32025,0,1.45392,1.191,2.19623,2.58294,2.19623a3.19941,3.19941,0,0,0,2.81519-1.33033v1.191H74.1864V51.88685C74.1864,49.98426,72.93347,49.13361,70.89191,49.13361Zm1.77893,4.56318a2.17057,2.17057,0,0,1-2.38227,2.14959c-.89691,0-1.3919-.402-1.3919-1.00531,0-.6803.433-1.05163,1.37658-1.222l2.39759-.402Z"/><path d="M84.61133,50.77326V49.28864H83.1264v7.625h1.56189V52.92316a2.0436,2.0436,0,0,1,2.11927-2.22723c.232,0,.47931,0,.74231.01532V49.16462c-.201-.01532-.32465-.01532-.41767-.01532A2.59255,2.59255,0,0,0,84.61133,50.77326Z"/><polygon points="60.931 55.181 57.59 46.179 55.146 46.179 55.146 56.914 56.74 56.914 56.74 47.989 60.034 56.914 61.797 56.914 65.107 47.989 65.107 56.914 66.7 56.914 66.7 46.179 64.272 46.179 60.931 55.181"/><path d="M114.14246,53.46479a2.06606,2.06606,0,0,1-1.9751,2.30457c-1.004,0-1.65735-.57233-1.65735-2.04194V49.28864h-1.5929v4.84113c0,1.79425.95588,2.92322,2.72425,2.92322a2.90747,2.90747,0,0,0,2.56482-1.28363V56.914h1.52954V49.28864h-1.59326Z"/><rect x="124.99725" y="46.41175" width="1.8457" height="1.56195"/><rect x="125.12329" y="49.28864" width="1.59363" height="7.62537"/><polygon points="132.337 52.336 135.477 49.289 133.497 49.289 130.048 52.63 130.048 46.18 128.486 46.18 128.486 56.914 130.048 56.914 130.048 54.408 131.146 53.325 133.713 56.914 135.585 56.914 132.337 52.336"/><polygon points="101.692 55.181 98.352 46.18 95.908 46.18 95.908 56.914 97.501 56.914 97.501 47.989 100.795 56.914 102.559 56.914 105.869 47.989 105.869 56.914 107.461 56.914 107.461 46.18 105.033 46.18 101.692 55.181"/><polygon points="87.983 50.603 92.113 50.603 87.766 55.769 87.766 56.914 94.17 56.914 94.17 55.583 89.808 55.583 94.17 50.433 94.17 49.289 87.983 49.289 87.983 50.603"/><path d="M121.55048,52.58283l-1.68866-.32464c-.76477-.15467-1.179-.41767-1.179-.928,0-.58765.62134-1.00525,1.593-1.00525,1.01959,0,1.673.4483,1.72064,1.20624h1.609c-.03168-1.6239-1.593-2.39722-3.29761-2.39722-1.87976,0-3.2182.897-3.2182,2.30457,0,1.17529.76477,1.87158,2.19861,2.13421l1.70465.325c.76446.13935,1.17871.43335,1.17871.928,0,.58795-.49365,1.05194-1.72034,1.05194s-1.84808-.557-1.9118-1.34594h-1.657c.032,1.54693,1.3385,2.52124,3.50506,2.52124,2.13458,0,3.36133-.9433,3.36133-2.33558C123.74878,53.54182,122.98431,52.84614,121.55048,52.58283Z"/></svg>