<svg viewBox="0 0 177 84" height="480" width="480" xmlns="http://www.w3.org/2000/svg">
    <path xmlns="http://www.w3.org/2000/svg" fill="#FFF" fill-rule="evenodd" d="M20.995 74.21l9.02 9.79h9.06L27.407 71.366l-6.412 2.844m55.963-1.035L52.325 60.436l-22.774 9.99L42.09 84H84V47.074L71.266 52.6l5.692 20.576M27.02 83.996H0v-.595l18.848-8.25 8.172 8.845m-5.513-39.468L4.267 59.333l6.223 6.74L0 70.73V.005h36.819L9.614 38.372l11.893 6.156m28.257 14.65l-21.712 9.555L0 80.928v-7.89l12.02-5.21 29.367-12.985 8.377 4.335m8.47-12.128l-4.193 1.837 5.488 2.83-1.294-4.667M73.49 68.886L58.255 13.85 32.061 37.552l6.306 3.16 16.514-14.066 8.083 29.328-40.47-20.621 8.34-11.429L47.854 0h-8.369L12.871 37.581l60.62 31.305m-33.07-27.06l11.12 5.755 6.103-2.677-3.97-14.355-13.253 11.277m-1.5 11.69l-7.079-3.6-12.034 9.978 1.35 1.484 17.764-7.861m31.756-3.06L84 44.762v-7.894L68.72 43.442l1.958 7.014m-44.83-15.958l4.04 2.013L59.43 9.829l8.704 31.47 15.865-6.902V0H50.555L25.847 34.498M23.56 45.637L7.434 59.514l5.2 5.617 6.411-2.811-2.44-2.633 13.127-10.86-6.173-3.19m141.023-8.268h-3.875v10.14h-1.92v-10.14h-3.876v-1.714h9.671v1.714zm-.7 35.318h-7.676V60.843h1.899v10.14h5.777v1.704zm-15.887-50.133h-1.832v-6.955c0-.243.01-.633.021-1.178 0-.215.01-.448.01-.683l-2.991 8.816h-1.792l-3.01-8.816c0 .176.01.361.02.575.01.585.018 1.013.018 1.286v6.955h-1.83V10.71h2.522l.038.116 3.157 9.243 3.156-9.36h2.513v11.845zm-3.497 20.61c-.37-.243-.954-.467-1.754-.652l-1.509-.35c-1.022-.244-1.725-.498-2.152-.79-.75-.516-1.131-1.285-1.131-2.289 0-1.08.371-1.977 1.092-2.669.73-.691 1.762-1.042 3.079-1.042 1.196 0 2.238.302 3.087.906.865.614 1.305 1.597 1.305 2.932v.165h-1.792l-.021-.155c-.066-.575-.213-1.023-.437-1.335-.42-.545-1.16-.828-2.182-.828-.828 0-1.433.176-1.783.536-.35.35-.534.76-.534 1.218 0 .506.193.857.603 1.09.281.156.945.36 1.976.614l1.569.36c.778.186 1.383.439 1.812.76.749.575 1.12 1.403 1.12 2.484 0 1.334-.477 2.299-1.432 2.873-.925.565-2.017.848-3.235.848-1.44 0-2.581-.38-3.4-1.14-.827-.76-1.226-1.792-1.217-3.078v-.165h1.804l.009.156c.03.623.175 1.13.419 1.51.459.7 1.295 1.061 2.483 1.061.545 0 1.042-.078 1.481-.244.828-.292 1.237-.808 1.237-1.568 0-.574-.165-.974-.497-1.208zm1.15 29.523l-1.208-3.438h-4.265l-1.249 3.438h-1.967l4.452-11.844h2.007l.038.117 4.256 11.727h-2.064zm-15.935-60.263h-3.877v10.13h-1.92v-10.13h-3.866V10.71h9.663v1.714zm-1.248 28.14v1.665h-6.31v3.565h6.944v1.715h-8.805V35.655h8.688v1.753h-6.827v3.156h6.31zm-3.136 32.123h-1.89l-4.324-11.844h2.094l3.184 9.429 3.138-9.429h2.123l-4.325 11.844zM112.832 18.18c-.136 1.247-.604 2.3-1.373 3.147-.936 1.022-2.21 1.539-3.789 1.539-1.355 0-2.514-.43-3.438-1.267-1.218-1.1-1.832-2.805-1.832-5.084 0-1.734.458-3.176 1.364-4.286.993-1.218 2.376-1.831 4.11-1.831 1.481 0 2.649.4 3.467 1.198.83.789 1.286 1.704 1.374 2.717l.021.186h-1.842l-.03-.127c-.166-.701-.487-1.266-.954-1.675-.477-.4-1.148-.604-2.016-.604-1.062 0-1.92.38-2.572 1.13-.653.769-.983 1.957-.983 3.555 0 1.305.302 2.376.896 3.185.593.799 1.451 1.188 2.63 1.188 1.071 0 1.871-.409 2.436-1.247.3-.448.515-1.032.671-1.772l.028-.137h1.852l-.02.185zm-.848 19.228h-6.419v3.156h5.64v1.714h-5.64v5.23h-1.898V35.656h8.317v1.753zm-8.21 35.28h1.919V60.843h-1.92v11.845zM92.085 83.996h84.001V.005h-84v83.991zm48.424-16.193h3.612l-1.77-5.082-1.842 5.082"></path>
</svg>