<svg width="300" height="74" viewBox="0 0 300 74" fill="none" xmlns="http://www.w3.org/2000/svg">
<path d="M194.53 1.8476C194.311 1.97286 192.996 5.69938 191.649 10.1148C190.271 14.5303 188.956 18.5386 188.706 19.071C187.985 20.4175 185.856 22.1399 183.319 23.3925C180.501 24.8017 179.781 24.6764 178.81 22.6722C178.215 21.4823 178.121 20.8873 178.246 18.8518C178.403 16.096 179.154 14.3424 180.689 13.0271C182.411 11.5866 183.82 12.1503 184.478 14.5303C184.854 15.9081 185.731 16.0334 187.046 14.9061C188.111 13.9979 188.111 13.1524 187.077 12.119C185.073 10.1148 182.505 10.2088 178.027 12.4948C174.363 14.3424 172.422 15.0939 171.733 14.8121C171.482 14.7182 170.762 13.9979 170.167 13.215C169.572 12.4322 168.789 11.5866 168.445 11.3361C167.568 10.7411 164.248 10.4906 162.651 10.929C161.148 11.3361 158.8 13.6534 158.737 14.7808C158.612 17.0668 158.8 17.4426 161.587 20.5428C163.841 23.0793 164.374 24.3946 163.653 25.5219C162.996 26.4927 161.931 26.7745 160.491 26.3048C159.238 25.8977 158.236 24.7077 157.516 22.7662C157.234 22.0459 156.827 21.4196 156.545 21.357C156.294 21.3257 155.104 21.8267 153.883 22.5157C152.693 23.2359 151.253 23.8935 150.658 23.9875C149.718 24.1754 149.624 24.1441 149.812 23.6117C149.906 23.2985 150.564 21.0438 151.284 18.6326C152.756 13.5282 153.132 12.8393 154.321 12.8393C155.449 12.8393 156.075 12.4008 155.856 11.7745C155.731 11.4614 155.292 11.2735 154.697 11.2735C153.57 11.2735 153.539 10.9603 154.353 8.29854C154.666 7.26514 155.01 5.88727 155.136 5.22965L155.355 4.07098H153.132C150.376 4.07098 149.906 4.47808 149.374 7.26514C148.904 9.80167 148.121 11.2109 146.962 11.4614C145.459 11.7745 145.303 11.8685 145.303 12.3382C145.303 12.62 145.741 12.9019 146.399 13.0271C147.651 13.2463 147.714 13.5282 147.025 15.8455C146.305 18.3194 144.363 20.7307 141.67 22.5157C140.355 23.3925 139.008 24.1127 138.664 24.1127C137.881 24.1127 137.944 23.7996 140.042 17.1608C140.887 14.4363 141.514 12.0877 141.42 11.9311C141.169 11.524 138.476 11.3048 137.349 11.618C136.347 11.8998 136.284 12.0251 135 16.096C133.81 19.8852 133.559 20.4175 132.432 21.4509C131.211 22.547 128.111 24.238 127.829 23.9562C127.735 23.8935 128.486 21.2004 129.489 17.9749C130.585 14.3737 131.148 12.0251 130.992 11.8685C130.647 11.524 129.833 11.4301 127.86 11.524C126.639 11.5866 126.482 11.7119 125.919 12.8079C125.574 13.4656 124.979 15.2818 124.603 16.785C123.977 19.3215 123.789 19.6973 122.411 21.0438C119.937 23.4864 113.205 26.4301 111.827 25.7098C110.386 24.9269 109.697 22.7036 110.793 22.3278C113.048 21.5449 116.054 19.8852 117.307 18.7578C119.123 17.0668 119.906 15.3758 119.937 13.2463V11.618L118.246 11.4301C114.708 10.9917 110.699 12.119 108.445 14.1858C107.035 15.501 104.906 19.2902 104.906 20.5428C104.906 21.5449 104.154 22.1399 100.052 24.4572C98.0793 25.5532 96.4509 26.5553 96.4509 26.6493C96.4509 26.7745 96.6388 27.0251 96.8893 27.2129C97.2338 27.4948 98.1106 27.2129 100.992 25.7724C103.466 24.5512 104.718 24.0814 104.812 24.3319C105.376 25.929 106.785 28.0898 107.474 28.4969C108.257 28.904 108.601 28.8413 112.641 27.5887C115.021 26.8685 118.152 25.7098 119.593 25.0209C121.033 24.3319 122.255 23.8309 122.317 23.8935C122.349 23.9248 122.161 24.7704 121.91 25.7724C121.503 27.1503 121.472 27.6514 121.754 27.9332C122.317 28.4969 124.478 27.8393 128.674 25.8038C130.647 24.8643 132.307 24.1754 132.37 24.238C132.463 24.3319 132.37 25.0522 132.213 25.8664C131.868 27.5261 131.994 28.1837 132.683 28.1837C133.466 28.1837 140.324 25.1775 142.328 23.9562C144.52 22.6409 144.582 22.7349 143.925 25.8038C143.58 27.4322 143.58 27.9645 143.862 28.0585C144.301 28.2463 146.775 27.4635 151.221 25.7411L154.478 24.4885L155.574 25.5846C157.015 27.0251 159.05 27.9019 161.399 28.0898C164.154 28.309 165.658 27.8079 167.192 26.1482C168.382 24.8643 168.476 24.6138 168.476 23.048C168.476 20.7307 168.132 19.9478 166.096 17.7557C163.278 14.7182 162.871 13.2463 164.562 12.4635C165.877 11.8685 167.255 12.7453 168.351 14.9061C169.572 17.286 169.854 17.4426 172.046 16.7537C173.017 16.4405 173.894 16.2839 174.019 16.3779C174.113 16.5031 174.019 17.1921 173.831 17.9749C173.643 18.7578 173.486 20.5428 173.486 21.9833C173.486 24.1754 173.612 24.8956 174.269 26.2109C175.585 28.81 175.459 28.81 180.157 26.7745C182.411 25.8038 185.042 24.5825 185.95 24.0814C186.889 23.5491 187.578 23.3299 187.578 23.5491C187.578 23.737 187.328 24.6764 187.046 25.6159C186.514 27.2756 186.514 27.3382 187.109 27.7766C187.547 28.1211 188.205 28.1837 189.426 28.0585C190.334 27.9958 191.148 27.8393 191.211 27.7766C191.273 27.714 192.119 25.428 193.09 22.6722C194.342 19.0397 195.063 17.4426 195.752 16.7223C196.66 15.8142 200.887 13.8413 201.232 14.1858C201.388 14.3424 199.102 22.3591 197.912 25.8038C197.568 26.8372 197.286 27.7766 197.286 27.9332C197.286 28.5282 198.914 28.0585 204.238 25.8351C207.338 24.5512 210.094 23.4864 210.313 23.4864C210.564 23.4864 210.752 23.7996 210.752 24.2067C210.752 25.3027 212.38 28.309 213.038 28.4342C213.351 28.4969 214.76 27.9958 216.169 27.2756C217.578 26.5866 219.833 25.5846 221.18 25.0209C223.622 24.0501 226.221 22.3591 226.19 21.7641C226.19 21.6075 225.971 21.357 225.72 21.1691C225.376 20.9812 224.843 21.1691 223.873 21.8267C221.931 23.1733 219.457 24.3633 217.985 24.7077L216.733 24.9896L216.075 23.6743C215.731 22.9541 215.449 22.1399 215.449 21.8894C215.449 21.6388 216.608 20.856 218.048 20.1357C219.489 19.3841 221.242 18.2881 221.962 17.6931C223.591 16.2839 225.313 12.9332 225.031 11.7119L224.812 10.8977L220.992 11.023C216.608 11.1795 215.418 11.618 213.476 13.7474C212.098 15.2505 211.284 16.785 210.595 19.1649C210.251 20.3549 209.781 21.2317 209.186 21.7328C208.309 22.453 204.269 24.0188 203.987 23.737C203.925 23.643 204.395 21.8267 205.083 19.6973C207.088 13.3403 207.651 11.2735 207.463 10.9603C207.119 10.3967 205.929 10.6472 201.294 12.2129C198.758 13.0898 196.534 13.7787 196.409 13.7787C196.253 13.7787 196.879 11.2109 197.787 8.04802C199.321 2.81837 199.415 2.31733 198.946 1.94155C198.351 1.53445 195.157 1.4405 194.53 1.8476ZM219.927 13.5908C219.833 15.0313 218.768 16.691 217.14 17.9123C216.294 18.5699 215.511 18.977 215.386 18.8518C215.01 18.476 215.731 16.0021 216.545 14.8121C217.39 13.5282 218.831 12.4635 219.52 12.62C219.833 12.6827 219.958 13.0271 219.927 13.5908ZM115.052 14.6555C114.645 17.0042 113.361 18.7578 111.42 19.7599C109.697 20.6367 109.478 20.5428 109.729 19.071C110.136 16.5344 111.576 14.5303 113.674 13.6534C115.083 13.0898 115.303 13.2463 115.052 14.6555Z" fill="white"/>
<path d="M84.8956 2.84969C80.1044 3.78915 73.9979 7.07725 71.8685 9.8643L70.9916 11.023L71.7432 11.7432C73.1524 13.0898 73.6221 12.9958 75.1252 11.0856C79.7912 5.10439 88.0898 2.6618 92.6305 5.9499C94.1649 7.04593 95.5741 9.01879 96.2944 11.1169C97.1085 13.4656 97.0459 17.5052 96.1378 19.8539C94.8539 23.1733 91.5658 25.6785 87.714 26.1795C86.1795 26.3674 86.0543 26.3361 86.2422 25.8038C88.9353 17.1608 90.6263 10.6472 90.2192 10.2401C89.906 9.92693 86.1482 10.4593 85.7724 10.8664C85.4906 11.1795 81.6075 23.1733 81.1065 25.3027C80.5115 27.8393 80.5428 27.8706 84.6138 27.8706C90.9081 27.8706 95.0731 26.4301 98.3612 23.142C100.866 20.6367 101.587 18.7265 101.587 14.405C101.618 11.3048 101.555 10.9917 100.585 9.01879C99.3946 6.60752 98.0167 5.26096 95.3549 4.03967C92.286 2.59917 88.4342 2.16075 84.8956 2.84969Z" fill="white"/>
<path d="M21.6388 21.4509C15.0626 22.9228 10.7098 25.7724 7.57828 30.6263C5.66805 33.6013 4.88517 36.3883 5.07306 39.739C5.44885 46.3466 9.39457 50.1983 16.5344 50.9186C20.762 51.3257 26.3048 49.7912 30.3131 47.0668C31.4718 46.2839 32.5052 45.595 32.6305 45.5324C32.9749 45.3132 31.3152 50.4489 30.3758 52.5157C27.7453 58.215 21.7641 60.2818 18.3194 56.6806C17.1607 55.4906 16.3152 55.4906 15.1566 56.7119L14.2484 57.6514L15.0313 58.2463C17.286 60 21.9207 60.8142 25.8977 60.1566C31.4718 59.1858 35.4175 55.8038 37.8914 49.7912C39.1754 46.6597 40.7724 40.8664 40.6472 39.6764L40.5532 38.6743L37.3278 38.5804C34.9165 38.5177 34.1023 38.5804 34.0083 38.8935C33.9144 39.1127 33.7891 39.6451 33.6952 40.0835C33.1941 42.3382 28.4342 46.5031 24.739 47.9123C19.9791 49.7599 15.1566 47.8497 13.0271 43.2463C12.4948 42.0564 12.3695 41.2109 12.3695 38.3299C12.3695 34.8852 12.3695 34.8539 13.6848 32.2234C14.6868 30.1879 15.501 29.0919 17.286 27.3695C21.2944 23.4864 24.2693 22.3278 29.2797 22.6409C33.8518 22.9228 36.7641 24.2067 39.833 27.2756C40.6785 28.1211 41.524 28.81 41.7119 28.81C42.2442 28.81 44.4676 26.8998 44.4676 26.4614C44.4676 25.4593 40.0522 22.9854 36.263 21.8894C33.2568 21.0125 24.739 20.762 21.6388 21.4509Z" fill="white"/>
<path d="M232.14 26.8058C231.921 26.8998 230.981 29.405 230.042 32.3486C226.628 43.1211 221.712 59.1545 221.712 59.5929C221.712 60.0939 223.027 60.4384 224.969 60.4384C227.474 60.4384 227.537 60.3445 228.601 56.8685C231.952 45.9081 232.704 43.8413 233.361 43.4969C234.676 42.8079 239.374 41.3361 239.593 41.5553C239.718 41.7119 238.998 44.405 237.964 47.5679C236.148 53.142 235.146 56.8058 234.708 59.2798L234.52 60.501L235.553 60.2818C238.246 59.6868 242.286 58.3716 246.138 56.8372L250.365 55.1148L250.992 55.9917C252.37 57.8706 255.814 61.0647 256.503 61.0647C257.255 61.0647 261.576 58.4342 263.361 56.8998C265.96 54.6451 268.434 50.4175 269.28 46.8163L269.656 45.2505L271.19 45.3445C272.035 45.4071 273.413 45.2505 274.259 45L275.825 44.5616L275.355 46.1587C275.104 47.0355 274.196 49.9791 273.351 52.7036C272.505 55.428 271.722 58.215 271.628 58.8413C271.472 59.9061 271.503 60.0626 272.161 60.2192C273.1 60.4697 275.825 60.501 276.733 60.2505C277.328 60.0939 277.766 59.0605 279.645 53.1733C282.056 45.6889 282.745 44.499 285.376 43.1837C286.503 42.5887 288.82 42.2443 289.165 42.62C289.259 42.714 288.476 45.4384 287.443 48.7265C284.937 56.6493 283.935 60.1253 284.123 60.3445C285.219 61.4405 294.958 57.8706 298.09 55.2401C300.157 53.5177 298.779 52.9541 296.305 54.4885C294.708 55.4593 292.171 56.4614 291.921 56.2422C291.858 56.1482 292.14 54.9896 292.61 53.643C293.674 50.2923 296.868 39.3006 296.868 38.8622C296.868 37.8288 291.013 39.0188 286.691 40.8977C285.313 41.524 283.998 42.0877 283.779 42.1816C283.466 42.3069 283.403 41.9937 283.591 40.7411C283.779 39.238 283.747 39.1441 282.964 38.8309C281.994 38.4864 280.491 38.4238 279.05 38.7056C278.33 38.8622 277.641 39.4572 276.482 40.929C274.697 43.215 273.288 43.9979 271.597 43.6848C270.407 43.4656 269.812 42.5574 269.468 40.4593C269.217 38.9248 268.622 38.2046 267.589 38.2046C265.741 38.2046 265.365 40.2714 266.649 43.6534C267.088 44.8121 267.432 46.0021 267.432 46.3152C267.432 46.6597 266.743 48.3194 265.866 50.0418C264.238 53.2985 262.484 55.3653 260.793 56.0856C259.823 56.4927 259.791 56.4614 258.445 54.9896C255.814 52.0772 255.094 47.0042 256.848 43.5908C257.693 41.8998 260.104 40.0835 261.482 40.0835C262.766 40.0835 264.301 39.4572 264.301 38.9248C264.301 38.5491 263.831 38.4864 261.42 38.5804C257.787 38.7056 256.159 39.4259 253.466 42.119C251.211 44.3424 250.303 46.3779 249.99 49.9791C249.802 52.1399 249.739 52.3904 248.674 53.2985C247.39 54.4259 244.948 55.6159 243.194 55.929C242.161 56.1169 242.004 56.0543 242.161 55.6472C242.255 55.3967 243.006 52.7975 243.82 49.8852C244.603 47.0042 245.668 43.5282 246.169 42.1816C247.484 38.6117 247.453 38.5177 245.292 38.5177C243.319 38.5177 239.217 39.4259 236.399 40.428C233.424 41.524 233.424 41.7119 235.678 34.1336C236.775 30.4384 237.62 27.2129 237.526 26.9937C237.401 26.618 233.017 26.4614 232.14 26.8058Z" fill="white"/>
<path d="M192.432 38.4238C191.774 39.0814 191.931 41.8058 192.777 43.904C193.34 45.3445 193.34 45.4697 192.839 47.4426C192.025 50.4802 190.898 52.6722 189.175 54.3946C186.263 57.3695 184.697 57.3069 183.131 54.1754C181.284 50.5428 181.44 47.0668 183.539 43.7787C185.136 41.2735 185.981 40.7411 189.551 39.9582C190.146 39.8017 190.397 39.5511 190.397 39.0814C190.397 38.4551 190.303 38.4238 187.86 38.6117C185.762 38.737 184.885 38.9875 182.975 39.9269C181.691 40.5532 180.188 41.5553 179.593 42.1503C177.902 43.81 176.681 46.5344 176.18 49.7599C175.647 52.9228 175.397 53.5491 174.363 54.238C173.048 55.1148 168.726 56.4301 168.382 56.0856C168.069 55.7724 169.447 50.3862 171.921 42.3069L173.142 38.4238L171.701 38.643C170.919 38.737 168.914 39.2693 167.255 39.8017C165.595 40.334 163.434 40.8351 162.432 40.929L160.616 41.1169L160.96 40.2714C161.587 38.5804 161.43 38.4238 159.582 38.643C158.267 38.7996 150.971 40.9603 148.779 41.8685C148.466 41.9937 148.434 41.8372 148.591 41.3048C148.716 40.8977 148.873 40.334 148.935 40.0522C148.998 39.8017 148.873 39.3319 148.653 39.0188C148.278 38.5177 147.964 38.5804 143.361 39.8956C137.286 41.6493 135.282 42.5887 135.282 43.7474C135.282 44.3737 136.785 44.2484 138.883 43.3716C139.916 42.9645 140.919 42.5887 141.138 42.5887C141.357 42.5887 141.075 43.8727 140.417 46.096C138.601 52.0146 136.691 59.7495 136.942 60.0313C137.349 60.4384 142.077 60.3445 142.516 59.9061C142.704 59.7182 143.706 56.7119 144.708 53.2359C146.962 45.5324 147.557 44.1858 149.123 43.4342C150.407 42.8079 153.445 42.3382 153.445 42.7766C153.445 42.9332 152.693 45.595 151.754 48.6952C149.906 54.8017 148.747 59.0605 148.747 59.7182C148.747 60.0626 149.374 60.1253 151.628 60.0626L154.509 59.9687L157.046 52.2651C158.424 48.0063 159.739 44.3111 159.958 44.0605C160.491 43.4342 162.996 42.5887 164.311 42.5887C165.564 42.5887 165.626 42.119 163.246 49.6347C161.336 55.5532 160.24 60.1566 160.616 60.5324C160.741 60.6576 161.399 60.5324 162.056 60.2505C162.745 59.9687 165.595 59.0605 168.413 58.215C171.232 57.3695 174.081 56.3987 174.739 56.0543C175.428 55.7098 176.023 55.428 176.117 55.428C176.211 55.428 176.774 56.2109 177.401 57.1503C178.747 59.1858 180.47 60.7516 181.347 60.7516C182.411 60.7516 186.357 59.2484 187.923 58.215C191.336 56.023 194.374 51.7015 195.157 47.881C195.501 46.2526 195.626 46.0334 196.284 46.0334C197.317 46.0334 200.668 45.1566 201.795 44.5616C202.641 44.1232 202.672 44.1232 202.484 44.6555C201.733 46.5658 196.315 64.2902 196.44 64.3841C196.503 64.4781 197.756 64.6033 199.228 64.7286C201.764 64.8852 201.858 64.8852 202.359 64.1336C202.641 63.6952 203.017 62.7244 203.236 61.9729C203.424 61.2213 203.737 60.1253 203.893 59.5929C204.207 58.5595 204.238 58.5595 205.146 59.0605C207.557 60.2818 211.66 60.1879 214.415 58.81C217.39 57.3382 220.115 53.142 220.804 49.0397C221.211 46.6284 221.023 42.714 220.397 40.2401C220.021 38.737 219.927 38.6743 218.831 38.5804C217.86 38.4864 213.726 39.6451 210.626 40.8977C210.094 41.1169 210.031 41.023 210.219 39.9896L210.407 38.8309H207.338H204.301L203.048 40.6159C201.388 43.0271 200.48 43.6221 198.288 43.7787C196.065 43.9353 195.814 43.6848 195.376 40.9916C194.906 38.142 193.716 37.1086 192.432 38.4238ZM214.697 43.2777C215.104 44.4363 214.916 48.8518 214.384 51.1691C213.288 55.8038 211.785 57.62 208.779 57.8706C207.463 57.9645 206.994 57.8706 206.305 57.3069C205.804 56.9311 205.428 56.3674 205.428 56.023C205.428 55.6785 206.242 52.7662 207.213 49.572C209.311 42.8392 209.499 42.5887 212.693 42.5887C214.259 42.5887 214.509 42.6827 214.697 43.2777Z" fill="white"/>
<path d="M48.7891 38.737C48.1315 38.8309 47.9123 39.0814 47.7557 39.8643C47.6305 40.428 46.6284 43.8726 45.501 47.5678C43.6221 53.8622 42.2756 58.8727 42.2756 59.7182C42.2756 60.2505 44.9061 60.5637 46.4405 60.2505C47.6305 60 47.8184 59.8121 48.9457 57.7766C50.6994 54.5198 53.3299 50.762 55.3653 48.5073L57.2129 46.5344L57.5574 50.1983C57.7766 52.2025 58.0271 54.0501 58.1211 54.3319C58.4656 55.2088 59.7808 54.8017 62.2234 53.048C65.2296 50.8873 66.9833 49.9478 67.3591 50.3236C67.547 50.5115 67.5157 51.263 67.2651 52.2338C66.5449 55.4906 67.9854 60.3132 69.8643 60.9081C70.3967 61.096 71.9311 60.4697 75.8455 58.5282C78.7265 57.119 81.1691 56.023 81.263 56.1169C81.357 56.1795 81.2004 56.9624 80.9499 57.8079C80.3862 59.6242 80.3549 60.7516 80.8246 60.7516C81.5136 60.7516 91.9729 57.2129 94.3528 56.1795C95.6994 55.5845 96.9207 55.1148 97.0459 55.1148C97.2025 55.1148 97.1086 55.929 96.8893 56.8998C96.1065 60.2192 96.0438 60.1253 99.238 60.1253H102.056L102.557 58.309C102.839 57.3382 103.81 54.1127 104.749 51.1691C106.347 46.1587 106.566 45.7202 107.756 44.6242C109.29 43.2463 110.731 42.5887 112.265 42.5887C112.86 42.5887 113.361 42.62 113.361 42.6827C113.361 42.7453 112.954 44.0292 112.422 45.5324C110.919 49.9791 108.225 59.7808 108.445 60C108.727 60.2818 112.735 60.2818 113.58 60C114.144 59.8121 114.708 58.4656 116.868 52.0459C119.436 44.4363 119.499 44.3111 120.72 43.4656C121.91 42.6514 125.511 41.4927 125.825 41.8058C125.919 41.8685 125.762 42.5574 125.48 43.2777C125.01 44.499 120.564 59.6555 120.564 60C120.564 60.2818 123.57 60.0939 125.793 59.6242C130.083 58.7474 133.403 57.119 133.403 55.8664C133.403 55.2088 132.745 55.334 130.866 56.3674C129.081 57.3382 127.766 57.5887 127.766 56.8998C127.766 56.6806 128.894 52.5783 130.271 47.7871C131.649 42.9645 132.777 38.9248 132.777 38.7683C132.777 37.9854 127.641 38.8622 124.134 40.2714C123.038 40.7098 121.754 41.0856 121.284 41.1169C120.438 41.1795 120.407 41.1169 120.501 39.833C120.626 38.5491 120.595 38.5177 119.687 38.5177C118.434 38.5177 112.797 40.2088 110.292 41.3361C109.196 41.8685 108.163 42.2756 108.006 42.2756C107.881 42.2756 107.912 41.8058 108.069 41.2735C108.507 39.7077 108.413 38.8309 107.85 38.8309C107.223 38.8309 97.8601 41.8058 96.858 42.3382C96.1378 42.6827 95.8246 44.1545 96.4509 44.1545C96.6388 44.1545 97.6409 43.81 98.7056 43.3716C99.7703 42.9332 100.678 42.6514 100.772 42.7453C100.992 42.9332 99.3319 49.3841 98.8309 50.3862C98.0167 51.9207 96.6075 53.0167 93.4134 54.5511C90.2818 56.0543 87.9958 56.7432 87.9958 56.1482C87.9958 55.9916 89.0292 52.2964 90.3131 47.9123C91.5658 43.5282 92.5365 39.7704 92.4739 39.5511C91.7223 37.6409 80.2923 38.7996 74.9687 41.3674C74.2484 41.7119 72.4948 43.1211 71.0543 44.5303C67.7035 47.7871 63.6952 50.3236 63.0063 49.666C62.881 49.5407 62.7244 46.9729 62.6931 43.9666C62.5992 39.3946 62.5052 38.5177 62.0981 38.5177C61.3779 38.5177 58.9979 40.6159 57.8706 42.2443C56.8998 43.6848 51.357 50.4175 51.2004 50.4175C51.0438 50.4175 53.5491 41.3361 54.0814 39.8956C54.144 39.7077 53.9875 39.3006 53.7056 39.0188C53.2046 38.5177 51.0125 38.3925 48.7891 38.737ZM85.3653 41.4301C85.5845 42.0564 83.0167 50.4802 82.1712 51.7641C81.7641 52.3904 80.8246 53.3612 80.0731 53.8935C78.7891 54.8643 75.1566 56.6806 74.5616 56.6806C74.405 56.6806 73.9666 56.023 73.5908 55.2401C71.8372 51.6701 73.904 45.3445 77.6618 42.7453C79.666 41.3674 84.9896 40.4593 85.3653 41.4301Z" fill="white"/>
</svg>
