<?xml version="1.0" standalone="no"?>
<!DOCTYPE svg PUBLIC "-//W3C//DTD SVG 20010904//EN"
 "http://www.w3.org/TR/2001/REC-SVG-20010904/DTD/svg10.dtd">
<svg version="1.0" xmlns="http://www.w3.org/2000/svg"
 width="958.000000pt" height="236.000000pt" viewBox="0 0 958.000000 236.000000"
 preserveAspectRatio="xMidYMid meet">
<metadata>
Created by potrace 1.16, written by Peter Selinger 2001-2019
</metadata>
<g transform="translate(0.000000,236.000000) scale(0.100000,-0.100000)"
fill="#000000" stroke="none">
<path d="M6212 2301 c-7 -4 -49 -123 -92 -264 -44 -141 -86 -269 -94 -286 -23
-43 -91 -98 -172 -138 -90 -45 -113 -41 -144 23 -19 38 -22 57 -18 122 5 88
29 144 78 186 55 46 100 28 121 -48 12 -44 40 -48 82 -12 34 29 34 56 1 89
-64 64 -146 61 -289 -12 -117 -59 -179 -83 -201 -74 -8 3 -31 26 -50 51 -19
25 -44 52 -55 60 -28 19 -134 27 -185 13 -48 -13 -123 -87 -125 -123 -4 -73 2
-85 91 -184 72 -81 89 -123 66 -159 -21 -31 -55 -40 -101 -25 -40 13 -72 51
-95 113 -9 23 -22 43 -31 45 -8 1 -46 -15 -85 -37 -38 -23 -84 -44 -103 -47
-30 -6 -33 -5 -27 12 3 10 24 82 47 159 47 163 59 185 97 185 36 0 56 14 49
34 -4 10 -18 16 -37 16 -36 0 -37 10 -11 95 10 33 21 77 25 98 l7 37 -71 0
c-88 0 -103 -13 -120 -102 -15 -81 -40 -126 -77 -134 -48 -10 -53 -13 -53 -28
0 -9 14 -18 35 -22 40 -7 42 -16 20 -90 -23 -79 -85 -156 -171 -213 -42 -28
-85 -51 -96 -51 -25 0 -23 10 44 222 27 87 47 162 44 167 -8 13 -94 20 -130
10 -32 -9 -34 -13 -75 -143 -38 -121 -46 -138 -82 -171 -39 -35 -138 -89 -147
-80 -3 2 21 88 53 191 35 115 53 190 48 195 -11 11 -37 14 -100 11 -39 -2 -44
-6 -62 -41 -11 -21 -30 -79 -42 -127 -20 -81 -26 -93 -70 -136 -79 -78 -294
-172 -338 -149 -46 25 -68 96 -33 108 72 25 168 78 208 114 58 54 83 108 84
176 l0 52 -54 6 c-113 14 -241 -22 -313 -88 -45 -42 -113 -163 -113 -203 0
-32 -24 -51 -155 -125 -63 -35 -115 -67 -115 -70 0 -4 6 -12 14 -18 11 -9 39
0 131 46 79 39 119 54 122 46 18 -51 63 -120 85 -133 25 -13 36 -11 165 29 76
23 176 60 222 82 46 22 85 38 87 36 1 -1 -5 -28 -13 -60 -13 -44 -14 -60 -5
-69 18 -18 87 3 221 68 63 30 116 52 118 50 3 -3 0 -26 -5 -52 -11 -53 -7 -74
15 -74 25 0 244 96 308 135 70 42 72 39 51 -59 -11 -52 -11 -69 -2 -72 14 -6
93 19 235 74 l104 40 35 -35 c46 -46 111 -74 186 -80 88 -7 136 9 185 62 38
41 41 49 41 99 0 74 -11 99 -76 169 -90 97 -103 144 -49 169 42 19 86 -9 121
-78 39 -76 48 -81 118 -59 31 10 59 15 63 12 3 -4 0 -26 -6 -51 -6 -25 -11
-82 -11 -128 0 -70 4 -93 25 -135 42 -83 38 -83 188 -18 72 31 156 70 185 86
30 17 52 24 52 17 0 -6 -8 -36 -17 -66 -17 -53 -17 -55 2 -69 14 -11 35 -13
74 -9 29 2 55 7 57 9 2 2 29 75 60 163 40 116 63 167 85 190 29 29 164 92 175
81 5 -5 -68 -261 -106 -371 -11 -33 -20 -63 -20 -68 0 -19 52 -4 222 67 99 41
187 75 194 75 8 0 14 -10 14 -23 0 -35 52 -131 73 -135 10 -2 55 14 100 37 45
22 117 54 160 72 78 31 161 85 160 104 0 5 -7 13 -15 19 -11 6 -28 0 -59 -21
-62 -43 -141 -81 -188 -92 l-40 -9 -21 42 c-11 23 -20 49 -20 57 0 8 37 33 83
56 46 24 102 59 125 78 52 45 107 152 98 191 l-7 26 -122 -4 c-140 -5 -178
-19 -240 -87 -44 -48 -70 -97 -92 -173 -11 -38 -26 -66 -45 -82 -28 -23 -157
-73 -166 -64 -2 3 13 61 35 129 64 203 82 269 76 279 -11 18 -49 10 -197 -40
-81 -28 -152 -50 -156 -50 -5 0 15 82 44 183 49 167 52 183 37 195 -19 13
-121 16 -141 3z m811 -375 c-3 -46 -37 -99 -89 -138 -27 -21 -52 -34 -56 -30
-12 12 11 91 37 129 27 41 73 75 95 70 10 -2 14 -13 13 -31z m-3349 -34 c-13
-75 -54 -131 -116 -163 -55 -28 -62 -25 -54 22 13 81 59 145 126 173 45 18 52
13 44 -32z"/>
<path d="M2711 2269 c-153 -30 -348 -135 -416 -224 l-28 -37 24 -23 c45 -43
60 -40 108 21 149 191 414 269 559 164 49 -35 94 -98 117 -165 26 -75 24 -204
-5 -279 -41 -106 -146 -186 -269 -202 -49 -6 -53 -5 -47 12 86 276 140 484
127 497 -10 10 -130 -7 -142 -20 -9 -10 -133 -393 -149 -461 -19 -81 -18 -82
112 -82 201 0 334 46 439 151 80 80 103 141 103 279 1 99 -1 109 -32 172 -38
77 -82 120 -167 159 -98 46 -221 60 -334 38z"/>
<path d="M691 1675 c-210 -47 -349 -138 -449 -293 -61 -95 -86 -184 -80 -291
12 -211 138 -334 366 -357 135 -13 312 36 440 123 37 25 70 47 74 49 11 7 -42
-157 -72 -223 -84 -182 -275 -248 -385 -133 -37 38 -64 38 -101 -1 l-29 -30
25 -19 c72 -56 220 -82 347 -61 178 31 304 139 383 331 41 100 92 285 88 323
l-3 32 -103 3 c-77 2 -103 0 -106 -10 -3 -7 -7 -24 -10 -38 -16 -72 -168 -205
-286 -250 -152 -59 -306 2 -374 149 -17 38 -21 65 -21 157 0 110 0 111 42 195
32 65 58 100 115 155 128 124 223 161 383 151 146 -9 239 -50 337 -148 27 -27
54 -49 60 -49 17 0 88 61 88 75 0 32 -141 111 -262 146 -96 28 -368 36 -467
14z"/>
<path d="M7413 1504 c-7 -3 -37 -83 -67 -177 -109 -344 -266 -856 -266 -870 0
-16 42 -27 104 -27 80 0 82 3 116 114 107 350 131 416 152 427 42 22 192 69
199 62 4 -5 -19 -91 -52 -192 -58 -178 -90 -295 -104 -374 l-6 -39 33 7 c86
19 215 61 338 110 l135 55 20 -28 c44 -60 154 -162 176 -162 24 0 162 84 219
133 83 72 162 207 189 322 l12 50 49 -3 c27 -2 71 3 98 11 l50 14 -15 -51 c-8
-28 -37 -122 -64 -209 -27 -87 -52 -176 -55 -196 -5 -34 -4 -39 17 -44 30 -8
117 -9 146 -1 19 5 33 38 93 226 77 239 99 277 183 319 36 19 110 30 121 18 3
-3 -22 -90 -55 -195 -80 -253 -112 -364 -106 -371 35 -35 346 79 446 163 66
55 22 73 -57 24 -51 -31 -132 -63 -140 -56 -2 3 7 40 22 83 34 107 136 458
136 472 0 33 -187 -5 -325 -65 -44 -20 -86 -38 -93 -41 -10 -4 -12 6 -6 46 6
48 5 51 -20 61 -31 11 -79 13 -125 4 -23 -5 -45 -24 -82 -71 -57 -73 -102 -98
-156 -88 -38 7 -57 36 -68 103 -8 49 -27 72 -60 72 -59 0 -71 -66 -30 -174 14
-37 25 -75 25 -85 0 -11 -22 -64 -50 -119 -52 -104 -108 -170 -162 -193 -31
-13 -32 -12 -75 35 -84 93 -107 255 -51 364 27 54 104 112 148 112 41 0 90 20
90 37 0 12 -15 14 -92 11 -116 -4 -168 -27 -254 -113 -72 -71 -101 -136 -111
-251 -6 -69 -8 -77 -42 -106 -41 -36 -119 -74 -175 -84 -33 -6 -38 -4 -33 9 3
8 27 91 53 184 25 92 59 203 75 246 42 114 41 117 -28 117 -63 0 -194 -29
-284 -61 -95 -35 -95 -41 -23 201 35 118 62 221 59 228 -4 12 -144 17 -172 6z"/>
<path d="M6145 1133 c-21 -21 -16 -108 11 -175 18 -46 18 -50 2 -113 -26 -97
-62 -167 -117 -222 -93 -95 -143 -93 -193 7 -59 116 -54 227 13 332 51 80 78
97 192 122 19 5 27 13 27 28 0 20 -3 21 -81 15 -67 -4 -95 -12 -156 -42 -41
-20 -89 -52 -108 -71 -54 -53 -93 -140 -109 -243 -17 -101 -25 -121 -58 -143
-42 -28 -180 -70 -191 -59 -10 10 34 182 113 440 l39 124 -46 -7 c-25 -3 -89
-20 -142 -37 -53 -17 -122 -33 -154 -36 l-58 -6 11 27 c20 54 15 59 -44 52
-42 -5 -275 -74 -345 -103 -10 -4 -11 1 -6 18 4 13 9 31 11 40 2 8 -2 23 -9
33 -12 16 -22 14 -169 -28 -194 -56 -258 -86 -258 -123 0 -20 48 -16 115 12
33 13 65 25 72 25 7 0 -2 -41 -23 -112 -58 -189 -119 -436 -111 -445 13 -13
164 -10 178 4 6 6 38 102 70 213 72 246 91 289 141 313 41 20 138 35 138 21 0
-5 -24 -90 -54 -189 -59 -195 -96 -331 -96 -352 0 -11 20 -13 92 -11 l92 3 81
246 c44 136 86 254 93 262 17 20 97 47 139 47 40 0 42 15 -34 -225 -61 -189
-96 -336 -84 -348 4 -4 25 0 46 9 22 9 113 38 203 65 90 27 181 58 202 69 22
11 41 20 44 20 3 0 21 -25 41 -55 43 -65 98 -115 126 -115 34 0 160 48 210 81
109 70 206 208 231 330 11 52 15 59 36 59 33 0 140 28 176 47 27 14 28 14 22
-3 -24 -61 -197 -627 -193 -630 2 -3 42 -7 89 -11 81 -5 84 -5 100 19 9 14 21
45 28 69 6 24 16 59 21 76 10 33 11 33 40 17 77 -39 208 -36 296 8 95 47 182
181 204 312 13 77 7 202 -13 281 -12 48 -15 50 -50 53 -31 3 -163 -34 -262
-74 -17 -7 -19 -4 -13 29 l6 37 -98 0 -97 0 -40 -57 c-53 -77 -82 -96 -152
-101 -71 -5 -79 3 -93 89 -15 91 -53 124 -94 82z m711 -155 c13 -37 7 -178
-10 -252 -35 -148 -83 -206 -179 -214 -42 -3 -57 0 -79 18 -16 12 -28 30 -28
41 0 11 26 104 57 206 67 215 73 223 175 223 50 0 58 -3 64 -22z"/>
<path d="M1558 1123 c-21 -3 -28 -11 -33 -36 -4 -18 -36 -128 -72 -246 -60
-201 -103 -361 -103 -388 0 -17 84 -27 133 -17 38 8 44 14 80 79 56 104 140
224 205 296 l59 63 11 -117 c7 -64 15 -123 18 -132 11 -28 53 -15 131 41 96
69 152 99 164 87 6 -6 5 -30 -3 -61 -23 -104 23 -258 83 -277 17 -6 66 14 191
76 92 45 170 80 173 77 3 -2 -2 -27 -10 -54 -18 -58 -19 -94 -4 -94 22 0 356
113 432 146 43 19 82 34 86 34 5 0 2 -26 -5 -57 -25 -106 -27 -103 75 -103
l90 0 16 58 c9 31 40 134 70 228 51 160 58 174 96 209 49 44 95 65 144 65 19
0 35 -1 35 -3 0 -2 -13 -43 -30 -91 -48 -142 -134 -455 -127 -462 9 -9 137 -9
164 0 18 6 36 49 105 254 82 243 84 247 123 274 38 26 153 63 163 53 3 -2 -2
-24 -11 -47 -15 -39 -157 -523 -157 -534 0 -9 96 -3 167 12 137 28 243 80 243
120 0 21 -21 17 -81 -16 -57 -31 -99 -39 -99 -17 0 7 36 138 80 291 44 154 80
283 80 288 0 25 -164 -3 -276 -48 -35 -14 -76 -26 -91 -27 -27 -2 -28 0 -25
41 4 41 3 42 -26 42 -40 0 -220 -54 -300 -90 -35 -17 -68 -30 -73 -30 -4 0 -3
15 2 32 14 50 11 78 -7 78 -20 0 -319 -95 -351 -112 -23 -11 -33 -58 -13 -58
6 0 38 11 72 25 34 14 63 23 66 20 7 -6 -46 -212 -62 -244 -26 -49 -71 -84
-173 -133 -100 -48 -173 -70 -173 -51 0 5 33 123 74 263 40 140 71 260 69 267
-24 61 -389 24 -559 -58 -23 -11 -79 -56 -125 -101 -107 -104 -235 -185 -257
-164 -4 4 -9 86 -10 182 -3 146 -6 174 -19 174 -23 0 -99 -67 -135 -119 -31
-46 -208 -261 -213 -261 -5 0 75 290 92 336 2 6 -3 19 -12 28 -16 16 -86 20
-157 9z m1168 -86 c7 -20 -75 -289 -102 -330 -13 -20 -43 -51 -67 -68 -41 -31
-157 -89 -176 -89 -5 0 -19 21 -31 46 -56 114 10 316 130 399 64 44 234 73
246 42z"/>
</g>
</svg>
