<svg width="89" height="116" viewBox="0 0 89 116" fill="none" xmlns="http://www.w3.org/2000/svg">
<g clip-path="url(#clip0_3_158)">
<path d="M60.47 59.69L56.47 60.84L60.47 63.6V59.69ZM1.68 112.45C1.11361 112.385 0.552315 112.281 0 112.14L4 115.14C4.33809 115.413 4.76648 115.549 5.2 115.52C5.80069 115.46 6.39375 115.34 6.97 115.16C8.37286 114.693 9.60739 113.823 10.52 112.66C11.4731 111.567 12.005 110.17 12.02 108.72V99.03L8.26 96.32V105.88C8.23829 107.316 7.70253 108.696 6.75 109.77C5.86954 110.923 4.64853 111.77 3.26 112.19C2.75027 112.359 2.21705 112.447 1.68 112.45ZM5.2 85.99V77.99C5.21526 77.6964 5.16986 77.4028 5.06663 77.1275C4.9634 76.8522 4.80455 76.6012 4.59999 76.39C4.41836 76.1971 4.18505 76.0606 3.92793 75.9968C3.67081 75.933 3.40075 75.9445 3.15 76.03C2.52751 76.2272 2.00247 76.6522 1.68 77.22C1.30047 77.7963 1.09559 78.47 1.09 79.16V107.08C1.07471 107.377 1.12201 107.674 1.22882 107.951C1.33563 108.228 1.49957 108.48 1.71 108.69C1.9189 108.873 2.17503 108.993 2.44912 109.037C2.7232 109.082 3.0042 109.048 3.26 108.94C3.84275 108.738 4.32815 108.324 4.62 107.78C4.99696 107.203 5.2016 106.53 5.21 105.84V86L5.2 85.99ZM9.01 88.94L12.12 88.05V79.94C12.1502 79.2653 12.0725 78.5902 11.89 77.94C11.6875 77.4228 11.3404 76.975 10.89 76.65L7.75 74.14C8.1325 74.7933 8.34243 75.5332 8.36 76.29V85.17L5.24 86.07L9.01 88.94ZM20.44 107.28L17.39 108.16L21.29 111.05L24.29 110.2V99.99L25.53 100.93L25.19 96.48L21.19 97.63L20.44 107.28ZM23.19 76.42L21.38 94.27L24.84 93.27L23.19 76.42ZM24.75 24.42L29.55 23.04V19.94L25.7 16.94V20.24L20.94 21.61V37.17L24.75 36.08V24.42ZM24.75 43.42L29.66 41.94V38.54L25.66 35.66V39.02L20.9 40.39V57.68L17.85 58.56L21.65 61.48L24.71 60.6L24.75 43.42ZM29.75 108.67L32.75 107.83L29.64 69.31L25.64 66.44L28.9 104.91L25.9 105.78L29.75 108.67ZM40.98 47.94C41.357 47.3625 41.5616 46.6896 41.57 46V18.11C41.5841 17.8165 41.5381 17.5233 41.4349 17.2481C41.3318 16.973 41.1736 16.7219 40.97 16.51C40.7871 16.3159 40.5516 16.1794 40.2922 16.1172C40.0329 16.055 39.761 16.0699 39.51 16.16C38.8882 16.353 38.3629 16.7747 38.04 17.34C37.6645 17.9176 37.4632 18.5911 37.46 19.28V47.2C37.4434 47.4961 37.4891 47.7924 37.5942 48.0697C37.6993 48.347 37.8614 48.5992 38.07 48.81C38.2739 49.0008 38.527 49.131 38.8009 49.1857C39.0747 49.2405 39.3584 49.2177 39.62 49.12C40.2042 48.9202 40.6905 48.5054 40.98 47.96M46.88 52.76C47.8295 51.6728 48.3612 50.2833 48.38 48.84V21.09C48.5012 19.527 48.018 17.9772 47.03 16.76L43.93 14.24C44.3997 15.132 44.6241 16.1328 44.58 17.14V46.02C44.5492 47.4586 44.0108 48.84 43.06 49.92C42.1903 51.0598 40.9884 51.9019 39.62 52.33C39.1133 52.4976 38.5837 52.5854 38.05 52.59C37.4759 52.5329 36.9073 52.4293 36.35 52.28L40.35 55.28C40.6866 55.5548 41.1171 55.6875 41.55 55.65C42.1478 55.5985 42.738 55.4811 43.31 55.3C44.7155 54.8327 45.9509 53.9593 46.86 52.79M48.06 76.49L51.11 75.61V68.73C51.1305 68.1312 51.0162 67.5355 50.7756 66.9869C50.5351 66.4382 50.1743 65.9506 49.72 65.56L46.5 62.74C47.0493 63.6685 47.3298 64.7314 47.31 65.81V72.81L44.16 73.71L48.06 76.49ZM49.6 101.44C50.5561 100.352 51.0916 98.9582 51.11 97.51V90.19C51.1474 88.7277 50.857 87.2755 50.26 85.94C49.4917 84.4013 48.5704 82.944 47.51 81.59C46.26 79.93 45.51 78.86 45.18 78.39C44.5616 77.2017 44.2198 75.889 44.18 74.55V66.75C44.1971 66.4549 44.1546 66.1593 44.055 65.881C43.9553 65.6026 43.8006 65.3472 43.6 65.13C43.4117 64.9376 43.1717 64.804 42.909 64.7454C42.6462 64.6868 42.3722 64.7058 42.12 64.8C41.5194 64.9995 41.0183 65.4218 40.72 65.98C40.3637 66.5573 40.1734 67.2216 40.17 67.9V70.95C40.17 71.23 40.17 71.37 40.17 71.77C40.1737 72.4051 40.2407 73.0382 40.37 73.66C40.5986 74.3099 40.9149 74.9256 41.31 75.49C41.72 76.09 42.37 76.94 43.24 78.02C44.11 79.1 44.82 80.02 45.35 80.88C45.913 81.7424 46.3633 82.6733 46.69 83.65C47.0574 84.7349 47.2367 85.8747 47.22 87.02V94.65C47.2116 95.583 46.9747 96.4997 46.53 97.32C46.0664 98.2009 45.4345 98.9824 44.67 99.62C43.9604 100.247 43.12 100.708 42.21 100.97C41.73 101.131 41.2261 101.209 40.72 101.2C40.1592 101.147 39.6039 101.046 39.06 100.9L43.12 103.85C43.61 104.29 44.58 104.3 46.01 103.85C47.4301 103.379 48.6815 102.503 49.61 101.33M44.26 89.94L40.15 87.11V95.89C40.137 96.1812 40.1845 96.472 40.2895 96.7439C40.3945 97.0158 40.5547 97.2631 40.76 97.47C40.9389 97.6637 41.17 97.8017 41.4254 97.8673C41.6809 97.933 41.9498 97.9235 42.2 97.84C42.8111 97.6413 43.3251 97.2201 43.64 96.66C44.0341 96.0852 44.2498 95.4069 44.26 94.71V89.94ZM58.68 46.88L55.68 47.73L59.48 50.65L62.54 49.78V30.5C62.54 29.09 61.89 28.57 60.54 28.95L58.6 29.51L58.68 46.88ZM62.4 23.88C62.8119 23.0433 62.9817 22.1081 62.89 21.18V12.82C62.89 10.6533 61.87 9.86 59.83 10.44L58.68 10.77V25.88C59.47 25.68 60.95 25.22 60.95 25.22C61.5836 24.9699 62.1008 24.4919 62.4 23.88ZM66.4 48.57L69.68 47.72V31.83C69.68 30.27 69.36 29.25 68.68 28.74L66.33 27.08L66.73 26.74C67.4085 26.2483 68.0262 25.6776 68.57 25.04C68.9443 24.5755 69.2077 24.0317 69.34 23.45C69.4842 22.7023 69.5479 21.9413 69.53 21.18V13.75C69.5914 13.1353 69.5095 12.5148 69.2909 11.9371C69.0723 11.3593 68.7229 10.8401 68.27 10.42L65.73 8.42001L64.37 7.42001C65.2367 8.38467 65.7205 9.63318 65.73 10.93V21.38C65.7618 22.3551 65.63 23.3285 65.34 24.26C65.0933 25.0032 64.5657 25.6205 63.87 25.98L63.28 26.26H63.88C64.136 26.2336 64.3943 26.2762 64.6283 26.3835C64.8622 26.4908 65.063 26.6588 65.21 26.87C65.5534 27.3399 65.7358 27.9081 65.73 28.49V44.8L62.54 45.64L66.4 48.57ZM71.13 60.32V57.17L67.43 54.38V57.69L63.43 58.84V94.94L60.43 95.8L64.23 98.72L67.23 97.86V61.43L71.13 60.32ZM84.64 39.41L76.83 41.65L80.64 44.57L88.5 42.32V39.01L84.64 36.21V39.41ZM83.64 7.52L88.55 6.12V3.02L84.69 0.0200043V3.33L79.84 4.72V20.07L83.64 18.98V7.52ZM83.64 26.52L88.55 24.9V21.44L84.69 18.54V21.94L79.84 23.33V37.53L83.64 36.44V26.52Z" fill="white"/>
</g>
<defs>
<clipPath id="clip0_3_158">
<rect width="88.54" height="115.49" fill="white"/>
</clipPath>
</defs>
</svg>
