<svg id="Ebene_1" data-name="Ebene 1" xmlns="http://www.w3.org/2000/svg" viewBox="0 0 88.54 115.49"><defs><style>.cls-1{fill:#1d1d1b;}</style></defs><path class="cls-1" d="M121.21,150.75l-4,1.15,4,2.76ZM62.42,203.51a12.56,12.56,0,0,1-1.68-.31l4,3a1.73,1.73,0,0,0,1.2.38,8.89,8.89,0,0,0,1.77-.36,7.54,7.54,0,0,0,3.55-2.5,6.09,6.09,0,0,0,1.5-3.94v-9.69L69,187.38v9.56a6,6,0,0,1-1.51,3.89A6.91,6.91,0,0,1,64,203.25a5.11,5.11,0,0,1-1.58.26m3.52-26.46h0v-8a2.14,2.14,0,0,0-.6-1.6,1.38,1.38,0,0,0-1.45-.36,2.59,2.59,0,0,0-1.47,1.19,3.58,3.58,0,0,0-.59,1.94v27.92a2.12,2.12,0,0,0,.62,1.61A1.48,1.48,0,0,0,64,200a2.46,2.46,0,0,0,1.36-1.16,3.63,3.63,0,0,0,.59-1.94V177.06ZM69.75,180l3.11-.89V171a6.35,6.35,0,0,0-.23-2,2.89,2.89,0,0,0-1-1.29l-3.14-2.51a4.46,4.46,0,0,1,.61,2.15v8.88l-3.12.9h0Zm11.43,18.34-3.05.88,3.9,2.89,3-.85V191.05l1.24.94-.34-4.45-4,1.15Zm2.75-30.86-1.81,17.85,3.46-1Zm1.56-52,4.8-1.38V111l-3.85-3v3.3l-4.76,1.37v15.56l3.81-1.09Zm0,19L90.4,133V129.6l-4-2.88v3.36l-4.76,1.37v17.29l-3.05.88,3.8,2.92,3.06-.88Zm5,65.25,3-.84-3.11-38.52-4-2.87,3.26,38.47-3,.87ZM101.72,139a3.63,3.63,0,0,0,.59-1.94V109.17a2.16,2.16,0,0,0-.6-1.6,1.37,1.37,0,0,0-1.46-.35,2.57,2.57,0,0,0-1.47,1.18,3.59,3.59,0,0,0-.58,1.94v27.92a2.12,2.12,0,0,0,.61,1.61,1.5,1.5,0,0,0,1.55.31,2.43,2.43,0,0,0,1.36-1.16m5.9,4.8a6.08,6.08,0,0,0,1.5-3.92V112.15a6.12,6.12,0,0,0-1.35-4.33l-3.1-2.52a5.69,5.69,0,0,1,.65,2.9v28.88a6.1,6.1,0,0,1-1.52,3.9,6.93,6.93,0,0,1-3.44,2.41,5.14,5.14,0,0,1-1.57.26,10.64,10.64,0,0,1-1.7-.31l4,3a1.67,1.67,0,0,0,1.2.37,8.15,8.15,0,0,0,1.76-.35,7.49,7.49,0,0,0,3.55-2.51m1.2,23.7,3.05-.88v-6.88a4,4,0,0,0-1.39-3.17l-3.22-2.82a5.82,5.82,0,0,1,.81,3.07v7l-3.15.9Zm1.54,24.95a6.07,6.07,0,0,0,1.51-3.93v-7.32A9.8,9.8,0,0,0,111,177a25.61,25.61,0,0,0-2.75-4.35c-1.25-1.66-2-2.73-2.33-3.2a8.89,8.89,0,0,1-1-3.84v-7.8a2.2,2.2,0,0,0-.58-1.62,1.39,1.39,0,0,0-1.48-.33,2.47,2.47,0,0,0-1.4,1.18,3.69,3.69,0,0,0-.55,1.92v3.05c0,.28,0,.42,0,.82a9.56,9.56,0,0,0,.2,1.89,7.57,7.57,0,0,0,.94,1.83c.41.6,1.06,1.45,1.93,2.53s1.58,2,2.11,2.86a12.07,12.07,0,0,1,1.34,2.77,10.05,10.05,0,0,1,.53,3.37v7.63a5.71,5.71,0,0,1-.69,2.67,7.61,7.61,0,0,1-1.86,2.3,6.38,6.38,0,0,1-2.46,1.35,4.45,4.45,0,0,1-1.49.23,10.05,10.05,0,0,1-1.66-.3l4.06,2.95c.49.44,1.46.45,2.89,0a7.67,7.67,0,0,0,3.6-2.52M105,181l-4.11-2.83v8.78a2.11,2.11,0,0,0,.61,1.58,1.37,1.37,0,0,0,1.44.37,2.56,2.56,0,0,0,1.44-1.18,3.54,3.54,0,0,0,.62-1.95Zm14.42-43.06-3,.85,3.8,2.92,3.06-.87V121.56c0-1.41-.65-1.93-2-1.55l-1.94.56Zm3.72-23a5,5,0,0,0,.49-2.7v-8.36q0-3.25-3.06-2.38l-1.15.33v15.11c.79-.2,2.27-.66,2.27-.66a2.73,2.73,0,0,0,1.45-1.34m4,24.69,3.28-.85V122.89c0-1.56-.32-2.58-1-3.09l-2.35-1.66.4-.34a10.57,10.57,0,0,0,1.84-1.7,3.92,3.92,0,0,0,.77-1.59,10.66,10.66,0,0,0,.19-2.27v-7.43a4,4,0,0,0-1.26-3.33l-2.54-2-1.36-1a5.31,5.31,0,0,1,1.36,3.51v10.45a8.73,8.73,0,0,1-.39,2.88,3,3,0,0,1-1.47,1.72l-.59.28h.6a1.44,1.44,0,0,1,1.33.61,2.7,2.7,0,0,1,.52,1.62v16.31l-3.19.84Zm4.73,11.75v-3.15l-3.7-2.79v3.31l-4,1.15V186l-3,.86,3.8,2.92,3-.86V152.49Zm13.51-20.91-7.81,2.24,3.81,2.92,7.86-2.25v-3.31l-3.86-2.8Zm-1-31.89,4.91-1.4v-3.1l-3.86-3v3.31l-4.85,1.39v15.35l3.8-1.09Zm0,19,4.91-1.62V112.5l-3.86-2.9V113l-4.85,1.39v14.2l3.8-1.09Z" transform="translate(-60.74 -91.06)"/></svg>