<svg width="300" height="104" viewBox="0 0 300 104" fill="none" xmlns="http://www.w3.org/2000/svg">
<g clip-path="url(#clip0_3_160)">
<path d="M25.625 43.125V86.25H33.125H40.625V68.2812V50.3125H61.875H83.125V68.2812V86.25H90.4688H97.8125V43.125V0H90.4688H83.125L83.0625 17.875L82.9688 35.7812L61.8125 35.875L40.625 35.9375V17.9688V0H33.125H25.625V43.125Z" fill="white"/>
<path d="M102.812 43.125V86.25H110.313H117.813V70.625C117.813 62.0313 117.938 55 118.063 55C118.281 55 165.063 80.4063 173.688 85.1875L175.625 86.2813V77.75L175.594 69.2188L150.938 56.25C137.344 49.125 126.25 43.2188 126.25 43.125C126.25 43.0313 137.344 37.125 150.938 30L175.594 17.0313L175.625 8.50001V-0.031245L173.688 1.06251C163.063 6.93751 118.313 31.25 118.094 31.25C117.938 31.25 117.813 24.9375 117.813 15.625V4.97326e-06H110.313H102.812V43.125Z" fill="white"/>
<path d="M180.625 43.125V86.25H189.313H197.969L208.719 60.6875C214.625 46.6562 219.594 35.0312 219.75 34.8438C219.875 34.6875 220 46.1875 220 60.4062V86.25L228.656 86.1875L237.313 86.0938L242.219 74.6875C244.906 68.4062 253.219 49.0312 260.688 31.625L274.281 0L265.844 0.0625L257.375 0.15625L246.25 28.5C240.156 44.0938 235.031 56.9375 234.906 57.0625C234.781 57.1875 234.688 44.4062 234.688 28.6562V0L226.375 0.0625L218.063 0.15625L206.938 28.5625L195.781 56.9688L195.688 28.5L195.625 0H188.125H180.625V43.125Z" fill="white"/>
<path d="M124.688 94.8437C124.688 96.7812 124.656 96.875 124.094 96.5625C123.094 96.0312 121.406 96.1875 120.531 96.9062C119.438 97.75 118.938 99.625 119.375 101.219C119.969 103.469 122.313 104.438 124.063 103.219C124.594 102.844 124.844 102.813 124.938 103.063C125 103.281 125.313 103.438 125.656 103.438C126.219 103.438 126.25 103.156 126.25 98.125V92.8125H125.469C124.719 92.8125 124.688 92.875 124.688 94.8437ZM123.906 97.9687C125.469 99.5 124.625 102.5 122.656 102.5C120.688 102.5 119.844 99.5 121.406 97.9687C121.813 97.5312 122.375 97.1875 122.656 97.1875C122.938 97.1875 123.5 97.5312 123.906 97.9687Z" fill="white"/>
<path d="M162.188 98.125C162.188 103.219 162.219 103.438 162.812 103.438C163.406 103.438 163.438 103.219 163.438 98.125C163.438 93.0312 163.406 92.8125 162.812 92.8125C162.219 92.8125 162.188 93.0312 162.188 98.125Z" fill="white"/>
<path d="M208.125 95.0625C208.125 97.1875 208.094 97.25 207.563 96.7813C206.75 96.0625 204.938 96.125 203.969 96.9063C202.813 97.8125 202.281 99.6563 202.781 101.219C203.438 103.438 205.75 104.438 207.438 103.25C207.813 103 208.125 102.938 208.125 103.094C208.125 103.281 208.406 103.438 208.75 103.438C209.344 103.438 209.375 103.219 209.375 98.125C209.375 93.0313 209.344 92.8125 208.75 92.8125C208.188 92.8125 208.125 93.0313 208.125 95.0625ZM207.344 97.9688C208.969 99.5625 208.063 102.5 205.969 102.5C204.781 102.5 204.063 101.5 204.063 99.9063C204.063 98.625 205.156 97.1875 206.094 97.1875C206.375 97.1875 206.938 97.5313 207.344 97.9688Z" fill="white"/>
<path d="M248.75 98.125C248.75 103.219 248.781 103.438 249.375 103.438C249.969 103.438 250 103.219 250 98.125C250 93.0312 249.969 92.8125 249.375 92.8125C248.781 92.8125 248.75 93.0312 248.75 98.125Z" fill="white"/>
<path d="M82.8125 98.4375V103.438H83.5938C84.3438 103.438 84.375 103.375 84.375 101.25V99.0625H87.0312H89.6875V101.25C89.6875 103.375 89.7188 103.438 90.4688 103.438H91.25V98.4375V93.4375H90.4688C89.7188 93.4375 89.6875 93.5 89.6875 95.625V97.8125H87.0312H84.375V95.625C84.375 93.5 84.3438 93.4375 83.5938 93.4375H82.8125V98.4375Z" fill="white"/>
<path d="M144.688 98.4375C144.688 103.219 144.719 103.438 145.313 103.438C145.844 103.438 145.938 103.219 145.938 101.937C145.938 100.719 146.094 100.281 146.75 99.6562L147.563 98.9062L148.625 100.156C149.219 100.844 150 101.875 150.406 102.406C150.906 103.156 151.344 103.438 151.969 103.438C152.844 103.438 152.844 103.406 150.75 100.719C149.344 98.9062 148.75 97.875 148.938 97.625C149.094 97.4062 149.969 96.375 150.875 95.3437C152.469 93.5312 152.531 93.4375 151.781 93.4375C151.188 93.4375 150.344 94.125 148.469 96.1562L145.938 98.875V96.1562C145.938 93.6562 145.875 93.4375 145.313 93.4375C144.719 93.4375 144.688 93.6562 144.688 98.4375Z" fill="white"/>
<path d="M226.875 93.5C226.906 93.5625 227.5 95.7813 228.219 98.4375C229.531 103.25 229.563 103.281 230.469 103.375L231.406 103.469L232.469 99.375C233.094 96.9375 233.625 95.4375 233.781 95.6875C233.906 95.9063 234.25 97 234.531 98.125C235.844 103.344 235.906 103.438 236.906 103.438C237.406 103.438 237.813 103.375 237.813 103.25C237.813 103.156 238.375 100.969 239.063 98.4063C239.75 95.8125 240.313 93.625 240.313 93.5625C240.313 93.4688 240 93.4375 239.625 93.5C238.969 93.5938 238.813 94 238 97.5625C237.469 99.7813 236.969 101.563 236.875 101.563C236.781 101.563 236.219 99.75 235.625 97.5C234.594 93.5313 234.531 93.4375 233.688 93.4375C232.969 93.4375 232.781 93.625 232.531 94.5938C232.344 95.25 231.875 97.0938 231.438 98.7188C231 100.313 230.594 101.688 230.531 101.75C230.5 101.813 229.969 99.9688 229.406 97.6563C228.438 93.6875 228.313 93.4375 227.625 93.4375C227.219 93.4375 226.875 93.4688 226.875 93.5Z" fill="white"/>
<path d="M165.938 95.1562C165.938 96.0312 165.813 96.25 165.313 96.25C164.906 96.25 164.688 96.4688 164.688 96.875C164.688 97.2812 164.906 97.5 165.313 97.5C165.875 97.5 165.938 97.7188 165.938 99.7812C165.938 102.562 166.406 103.438 168 103.438C168.75 103.438 169.063 103.281 169.063 102.969C169.063 102.719 168.813 102.5 168.5 102.5C167.5 102.5 167.188 101.812 167.188 99.625V97.5H168.125C168.844 97.5 169.063 97.375 169.063 96.875C169.063 96.375 168.844 96.25 168.125 96.25C167.25 96.25 167.188 96.1562 167.188 95.1562C167.188 94.2812 167.063 94.0625 166.563 94.0625C166.063 94.0625 165.938 94.2812 165.938 95.1562Z" fill="white"/>
<path d="M252.5 95.1562C252.5 96.0312 252.375 96.25 251.875 96.25C251.469 96.25 251.25 96.4688 251.25 96.875C251.25 97.2812 251.469 97.5 251.875 97.5C252.438 97.5 252.5 97.7188 252.5 99.7812C252.5 102.562 252.969 103.438 254.563 103.438C255.313 103.438 255.625 103.281 255.625 102.969C255.625 102.719 255.375 102.5 255.063 102.5C254.063 102.5 253.75 101.812 253.75 99.625V97.5H254.688C255.406 97.5 255.625 97.375 255.625 96.875C255.625 96.375 255.406 96.25 254.688 96.25C253.813 96.25 253.75 96.1562 253.75 95.1562C253.75 94.2812 253.625 94.0625 253.125 94.0625C252.625 94.0625 252.5 94.2812 252.5 95.1562Z" fill="white"/>
<path d="M94.125 96.9688C93.75 97.375 93.4375 97.875 93.4375 98.0625C93.4375 98.6563 94.3125 98.5 95 97.8125C95.7812 97.0313 96.625 97 97.2812 97.75C98.1562 98.6875 97.9062 99 96.0312 99.375C93.8125 99.8438 93.125 100.406 93.125 101.75C93.125 103.531 95.4688 104.406 97.125 103.25C97.5 103 97.8125 102.938 97.8125 103.094C97.8125 103.281 98.0938 103.438 98.4375 103.438C99 103.438 99.0625 103.219 99.0625 100.656C99.0625 98.3438 98.9688 97.7813 98.4062 97.0625C97.5312 95.9375 95.125 95.875 94.125 96.9688ZM97.8125 100.563C97.8125 100.875 97.5938 101.438 97.3125 101.813C96.6875 102.75 94.5938 102.688 94.4375 101.75C94.25 100.813 94.9375 100.438 97.5938 100.031C97.7188 100.031 97.8125 100.25 97.8125 100.563Z" fill="white"/>
<path d="M100.938 98.9062C100.938 101.687 101.406 103.187 102.344 103.562C103.25 103.906 104.531 103.781 105.25 103.25C105.625 103 105.938 102.937 105.938 103.094C105.938 103.281 106.219 103.437 106.563 103.437C107.188 103.437 107.219 103.281 107.125 99.9375C107.031 96.9687 106.938 96.4062 106.531 96.3125C106.094 96.25 106 96.625 105.875 98.7187C105.719 101.469 105.188 102.5 103.875 102.5C102.688 102.5 102.188 101.406 102.188 98.6875C102.188 96.4687 102.125 96.25 101.563 96.25C101 96.25 100.938 96.4687 100.938 98.9062Z" fill="white"/>
<path d="M109.75 96.75C108.469 97.625 109.125 100.312 110.656 100.312C110.906 100.312 111.625 100.469 112.281 100.656C113.25 100.906 113.469 101.094 113.375 101.625C113.312 102.031 112.938 102.406 112.406 102.594C111.688 102.844 111.344 102.75 110.594 102.219C109.688 101.531 108.75 101.344 108.75 101.844C108.75 102 109.031 102.437 109.344 102.844C109.844 103.469 110.25 103.594 111.656 103.594C113.75 103.594 114.688 102.906 114.688 101.406C114.688 100.156 114.25 99.75 112.375 99.4062C110.562 99.0625 110.031 98.625 110.5 97.875C111 97.0625 112.375 97.0312 113.031 97.7812C114.094 99.0625 115.062 98.375 114.031 97.0625C113.5 96.4062 113.125 96.25 111.906 96.25C111.094 96.25 110.156 96.4687 109.75 96.75Z" fill="white"/>
<path d="M129.5 96.5938C127.969 97.3438 127.313 100.313 128.281 102.156C129.188 103.969 132.281 104.25 133.688 102.656C134.063 102.219 134.375 101.719 134.375 101.531C134.375 101.031 133.25 101.25 132.656 101.875C131.563 103.063 129.594 102.406 129.313 100.781C129.219 100.219 129.406 100.156 131.844 100.063L134.438 99.9688L134.281 98.8125C133.938 96.6875 131.563 95.5938 129.5 96.5938ZM132.438 98.0313L133.281 98.9063L131.438 99C130.438 99.0625 129.563 99.0313 129.5 98.9688C129.219 98.6875 129.813 97.75 130.438 97.5C131.438 97.0938 131.531 97.125 132.438 98.0313Z" fill="white"/>
<path d="M135.938 99.8437C135.938 103.219 135.969 103.438 136.562 103.438C137.125 103.438 137.188 103.219 137.188 101.312C137.188 98.6562 137.656 97.6875 139 97.5625C139.75 97.5 140 97.3125 140 96.8437C140 96.0937 138.594 96.0312 137.75 96.7812C137.219 97.25 137.188 97.25 137.188 96.7812C137.188 96.4687 136.938 96.25 136.562 96.25C135.969 96.25 135.938 96.4687 135.938 99.8437Z" fill="white"/>
<path d="M153.813 99.4063C153.906 102.281 153.969 102.625 154.656 103.156C155.531 103.875 157.094 103.938 158.063 103.25C158.438 103 158.75 102.938 158.75 103.094C158.75 103.281 159.031 103.438 159.375 103.438C160 103.438 160.031 103.281 159.938 99.9375C159.844 97 159.75 96.4063 159.344 96.3125C158.938 96.25 158.813 96.6563 158.656 98.75C158.469 101.531 157.969 102.5 156.688 102.5C155.5 102.5 155 101.406 155 98.6875C155 96.4375 154.969 96.25 154.344 96.25C153.719 96.25 153.688 96.375 153.813 99.4063Z" fill="white"/>
<path d="M170.625 99.2188C170.625 101.969 170.688 102.281 171.406 102.969C172.281 103.875 173.594 103.969 174.625 103.25C175 103 175.312 102.938 175.312 103.094C175.312 103.281 175.594 103.438 175.938 103.438C176.531 103.438 176.562 103.219 176.562 99.8438C176.562 96.4688 176.531 96.25 175.938 96.25C175.375 96.25 175.312 96.4688 175.312 98.6875C175.312 101.531 174.844 102.5 173.438 102.5C172.188 102.5 171.875 101.781 171.875 98.7813C171.875 96.4688 171.812 96.25 171.25 96.25C170.656 96.25 170.625 96.4688 170.625 99.2188Z" fill="white"/>
<path d="M178.969 96.4687C178.844 96.5625 178.75 98.1875 178.75 100.062V103.438H179.531C180.281 103.438 180.313 103.375 180.313 101.062C180.313 98.25 180.625 97.5 181.844 97.5C182.594 97.5 183.125 97.0312 183.125 96.375C183.125 96 181.063 96.3125 180.563 96.7812C180.031 97.25 180 97.25 180 96.7812C180 96.25 179.344 96.0625 178.969 96.4687Z" fill="white"/>
<path d="M185.125 96.5938C183.594 97.3438 182.937 100.313 183.906 102.156C184.812 103.969 187.906 104.25 189.312 102.656C189.687 102.219 190 101.719 190 101.531C190 101.031 188.875 101.25 188.281 101.875C187.187 103.063 185.219 102.406 184.937 100.781C184.844 100.219 185.031 100.156 187.469 100.063L190.062 99.9688L189.906 98.8125C189.562 96.6875 187.187 95.5938 185.125 96.5938ZM188.062 98.0313L188.906 98.9063L187.062 99C186.062 99.0625 185.187 99.0313 185.125 98.9688C184.844 98.6875 185.437 97.75 186.062 97.5C187.062 97.0938 187.156 97.125 188.062 98.0313Z" fill="white"/>
<path d="M191.563 99.8437C191.563 103.219 191.594 103.438 192.188 103.438C192.75 103.438 192.813 103.219 192.813 101.594C192.813 99.4375 193.281 97.9062 194.063 97.5C194.906 97.0625 195.25 97.125 195.938 97.8125C196.469 98.3437 196.563 98.8437 196.563 100.937C196.563 103.219 196.625 103.438 197.188 103.438C197.75 103.438 197.813 103.219 197.813 100.656C197.813 97.1875 197.25 96.25 195.25 96.25C194.469 96.25 193.719 96.4687 193.375 96.7812C192.844 97.25 192.813 97.25 192.813 96.7812C192.813 96.4687 192.563 96.25 192.188 96.25C191.594 96.25 191.563 96.4687 191.563 99.8437Z" fill="white"/>
<path d="M212.625 96.8125C211.656 97.5938 211.25 98.5312 211.25 100C211.25 102.312 212.531 103.75 214.625 103.75C215.813 103.75 217.5 102.656 217.5 101.875C217.5 101.062 216.813 101.062 216.094 101.875C215.281 102.781 213.844 102.594 213.031 101.5C212.688 101.062 212.531 100.531 212.625 100.344C212.75 100.125 213.875 100 215.344 100C217.625 100 217.813 99.9375 217.813 99.375C217.813 98.4688 216.969 96.9375 216.281 96.5625C215.344 96.0625 213.344 96.1875 212.625 96.8125ZM215.563 97.6875C216.813 98.5625 216.438 99.0625 214.531 99.0625C213.25 99.0625 212.813 98.9375 212.813 98.625C212.813 98.125 213.969 97.1875 214.531 97.1875C214.719 97.1875 215.188 97.4062 215.563 97.6875Z" fill="white"/>
<path d="M219.375 99.8438C219.375 103.219 219.406 103.438 220 103.438C220.562 103.438 220.625 103.219 220.625 101.312C220.625 98.75 221.094 97.7188 222.344 97.5C222.906 97.4062 223.312 97.125 223.375 96.7812C223.531 96.0938 221.812 96.0312 221.125 96.75C220.656 97.1875 220.625 97.1875 220.625 96.75C220.625 96.4688 220.375 96.25 220 96.25C219.406 96.25 219.375 96.4688 219.375 99.8438Z" fill="white"/>
<path d="M241.531 97.1563C240.75 97.9688 240.625 98.3125 240.625 99.8438C240.625 101.938 240.938 102.656 242.188 103.281C244.188 104.313 246.875 103.313 246.875 101.531C246.875 101 245.781 101.25 245.375 101.875C244.563 103.188 241.875 102.219 241.875 100.625C241.875 100.063 242.094 100 244.531 100C247.469 100 247.563 99.9375 246.75 97.9688C246.219 96.6875 245.438 96.25 243.75 96.25C242.719 96.25 242.25 96.4375 241.531 97.1563ZM244.938 97.6875C246.219 98.5938 245.813 99.0625 243.75 99.0625C241.969 99.0625 241.875 99.0313 242.188 98.4375C242.531 97.8125 243.344 97.2188 243.906 97.1875C244.094 97.1875 244.563 97.4063 244.938 97.6875Z" fill="white"/>
</g>
<defs>
<clipPath id="clip0_3_160">
<rect width="300" height="103.75" fill="white"/>
</clipPath>
</defs>
</svg>
