<?xml version="1.0" standalone="no"?>
<!DOCTYPE svg PUBLIC "-//W3C//DTD SVG 20010904//EN"
 "http://www.w3.org/TR/2001/REC-SVG-20010904/DTD/svg10.dtd">
<svg version="1.0" xmlns="http://www.w3.org/2000/svg"
 width="960.000000pt" height="332.000000pt" viewBox="0 0 960.000000 332.000000"
 preserveAspectRatio="xMidYMid meet">
<metadata>
Created by potrace 1.16, written by Peter Selinger 2001-2019
</metadata>
<g transform="translate(0.000000,332.000000) scale(0.100000,-0.100000)"
fill="#000000" stroke="none">
<path d="M820 1940 l0 -1380 240 0 240 0 0 575 0 575 680 0 680 0 0 -575 0
-575 235 0 235 0 0 1380 0 1380 -235 0 -235 0 -2 -572 -3 -573 -677 -3 -678
-2 0 575 0 575 -240 0 -240 0 0 -1380z"/>
<path d="M3290 1940 l0 -1380 240 0 240 0 0 500 c0 275 4 500 8 500 7 0 1504
-813 1780 -966 l62 -35 0 273 -1 273 -789 415 c-435 228 -790 417 -790 420 0
3 355 192 790 420 l789 415 1 273 0 273 -62 -35 c-340 -188 -1772 -966 -1779
-966 -5 0 -9 202 -9 500 l0 500 -240 0 -240 0 0 -1380z"/>
<path d="M5780 1940 l0 -1380 278 0 277 0 344 818 c189 449 348 821 353 827 4
5 8 -363 8 -818 l0 -827 277 2 277 3 157 365 c86 201 352 821 591 1378 l435
1012 -270 -2 -271 -3 -356 -907 c-195 -499 -359 -910 -363 -914 -4 -4 -7 405
-7 909 l0 917 -266 -2 -266 -3 -356 -909 -357 -909 -3 911 -2 912 -240 0 -240
0 0 -1380z"/>
<path d="M3990 285 c0 -62 -1 -65 -19 -55 -32 17 -86 12 -114 -11 -35 -27 -51
-87 -37 -138 19 -72 94 -103 150 -64 17 12 25 13 28 5 2 -7 12 -12 23 -12 18
0 19 9 19 170 l0 170 -25 0 c-24 0 -25 -2 -25 -65z m-25 -100 c50 -49 23 -145
-40 -145 -63 0 -90 96 -40 145 13 14 31 25 40 25 9 0 27 -11 40 -25z"/>
<path d="M5190 180 c0 -163 1 -170 20 -170 19 0 20 7 20 170 0 163 -1 170 -20
170 -19 0 -20 -7 -20 -170z"/>
<path d="M6660 278 c0 -68 -1 -70 -18 -55 -26 23 -84 21 -115 -4 -37 -29 -54
-88 -38 -138 21 -71 95 -103 149 -65 12 8 22 10 22 5 0 -6 9 -11 20 -11 19 0
20 7 20 170 0 163 -1 170 -20 170 -18 0 -20 -7 -20 -72z m-25 -93 c52 -51 23
-145 -44 -145 -38 0 -61 32 -61 83 0 41 35 87 65 87 9 0 27 -11 40 -25z"/>
<path d="M7960 180 c0 -163 1 -170 20 -170 19 0 20 7 20 170 0 163 -1 170 -20
170 -19 0 -20 -7 -20 -170z"/>
<path d="M2650 170 l0 -160 25 0 c24 0 25 2 25 70 l0 70 85 0 85 0 0 -70 c0
-68 1 -70 25 -70 l25 0 0 160 0 160 -25 0 c-24 0 -25 -2 -25 -70 l0 -70 -85 0
-85 0 0 70 c0 68 -1 70 -25 70 l-25 0 0 -160z"/>
<path d="M4630 170 c0 -153 1 -160 20 -160 17 0 20 7 20 48 0 39 5 53 26 73
l26 24 34 -40 c19 -22 44 -55 57 -72 16 -24 30 -33 50 -33 28 0 28 1 -39 87
-45 58 -64 91 -58 99 5 7 33 40 62 73 51 58 53 61 29 61 -19 0 -46 -22 -106
-87 l-81 -87 0 87 c0 80 -2 87 -20 87 -19 0 -20 -7 -20 -160z"/>
<path d="M7260 328 c1 -2 20 -73 43 -158 42 -154 43 -155 72 -158 l30 -3 34
131 c20 78 37 126 42 118 4 -7 15 -42 24 -78 42 -167 44 -170 76 -170 16 0 29
2 29 6 0 3 18 73 40 155 22 83 40 153 40 155 0 3 -10 4 -22 2 -21 -3 -26 -16
-52 -130 -17 -71 -33 -128 -36 -128 -3 0 -21 58 -40 130 -33 127 -35 130 -62
130 -23 0 -29 -6 -37 -37 -6 -21 -21 -80 -35 -132 -14 -51 -27 -95 -29 -97 -1
-2 -18 57 -36 131 -31 127 -35 135 -57 135 -13 0 -24 -1 -24 -2z"/>
<path d="M5310 275 c0 -28 -4 -35 -20 -35 -13 0 -20 -7 -20 -20 0 -13 7 -20
20 -20 18 0 20 -7 20 -73 0 -89 15 -117 66 -117 24 0 34 5 34 15 0 8 -8 15
-18 15 -32 0 -42 22 -42 92 l0 68 30 0 c23 0 30 4 30 20 0 16 -7 20 -30 20
-28 0 -30 3 -30 35 0 28 -4 35 -20 35 -16 0 -20 -7 -20 -35z"/>
<path d="M8080 275 c0 -28 -4 -35 -20 -35 -13 0 -20 -7 -20 -20 0 -13 7 -20
20 -20 18 0 20 -7 20 -73 0 -89 15 -117 66 -117 24 0 34 5 34 15 0 8 -8 15
-18 15 -32 0 -42 22 -42 92 l0 68 30 0 c23 0 30 4 30 20 0 16 -7 20 -30 20
-28 0 -30 3 -30 35 0 28 -4 35 -20 35 -16 0 -20 -7 -20 -35z"/>
<path d="M3012 217 c-12 -13 -22 -29 -22 -35 0 -19 28 -14 50 8 25 25 52 26
73 2 28 -30 20 -40 -40 -52 -71 -15 -93 -33 -93 -76 0 -57 75 -85 128 -48 12
8 22 10 22 5 0 -6 9 -11 20 -11 18 0 20 7 20 89 0 74 -3 92 -21 115 -28 36
-105 38 -137 3z m118 -115 c0 -10 -7 -28 -16 -40 -20 -30 -87 -28 -92 2 -6 30
16 42 101 55 4 0 7 -7 7 -17z"/>
<path d="M3230 155 c0 -89 15 -137 45 -149 29 -11 70 -7 93 10 12 8 22 10 22
5 0 -6 9 -11 20 -11 20 0 21 5 18 112 -3 95 -6 113 -19 116 -14 2 -17 -10 -21
-77 -5 -88 -22 -121 -64 -121 -38 0 -54 35 -54 122 0 71 -2 78 -20 78 -18 0
-20 -7 -20 -85z"/>
<path d="M3512 224 c-41 -28 -20 -114 29 -114 8 0 31 -5 52 -11 31 -8 38 -14
35 -31 -2 -13 -14 -25 -31 -31 -23 -8 -34 -5 -58 12 -29 22 -59 28 -59 12 0
-5 9 -19 19 -32 16 -20 29 -24 74 -24 67 0 97 22 97 70 0 40 -14 53 -74 64
-58 11 -75 25 -60 49 16 26 60 27 81 3 34 -41 65 -19 32 23 -17 21 -29 26 -68
26 -26 0 -56 -7 -69 -16z"/>
<path d="M4144 229 c-49 -24 -70 -119 -39 -178 29 -58 128 -67 173 -16 12 14
22 30 22 36 0 16 -36 9 -55 -11 -35 -38 -98 -17 -107 35 -3 18 3 20 81 23 l83
3 -5 37 c-11 68 -87 103 -153 71z m94 -46 l27 -28 -59 -3 c-32 -2 -60 -1 -62
1 -9 9 10 39 30 47 32 13 35 12 64 -17z"/>
<path d="M4350 125 c0 -108 1 -115 20 -115 18 0 20 7 20 68 0 85 15 116 58
120 24 2 32 8 32 23 0 24 -45 26 -72 2 -17 -15 -18 -15 -18 0 0 10 -8 17 -20
17 -19 0 -20 -7 -20 -115z"/>
<path d="M4922 139 c3 -92 5 -103 27 -120 28 -23 78 -25 109 -3 12 8 22 10 22
5 0 -6 9 -11 20 -11 20 0 21 5 18 112 -3 94 -6 113 -19 116 -13 2 -17 -11 -22
-78 -6 -89 -22 -120 -63 -120 -38 0 -54 35 -54 122 0 72 -1 78 -21 78 -20 0
-21 -4 -17 -101z"/>
<path d="M5460 145 c0 -88 2 -98 25 -120 28 -29 70 -32 103 -9 12 8 22 10 22
5 0 -6 9 -11 20 -11 19 0 20 7 20 115 0 108 -1 115 -20 115 -18 0 -20 -7 -20
-78 0 -91 -15 -122 -60 -122 -40 0 -50 23 -50 119 0 74 -2 81 -20 81 -19 0
-20 -7 -20 -95z"/>
<path d="M5727 233 c-4 -3 -7 -55 -7 -115 l0 -108 25 0 c24 0 25 2 25 76 0 90
10 114 49 114 24 0 41 15 41 36 0 12 -66 2 -82 -13 -17 -15 -18 -15 -18 0 0
17 -21 23 -33 10z"/>
<path d="M5924 229 c-49 -24 -70 -119 -39 -178 29 -58 128 -67 173 -16 12 14
22 30 22 36 0 16 -36 9 -55 -11 -35 -38 -98 -17 -107 35 -3 18 3 20 81 23 l83
3 -5 37 c-11 68 -87 103 -153 71z m94 -46 l27 -28 -59 -3 c-32 -2 -60 -1 -62
1 -9 9 10 39 30 47 32 13 35 12 64 -17z"/>
<path d="M6130 125 c0 -108 1 -115 20 -115 18 0 20 7 20 59 0 69 15 118 40
131 27 14 38 12 60 -10 17 -17 20 -33 20 -100 0 -73 2 -80 20 -80 18 0 20 7
20 89 0 111 -18 141 -82 141 -25 0 -49 -7 -60 -17 -17 -15 -18 -15 -18 0 0 10
-8 17 -20 17 -19 0 -20 -7 -20 -115z"/>
<path d="M6804 222 c-31 -25 -44 -55 -44 -102 0 -74 41 -120 108 -120 38 0 92
35 92 60 0 26 -22 26 -45 0 -26 -29 -72 -23 -98 12 -11 14 -16 31 -13 37 4 7
40 11 87 11 73 0 79 2 79 20 0 29 -27 78 -49 90 -30 16 -94 12 -117 -8z m94
-28 c40 -28 28 -44 -33 -44 -41 0 -55 4 -55 14 0 16 37 46 55 46 6 0 21 -7 33
-16z"/>
<path d="M7020 125 c0 -108 1 -115 20 -115 18 0 20 7 20 68 0 82 15 115 55
122 18 3 31 12 33 23 5 22 -50 24 -72 1 -15 -14 -16 -14 -16 0 0 9 -8 16 -20
16 -19 0 -20 -7 -20 -115z"/>
<path d="M7729 211 c-25 -26 -29 -37 -29 -86 0 -67 10 -90 50 -110 64 -33 150
-1 150 56 0 17 -35 9 -48 -11 -26 -42 -112 -11 -112 40 0 18 7 20 85 20 94 0
97 2 71 65 -17 41 -42 55 -96 55 -33 0 -48 -6 -71 -29z m109 -17 c41 -29 28
-44 -38 -44 -57 0 -60 1 -50 20 11 20 37 39 55 40 6 0 21 -7 33 -16z"/>
</g>
</svg>
