<svg width="300" height="178" viewBox="0 0 300 178" fill="none" xmlns="http://www.w3.org/2000/svg">
<g clip-path="url(#clip0_3_187)">
<path d="M29.9123 7.45615C28.3333 8.42107 26.7544 10.3948 26.7544 11.4035C26.7544 11.8421 26.0965 12.5877 25.2632 13.0702C23.4649 14.1228 22.4123 15.614 21.9298 17.807C21.6228 19.1667 21.7544 19.693 22.6316 21.1404L23.7281 22.8509L21.7983 25.7895C20.7018 27.4123 19.1228 30.0877 18.2895 31.7983C17.3246 33.6842 16.3597 35.0439 15.7018 35.307C14.8684 35.6579 14.6491 36.1842 14.4298 38.1579C14.2544 39.8246 13.3333 42.4123 11.4474 46.4912C6.92984 56.3158 2.71931 70.4825 1.05265 81.3597C0.175452 87.3246 0.0438732 99.9123 0.833347 105.702C1.71054 112.368 3.42107 120.482 4.86843 125C5.92107 128.289 6.0965 129.342 5.74563 130.175C5.04387 131.667 5.13159 131.974 6.5351 133.289C7.28072 133.991 8.50879 136.228 9.64914 139.035C10.6579 141.579 12.8509 146.447 14.5614 149.868C16.579 153.904 17.6755 156.667 17.7193 157.719C17.7632 159.254 17.6316 159.386 16.2281 159.781C13.9912 160.351 13.5965 160.833 13.5965 163.026C13.5965 164.605 13.8597 165.219 14.9123 166.316C15.9649 167.368 16.5351 167.588 17.5 167.412C18.3333 167.237 19.4298 167.5 20.8333 168.246C23.5965 169.605 25.0877 169.561 28.2895 168.026C31.2281 166.623 35 162.939 37.2807 159.298L38.6404 157.018L41.1842 158.289C44.079 159.781 48.9035 160.921 49.5176 160.307C49.7369 160.044 51.6228 154.649 53.7281 148.246C55.8333 141.842 59.4737 130.702 61.8421 123.465C64.2105 116.228 67.8509 105.088 69.9562 98.6842C72.0614 92.2807 76.0088 80.1755 78.7719 71.7544C83.4649 57.3684 83.8158 56.0965 84.2544 51.1842C84.7369 45.6579 84.5614 43.9035 83.4211 42.1053C83.0702 41.5351 82.4123 39.3421 82.0176 37.2807C80.4386 29.4298 76.886 25 70.9211 23.4211C66.2719 22.193 63.2456 22.9386 59.2105 26.3158C56.6228 28.4649 54.8684 29.1228 52.7193 28.7281C49.5176 28.114 42.3684 19.4298 37.2807 9.95615L35.4386 6.57896L33.2895 6.62282C32.1053 6.66668 30.5702 7.06142 29.9123 7.45615ZM32.0176 8.11405C32.0176 8.90352 30.5263 11.0526 29.386 11.8421C26.8421 13.6404 26.7983 11.7983 29.2983 9.07896C30.2632 8.07019 32.0176 7.45615 32.0176 8.11405ZM32.8947 9.64914C32.6316 10.1316 32.3246 10.5263 32.193 10.5263C32.1053 10.5263 32.193 10.1316 32.4562 9.64914C32.7193 9.16668 33.0263 8.77194 33.1579 8.77194C33.2456 8.77194 33.1579 9.16668 32.8947 9.64914ZM35.2193 9.82458C35.3509 10.1755 35.1316 10.5263 34.5614 10.6579C34.0351 10.8333 33.7719 11.1842 33.8597 11.6667C34.079 12.807 35.0439 12.9386 35.4386 11.8421C35.7456 11.0088 36.0526 11.3158 37.8509 14.386C40.3509 18.7719 45.9211 26.1842 48.0702 28.0702C49.2105 29.079 49.5176 29.5614 49.1228 29.8246C48.4211 30.2632 48.7281 31.7983 49.5614 31.7983C49.9562 31.7983 50.2193 31.4035 50.1755 30.7895C50.1755 30.0439 50.307 29.8684 50.8333 30.0877C51.2281 30.2632 52.4562 30.4825 53.5965 30.614C55.8772 30.7895 57.4562 30.0439 61.3158 26.9737C63.8158 24.9562 66.1842 24.3421 69.079 24.9123C72.3246 25.5702 73.4649 26.0965 75.4386 27.8948C78.2018 30.3948 80.6579 35.0877 79.2105 35.0877C78.8158 35.0877 78.5088 34.9123 78.5088 34.6491C78.5088 34.4298 77.8948 33.2018 77.1491 32.0176C75.9211 30 75.6579 29.8246 74.5614 30.0439C73.2456 30.3509 72.6316 29.8246 72.193 28.0263C71.886 26.6667 70.9649 26.3158 67.6755 26.3158C65.7456 26.3158 65.3509 26.4474 65.3509 27.1053C65.3509 27.5439 65.1316 28.114 64.9123 28.3333C64.2544 28.9912 65.2193 30.9649 66.4035 31.4035C66.886 31.579 67.7193 31.8421 68.2018 32.0176C68.9474 32.2369 68.5526 32.6316 65.8333 34.4298C62.1053 36.8421 58.0702 38.5965 58.4649 37.5877C58.8158 36.6667 58.0702 35.7895 57.2369 36.0965C56.7983 36.2719 56.579 36.7544 56.6667 37.3684C56.7983 38.3333 56.6667 38.3772 54.2105 38.2895C49.9562 38.114 46.7105 36.2719 41.1842 30.7456C38.6404 28.2018 35 24.079 33.114 21.579L29.6491 17.0614L28.5526 18.1579L27.4562 19.2983L28.8597 21.2719C29.6491 22.3684 30.2632 23.7281 30.2632 24.2544C30.2193 25.0877 29.8684 24.8684 28.0263 22.807C26.8421 21.4912 25.9211 20.1755 25.9649 19.8684C26.1404 19.1667 34.2983 9.21054 34.693 9.21054C34.8684 9.21054 35.0877 9.4737 35.2193 9.82458ZM28.9474 14.4737C27.9386 15.6579 27.0614 16.6667 26.9737 16.6667C26.886 16.6667 27.0614 16.0526 27.3684 15.307C27.807 14.2544 29.9123 12.2807 30.614 12.2807C30.7018 12.2807 29.9562 13.2456 28.9474 14.4737ZM26.886 13.8597C27.2807 14.2983 26.0088 16.5351 24.9123 17.2807C22.5 18.9912 22.1053 17.5 24.2983 15.1755C25.7456 13.6404 26.3158 13.3333 26.886 13.8597ZM25.6579 18.4211C25.2193 18.9035 24.5614 19.2983 24.1667 19.2983C23.7281 19.2983 23.9912 18.9474 24.7807 18.4649C26.4912 17.3684 26.6228 17.3684 25.6579 18.4211ZM30.2632 20.0877C30.2632 21.1404 30.2193 21.1842 29.5614 20.5263C29.1228 20.1316 28.9474 19.4737 29.1228 19.079C29.5176 18.0702 30.2632 18.6842 30.2632 20.0877ZM32.8947 23.7281C32.8947 24.6491 32.8509 24.693 32.0176 23.9035C31.5351 23.4649 31.1404 22.5439 31.1404 21.7983V20.4825L32.0176 21.6228C32.5 22.2369 32.8947 23.1579 32.8947 23.7281ZM28.2895 25.8772C30 27.9825 30.7018 29.386 30.0877 29.386C29.9562 29.386 28.9912 28.2895 27.8947 26.9737L25.9649 24.5614L24.2983 26.8421C23.2018 28.4211 22.8509 29.1667 23.2456 29.2983C23.5526 29.4298 23.2018 29.7807 22.4562 30.0877C20.8333 30.7456 19.386 32.8948 18.9912 35.2193C18.7719 36.7105 18.6842 36.8421 18.0702 36.2281C17.4562 35.6579 17.6755 35.1316 19.9562 31.2719C22.7632 26.5351 25.307 23.114 25.9211 23.3333C26.1404 23.4211 27.193 24.5614 28.2895 25.8772ZM35.5263 27.193V28.2895L34.6491 27.193C34.1667 26.579 33.7719 25.614 33.7719 25V23.9035L34.6491 25C35.1316 25.614 35.5263 26.579 35.5263 27.193ZM32.8947 27.3684C32.8947 28.1579 32.8509 28.1579 32.0176 27.4123C31.5351 26.9737 31.1404 26.0965 31.1404 25.4825V24.3421L32.0176 25.4386C32.5 26.0526 32.8947 26.9298 32.8947 27.3684ZM26.6667 26.8421C27.5 27.6755 27.2807 28.0702 25.8772 28.0702C24.6491 28.0702 24.6053 27.9825 25.0877 27.193C25.7456 26.1842 25.9649 26.1404 26.6667 26.8421ZM70.5263 27.4562C71.0526 27.6316 71.4912 28.0702 71.4912 28.4649C71.4912 28.8597 71.7983 29.6491 72.193 30.2193C72.7632 31.0088 73.2018 31.1842 74.1667 30.9649C75.2193 30.7895 75.5263 30.9649 76.3597 32.3684C77.0176 33.4649 77.2807 34.6053 77.2369 35.8333C77.193 37.193 77.3684 37.7632 77.9386 38.114C78.3772 38.3333 78.5965 38.6842 78.4211 38.8597C77.8948 39.3421 76.7544 38.1579 75.6141 35.8772C74.4737 33.6842 73.5088 32.8948 71.7983 32.8948C71.2281 32.8948 70.3948 32.5 69.9562 32.0176C69.5176 31.5351 68.8597 31.1404 68.4649 31.1404C68.0702 31.1404 67.2807 30.7456 66.7105 30.307C65.8772 29.693 65.7456 29.2544 65.9649 28.3333C66.1842 27.3684 66.4912 27.193 67.8948 27.193C68.7719 27.193 69.9562 27.3246 70.5263 27.4562ZM38.5965 30.3509C38.5965 30.7895 38.4211 31.1404 38.2018 31.1404C37.5439 31.1404 36.4035 29.2983 36.4035 28.3333C36.4035 27.5439 36.4912 27.5439 37.5 28.5088C38.114 29.079 38.5965 29.9123 38.5965 30.3509ZM35.5263 30.8333V32.1491L34.6491 31.0088C34.1667 30.3948 33.7719 29.4737 33.7719 28.9035C33.7719 27.9825 33.8158 27.9386 34.6491 28.7281C35.1316 29.1667 35.5263 30.0877 35.5263 30.8333ZM29.2544 29.9123C29.9123 30.5263 30.2632 31.3597 30.2632 32.3246C30.2632 34.1228 29.8684 34.1228 28.7281 32.3246C28.2456 31.5351 27.193 30.614 26.4474 30.2193C25.6579 29.8246 25.1316 29.386 25.307 29.2105C25.9211 28.5965 28.2895 28.9912 29.2544 29.9123ZM32.8947 33.114C32.8947 34.079 32.5439 35.1755 32.0176 35.8333L31.1404 36.9737V35.5263C31.1404 34.693 31.4474 33.6842 31.886 33.2456C32.5439 32.5 32.5439 32.4123 31.886 31.6667C31.4474 31.2281 31.1404 30.4825 31.1404 30.0439C31.1404 29.386 31.2719 29.4737 32.0176 30.3948C32.5439 31.0526 32.8947 32.1491 32.8947 33.114ZM27.5877 32.2369C28.6842 33.4649 28.9474 34.2105 28.9474 35.7456C28.9474 38.114 28.2895 39.693 26.8421 40.614C25.3947 41.579 22.9825 41.4912 21.8421 40.5263C18.0263 37.0176 19.7807 30.7018 24.6053 30.7018C25.9211 30.7018 26.4912 31.0088 27.5877 32.2369ZM41.2281 33.2456C41.2281 34.2983 41.1842 34.3421 40.3509 33.5526C39.8684 33.114 39.4737 32.2807 39.4737 31.6667C39.4737 30.614 39.5176 30.5702 40.3509 31.3597C40.8333 31.7983 41.2281 32.6316 41.2281 33.2456ZM38.5965 34.079C38.5965 34.6491 38.4211 35.0877 38.2018 35.0877C37.5 35.0877 36.4035 33.2018 36.4035 32.0614V31.0088L37.5 32.0176C38.114 32.5877 38.5965 33.5088 38.5965 34.079ZM43.8597 35.614C43.8597 36.3158 43.7281 36.3597 42.9825 35.9649C42.4562 35.6579 42.1053 35.0439 42.1053 34.3421C42.1053 33.2456 42.1053 33.2018 42.9825 33.9912C43.4649 34.4298 43.8597 35.1755 43.8597 35.614ZM68.8597 34.1228C68.8597 34.2983 68.4649 34.693 67.9825 35C67.0176 35.5702 66.7983 35.1316 67.6316 34.2983C68.2456 33.6842 68.8597 33.5965 68.8597 34.1228ZM73.7719 34.5176C74.4737 35.307 75.8772 37.8948 75.8772 38.3772C75.8772 39.079 73.4211 38.4649 72.5439 37.5C71.9737 36.886 71.1404 36.4035 70.6141 36.4035C69.6053 36.4035 69.386 35.1755 70.2632 34.2983C71.0526 33.5088 73.0263 33.6404 73.7719 34.5176ZM41.2281 36.7105C41.2281 37.6316 41.1404 37.6755 40.3509 37.193C39.7807 36.8421 39.4737 36.1404 39.4737 35.3509C39.4737 34.1228 39.4737 34.079 40.3509 34.8684C40.8333 35.307 41.2281 36.1404 41.2281 36.7105ZM35.5263 35.1755C35.5263 35.4825 35.5263 51.7983 35.5263 71.4035C35.5263 106.009 35.5263 107.105 34.693 108.684L33.8158 110.307L33.7719 73.3333C33.7719 44.6491 33.9035 36.1842 34.2983 35.5263C34.9123 34.5176 35.5263 34.386 35.5263 35.1755ZM65.7895 36.6228C65.4825 36.9737 64.9123 37.2807 64.5176 37.2807C63.9912 37.2369 64.0351 37.0614 64.8684 36.3597C66.0088 35.3948 66.6667 35.5702 65.7895 36.6228ZM18.2895 38.2018C18.9035 39.386 19.079 44.4737 18.4649 44.1228C18.2456 43.9912 18.0702 43.1579 18.114 42.3246C18.1579 40.4386 17.0614 39.0351 16.0965 39.8684C15.5702 40.307 15.4386 40.1316 15.2632 38.8158C15.1755 37.9825 15.2632 36.9737 15.4825 36.579C15.8333 36.0088 15.9649 35.9649 16.7983 36.5351C17.3246 36.886 18.0263 37.6316 18.2895 38.2018ZM46.0965 36.4035C47.0176 36.9298 47.2369 38.1579 46.3597 38.1579C45.6141 38.1579 44.7369 37.2807 44.7369 36.5351C44.7369 35.8333 44.9562 35.8333 46.0965 36.4035ZM68.8597 36.6228C68.8597 36.9737 68.4649 37.4562 67.9825 37.7193C67.3246 38.0702 67.1053 38.0702 67.1053 37.5877C67.1053 36.9737 67.9386 35.9649 68.5088 35.9649C68.6842 35.9649 68.8597 36.2719 68.8597 36.6228ZM37.807 37.1491C38.5526 37.807 38.5965 39.386 38.5965 69.386C38.5965 100.132 38.5965 100.965 37.7193 102.632C37.2369 103.597 36.7105 104.386 36.6228 104.386C36.4912 104.386 36.4035 89.079 36.4035 70.3948C36.4035 51.7105 36.5351 36.4035 36.7105 36.4035C36.8421 36.4035 37.3684 36.7105 37.807 37.1491ZM80.6579 38.9474C80.7018 39.6053 80.4825 39.9123 80.1755 39.8246C79.5176 39.6053 79.2105 37.9386 79.6053 36.9298C79.8684 36.2719 79.9562 36.2719 80.2632 37.0614C80.4825 37.5439 80.6579 38.3772 80.6579 38.9474ZM29.7807 38.7719C29.386 39.1228 29.3421 39.079 29.5614 38.4649C29.693 38.0263 29.8684 37.4123 29.8684 37.1491C29.9123 36.8421 30 36.9737 30.1316 37.4562C30.2632 37.8948 30.0877 38.4649 29.7807 38.7719ZM43.3333 37.3684C43.6404 37.6755 43.8597 38.3772 43.8597 38.9912C43.8597 40 43.8158 40.0439 42.9825 39.2544C42.5 38.8158 42.1053 38.114 42.1053 37.6316C42.1053 36.7105 42.5877 36.6228 43.3333 37.3684ZM63.3333 37.8948C63.0702 38.5965 61.8421 39.1667 61.4474 38.7719C61.1842 38.5088 62.6316 37.2807 63.2456 37.2807C63.4211 37.2807 63.4649 37.5439 63.3333 37.8948ZM32.0176 113.947L31.1842 115.57L31.1404 77.7193C31.1404 42.3246 31.1842 39.7807 31.9298 38.8597C32.6316 37.8509 32.6755 39.4737 32.807 75.0877C32.8947 111.316 32.8947 112.368 32.0176 113.947ZM48.8597 37.9825C49.2544 38.114 49.5614 38.5526 49.5614 38.9035C49.5614 39.7807 48.0702 39.4298 47.8948 38.4649C47.7193 37.6316 47.8509 37.5877 48.8597 37.9825ZM66.2281 38.3772C66.2281 39.0351 64.5614 40.1316 64.1667 39.7369C63.8597 39.4298 65.307 37.7193 65.8772 37.7193C66.0526 37.7193 66.2281 38.0263 66.2281 38.3772ZM46.8421 40.5263C47.0176 41.3597 46.0088 41.4474 45.2632 40.7018C44.9562 40.3948 44.7369 39.7807 44.7369 39.3421C44.7369 38.5526 44.8246 38.5526 45.7456 39.1228C46.2719 39.5176 46.7544 40.1316 46.8421 40.5263ZM52.193 39.7807C52.193 40.6579 50.7018 40.307 50.5263 39.386C50.4386 38.8597 50.6141 38.7281 51.2719 38.9035C51.7983 39.0351 52.193 39.4298 52.193 39.7807ZM60.5263 39.2544C60.5263 39.6053 60.1316 39.9123 59.6491 39.9123C58.7719 39.9123 58.5088 39.4298 59.079 38.9035C59.6053 38.3333 60.5263 38.5965 60.5263 39.2544ZM71.7983 39.2544C71.8421 39.4737 71.4474 40.2632 70.8333 41.0088L69.7807 42.3246L69.7369 40.7456C69.7369 39.8684 69.8684 39.0351 70.0439 38.8597C70.4386 38.4649 71.6228 38.7281 71.7983 39.2544ZM41.2281 67.9825C41.1842 94.5614 41.1404 95.9211 40.3509 97.3684C39.5176 98.9035 39.5176 98.7281 39.4737 68.9474C39.4737 39.1228 39.4737 39.0351 40.3509 39.5614C41.2281 40.1316 41.2281 40.5702 41.2281 67.9825ZM57.8948 39.8684C57.8948 40.0877 57.5 40.3509 57.0176 40.4825C56.0526 40.7456 55.7456 39.693 56.7105 39.3421C57.3246 39.1228 57.8948 39.386 57.8948 39.8684ZM55.1755 40C55.0439 40.307 54.6053 40.5702 54.1667 40.5702C53.7281 40.5702 53.2895 40.307 53.2018 40C53.0702 39.693 53.4211 39.4737 54.1667 39.4737C54.9123 39.4737 55.2632 39.693 55.1755 40ZM62.9825 41.0526C61.886 41.8421 61.4035 41.8421 61.4035 41.0088C61.4035 40.1755 62.807 39.386 63.3772 39.9562C63.6842 40.2632 63.5526 40.614 62.9825 41.0526ZM68.0263 44.0351L67.1053 44.9123V42.6755C67.1053 40.9649 67.2807 40.307 67.8948 39.9562C68.5526 39.6053 68.6404 39.7369 68.7719 41.3158C68.9035 42.6755 68.6842 43.3333 68.0263 44.0351ZM79.2983 40.6579C81.4035 41.7105 82.5 43.3333 82.7632 45.8333L83.0263 47.8509L80.6141 45.4386C77.9386 42.807 75.5702 41.8421 72.7193 42.2807C70.7456 42.5877 70.6579 42.3246 72.2807 40.6579C73.3333 39.5176 73.6404 39.4298 75.5702 39.6491C76.7544 39.7807 78.4211 40.2193 79.2983 40.6579ZM23.6842 42.3246C24.6491 42.5439 25.5263 42.3684 26.7983 41.7105L28.5526 40.7895L26.8421 43.2895C25.8772 44.693 24.7807 46.4912 24.386 47.2369C23.9912 48.0263 23.3772 48.6842 23.0263 48.6842C22.2807 48.6842 22.1053 47.1491 22.807 46.7105C23.0263 46.579 23.5965 45.8772 24.1228 45.1755L25.0439 43.9035L23.5965 43.5088C22.807 43.2456 21.7544 42.9386 21.3158 42.7193C20.5263 42.4123 20.4825 42.5439 20.7456 44.6491C20.9649 46.6228 20.8772 46.9737 20.1316 47.4123C18.9035 48.0263 18.8597 47.8509 19.2983 45.8333C19.5176 44.8684 19.7369 43.114 19.7369 41.9737V39.8246L21.0526 40.9211C21.7544 41.5351 22.9386 42.1491 23.6842 42.3246ZM17.5439 42.6316C17.5 43.1579 17.6316 44.6491 17.807 45.9211C18.0702 48.0263 17.9825 48.2456 16.8421 49.3421C16.1404 50 15.0877 50.9649 14.4737 51.579C12.9825 52.9825 12.7193 52.8948 12.7193 51.0965C12.7193 50.2632 12.5 49.1667 12.2369 48.7281C11.5351 47.6755 13.4211 43.5088 15.4386 41.7105C16.9737 40.307 17.5439 40.5702 17.5439 42.6316ZM49.4737 41.579C49.6053 42.4123 49.4298 42.5877 48.8158 42.4562C48.3772 42.3684 47.9825 41.8421 47.8948 41.3158C47.7632 40.4825 47.9386 40.307 48.5526 40.4386C48.9912 40.5263 49.386 41.0526 49.4737 41.579ZM60.5263 41.6228C60.5263 42.0614 60.1316 42.5439 59.6491 42.6755C58.9912 42.8509 58.7719 42.6755 58.7719 42.1053C58.7719 41.3597 59.2983 40.9211 60.2193 40.8333C60.3948 40.7895 60.5263 41.1404 60.5263 41.6228ZM43.3333 41.7544C43.7281 42.1491 43.8597 48.2018 43.8597 66.4035C43.8158 89.386 43.7719 90.6579 42.9825 92.1053C42.1491 93.6404 42.1491 93.5088 42.1053 67.4123C42.1053 53.0263 42.2807 41.2281 42.4562 41.2281C42.6316 41.2281 43.0263 41.4474 43.3333 41.7544ZM52.193 42.3684C52.193 43.2456 52.0176 43.4649 51.4912 43.2456C51.0965 43.114 50.7018 42.9825 50.6141 42.9825C50.5263 42.9825 50.4386 42.5877 50.4386 42.1053C50.4386 41.5351 50.7456 41.2281 51.3158 41.2281C51.9737 41.2281 52.193 41.5351 52.193 42.3684ZM65.5263 47.4562C65.1316 48.3772 64.6053 49.1228 64.386 49.1228C64.2105 49.1228 64.0351 47.6755 64.0351 45.8772C64.0351 42.9825 64.1667 42.5 65.0439 41.886C66.0088 41.2281 66.0088 41.2281 66.1404 43.5088C66.2281 45 66.0088 46.4035 65.5263 47.4562ZM26.5351 125C24.4737 129.123 22.6755 132.456 22.5439 132.456C21.7105 132.456 17.8509 122.237 16.0526 115.175C13.4649 105.307 12.8948 90.7895 14.693 80.2632C16.886 67.2807 21.7544 54.1667 27.8947 44.7369L30.0439 41.4474L30.1755 79.5176L30.2632 117.544L26.5351 125ZM55.2632 42.5439C55.2632 43.2018 54.9562 43.4211 54.1667 43.4211C53.3772 43.4211 53.0702 43.2018 53.0702 42.5439C53.0702 41.886 53.3772 41.6667 54.1667 41.6667C54.9562 41.6667 55.2632 41.886 55.2632 42.5439ZM57.807 42.4123C57.5877 43.5526 56.1404 43.6842 56.1404 42.5877C56.1404 41.9298 56.4035 41.6667 57.0614 41.6667C57.6755 41.6667 57.8948 41.886 57.807 42.4123ZM46.4035 43.5088C46.7983 43.9035 46.9298 49.079 46.9298 64.2105L46.886 84.4298L45.8333 86.4035L44.7807 88.3772L44.7369 65.6579C44.7369 42.2369 44.7807 41.886 46.4035 43.5088ZM63.5088 47.2369C63.5088 50.307 63.3333 51.4912 62.5877 53.0702L61.6228 55.0439L61.4912 49.6053C61.4035 44.8684 61.4474 44.1228 62.1491 43.6404C62.5877 43.3333 63.0702 43.1579 63.2018 43.2456C63.3772 43.3333 63.5088 45.1316 63.5088 47.2369ZM77.6316 44.079C79.079 44.8684 82.1491 48.0702 80.9211 47.5877C79.4298 46.9737 76.886 46.8421 76.579 47.3246C76.1404 48.0263 75 47.8948 75 47.1491C75 46.0088 73.2895 44.6491 72.0176 44.8246C71.1842 44.9123 70.7895 44.7369 70.7018 44.2105C70.4386 42.8948 75.2193 42.807 77.6316 44.079ZM23.2456 44.693C23.2456 45.2632 22.1053 46.0965 21.7983 45.7456C21.1842 45.1755 21.5351 44.2983 22.3684 44.2983C22.8509 44.2983 23.2456 44.4737 23.2456 44.693ZM49.4737 61.9298C49.5614 78.7281 49.5176 79.386 48.6842 80.7895L47.807 82.2369V63.2456C47.807 45.3948 47.8509 44.2544 48.5965 44.386C49.2983 44.5176 49.3421 45.7456 49.4737 61.9298ZM59.693 59.079L58.8158 60.7456L58.7719 52.7632C58.7719 45.5263 58.8597 44.7807 59.5614 44.6491C60.2193 44.5176 60.307 45.0877 60.4386 50.9649C60.5263 56.7105 60.4386 57.6316 59.693 59.079ZM52.193 59.6491C52.193 71.7983 52.1053 74.386 51.5351 75.4386C51.1404 76.1842 50.7456 76.7544 50.6579 76.7544C50.5263 76.7544 50.4386 69.6491 50.4386 60.9649C50.4386 45.4825 50.4386 45.1755 51.3158 45.1755C52.193 45.1755 52.193 45.4825 52.193 59.6491ZM57.8948 54.0351C57.8509 61.9737 57.7632 63.114 57.0176 64.4737C56.5351 65.307 56.1842 65.7018 56.1404 65.3509C56.1404 64.079 56.0965 46.7105 56.0965 45.9211C56.1404 45.4825 56.4912 45.1755 57.0176 45.1755C57.8509 45.1755 57.8948 45.4825 57.8948 54.0351ZM55.2632 56.6667C55.2632 66.6667 55.1755 67.9386 54.386 69.6053C53.9474 70.6579 53.4649 71.4912 53.2895 71.4912C53.1579 71.4912 53.0702 65.6579 53.0702 58.5526V45.614H54.1667H55.2632V56.6667ZM68.8597 47.0176C68.8597 47.807 68.4649 49.2544 68.0263 50.2193L67.193 51.9737L67.1491 49.6491C67.1053 47.5 67.7632 45.614 68.5088 45.614C68.7281 45.614 68.8597 46.2719 68.8597 47.0176ZM73.4649 46.9737C73.9474 47.7193 73.5526 47.7632 72.6316 47.1053C71.886 46.579 71.886 46.4912 72.4562 46.4912C72.8509 46.4912 73.3333 46.7105 73.4649 46.9737ZM21.6667 48.5088C21.9737 49.3421 22.0176 49.2544 20.7018 49.9562C19.9123 50.3948 19.693 50.3509 19.4737 49.7807C19.2983 49.386 19.5176 48.8158 20 48.4649C21.0965 47.6316 21.3597 47.6755 21.6667 48.5088ZM80 48.2456C80.6141 48.4649 81.3158 49.0351 81.579 49.5176C81.9298 50.2193 81.9298 50.3509 81.4912 50.2193C80.6141 49.9123 79.6491 50.7018 79.9562 51.4912C80.2632 52.2369 81.5351 52.0176 82.1053 51.1404C82.2807 50.8772 82.4562 51.4035 82.4562 52.2807C82.4562 54.6491 80.7018 56.579 78.5526 56.579C76.7105 56.579 75.1755 55.4386 74.7369 53.7281C74.2983 51.9298 74.9562 49.693 76.1842 48.6842C77.4123 47.7193 78.3333 47.5877 80 48.2456ZM11.8421 50.9211C11.8421 51.886 11.6228 52.193 10.9649 52.193C9.95615 52.193 9.95615 52.2807 10.5702 50.5263C11.1404 48.8597 11.8421 49.079 11.8421 50.9211ZM18.6842 50.8333C18.1579 51.6667 17.6316 51.3597 17.8509 50.3948C18.0263 49.8246 18.2456 49.6491 18.5088 49.9123C18.7719 50.1755 18.8158 50.5702 18.6842 50.8333ZM65.2632 56.4035L64.2544 58.5526L64.1228 56.2719C64.0351 54.5614 64.2544 53.4211 65 51.886L66.0088 49.7807L66.1404 52.0176C66.2281 53.5965 66.0088 54.8246 65.2632 56.4035ZM22.3684 50.6579C22.3684 51.3158 21.3158 52.9825 21.0088 52.807C20.4386 52.4562 20.5263 50.9649 21.1842 50.7456C21.886 50.4386 22.3684 50.3948 22.3684 50.6579ZM16.4035 52.0614C16.0088 53.7719 15.8333 53.9474 15.1316 53.6404C14.2544 53.3333 14.2983 52.9825 15.3509 51.8421C16.5351 50.5702 16.7544 50.614 16.4035 52.0614ZM70.9649 52.0176C71.579 52.6755 71.579 52.7193 70.8333 52.5877C70.3948 52.5 69.9562 52.1491 69.8246 51.8421C69.6053 51.0965 70.0877 51.1842 70.9649 52.0176ZM19.9123 52.4562C20.3509 53.5526 20.2193 53.7719 19.1228 54.2983C18.2018 54.693 18.0263 54.6491 17.807 53.8158C17.6316 53.2018 17.807 52.6755 18.2895 52.2807C19.2544 51.579 19.6053 51.6228 19.9123 52.4562ZM14.1667 54.2544C14.8246 54.5614 15.3509 54.9123 15.3509 54.9562C15.3509 55.0439 14.3421 58.0263 13.114 61.6667C8.8158 74.386 7.01756 83.5088 7.01756 92.807V97.3684H3.90352C1.18422 97.3684 0.833347 97.2807 0.964926 96.579C1.05265 96.0088 1.62282 95.7895 3.37721 95.7018L5.65791 95.5702L5.87721 92.6316C6.5351 84.7369 7.10528 79.9123 7.67545 77.1053C8.02633 75.4386 8.24563 73.8597 8.07019 73.6404C7.93861 73.4211 6.84212 73.2456 5.65791 73.2456C3.77194 73.2456 3.46493 73.114 3.5965 72.4562C3.72808 71.8421 4.21054 71.7105 6.0965 71.7105H8.46493L11.0088 64.4737C12.4123 60.4825 13.5526 56.9298 13.5526 56.5351C13.5965 56.0088 13.0702 55.7018 11.9737 55.5263C8.90352 54.9562 8.72808 54.8684 9.2544 53.9035C9.60528 53.2018 9.95615 53.0702 11.3158 53.3333C12.193 53.5088 13.4649 53.9035 14.1667 54.2544ZM71.6667 53.5965C72.3684 53.4649 72.4562 53.5088 72.1053 53.9035C71.579 54.4737 69.2983 54.1228 69.2983 53.4211C69.2983 53.2018 69.5614 53.2018 70 53.4211C70.3948 53.6404 71.1404 53.7281 71.6667 53.5965ZM78.4649 57.6316C79.5614 57.5877 80.6579 57.2369 81.1404 56.7983C81.6228 56.3597 82.0176 56.1404 82.0176 56.2719C82.0176 56.4035 80.0439 62.5 77.6755 69.8246C75.2632 77.1491 72.193 86.6228 70.7895 90.8772C68.4649 97.9825 67.5439 100 67.5439 97.8948C67.5439 96.5351 65.7895 94.2544 64.2105 93.5965C63.0702 93.1141 62.2807 93.0702 61.1404 93.3772C59.8246 93.7281 59.6053 93.7281 59.8246 93.1579C59.9562 92.7632 60.0877 92.3246 60.0877 92.1491C60.0877 91.9298 60.7018 91.7983 61.4474 91.7544C62.3246 91.7544 63.0702 91.3597 63.4649 90.7895C63.9035 90.1755 64.4737 89.9123 65.2632 90C66.3158 90.1316 66.4474 90.3509 66.579 92.1491C66.6667 93.4649 67.0176 94.4737 67.5439 94.9562C68.3333 95.6579 68.3772 95.6141 68.5965 93.7719C69.4298 87.3246 70.6141 76.6228 70.4825 76.4912C70.3948 76.4035 68.2018 79.693 65.5702 83.7719C62.9825 87.8948 60.7895 91.1842 60.7018 91.0965C60.5702 91.0088 63.4649 82.7632 70.2632 63.9035C71.7544 59.8684 72.9825 56.6228 73.0263 56.6667C73.1579 56.7983 72.1491 67.0614 71.7105 70.1755C71.3158 72.7632 71.5351 72.5439 76.3597 65.0877C79.7807 59.7807 80.1755 58.9912 79.386 58.8597C78.8597 58.7719 78.1141 59.1667 77.5439 59.8684C76.579 60.9649 76.4912 60.9649 75.5263 60.2632C74.7369 59.7369 74.5176 59.2105 74.6491 58.0263C74.7369 56.9298 74.5176 56.3158 73.9474 55.9211C73.5088 55.5702 73.2895 55.1316 73.4211 54.8684C73.5965 54.6053 74.3421 55.1316 75.1755 56.0526C76.4474 57.4123 76.9298 57.6755 78.4649 57.6316ZM19.7369 56.6228C19.1667 58.0263 19.1228 58.0263 18.7719 56.9737C18.4649 56.1842 18.5526 55.7895 19.1228 55.3948C20.2193 54.6053 20.3948 55 19.7369 56.6228ZM63.4211 58.6404C63.3333 60.6579 63.0263 62.193 62.3684 63.3772L61.4474 65.1316L61.4035 61.9737C61.4035 58.9912 62.3246 55.7018 63.2018 55.7018C63.3772 55.7018 63.5088 57.0176 63.4211 58.6404ZM66.9298 58.114C66.6228 59.386 66.2719 60 66.1404 59.6491C65.9211 59.0351 67.0176 55.4825 67.3684 55.7895C67.4562 55.8772 67.2369 56.9298 66.9298 58.114ZM9.56142 57.3246C9.64914 57.8509 9.38598 58.3333 8.94738 58.5088C7.93861 58.9035 7.71931 58.5965 8.07019 57.2369C8.42107 55.9211 9.34212 55.9649 9.56142 57.3246ZM11.4474 56.7983C11.4912 57.5439 10.6579 57.5439 10.3509 56.7983C10.1755 56.3158 10.307 56.1404 10.7895 56.2281C11.1404 56.3158 11.4474 56.5351 11.4474 56.7983ZM70.0877 56.9737C68.9474 59.3421 67.0176 62.7632 66.886 62.6316C66.7105 62.5 67.6755 58.3333 68.2018 56.7105C68.2895 56.4474 68.7719 56.3158 69.2983 56.4474C69.7807 56.579 70.1316 56.7983 70.0877 56.9737ZM17.9825 57.6755C17.9825 58.2895 17.6316 58.9474 17.1491 59.2105C16.4474 59.5614 16.2281 59.4737 16.0088 58.7719C15.7018 57.7632 16.4474 56.579 17.3684 56.579C17.7193 56.579 17.9825 57.0176 17.9825 57.6755ZM11.9737 58.5526C11.8421 58.9474 11.6228 59.1667 11.5351 59.0351C11.4035 58.9035 11.4474 58.6404 11.6228 58.3772C12.0176 57.6755 12.2807 57.807 11.9737 58.5526ZM70 60.3509C69.5176 61.6667 69.3421 61.7983 69.3421 61.0526C69.2983 60 70.0877 58.114 70.4386 58.4649C70.5263 58.5526 70.3509 59.386 70 60.3509ZM10.8772 59.8246C11.1842 60.5702 11.1842 61.0965 10.8333 61.8421C10.0439 63.4211 9.42984 63.3333 8.42107 61.6667L7.50001 60.0877L8.68422 59.4737C10.2632 58.5965 10.307 58.5965 10.8772 59.8246ZM14.9562 60.6579C14.6053 61.0088 14.4737 60.9649 14.4737 60.4825C14.4737 59.6053 15.0439 58.9912 15.2632 59.6491C15.3948 59.9562 15.2193 60.3948 14.9562 60.6579ZM17.9386 61.3158C17.6755 62.1053 17.2807 62.5877 17.0614 62.4562C16.4035 62.0614 16.6228 60.614 17.4123 60.1316C18.4649 59.5614 18.5088 59.693 17.9386 61.3158ZM76.4035 61.8421C76.886 61.8421 77.193 61.9737 77.1053 62.1491C76.7105 63.0263 73.1579 68.4211 72.9386 68.4211C72.7193 68.4211 73.0263 64.6491 73.5088 61.2719L73.7719 59.6491L74.6491 60.7456C75.1316 61.3597 75.8772 61.8421 76.4035 61.8421ZM59.693 69.7807L58.8158 71.7105V67.8948C58.7719 65.0877 58.9912 63.6404 59.5614 62.4562L60.307 60.8333L60.4386 64.3421C60.5263 67.0614 60.3509 68.2456 59.693 69.7807ZM7.85089 62.3684C8.37721 63.2018 8.33335 63.3772 7.63159 63.9035C6.18422 64.9562 5.83335 64.5176 6.40352 62.3684C6.7544 61.1404 7.10528 61.1404 7.85089 62.3684ZM15.9649 63.9474C15.2193 65.0877 14.6053 65.0439 14.2544 63.7281C14.0351 62.8509 14.1667 62.3684 14.7807 61.9737C15.4386 61.4474 15.614 61.4912 15.9649 62.2807C16.2281 62.8948 16.2281 63.4649 15.9649 63.9474ZM13.5526 65.8333C12.7632 66.3158 12.5877 66.0526 12.9386 64.8684C13.2456 63.9912 13.2895 63.9474 13.6842 64.693C14.0351 65.2193 13.9912 65.5702 13.5526 65.8333ZM9.56142 65.4386C9.64914 65.7895 9.29826 66.579 8.8158 67.1491C7.98247 68.1579 7.98247 68.2018 7.06142 67.3684C5.87721 66.2719 5.87721 65.9649 7.36843 65.1755C8.72808 64.4298 9.38598 64.4737 9.56142 65.4386ZM16.3597 66.1404C16.2281 66.6667 15.9649 67.1053 15.7456 67.1053C15.1316 67.1053 15.2632 65.4386 15.9211 65.2193C16.6228 64.9562 16.6667 65 16.3597 66.1404ZM57.193 75.7018C56.7983 76.7544 56.3597 77.6316 56.1842 77.6316C56.0526 77.6316 55.9649 75.8333 55.9649 73.6842C56.0088 70.8333 56.2719 69.1667 56.8421 67.8509L57.6755 66.0088L57.807 69.9123C57.8948 72.7193 57.7193 74.2983 57.193 75.7018ZM6.57896 68.5088C6.57896 68.9035 4.82458 69.8684 4.56142 69.6053C4.4737 69.5176 4.60528 68.8158 4.86843 68.0263C5.30703 66.7544 5.39475 66.7105 5.96493 67.4123C6.27194 67.8509 6.57896 68.3333 6.57896 68.5088ZM14.7369 67.807C14.9562 68.5965 14.7807 69.079 14.2105 69.5176C13.4649 70.0439 13.3333 70 12.7632 68.9912C12.2369 67.9386 12.2807 67.7632 12.9825 67.2369C14.1228 66.4035 14.4298 66.5351 14.7369 67.807ZM63.2895 69.386C63.2018 69.6053 62.807 69.4298 62.4562 69.079C62.0614 68.7281 61.9298 68.2018 62.0614 67.9386C62.2807 67.6755 62.5877 67.7632 62.9386 68.2895C63.2456 68.7281 63.4211 69.2105 63.2895 69.386ZM65.6141 69.7369C66.1842 69.7369 66.6667 69.9123 66.6667 70.1755C66.6667 70.3948 66.1842 70.614 65.5702 70.614C64.9562 70.614 64.4737 70.5263 64.4737 70.4386C64.4737 70.3509 64.386 70 64.3421 69.6491C64.2544 69.3421 64.2544 69.2105 64.3421 69.386C64.4737 69.6053 65.0439 69.7369 65.6141 69.7369ZM7.89475 70.2193C7.89475 70.4386 7.36843 70.614 6.71054 70.614C5.52633 70.5702 5.52633 70.5702 6.3158 69.9562C7.14914 69.3421 7.89475 69.4298 7.89475 70.2193ZM12.1491 70.7895C11.9737 71.1842 11.6667 71.4912 11.3597 71.4912C11.0965 71.4912 11.0088 71.1842 11.1404 70.7895C11.2719 70.3948 11.4035 69.8684 11.4035 69.6053C11.4035 69.2544 11.5351 69.2544 11.886 69.6053C12.193 69.9123 12.2807 70.4386 12.1491 70.7895ZM14.693 72.2807C14.4298 72.9825 14.386 72.9825 13.9912 72.2369C13.6404 71.6667 13.6842 71.2281 14.1228 70.7456C14.6491 70.0877 14.693 70.0877 14.8246 70.7895C14.9123 71.1842 14.8684 71.886 14.693 72.2807ZM63.1579 70.8772C63.1579 70.9649 62.6755 71.0526 62.0614 71.0526C61.4474 71.0526 60.9649 70.8772 60.9649 70.6579C60.9649 70.4825 61.4474 70.3948 62.0614 70.5263C62.6755 70.614 63.1579 70.7895 63.1579 70.8772ZM64.6053 71.6667C64.7807 72.1053 64.6491 72.2369 64.2105 72.0614C63.9035 71.9298 63.5965 71.6667 63.5965 71.4474C63.5965 70.8333 64.3421 71.0088 64.6053 71.6667ZM13.2895 72.7632C13.4211 73.2895 13.1579 73.9474 12.6316 74.4298C11.9298 75.0877 11.7105 75.0877 11.4035 74.5614C10.7895 73.5965 10.8772 72.8948 11.7544 72.4123C12.807 71.7544 13.0263 71.7983 13.2895 72.7632ZM54.2105 82.5L53.1579 84.8684L53.1141 80.1316C53.0702 76.0088 53.2018 75.1755 54.079 73.5526L55.0439 71.7105L55.1755 75.9211C55.2632 79.6491 55.1755 80.4386 54.2105 82.5ZM7.193 74.4737C7.28072 74.6491 7.06142 76.3597 6.71054 78.2895C5.48247 84.693 5.70177 84.2105 5.08773 82.4562C4.73686 81.4035 4.693 80.5263 5.00001 79.7807C5.57019 78.1579 5.08773 77.193 3.64036 77.1491L2.41229 77.1053L3.68422 76.7983C5.13159 76.4912 5.30703 75.5702 3.94738 75.7895C3.28949 75.8772 3.07019 75.6579 3.07019 75.0439C3.07019 74.2544 3.33335 74.1228 5.00001 74.1228C6.0965 74.1228 7.06142 74.2544 7.193 74.4737ZM10.5702 76.4474C9.91229 77.1053 9.51756 76.5351 9.86843 75.3948C10.1755 74.5176 10.2193 74.4737 10.614 75.1755C10.9211 75.7018 10.9211 76.0965 10.5702 76.4474ZM13.7281 76.6667C13.4649 78.7719 13.0702 78.9912 12.3684 77.4562C12.0176 76.6228 12.0614 76.2719 12.8509 75.5263C13.3333 75 13.8158 74.6491 13.8597 74.693C13.9474 74.7369 13.8597 75.614 13.7281 76.6667ZM60 76.8421C59.6491 77.4123 58.5088 79.2983 57.4562 81.0527C56.4474 82.807 55.5263 84.1667 55.3948 84.079C55.1316 83.8158 56.9298 79.8246 57.3246 79.8246C57.5 79.8246 58.2456 78.9474 58.9035 77.8509C59.6053 76.7544 60.2632 75.8772 60.3948 75.8772C60.5263 75.8772 60.3509 76.3158 60 76.8421ZM60.307 81.4035C58.8158 87.7632 58.9035 87.6316 58.0702 86.4912C57.7193 85.9649 57.1053 85.5263 56.7544 85.5263C56.4035 85.5263 56.1404 85.3948 56.1404 85.2193C56.1404 84.8246 61.1404 76.3597 61.3158 76.5351C61.3597 76.579 60.9211 78.7719 60.307 81.4035ZM11.8421 78.3333C12.1491 79.1667 12.1491 79.693 11.7983 80.0877C11.0526 80.9649 10.5702 80.8334 10 79.5614C9.51756 78.5965 9.56142 78.3333 10.307 77.807C11.3597 77.0176 11.3597 77.0176 11.8421 78.3333ZM51.3597 89.1667L50.5263 91.0088L50.4825 85.8772C50.4386 81.8421 50.6141 80.3948 51.2281 79.1228L51.9737 77.5L52.1053 82.4123C52.193 86.4912 52.0614 87.5877 51.3597 89.1667ZM4.38598 78.6842C4.38598 79.0351 4.16668 79.4737 3.94738 79.6053C3.37721 79.9562 2.10528 78.9912 2.45615 78.4649C2.85089 77.807 4.38598 78.0263 4.38598 78.6842ZM61.4912 84.079C60.3948 87.2807 59.386 89.8246 59.3421 89.7369C59.2544 89.693 59.7369 87.4123 60.3509 84.7369C61.0965 81.6228 61.7544 79.8246 62.1053 79.8246C62.4123 79.8246 62.807 79.4298 62.9386 78.9035C63.1141 78.4211 63.2895 78.0702 63.3772 78.1579C63.4649 78.2456 62.6316 80.9211 61.4912 84.079ZM68.6404 86.4474C67.8948 93.2456 67.6316 94.5614 67.5877 92.0176C67.5439 89.9123 66.4912 88.9035 64.6491 89.1228C63.3333 89.2983 63.2456 89.2105 63.7281 88.3772C64.8684 86.3158 69.079 79.9123 69.2105 80.0439C69.2983 80.0877 69.0351 82.9825 68.6404 86.4474ZM3.94738 82.0176C4.91229 83.9474 5.04387 85.307 4.34212 87.1491C3.85966 88.4649 2.28072 90.3509 1.66668 90.3509C1.00879 90.3509 1.3158 88.7281 2.14914 87.9825C3.55265 86.7105 3.77194 84.7807 2.63159 83.2895C2.06142 82.4562 1.79826 81.6667 1.9737 81.1404C2.41229 79.8246 2.93861 80.0877 3.94738 82.0176ZM9.78072 80.8772C9.91229 81.2281 9.73686 81.7544 9.38598 82.0176C8.85966 82.4562 8.77194 82.3684 8.77194 81.4035C8.77194 80.1755 9.38598 79.8684 9.78072 80.8772ZM12.7632 82.2369C12.4562 83.9474 12.4562 83.9474 11.886 82.9825C11.4035 82.1053 11.4474 81.7983 12.1053 81.0965C13.0702 80.0439 13.114 80.1316 12.7632 82.2369ZM11.2281 83.5527C11.9298 84.6053 11.9298 84.7369 11.1842 85.5263C10.1316 86.6667 9.73686 86.6228 9.12282 85.307C8.72808 84.386 8.77194 84.079 9.42984 83.3334C10.4386 82.2369 10.3509 82.2369 11.2281 83.5527ZM48.7281 95.4386L47.8509 97.5877V91.7983C47.807 87.1491 47.9386 85.6579 48.5965 84.386L49.3421 82.7632L49.4737 88.0263C49.5614 92.4562 49.4298 93.6404 48.7281 95.4386ZM2.63159 85.0439C2.63159 85.8772 1.35966 87.807 1.3158 87.0176C1.3158 86.7544 1.44738 85.9211 1.57896 85.1316C1.88598 83.7281 2.63159 83.6404 2.63159 85.0439ZM8.99124 87.7193C8.85966 87.9825 8.55265 88.1579 8.28949 88.1579C7.85089 88.1579 7.76317 86.7105 8.20177 86.2281C8.5965 85.8334 9.34212 87.193 8.99124 87.7193ZM12.0614 88.0702C11.7983 89.2105 11.7544 89.2105 11.1404 88.4211C10.614 87.6755 10.614 87.4562 11.2719 86.7105C12.1491 85.7456 12.5 86.3158 12.0614 88.0702ZM57.8948 88.3334C57.8948 89.8246 57.1491 90.6579 56.4912 90C56.2281 89.7369 55.2632 89.4737 54.4298 89.4298C53.5526 89.4298 53.1579 89.2983 53.5088 89.1667C53.8597 89.0351 54.7369 88.3334 55.3948 87.6316C56.4035 86.579 56.7105 86.4035 57.2369 86.8421C57.5877 87.1491 57.8948 87.807 57.8948 88.3334ZM5.08773 94.1667C4.73686 95 0.877207 94.9562 0.877207 94.1228C0.877207 93.7281 1.35966 93.5527 2.32458 93.5965C3.68422 93.6404 3.72808 93.5965 3.99124 91.4474C4.42984 87.5877 5.04387 87.1491 5.17545 90.5263C5.26317 92.193 5.21931 93.8158 5.08773 94.1667ZM10.9649 89.9562C10.9649 90.0877 10.6579 90.4825 10.2632 90.7895C9.73686 91.2719 9.4737 91.2281 8.90352 90.6579C8.24563 90 8.24563 89.8684 8.99124 89.0351C9.78072 88.1579 9.86843 88.1579 10.3948 88.8597C10.7018 89.2983 10.9649 89.7807 10.9649 89.9562ZM45.9649 102.018L44.9562 104.167L44.8246 98.1579C44.7369 92.5877 44.7807 91.9737 45.7018 90.2632L46.7105 88.3772L46.8421 94.1228C46.9298 99.2983 46.8421 100.044 45.9649 102.018ZM11.7544 93.0702L11.6228 94.079L11.0526 93.1141C10.614 92.3246 10.614 91.9298 11.0526 91.2281L11.6228 90.307L11.7544 91.2281C11.8421 91.7105 11.8421 92.5439 11.7544 93.0702ZM56.5351 91.4912C57.0614 92.1491 57.4562 92.9825 57.4562 93.3772C57.4562 93.9474 57.3684 93.9474 57.0614 93.5088C56.7544 93.0263 56.5351 92.9825 55.7895 93.4649C54.693 94.1667 55.0439 95.1755 56.4035 95.1755C57.5439 95.1755 57.5877 95.2193 57.193 96.2281C56.9298 96.886 56.8421 96.886 56.3158 96.1842C55.8772 95.5702 55.6579 95.5263 55.2193 95.9211C54.5176 96.6228 55.0877 97.9825 55.9211 97.6316C57.1053 97.193 56.6228 98.5527 55.2193 99.7369C53.2456 101.404 51.7105 101.097 50.5263 98.8158C49.9123 97.6755 49.7807 96.3597 50.3948 97.3246C50.7018 97.7632 50.9649 97.807 51.6667 97.4123C52.807 96.7983 52.5 95.6141 51.2719 95.9211C50.7018 96.0965 50.4386 95.9211 50.4386 95.3948C50.4386 94.7807 50.5702 94.7369 51.0526 95.1316C51.4912 95.5263 51.7983 95.4386 52.2369 94.9123C52.7193 94.2983 52.6755 94.1228 51.9737 93.5965C51.5351 93.2456 51.3158 92.8509 51.4912 92.6755C51.6667 92.4562 52.0614 92.6755 52.3684 93.1141C52.9825 93.9035 53.9474 94.1228 53.9474 93.4649C53.9474 93.2456 54.3421 93.1579 54.8246 93.2895C55.4825 93.4649 55.7018 93.2895 55.7018 92.6316C55.7018 91.4474 54.9562 91.0088 54.1667 91.6667C53.6404 92.1053 53.5088 92.1053 53.5088 91.6667C53.5088 91.3597 53.2018 91.2281 52.7632 91.4035C52.1053 91.6228 52.1053 91.579 52.807 91.0088C54.1228 90.0439 55.5263 90.2193 56.5351 91.4912ZM3.24563 91.5351C3.72808 92.6755 2.76317 93.2895 1.84212 92.4123C1.18422 91.7105 1.18422 91.579 1.7544 91.2281C2.67545 90.6141 2.93861 90.7018 3.24563 91.5351ZM8.72808 93.0263C8.11405 94.2105 7.89475 94.079 7.89475 92.5C7.89475 91.3158 7.98247 91.1842 8.55265 91.6667C9.0351 92.0614 9.07896 92.4123 8.72808 93.0263ZM58.7719 91.886C58.7719 92.2369 58.5965 92.5439 58.3333 92.5439C58.1141 92.5439 57.8948 92.2369 57.8948 91.886C57.8948 91.5351 58.1141 91.2281 58.3333 91.2281C58.5965 91.2281 58.7719 91.5351 58.7719 91.886ZM10.8333 94.2105C11.2281 94.8684 11.1404 95.2193 10.4825 96.0965C9.73686 97.1053 9.64914 97.1053 8.94738 96.4035C8.24563 95.7456 8.24563 95.4825 8.77194 94.5176C9.4737 93.2018 10.1316 93.1141 10.8333 94.2105ZM43.0263 108.816L42.1491 110.746V104.079C42.1053 98.5965 42.2369 97.1053 42.8947 95.7895L43.6404 94.1667L43.7719 100.526C43.8597 106.053 43.7719 107.149 43.0263 108.816ZM65.0439 95.1755C67.8948 97.4562 67.4123 102.851 64.2105 104.298C62.3246 105.175 60.9649 104.912 59.386 103.333C58.1579 102.105 57.8948 101.491 57.8948 100.044C57.8948 97.8509 58.8158 95.4386 59.9562 94.7807C61.2719 94.0351 63.8158 94.2105 65.0439 95.1755ZM11.8421 97.4562C11.8421 98.7719 11.7983 98.8158 11.0965 98.1579C10.5263 97.5439 10.4825 97.2807 10.9649 96.7544C11.7544 95.7895 11.8421 95.8772 11.8421 97.4562ZM8.42107 98.3334C8.02633 98.7281 7.89475 98.6404 7.89475 97.807C7.89475 96.9737 8.02633 96.886 8.42107 97.2807C8.8158 97.6755 8.8158 97.9386 8.42107 98.3334ZM4.38598 98.6842C4.38598 98.9035 4.29826 99.1228 4.21054 99.1228C4.07896 99.1228 3.85966 98.9035 3.72808 98.6842C3.5965 98.4211 3.68422 98.2456 3.90352 98.2456C4.16668 98.2456 4.38598 98.4211 4.38598 98.6842ZM7.01756 99.2983C7.01756 100.614 6.3158 101.14 5.48247 100.439C5.00001 100.044 4.95615 99.693 5.30703 99.079C5.92107 97.8948 7.01756 98.0263 7.01756 99.2983ZM3.02633 99.2983C3.46493 99.8246 3.42107 100.175 2.85089 101.053C1.79826 102.675 1.3158 102.456 1.3158 100.439C1.3158 98.5965 2.06142 98.1141 3.02633 99.2983ZM10.9211 99.2983C11.3158 99.7369 11.2281 100.132 10.614 100.833L9.86843 101.842L9.0351 100.921C8.37721 100.175 8.33335 99.9123 8.77194 99.3421C9.42984 98.5088 10.2632 98.5088 10.9211 99.2983ZM49.9562 99.7369C50.2632 100.307 51.0088 101.053 51.579 101.36C52.7632 101.974 52.8509 102.281 52.193 103.553C51.1404 105.482 48.8158 103.904 49.6053 101.842C49.9123 101.053 49.8246 100.482 49.3421 99.7369C48.9912 99.1667 48.8158 98.6842 49.0351 98.6842C49.2544 98.6842 49.6491 99.1667 49.9562 99.7369ZM40.3947 114.956L39.5176 116.886V109.737C39.4737 103.728 39.6053 102.281 40.2632 100.965L41.0088 99.3421L41.1404 106.184C41.2281 112.193 41.1404 113.246 40.3947 114.956ZM5.17545 101.404C5.48247 101.798 5.39475 102.281 4.78072 103.026C4.0351 103.947 3.8158 104.035 3.28949 103.465C2.71931 102.895 2.71931 102.719 3.33335 101.842C4.07896 100.746 4.51756 100.658 5.17545 101.404ZM12.2807 102.456C12.2807 103.816 12.193 103.991 11.6228 103.509C10.8333 102.851 10.7895 102.105 11.4912 101.404C12.2369 100.658 12.2807 100.702 12.2807 102.456ZM55.2632 101.754C55.2632 101.974 54.8246 102.193 54.2983 102.193C53.4649 102.193 53.4211 102.105 53.9474 101.754C54.7807 101.184 55.2632 101.184 55.2632 101.754ZM9.21054 102.851C9.21054 103.202 9.0351 103.597 8.77194 103.728C8.50879 103.904 8.33335 103.509 8.33335 102.851C8.33335 102.193 8.50879 101.798 8.77194 101.974C9.0351 102.105 9.21054 102.5 9.21054 102.851ZM46.0526 110.658C45.0877 115.175 44.2983 118.904 44.2983 119.035C44.2983 119.123 43.9035 119.298 43.4211 119.43C42.8509 119.561 42.5439 119.43 42.5439 119.035C42.5439 118.684 42.1491 118.246 41.7105 118.07C40.9211 117.807 41.1404 117.149 44.2105 109.781C46.0965 105.395 47.6316 101.974 47.7193 102.149C47.7632 102.325 47.0614 106.184 46.0526 110.658ZM57.6755 102.632C57.807 103.07 58.5526 103.991 59.2544 104.605C60.7895 105.877 62.9825 106.053 64.9123 105.044C65.6579 104.649 66.2281 104.474 66.2281 104.605C66.2281 105.044 49.9123 154.561 49.3421 155.877L48.7719 157.237L48.7281 155.746C48.6404 152.719 45.7895 149.561 43.114 149.561C42.6755 149.561 41.579 149.956 40.6579 150.439C39.7807 150.921 39.0351 151.228 39.0351 151.097C39.0351 151.009 42.0614 142.456 45.7895 132.149C49.5176 121.842 53.2895 111.272 54.2105 108.684C55.1316 106.097 55.9211 104.035 56.0088 104.123C56.0965 104.211 55.7895 108.07 55.307 112.719C54.079 123.86 54.079 123.553 56.0965 120.395C62.3246 110.789 64.4737 107.456 64.4737 107.237C64.4737 107.105 63.8597 107.018 63.1141 107.018C62.0614 107.018 61.7105 107.281 61.3597 108.333C60.4386 110.877 57.6316 109.649 57.807 106.842C57.8948 105.965 57.5877 104.956 57.0176 104.254C56.5351 103.64 56.2719 102.851 56.4035 102.456C56.7544 101.491 57.3246 101.579 57.6755 102.632ZM7.36843 104.123C7.58773 105.789 6.92984 106.36 5.74563 105.614C4.64914 104.912 4.60528 104.474 5.57019 103.421C6.5351 102.368 7.193 102.632 7.36843 104.123ZM49.693 116.974C38.3772 148.684 38.4649 148.465 38.1579 147.325C37.2369 143.991 35.3509 142.105 32.4123 141.667L30.7456 141.447L35.3947 130.57C39.1228 121.842 40.1316 119.825 40.614 120.219C40.9649 120.482 41.4912 120.614 41.7983 120.482C42.1053 120.351 42.6316 120.614 42.8947 121.097C43.6404 122.237 44.7369 121.667 44.7369 120.132C44.7369 119.298 46.1842 116.491 48.9474 111.974C53.9912 103.64 54.386 103.07 54.5614 103.07C54.6491 103.07 52.4562 109.342 49.693 116.974ZM11.1842 104.386C11.9737 105.263 11.9737 105.307 11.0526 106.272C10.1316 107.149 10.0439 107.149 9.34212 106.447C8.68422 105.833 8.68422 105.57 9.21054 104.605C9.91229 103.289 10.1755 103.246 11.1842 104.386ZM2.93861 104.649C3.07019 105 2.85089 105.658 2.45615 106.053C1.79826 106.711 1.7544 106.667 1.7544 105.351C1.7544 103.904 2.45615 103.465 2.93861 104.649ZM51.1404 105.395C51.4912 105.263 51.7544 105.263 51.7544 105.395C51.7544 105.833 46.4035 114.518 46.2281 114.386C46.1404 114.298 46.3597 113.026 46.6667 111.623C47.0176 110.175 47.5 107.851 47.807 106.447L48.2895 103.947L49.386 104.781C50 105.263 50.7895 105.526 51.1404 105.395ZM37.6316 121.404L36.6228 123.465L36.4912 116.184C36.4035 109.386 36.4474 108.728 37.3684 106.754L38.3772 104.605L38.5088 111.974C38.5965 118.86 38.5526 119.474 37.6316 121.404ZM5.30703 106.404C6.0965 107.105 6.0965 107.193 5.39475 108.377C4.51756 109.868 4.4737 109.868 3.15791 108.772C2.14914 107.939 2.14914 107.895 2.93861 106.842C3.85966 105.526 4.2544 105.482 5.30703 106.404ZM12.8948 109.605C12.7632 109.737 12.2807 109.386 11.7983 108.816C10.9649 107.807 10.9649 107.719 11.7105 106.93C12.4562 106.097 12.5 106.097 12.8509 107.719C13.0263 108.597 13.0702 109.474 12.8948 109.605ZM9.29826 108.86C8.90352 109.254 8.77194 109.167 8.77194 108.333C8.77194 107.5 8.90352 107.412 9.29826 107.807C9.693 108.202 9.693 108.465 9.29826 108.86ZM7.80703 109.386C8.02633 111.009 7.36843 111.623 6.18422 111.009C5.30703 110.526 5.30703 110.439 5.96493 109.167C6.7544 107.588 7.63159 107.719 7.80703 109.386ZM59.8246 110.965C60.1755 110.965 61.0088 110.307 61.6228 109.518C62.2807 108.772 62.6755 108.421 62.4562 108.772C61.7544 110.175 56.0526 118.86 55.7895 118.86C55.5702 118.86 55.9649 112.807 56.4035 110.044L56.6667 108.509L57.8948 109.737C58.5965 110.395 59.4298 110.965 59.8246 110.965ZM11.4474 109.561C11.9737 110.088 12.193 110.658 12.0176 111.097C11.6667 112.018 11.0526 112.018 10.0439 111.14C9.38598 110.57 9.34212 110.263 9.78072 109.605C10.3948 108.597 10.3509 108.597 11.4474 109.561ZM3.37721 111.447C2.85089 112.281 2.85089 112.281 2.54387 111.316C2.01756 109.342 2.10528 109.035 3.02633 109.825C3.77194 110.482 3.8158 110.746 3.37721 111.447ZM13.7281 112.368C13.9912 114.123 13.9474 114.167 12.9825 113.465C12.4123 113.026 12.2807 112.588 12.4562 111.93C12.8948 110.526 13.4649 110.746 13.7281 112.368ZM35.5702 118.947C35.5702 125.307 35.4386 126.842 34.7807 128.289L33.9912 130.044L33.8597 121.93C33.7719 114.912 33.8597 113.64 34.5176 112.412C34.9123 111.623 35.3509 111.053 35.4386 111.14C35.5263 111.228 35.5702 114.737 35.5702 118.947ZM5.65791 111.798C6.14036 112.105 6.05265 112.237 5.30703 112.5C4.21054 112.851 3.72808 112.588 4.16668 111.886C4.51756 111.316 4.82458 111.272 5.65791 111.798ZM10.3509 113.86C10 114.781 9.86843 114.605 9.4737 112.939C9.16668 111.711 9.21054 111.667 9.91229 112.368C10.3509 112.807 10.5263 113.377 10.3509 113.86ZM8.77194 113.816C8.77194 114.167 8.24563 114.561 7.58773 114.693C6.88598 114.825 5.78949 115.132 5.04387 115.351C4.2544 115.614 3.5965 115.614 3.37721 115.395C2.63159 114.649 3.42107 113.64 4.91229 113.465C8.07019 113.07 8.77194 113.158 8.77194 113.816ZM13.1579 115.307C13.1579 116.579 12.0614 117.281 11.0088 116.667C10.1316 116.228 10.1316 116.14 10.7456 114.868C11.3158 113.772 11.579 113.64 12.2807 114.035C12.7632 114.298 13.1579 114.868 13.1579 115.307ZM9.21054 116.667C9.21054 117.412 9.07896 117.5 8.37721 117.105C6.9737 116.404 6.88598 115.789 8.07019 115.789C8.90352 115.789 9.21054 116.009 9.21054 116.667ZM14.9123 117.632C14.9123 118.509 14.5614 118.597 13.6404 118.026C13.2018 117.719 13.1579 117.456 13.5965 116.667C14.0351 115.877 14.2105 115.789 14.5176 116.272C14.7369 116.623 14.9123 117.237 14.9123 117.632ZM4.91229 117.325C4.82458 117.939 4.56142 118.421 4.38598 118.421C3.8158 118.421 3.55265 116.711 4.12282 116.491C5.04387 116.14 5.13159 116.228 4.91229 117.325ZM32.0614 134.693L31.1842 136.623V127.719C31.1404 120.044 31.2281 118.64 31.9298 117.412C32.6755 116.009 32.6755 116.14 32.807 124.386C32.8947 131.886 32.807 132.982 32.0614 134.693ZM9.64914 120.658C9.64914 121.711 8.72808 124.211 8.07019 124.956C7.67545 125.395 5.57019 123.421 5.00001 122.105C4.42984 120.746 4.42984 120.439 5.26317 118.597L6.18422 116.623L7.89475 117.982C9.2544 119.035 9.64914 119.693 9.64914 120.658ZM11.1404 117.939C11.3158 118.158 11.2719 118.684 11.1404 119.079C10.9211 119.649 10.7895 119.693 10.4825 119.211C10.2632 118.904 10.0877 118.377 10.0877 118.07C10.0877 117.456 10.7895 117.368 11.1404 117.939ZM13.9035 119.211C14.2544 119.43 14.2105 119.912 13.6404 120.965C12.9386 122.281 12.8509 122.325 11.9298 121.711C11.0088 121.053 11.0088 120.965 11.6667 119.956C12.4123 118.816 12.9825 118.64 13.9035 119.211ZM16.8421 123.553C18.7719 128.991 18.7719 128.553 16.8421 128.289C14.6053 127.939 12.3684 129.167 11.2719 131.316C10.7895 132.193 10.3509 132.895 10.307 132.807C10.2193 132.719 10.4825 131.667 10.8333 130.439C11.4912 128.377 11.7105 128.158 13.7281 127.368C14.9123 126.93 16.0088 126.272 16.1404 125.965C16.2281 125.658 15.7895 124.825 15.1316 124.123C13.9912 122.939 13.9474 122.763 14.4737 121.491C14.7807 120.789 15.1755 120.175 15.3509 120.175C15.5263 120.175 16.1842 121.711 16.8421 123.553ZM29.4737 140.833L28.6404 142.763L25.9649 138.64L23.3333 134.518L26.6667 127.895L30.0439 121.272L30.1755 130.088C30.2632 137.895 30.1755 139.123 29.4737 140.833ZM12.0614 122.895C12.193 123.202 12.1053 124.342 11.886 125.439C11.6228 126.754 11.4912 127.018 11.4474 126.272C11.4035 125.614 11.2719 124.474 11.1404 123.728C10.8772 122.368 11.6228 121.711 12.0614 122.895ZM9.693 125.132C9.34212 125.482 9.21054 125.439 9.21054 124.956C9.21054 124.079 9.78072 123.465 10 124.123C10.1316 124.43 9.95615 124.868 9.693 125.132ZM14.9123 125.307C14.9123 125.789 13.5965 126.754 12.9825 126.754C12.6316 126.754 12.6316 125.263 12.9825 124.386C13.2018 123.86 13.3772 123.816 14.079 124.254C14.5176 124.518 14.9123 125 14.9123 125.307ZM7.01756 126.097C7.01756 126.447 6.84212 126.842 6.57896 126.974C6.35966 127.105 6.14036 127.061 6.14036 126.798C6.14036 126.579 6.00879 126.053 5.87721 125.702C5.65791 125.175 5.78949 125.044 6.3158 125.263C6.71054 125.395 7.01756 125.789 7.01756 126.097ZM9.21054 126.974C9.21054 127.807 8.33335 128.246 7.80703 127.719C7.45615 127.368 7.50001 127.018 7.89475 126.579C8.50879 125.833 9.21054 126.053 9.21054 126.974ZM9.86843 130.526C9.4737 131.623 8.77194 132.544 8.28949 132.675C7.36843 132.982 6.14036 132.237 6.14036 131.404C6.14036 130.789 7.80703 129.254 8.90352 128.816C9.29826 128.684 9.78072 127.982 9.95615 127.325L10.307 126.097L10.4386 127.368C10.5263 128.07 10.2632 129.474 9.86843 130.526ZM17.807 129.605C18.9474 130.088 19.5614 130.746 20.2193 132.281C21.4035 134.912 21.0526 136.93 19.079 138.904C16.4912 141.491 13.1579 140.57 11.6667 136.842C10.5702 134.079 11.7544 130.658 14.1667 129.605C15.9211 128.816 15.9649 128.816 17.807 129.605ZM10.2193 135.439C10.5702 136.579 12.6316 141.272 14.8246 145.877C19.4737 155.57 20.3509 158.289 20.0877 161.974C19.9123 164.167 19.693 164.781 18.6842 165.658C17.2369 166.886 17.0176 166.93 15.5702 165.658C13.2895 163.728 14.2544 160.526 17.1491 160.526C18.0263 160.526 18.3772 160.263 18.5965 159.43C19.0351 157.763 18.2018 155.219 15.2632 149.43C12.4123 143.64 8.77194 135.088 8.77194 134.035C8.77194 132.588 9.64914 133.421 10.2193 135.439ZM24.7369 140.351C26.2719 142.895 27.0176 144.561 26.7105 144.693C25.5263 145.088 24.5614 146.579 24.5614 147.982C24.5614 149.123 24.3421 149.561 23.6842 149.781C22.9386 150 21.9298 152.237 21.9298 153.684C21.9298 154.079 20.614 155.219 20.1316 155.263C19.9562 155.263 19.693 154.737 19.5176 154.035C19.386 153.377 17.9825 150.307 16.4035 147.237C14.8684 144.123 13.5965 141.447 13.5965 141.316C13.5965 141.14 14.6053 141.097 15.7895 141.14C17.807 141.316 18.114 141.184 19.5176 139.781C20.3509 138.947 21.1842 137.632 21.3158 136.842C21.6667 135.175 21.6667 135.175 24.7369 140.351ZM34.2544 143.202C36.7105 144.474 38.0263 148.421 36.9737 151.184C36.7105 151.842 36.6228 151.754 36.4035 150.658C36.2281 149.737 35.8772 149.298 35.1755 149.211C34.6053 149.123 34.2105 148.772 34.2544 148.333C34.2544 147.851 34.386 147.807 34.5176 148.114C34.7369 148.772 36.8421 148.904 36.8421 148.289C36.8421 147.018 36.3158 146.535 35.3509 146.974C34.1667 147.544 31.5351 146.404 32.5877 145.746C33.4649 145.219 33.8158 143.509 33.0702 143.246C32.7632 143.114 32.2369 143.246 31.9298 143.553C31.3158 144.123 29.8246 144.386 29.8246 143.904C29.8246 143.246 30.9211 142.544 31.886 142.544C32.4562 142.544 33.5088 142.851 34.2544 143.202ZM27.6316 145.789C27.6316 145.877 27.193 146.93 26.6667 148.114L25.7018 150.219L25.5263 148.816C25.3509 147.193 26.0526 145.614 26.9737 145.614C27.3246 145.614 27.6316 145.702 27.6316 145.789ZM27.807 148.86C27.3246 149.956 26.8421 150.877 26.6667 150.877C26.4912 150.877 26.7983 149.912 27.3246 148.728C28.5088 146.053 28.9035 146.184 27.807 148.86ZM29.2105 149.342C27.7632 152.807 27.0614 153.114 28.3333 149.693C28.7281 148.64 29.2544 147.807 29.4298 147.807C29.6491 147.807 29.5614 148.509 29.2105 149.342ZM32.0176 153.114V155.263H34.4298C37.3684 155.263 37.5 155.789 35.5263 158.947C32.3684 163.904 27.7632 167.237 24.386 167.018L22.5 166.886L25.7456 159.43C27.5439 155.307 29.2983 151.272 29.6491 150.439L30.307 148.904L31.1842 149.956C31.7544 150.658 32.0176 151.667 32.0176 153.114ZM24.8246 151.053C25.1755 151.93 23.8158 154.956 23.2018 154.605C22.7632 154.298 22.9825 151.667 23.5088 150.789C23.8597 150.219 24.5614 150.395 24.8246 151.053ZM45 151.14C46.7983 152.018 47.807 153.728 47.807 155.965C47.807 157.5 47.7632 157.588 47.193 156.754C46.6228 156.053 46.4035 156.009 45.6579 156.447C44.8684 156.93 44.693 156.886 44.2544 156.097C43.9035 155.395 43.5088 155.263 42.7193 155.439C41.6667 155.702 41.2719 155.132 42.1053 154.605C42.3684 154.474 42.5439 153.86 42.5439 153.246C42.5439 152.412 42.3246 152.149 41.7983 152.281C41.3597 152.368 41.0526 152.763 41.0526 153.202C41.0965 153.64 40.8333 153.947 40.307 153.947C39.8684 153.947 39.386 154.167 39.2105 154.43C39.0351 154.781 38.8158 154.781 38.4649 154.43C37.8947 153.86 39.0351 152.5 41.0088 151.272C42.6316 150.263 43.114 150.263 45 151.14ZM25.3947 154.561C24.9123 155.702 24.386 156.535 24.2105 156.404C24.079 156.272 24.4298 155.132 25 153.904C26.3158 151.097 26.6667 151.711 25.3947 154.561ZM34.2105 153.289L35.2193 154.386H34.079C33.114 154.386 32.8947 154.167 32.8947 153.289C32.8947 152.675 32.9386 152.193 33.0263 152.193C33.114 152.193 33.6404 152.675 34.2105 153.289ZM26.4474 155.702C25.7895 157.237 25.1755 158.246 25.1316 158.026C24.9123 157.456 27.1053 152.412 27.4123 152.719C27.5439 152.851 27.1053 154.211 26.4474 155.702ZM22.6755 155.965C22.807 156.36 22.5439 157.368 22.1053 158.246L21.2719 159.868L21.1404 158.158C21.0526 157.237 21.0965 156.228 21.2281 155.877C21.5351 155.044 22.3246 155.088 22.6755 155.965ZM23.5526 158.86C23.2018 159.649 22.5 161.404 21.9298 162.719C20.8333 165.351 19.8684 166.711 20.3948 164.912C21.0965 162.588 23.3772 157.456 23.7719 157.456C23.9474 157.456 23.8597 158.114 23.5526 158.86ZM23.2456 162.982C22.2807 165.132 21.4912 166.667 21.4912 166.36C21.4912 166.097 21.886 164.912 22.4123 163.728C22.8948 162.588 23.5965 160.965 23.9474 160.132C24.2983 159.298 24.693 158.728 24.7807 158.86C24.9123 158.991 24.2105 160.833 23.2456 162.982Z" fill="white"/>
<path d="M32.7632 13.5088C32.3246 13.9474 32.0175 14.693 32.0175 15.0877C32.0175 15.614 31.7982 15.7895 31.4035 15.6579C30.614 15.3509 29.6491 16.4474 30.0439 17.1053C30.2193 17.3684 30.6579 17.5439 31.0526 17.4561C31.5351 17.3684 32.5877 18.5088 34.2105 20.9211C36.4912 24.3421 36.7105 24.5614 38.2018 24.5614C39.9123 24.5614 40.3509 24.0789 40.3509 22.0614C40.3509 20.2632 36.5789 14.1667 35 13.3772C33.3333 12.5877 33.5965 12.5439 32.7632 13.5088ZM34.7807 14.4298C35.4386 14.693 36.5351 16.0526 37.6754 18.0263C39.7807 21.6667 39.9123 23.2895 38.1579 23.5088C37.193 23.5965 36.7105 23.114 34.9561 20.4386C33.0263 17.5 32.3684 15.1754 33.2018 14.3421C33.5526 13.9474 33.5088 13.9474 34.7807 14.4298Z" fill="white"/>
<path d="M40.9649 22.1053C40.6579 22.9386 41.0965 23.6842 41.9299 23.6842C42.3685 23.6842 42.5439 23.3334 42.4562 22.7193C42.2807 21.579 41.3158 21.1404 40.9649 22.1053Z" fill="white"/>
<path d="M40.0439 26.3597C40.1316 27.9825 40.4386 28.4211 43.114 30.8772C45.7018 33.2018 46.3158 33.5965 47.4561 33.4211C48.5526 33.2456 48.7281 33.0702 48.5088 32.2807C48.3772 31.7983 48.2456 31.0526 48.2456 30.6579C48.2456 30.307 47.1491 28.7719 45.7895 27.2807C43.5965 24.8684 43.1579 24.5614 41.6667 24.5614H40L40.0439 26.3597ZM45.1316 27.807C46.6228 29.4298 47.3684 30.5702 47.3684 31.3158C47.3684 33.0702 46.2719 32.7193 43.3772 30C41.5351 28.2018 40.8333 27.2369 40.8772 26.4912C41.0526 24.693 42.6316 25.2193 45.1316 27.807Z" fill="white"/>
<path d="M37.5877 25.6141C37.2368 26.4912 38.4649 27.5 39.1228 26.8421C39.7368 26.2281 39.2544 25 38.421 25C38.114 25 37.7193 25.2632 37.5877 25.6141Z" fill="white"/>
<path d="M62.8509 26.579C62.5 27.5 63.4211 28.4211 64.079 27.7632C64.6492 27.193 64.2983 25.8772 63.5965 25.8772C63.3334 25.8772 63.0264 26.1842 62.8509 26.579Z" fill="white"/>
<path d="M72.9825 27.8509C72.6755 28.6404 73.1141 29.386 73.9035 29.386C74.5614 29.386 74.9562 28.5527 74.693 27.7193C74.4299 26.9737 73.2895 27.0614 72.9825 27.8509Z" fill="white"/>
<path d="M60.0877 29.079C59.4737 29.6053 58.5965 31.0088 58.1579 32.193L57.3684 34.2983L58.4649 35.4386L59.6053 36.579L61.7982 35.5702C63.7719 34.6053 63.9912 34.386 64.2544 32.6316C64.6053 30.307 64.2544 29.1228 63.2456 28.8158C62.8509 28.6842 62.193 28.5088 61.8421 28.3334C61.4912 28.2018 60.7017 28.5527 60.0877 29.079ZM62.7631 29.8246C63.3333 30.1316 63.5965 30.7456 63.5965 31.7106C63.5965 33.4649 63.3333 33.8158 61.3158 34.7369C59.7807 35.4386 59.693 35.4386 58.9474 34.6053C58.3772 33.9474 58.2895 33.6404 58.6842 33.2456C58.9912 32.9386 59.2105 32.3685 59.2105 31.9299C59.2105 31.1842 60.7895 29.386 61.5351 29.386C61.7105 29.386 62.2807 29.6053 62.7631 29.8246Z" fill="white"/>
<path d="M56.0088 31.3158C55.8772 31.6667 56.0526 32.193 56.4035 32.5C56.9737 32.9386 57.1491 32.9386 57.5 32.4123C57.7193 32.0614 57.807 31.579 57.7632 31.3597C57.5 30.6579 56.2719 30.6141 56.0088 31.3158Z" fill="white"/>
<path d="M50 32.4561C49.1667 33.114 49.079 33.3772 49.4298 34.4737C50.1755 36.8421 54.7369 38.2017 56.272 36.4912C58.0263 34.5614 56.3597 32.2807 53.0263 31.9298C51.5351 31.7544 50.7456 31.886 50 32.4561ZM55.307 33.6842C56.3597 34.5614 56.2281 35.7895 55 36.2719C53.0702 37.0175 48.9035 34.2982 50.4825 33.2895C51.5351 32.6316 54.2544 32.8509 55.307 33.6842Z" fill="white"/>
<path d="M65.2193 31.8421C64.5175 32.5439 64.9123 33.7719 65.8333 33.7719C66.4912 33.7719 66.7105 33.5526 66.579 32.807C66.4474 31.8421 65.7456 31.3597 65.2193 31.8421Z" fill="white"/>
<path d="M47.0176 34.7369C47.1053 35.307 47.4562 35.7456 47.807 35.7456C48.1579 35.7456 48.5088 35.307 48.5965 34.7369C48.7281 33.9913 48.5088 33.772 47.807 33.772C47.1053 33.772 46.886 33.9913 47.0176 34.7369Z" fill="white"/>
<path d="M22.0614 32.6316C21.0088 33.5526 20.8334 34.0351 20.8334 35.9649C20.8334 37.8948 21.0088 38.3772 22.0614 39.2983C24.8246 41.6667 28.0702 39.8246 28.0702 35.9211C28.0702 34.1228 27.8948 33.6842 26.7106 32.7193C25.0439 31.3158 23.6404 31.2719 22.0614 32.6316ZM24.5614 32.7632C24.2106 32.8947 23.5527 33.4211 23.1579 33.9474C22.7632 34.4298 22.2807 34.693 22.0614 34.4737C21.6228 34.0351 23.5527 32.4562 24.5176 32.5C25.0878 32.5 25.0878 32.5439 24.5614 32.7632ZM27.2369 34.9562C27.4562 35.5263 27.4562 36.3597 27.193 36.9298C26.8421 37.807 26.7983 37.7632 26.7983 36.4035C26.7544 35.5263 26.4035 34.3421 26.0088 33.7719C25.3071 32.7193 25.3071 32.7193 26.0527 33.3333C26.4913 33.6842 27.0176 34.386 27.2369 34.9562ZM25.4386 34.4298C25.8772 35 25.8334 35.0877 24.9123 35.0877C24.3421 35.0877 23.5965 35.3509 23.2457 35.614C22.9386 35.9211 23.0264 35.6579 23.5088 35C24.4737 33.5965 24.693 33.5526 25.4386 34.4298ZM25.4825 36.6228C25.4386 37.2807 24.4299 37.1491 24.2106 36.4912C24.079 36.0965 24.2983 35.9211 24.7369 36.0526C25.1755 36.0965 25.4825 36.3597 25.4825 36.6228ZM22.6755 37.3246C22.8071 37.8509 23.5527 38.5088 24.2983 38.8597L25.6579 39.4298L24.4737 39.4737C23.3772 39.4737 21.4913 37.7632 21.4913 36.7983C21.4913 36.0088 22.4562 36.4474 22.6755 37.3246Z" fill="white"/>
<path d="M13.5965 45.8333C12.9386 46.6667 13.3334 48.5088 14.2983 48.8597C15.1755 49.2105 16.6667 47.9825 16.6667 46.9298C16.6667 45.3509 14.6491 44.6053 13.5965 45.8333ZM15.5702 46.9737C15.5702 47.2807 15.2193 47.6316 14.8246 47.7193C14.0351 47.8509 13.7281 46.9298 14.3421 46.3158C14.7807 45.8772 15.5702 46.2719 15.5702 46.9737Z" fill="white"/>
<path d="M76.7982 48.8597C76.4035 49.3421 76.4035 49.693 76.8421 50.3947C77.5438 51.5351 78.4649 50.8333 78.1579 49.3421C77.9386 48.114 77.5438 47.9825 76.7982 48.8597Z" fill="white"/>
<path d="M78.5965 49.4298C78.7719 50.3509 80.0439 50.5263 80.0439 49.5614C80.0439 49.2105 79.693 48.8597 79.2544 48.7719C78.6404 48.6404 78.4649 48.8158 78.5965 49.4298Z" fill="white"/>
<path d="M75.4386 51.3158C75.4386 51.7983 75.7456 52.193 76.0965 52.193C76.4474 52.193 76.7544 51.7983 76.7544 51.3158C76.7544 50.8333 76.4474 50.4386 76.0965 50.4386C75.7456 50.4386 75.4386 50.8333 75.4386 51.3158Z" fill="white"/>
<path d="M77.7631 52.0176C77.4123 52.9386 78.3333 53.8597 78.9912 53.2018C79.5614 52.6316 79.2105 51.3158 78.5088 51.3158C78.2456 51.3158 77.9386 51.6228 77.7631 52.0176Z" fill="white"/>
<path d="M79.7369 53.2018C78.8597 53.9474 78.5965 54.4298 78.7719 55.1754C79.079 56.2281 79.2983 56.3158 80.2193 55.7456C80.7456 55.3947 80.7895 55.2193 80.2632 54.6491C79.7807 54.0351 79.8246 53.9474 80.4386 54.2105C80.8772 54.386 81.2281 54.2105 81.4035 53.7281C81.886 52.5 80.9649 52.193 79.7369 53.2018Z" fill="white"/>
<path d="M75 53.1579C75 53.465 75.1754 53.9913 75.3947 54.3421C75.7456 54.8685 75.9211 54.8685 76.4912 54.4299C77.5439 53.5527 77.3246 52.6316 76.0965 52.6316C75.4825 52.6316 75 52.8948 75 53.1579Z" fill="white"/>
<path d="M76.9298 54.5176C76.6667 55.2632 77.0176 56.1404 77.6316 56.1404C78.2895 56.1404 78.4649 54.8685 77.8509 54.386C77.3246 53.9474 77.1491 53.9913 76.9298 54.5176Z" fill="white"/>
<path d="M75.7456 57.7632C75.0877 58.4211 75.4825 59.6491 76.3158 59.6491C76.7983 59.6491 77.193 59.386 77.193 59.0351C77.193 58.2895 76.1404 57.3684 75.7456 57.7632Z" fill="white"/>
<path d="M70.0878 66.2281L68.5527 70.6141L69.6053 71.579C70.1316 72.1053 70.7018 72.4562 70.7895 72.3246C71.0088 72.0614 71.9737 62.193 71.7983 61.9737C71.7106 61.886 70.9211 63.7719 70.0878 66.2281ZM70.2193 69.7807C69.8246 70.7456 69.7807 70.7456 69.7807 69.9123C69.7369 69.4298 69.8685 68.8597 70.0439 68.7281C70.5702 68.2018 70.6579 68.7281 70.2193 69.7807Z" fill="white"/>
<path d="M75.0439 68.5965C72.8509 72.193 72.4123 73.2456 73.2018 73.2456C73.4211 73.2456 73.9035 73.3772 74.2983 73.5088C74.7807 73.6842 75.2193 72.807 76.272 69.4737C77.0176 67.1053 77.5439 65.1316 77.4562 65.0439C77.3685 64.9562 76.3158 66.5351 75.0439 68.5965ZM74.7369 71.6667C74.6053 72.0614 74.2983 72.3684 74.079 72.3684C73.8597 72.3684 73.9035 71.9737 74.2106 71.4912C74.8246 70.5263 75.1316 70.6141 74.7369 71.6667Z" fill="white"/>
<path d="M67.6754 72.6316C67.3246 73.5527 68.2456 74.4737 68.9035 73.8158C69.4737 73.2456 69.1228 71.9299 68.4211 71.9299C68.1579 71.9299 67.8509 72.2369 67.6754 72.6316Z" fill="white"/>
<path d="M70.2632 73.9912C70.4825 75.1316 71.9298 75.2632 71.9298 74.1667C71.9298 73.5088 71.6667 73.2456 71.0088 73.2456C70.3948 73.2456 70.1755 73.4649 70.2632 73.9912Z" fill="white"/>
<path d="M72.8947 75.0877C72.9824 75.614 73.3333 76.0965 73.6842 76.0965C74.6491 76.0965 74.5175 74.386 73.5526 74.2105C72.8947 74.079 72.7631 74.2544 72.8947 75.0877Z" fill="white"/>
<path d="M65.3509 79.1667C64.5614 81.4912 64.0351 83.4649 64.1228 83.5965C64.3421 83.7719 69.7368 75.6579 69.7368 75.1754C69.7368 75.0877 69.079 75 68.2895 75C66.7983 75 66.7983 75 65.3509 79.1667ZM67.3684 77.5C67.0175 78.1579 66.7105 78.4649 66.6667 78.1579C66.6667 77.4123 67.5439 75.7456 67.8509 76.0088C67.9386 76.1404 67.7632 76.7983 67.3684 77.5Z" fill="white"/>
<path d="M70.6579 81.6228C70.3509 84.5614 70.2193 87.0176 70.307 87.1491C70.4386 87.2369 71.2281 85.0877 72.1053 82.3684C73.5526 77.807 73.5965 77.3684 72.9386 76.8421C71.4035 75.7456 71.1842 76.2281 70.6579 81.6228ZM72.2368 79.0351C72.1053 79.3421 72.0175 79.1228 72.0175 78.5088C72.0175 77.8948 72.1053 77.6755 72.2368 77.9386C72.3246 78.2456 72.3246 78.7719 72.2368 79.0351Z" fill="white"/>
<path d="M64.2544 91.6667C63.9035 92.2369 64.8684 93.5088 65.3947 93.1579C65.614 93.0263 65.7895 92.5439 65.7895 92.0614C65.7895 91.1842 64.7369 90.9211 64.2544 91.6667Z" fill="white"/>
<path d="M55.8333 87.9825C55.4825 88.9035 56.4035 89.8246 57.0614 89.1667C57.6316 88.5965 57.2807 87.2807 56.5789 87.2807C56.3158 87.2807 56.0088 87.5877 55.8333 87.9825Z" fill="white"/>
<path d="M53.1579 94.8684C52.5439 95.6141 53.2456 96.7105 54.1228 96.3597C55 96.0088 55 95.4386 54.2105 94.7807C53.7719 94.4298 53.5088 94.4298 53.1579 94.8684Z" fill="white"/>
<path d="M52.0614 97.6755C51.886 97.807 51.7544 98.3334 51.7544 98.8158C51.7544 99.4298 51.9737 99.6053 52.6316 99.4298C53.0702 99.2983 53.5526 99.4298 53.6404 99.693C53.7281 99.9562 54.1228 100.044 54.5614 99.8684C55.1316 99.6491 55.2632 99.2983 55 98.5965C54.6053 97.2369 54.5176 97.1491 53.7281 97.807C53.2895 98.1579 53.0702 98.2018 53.0702 97.8509C53.0702 97.3246 52.5 97.193 52.0614 97.6755Z" fill="white"/>
<path d="M60.307 95.6141C59.9561 96.1842 60.921 97.8948 61.4474 97.5878C62.1053 97.1492 61.9298 95.1755 61.2281 95.1755C60.8772 95.1755 60.4386 95.3509 60.307 95.6141Z" fill="white"/>
<path d="M62.4123 95.8772C62.1053 96.6667 62.8948 97.5877 63.5527 97.193C64.2983 96.7105 64.1228 95.1754 63.3772 95.1754C62.9825 95.1754 62.5877 95.4825 62.4123 95.8772Z" fill="white"/>
<path d="M59.079 97.193C58.9036 97.3684 58.772 97.8947 58.772 98.3333C58.772 99.2105 59.8685 99.4298 60.3509 98.6404C60.7018 98.0702 59.5176 96.7544 59.079 97.193Z" fill="white"/>
<path d="M64.3421 97.4123C63.2018 98.0702 63.4211 99.1228 64.693 99.1228C65.4825 99.1228 65.7895 98.9035 65.7895 98.2895C65.7895 97.193 65.3071 96.886 64.3421 97.4123Z" fill="white"/>
<path d="M61.6667 98.5527C61.5351 98.7281 61.4035 99.2106 61.4035 99.6492C61.4035 100.702 62.8509 100.57 63.0702 99.5176C63.2017 98.772 62.1491 98.0702 61.6667 98.5527Z" fill="white"/>
<path d="M59.386 99.9562C58.5965 100.175 58.5088 100.395 58.8597 101.272L59.2544 102.368L60.1754 101.404C61.2719 100.307 60.8333 99.5614 59.386 99.9562Z" fill="white"/>
<path d="M64.1667 100.263C63.8597 101.053 64.6492 101.974 65.3071 101.579C66.0527 101.097 65.8772 99.5614 65.1316 99.5614C64.7369 99.5614 64.3421 99.8684 64.1667 100.263Z" fill="white"/>
<path d="M62.6316 101.535C62.193 101.974 62.807 103.947 63.421 103.947C64.2982 103.947 64.5614 103.202 63.9474 102.193C63.3772 101.316 63.0263 101.14 62.6316 101.535Z" fill="white"/>
<path d="M60.2632 102.412C59.9561 103.202 60.3947 103.947 61.2281 103.947C61.579 103.947 61.8421 103.509 61.8421 102.851C61.8421 101.667 60.6579 101.316 60.2632 102.412Z" fill="white"/>
<path d="M50 102.632C50 103.202 50.307 103.509 50.8772 103.509C51.4474 103.509 51.7544 103.202 51.7544 102.632C51.7544 102.061 51.4474 101.754 50.8772 101.754C50.307 101.754 50 102.061 50 102.632Z" fill="white"/>
<path d="M43.7281 112.149C41.6667 116.842 41.6667 116.886 42.5439 117.719C43.0702 118.289 43.5526 118.465 43.7719 118.202C44.2105 117.719 46.2281 107.895 45.9649 107.632C45.8333 107.544 44.8684 109.605 43.7281 112.149ZM43.5965 115.965C43.4649 116.623 43.2456 117.061 43.1141 116.974C43.0263 116.842 43.0702 116.228 43.2456 115.614C43.3772 114.956 43.5965 114.518 43.7281 114.605C43.8158 114.737 43.7719 115.351 43.5965 115.965Z" fill="white"/>
<path d="M58.772 107.412C58.772 107.895 58.9474 108.377 59.1667 108.509C59.693 108.86 60.6579 107.588 60.3071 107.018C59.8246 106.272 58.772 106.535 58.772 107.412Z" fill="white"/>
<path d="M52.0614 116.272C51.1404 118.772 50.4386 121.053 50.4386 121.316C50.4386 121.93 52.5439 123.904 52.8509 123.597C53.1579 123.289 54.0789 112.851 53.8597 112.193C53.7719 111.93 52.9386 113.728 52.0614 116.272ZM52.4123 121.404C52.2368 121.886 52.0175 121.93 51.7105 121.623C51.3597 121.272 51.4035 120.658 51.7982 119.43L52.4123 117.763L52.5439 119.211C52.6316 120.044 52.5877 121.009 52.4123 121.404Z" fill="white"/>
<path d="M58.0263 119.561C56.4913 121.798 55.2632 123.86 55.2632 124.079C55.2632 124.43 57.8948 125.175 58.1141 124.912C58.4649 124.474 61.0088 116.14 60.8772 115.833C60.7895 115.614 59.5176 117.281 58.0263 119.561ZM58.2456 122.061C57.9825 122.939 57.5 123.684 57.1491 123.684C56.8421 123.684 56.579 123.597 56.579 123.465C56.579 123.158 58.5088 120.219 58.6404 120.351C58.6842 120.395 58.5088 121.184 58.2456 122.061Z" fill="white"/>
<path d="M49.3421 123.684C48.9912 124.825 49.6491 125.658 50.6579 125.263C51.5789 124.912 51.3596 123.07 50.3509 122.895C49.9123 122.807 49.5175 123.114 49.3421 123.684Z" fill="white"/>
<path d="M52.6316 124.781C51.9299 125.614 52.4123 126.842 53.3772 126.667C54.3421 126.491 54.6492 124.781 53.772 124.43C53.4211 124.298 52.8948 124.474 52.6316 124.781Z" fill="white"/>
<path d="M55.8334 125.746C55.5263 125.877 55.2632 126.447 55.2632 127.018C55.2632 127.763 55.4825 128.07 56.1404 128.07C56.6228 128.07 57.1491 127.763 57.3246 127.368C57.6316 126.579 56.6228 125.439 55.8334 125.746Z" fill="white"/>
<path d="M48.6842 126.009C48.6842 126.053 47.9825 128.07 47.1053 130.482C45.1755 135.746 44.2983 138.597 44.5176 138.597C44.7807 138.597 51.3158 127.632 51.3158 127.193C51.3158 127.018 50.7456 126.623 50 126.36C49.2983 126.14 48.6842 125.965 48.6842 126.009ZM50 127.675C50 128.333 48.2018 131.228 47.9386 131.009C47.6755 130.702 49.1667 127.193 49.6053 127.193C49.8246 127.193 50 127.412 50 127.675Z" fill="white"/>
<path d="M47.0614 137.193C44.1228 142.193 41.579 146.623 41.4035 147.018C41.1842 147.675 41.3597 147.807 42.4561 147.807C43.3772 147.807 43.8158 147.544 43.9912 146.974C44.079 146.535 44.6053 145.921 45.1316 145.658C45.9211 145.219 46.2281 145.307 47.193 146.272C48.0702 147.149 48.2456 147.675 48.0263 148.597C47.8509 149.518 48.0263 150.044 48.6842 150.658C49.1667 151.097 49.6491 151.36 49.7807 151.228C50 151.009 52.6754 128.421 52.5 128.246C52.4561 128.158 50 132.193 47.0614 137.193ZM50.3947 140.614C49.4737 148.509 48.8597 151.36 48.8597 148.026C48.8597 146.228 47.2807 144.298 45.7895 144.298C45.2193 144.298 44.2983 144.912 43.5965 145.702C42.9386 146.491 42.5 146.93 42.5877 146.667C42.9825 145.614 51.0526 132.061 51.2281 132.193C51.3158 132.281 50.9211 136.097 50.3947 140.614Z" fill="white"/>
<path d="M53.772 129.035C53.4211 130.132 52.5439 140 52.7632 140.175C52.8948 140.307 53.772 138.026 54.7369 135.132L56.4913 129.825L55.5702 129.167C54.4299 128.377 53.9913 128.333 53.772 129.035ZM55.2632 130.351C55.2632 131.36 54.7369 132.895 54.4299 132.895C54.2544 132.895 54.2106 132.193 54.2983 131.36C54.4737 129.956 55.2632 129.123 55.2632 130.351Z" fill="white"/>
<path d="M45.2632 146.886C44.4298 147.368 44.7807 148.86 45.7456 149.035C46.1403 149.123 46.6228 148.86 46.7544 148.465C47.1491 147.544 46.0526 146.404 45.2632 146.886Z" fill="white"/>
<path d="M47.8948 115C46.3597 117.412 45.1755 119.43 45.2632 119.518C45.3509 119.605 45.9211 119.781 46.5351 119.956C47.6316 120.219 47.6755 120.088 49.2544 115.526C50.1755 112.939 50.8334 110.79 50.7456 110.702C50.7018 110.614 49.386 112.544 47.8948 115ZM47.3684 118.421C47.3684 118.64 47.1491 118.86 46.886 118.86C46.6667 118.86 46.579 118.64 46.7106 118.421C46.8421 118.158 47.0614 117.982 47.193 117.982C47.2807 117.982 47.3684 118.158 47.3684 118.421Z" fill="white"/>
<path d="M45 121.316C44.6053 122.325 45.8334 123.64 46.5351 122.939C47.193 122.281 46.8421 120.877 46.0088 120.702C45.6141 120.614 45.1755 120.921 45 121.316Z" fill="white"/>
<path d="M39.4737 122.105C39.2983 122.588 38.5965 124.298 37.9386 125.877C36.272 129.825 35.3948 132.325 35.9211 131.798C36.6228 131.009 42.1053 122.368 42.1053 121.974C42.1053 121.754 41.579 121.491 40.9649 121.36C40.1316 121.228 39.7807 121.404 39.4737 122.105ZM40.4386 123.333C40.1316 123.64 39.9123 123.684 39.9123 123.421C39.9123 122.807 40.4386 122.281 40.7456 122.588C40.8334 122.719 40.7018 123.07 40.4386 123.333Z" fill="white"/>
<path d="M37.4123 130.921C34.4299 135.614 32.0176 139.649 32.0176 139.912C32.0176 140.658 33.5965 140.395 34.4299 139.474C36.0527 137.675 38.0702 139.079 37.5 141.667C37.193 143.07 38.3334 145.921 38.7281 144.737C39.2106 143.246 43.0264 123.158 42.8948 122.807C42.8071 122.588 40.3509 126.228 37.4123 130.921ZM40.0878 133.553C39.4299 137.061 38.6842 139.912 38.5088 139.912C38.2895 139.912 38.1579 139.605 38.1579 139.254C38.1579 138.904 37.6755 138.289 37.0176 137.895C35.9649 137.193 35.8772 137.193 34.6053 138.114C33.3772 139.035 33.4211 138.86 35.4386 135.658C36.6228 133.772 38.3334 131.009 39.2983 129.518C40.2193 128.026 41.0527 126.886 41.1842 127.018C41.272 127.105 40.7895 130.044 40.0878 133.553Z" fill="white"/>
<path d="M42.5439 129.825C41.7544 133.684 41.1842 136.93 41.3158 137.061C41.5351 137.281 46.0965 125.044 46.0526 124.254C46.0526 123.816 44.7368 122.807 44.1667 122.807C44.079 122.807 43.3333 125.965 42.5439 129.825ZM44.5614 126.36L43.8597 127.851L44.1228 126.316C44.4298 124.518 44.8246 123.728 45.0439 124.43C45.1316 124.693 44.9123 125.57 44.5614 126.36Z" fill="white"/>
<path d="M35.0877 140.132C34.386 140.965 34.8684 142.193 35.8333 142.018C36.3158 141.93 36.6228 141.491 36.6228 140.833C36.6228 139.561 35.8772 139.211 35.0877 140.132Z" fill="white"/>
<path d="M5.70174 120.132C5.13156 121.272 5.87718 122.939 6.88595 122.719C7.98244 122.5 8.64034 121.184 8.07016 120.263C7.36841 119.167 6.27191 119.123 5.70174 120.132ZM7.45612 121.097C7.45612 121.316 7.14911 121.491 6.79823 121.491C6.14033 121.491 5.92104 120.965 6.40349 120.482C6.75437 120.132 7.45612 120.526 7.45612 121.097Z" fill="white"/>
<path d="M13.4649 131.36C10.7456 134.123 12.3684 139.211 16.0088 139.211C18.772 139.211 20.5263 136.272 19.693 133.114C18.8597 130.219 15.5702 129.298 13.4649 131.36ZM17.9825 132.018C18.4649 132.5 18.9474 133.333 19.079 133.904C19.6492 136.184 17.1492 139.167 15.4825 138.202C15 137.939 14.9123 137.719 15.2632 137.719C16.0088 137.719 15.7895 135.877 15 135.614C14.7369 135.526 14.2983 135.877 14.1228 136.447C13.6842 137.544 13.4211 137.281 12.9825 135.351C12.7193 134.211 12.7632 134.123 13.3334 134.605C13.6842 134.912 14.2106 135.044 14.4299 134.912C14.6492 134.737 15 134.868 15.1316 135.132C15.307 135.351 15.7018 135.482 16.0527 135.351C16.3597 135.219 16.8421 135.439 17.0614 135.833C17.3684 136.447 17.5877 136.491 18.1141 136.009C19.0351 135.307 18.5527 134.079 17.5 134.342C16.4913 134.605 15.9649 133.947 16.886 133.597C17.7632 133.289 17.7193 132.061 16.8421 131.711C16.0527 131.404 15.307 132.325 15.6579 133.202C15.7895 133.509 15.6579 133.772 15.3948 133.772C15.1316 133.772 14.9123 133.553 14.9123 133.333C14.9123 133.07 14.6053 132.895 14.2544 132.895C13.3772 132.895 13.4211 132.149 14.386 131.623C15.5702 130.921 17.0176 131.053 17.9825 132.018Z" fill="white"/>
<path d="M20.8334 140.351C19.7369 141.535 17.8948 142.544 16.6667 142.544C15.3509 142.544 15.5702 143.64 17.1053 144.737C18.1141 145.439 18.3334 145.833 18.0264 146.228C17.6755 146.623 17.9825 147.588 19.0351 149.561L20.5264 152.368L21.2281 150.746C21.579 149.825 22.193 148.991 22.5439 148.86C23.2018 148.597 24.2983 144.956 23.9035 144.254C23.7281 144.035 23.2457 143.86 22.8071 143.86C22.1053 143.86 21.9737 143.465 21.8421 141.623L21.7106 139.386L20.8334 140.351ZM21.886 144.737C22.3246 144.737 22.7632 144.868 22.8948 145C23.3334 145.395 22.6316 147.149 21.4035 148.684L20.2193 150.175L19.4737 148.509C18.8158 147.193 18.772 146.711 19.2106 146.053C19.9123 144.868 19.9123 144.868 18.3334 144.342L16.9299 143.86L18.9035 142.851L20.8334 141.886L20.965 143.289C21.0527 144.342 21.3158 144.737 21.886 144.737Z" fill="white"/>
<path d="M19.9123 146.272C19.6053 147.061 20.0439 147.807 20.8333 147.807C21.6228 147.807 21.9737 147.149 21.6667 146.316C21.3158 145.439 20.2193 145.395 19.9123 146.272Z" fill="white"/>
<path d="M23.1141 141.053C22.4123 141.754 22.8071 142.982 23.7281 142.982C24.386 142.982 24.6053 142.763 24.4737 142.018C24.3421 141.053 23.6404 140.57 23.1141 141.053Z" fill="white"/>
<path d="M33.772 145.395C33.772 146.184 33.9913 146.491 34.6492 146.491C35.3071 146.491 35.5264 146.184 35.5264 145.395C35.5264 144.605 35.3071 144.298 34.6492 144.298C33.9913 144.298 33.772 144.605 33.772 145.395Z" fill="white"/>
<path d="M29.9562 152.193C29.693 152.807 28.6404 155.175 27.6316 157.456C24.3421 164.781 24.386 164.737 25.1316 164.079C25.5264 163.772 27.0176 161.886 28.465 159.868C31.1842 156.14 31.4474 155.351 30.7018 152.412L30.3948 151.097L29.9562 152.193ZM30.2632 155.219C30.2632 155.702 29.7369 156.667 29.1228 157.325C28.2457 158.289 28.1141 158.333 28.465 157.588C28.7281 157.061 29.1228 156.14 29.386 155.526C29.8685 154.167 30.2632 154.035 30.2632 155.219Z" fill="white"/>
<path d="M30.2632 159.298C29.2544 160.746 27.6755 162.763 26.8421 163.684C26.0088 164.605 25.3948 165.482 25.5263 165.57C26.0088 166.053 31.7106 161.623 33.3334 159.518C34.2983 158.202 35.0877 157.018 35.0877 156.886C35.0877 156.711 34.4298 156.579 33.6404 156.579C32.3684 156.579 31.9737 156.886 30.2632 159.298ZM33.3334 157.807C33.3334 158.333 30.1755 161.93 29.9562 161.667C29.8246 161.579 30.3948 160.57 31.2281 159.474C32.5877 157.588 33.3334 157.018 33.3334 157.807Z" fill="white"/>
<path d="M43.1579 152.412C42.7631 153.377 44.1228 154.737 44.7807 154.079C45.4386 153.421 45.0877 152.018 44.1667 151.842C43.7719 151.754 43.2895 152.018 43.1579 152.412Z" fill="white"/>
<path d="M45.2632 154.43C44.5176 155.614 45.0877 156.184 46.4035 155.658C47.2369 155.351 47.3246 155.132 46.9298 154.386C46.3158 153.29 45.9649 153.29 45.2632 154.43Z" fill="white"/>
<path d="M220 57.1491C217.061 58.8158 215.921 62.2807 217.281 65.5263C217.588 66.3158 218.904 67.8509 220.219 68.9035C228.684 75.9649 229.781 78.0702 226.842 81.2281C224.561 83.6842 221.272 83.2456 218.728 80.1755C217.368 78.5527 217.193 78.4649 216.097 78.9912C215.439 79.2983 214.912 79.6491 214.912 79.8246C214.912 80.5702 218.728 84.386 220.044 84.9123C222.895 86.1404 226.798 85.5702 228.904 83.6404C230.175 82.4562 231.535 79.5614 231.579 78.0263C231.579 75.5702 229.43 72.4562 225.658 69.4737C221.097 65.9649 219.737 64.3421 219.737 62.6755C219.737 60.7456 221.447 59.2105 223.64 59.2105C225.044 59.2105 225.702 59.5176 227.018 60.7456C228.904 62.5439 228.991 62.5439 230.044 61.4474C230.746 60.6141 230.746 60.5263 229.868 59.2544C228.684 57.6316 225.658 56.1404 223.421 56.1404C222.456 56.1404 220.965 56.579 220 57.1491Z" fill="white"/>
<path d="M239.342 57.1053C237.588 58.1141 235.965 60.8772 235.965 62.7632C236.009 65.2193 237.544 67.3685 241.798 70.7457C246.184 74.2983 247.237 75.5264 247.632 77.5878C248.158 80.0878 245.439 82.8948 242.456 82.8948C241.009 82.8948 238.816 81.4474 237.895 79.8685C237.456 79.1229 236.93 78.5088 236.711 78.5088C235.965 78.5088 234.649 79.4299 234.649 80C234.649 80.9211 237.588 84.0351 239.211 84.8246C241.009 85.7018 244.254 85.7457 246.184 84.9123C248.114 84.1229 250.351 81.4913 250.702 79.6053C251.404 75.8772 249.693 72.9825 244.43 68.9474C239.825 65.4386 239.254 64.7807 239.254 62.6316C239.254 58.9913 243.333 57.9386 246.447 60.7895C248.158 62.3246 248.202 62.3246 249.342 61.579L250.483 60.8334L249.43 59.4737C246.974 56.272 242.588 55.2193 239.342 57.1053Z" fill="white"/>
<path d="M108.772 71.0527V85.0877H116.886H125V83.5527V82.0176H118.421H111.842V76.5351V71.0527H118.421H125V69.7369V68.4211H118.421H111.842V64.0351V59.6491H118.421H125V58.3334V57.0176H116.886H108.772V71.0527Z" fill="white"/>
<path d="M133.114 57.5439C132.895 58.3334 129.386 83.3772 129.386 84.2983C129.386 84.8685 129.737 85.0878 130.702 85.0878C131.447 85.0878 132.018 85.0439 132.018 84.9562C132.018 84.9123 132.632 80.5702 133.333 75.3071C134.079 70.0439 134.649 65.5702 134.693 65.4386C134.693 65.2632 136.974 69.6053 139.737 75.0878C142.5 80.6141 144.912 85.0878 145.088 85.0878C145.263 85.0878 147.588 80.7457 150.219 75.4386C152.851 70.1316 155.132 65.7895 155.263 65.7895C155.395 65.7895 156.097 70 156.754 75.0878C157.456 80.2193 158.07 84.5614 158.202 84.7369C158.377 85.0878 160.965 85.2632 160.965 84.9562C160.965 84.8685 160.088 78.5965 158.991 71.0527C157.895 63.5088 157.018 57.2369 157.018 57.1492C157.018 57.1053 156.842 57.0176 156.667 57.0176C156.491 57.0176 153.86 62.0176 150.877 68.1579C147.851 74.2983 145.263 79.3421 145.132 79.3421C145 79.386 142.456 74.3421 139.43 68.2018C136.447 62.0614 133.816 57.0614 133.64 57.0176C133.465 57.0176 133.246 57.2807 133.114 57.5439Z" fill="white"/>
<path d="M166.316 70.9211L166.447 84.8684L170.789 85C176.447 85.1755 179.167 84.386 181.272 82.0614C182.982 80.1755 183.597 78.0702 183.158 75.5263C182.851 73.5526 181.754 72.0176 179.693 70.6579L178.114 69.6053L179.386 68.1579C181.447 65.7895 181.623 62.7193 179.868 59.8246C178.509 57.6316 176.623 57.0176 171.097 57.0176H166.228L166.316 70.9211ZM177.018 61.0965C179.868 64.386 176.974 68.4211 171.842 68.4211H169.298V63.9912V59.5614L172.632 59.7369C175.658 59.8684 176.097 60 177.018 61.0965ZM176.754 72.193C179.956 73.4649 181.14 76.6228 179.518 79.4298C178.421 81.2719 176.491 82.0176 172.632 82.0176H169.298V76.7544V71.4912H172.149C173.728 71.4912 175.746 71.7983 176.754 72.193Z" fill="white"/>
<path d="M198.509 59.2983C197.939 60.5702 195.439 65.8772 192.982 71.0527C190.526 76.2281 188.026 81.5351 187.456 82.7632L186.404 85.0877H188.07H189.693L191.842 80.4825L193.991 75.8772H200.088H206.184L208.333 80.4825C210.526 85.0877 210.526 85.0877 212.105 85.0877C212.939 85.0877 213.597 84.9123 213.509 84.693C212.105 81.0088 200.482 57.0176 200.088 57.0176C199.781 57.0176 199.079 58.0702 198.509 59.2983ZM200.307 72.7193C197.895 72.7632 195.877 72.7632 195.789 72.6755C195.702 72.5877 196.623 70.3509 197.851 67.7193L200.132 62.9386L202.368 67.7632L204.649 72.5877L200.307 72.7193Z" fill="white"/>
<path d="M255.351 57.9825C255.702 58.5527 257.719 61.7544 259.781 65.1755L263.597 71.3597V78.2018V85.0877H265.132H266.667V78.2456V71.3597L271.053 64.2105L275.439 57.0176H273.728H272.018L268.64 62.5C266.798 65.5263 265.219 67.9825 265.132 67.9825C265.044 67.9825 263.421 65.5263 261.535 62.5C258.114 57.0176 258.114 57.0176 256.404 57.0176C254.781 57.0176 254.737 57.0614 255.351 57.9825Z" fill="white"/>
<path d="M91.0088 104.123C87.5877 105.57 84.2105 109.035 82.8947 112.588C81.6228 115.921 81.7983 121.184 83.2895 124.211C84.5176 126.842 87.2807 129.561 90.1316 131.053C92.0614 132.105 92.807 132.237 96.7105 132.237C101.886 132.237 104.035 131.404 107.193 128.246C110.351 125.088 111.184 122.939 111.184 117.763C111.184 112.632 110.395 110.482 107.325 107.412C104.605 104.693 101.404 103.377 97.1491 103.202C94.1667 103.07 93.2456 103.202 91.0088 104.123ZM102.018 107.237C109.43 110.877 110.746 121.272 104.474 126.754C102.456 128.553 99.2105 129.825 96.7105 129.825C94.3421 129.825 91.0526 128.597 89.1667 126.974C83.3333 122.018 83.7719 112.368 89.9562 108.07C93.6842 105.482 97.8509 105.219 102.018 107.237Z" fill="white"/>
<path d="M117.325 104.035C117.193 104.342 117.149 110.746 117.193 118.202L117.325 131.798L118.772 131.93L120.175 132.061V125.044V117.982H125.877H131.579V116.667V115.351H125.877H120.175V110.965V106.623L125.789 106.491L131.36 106.36V105.044V103.728L124.43 103.597C119.123 103.509 117.456 103.597 117.325 104.035Z" fill="white"/>
<path d="M146.798 103.772C146.623 103.947 146.491 110.395 146.491 118.07V132.018H148.026H149.561L149.474 117.851L149.342 103.728L148.246 103.597C147.632 103.509 146.974 103.597 146.798 103.772Z" fill="white"/>
<path d="M156.14 117.675V132.018H157.456H158.772V125.395C158.772 119.035 158.816 118.816 159.649 118.947C160.175 119.035 162.5 121.623 165.482 125.439C170.132 131.447 170.482 131.798 172.061 131.93C172.939 132.018 173.684 131.93 173.684 131.711C173.684 131.535 171.535 128.597 168.947 125.219L164.167 119.079L166.842 118.553C171.053 117.675 173.114 115.702 173.509 112.061C173.816 109.079 172.412 106.316 169.956 104.956C168.465 104.123 167.149 103.947 162.149 103.684L156.14 103.377V117.675ZM169.167 108.026C170.132 108.991 170.395 109.649 170.395 111.228C170.395 112.939 170.175 113.421 168.991 114.474C167.5 115.833 164.649 116.404 160.965 116.14L158.991 116.009L158.86 111.272L158.728 106.491L163.333 106.667C167.719 106.798 168.026 106.886 169.167 108.026Z" fill="white"/>
<path d="M179.605 104.079C179.474 104.386 179.43 110.746 179.474 118.202L179.605 131.798L187.632 131.93L195.614 132.018V130.482V128.947H189.035H182.456V123.465V117.982H189.035H195.614V116.667V115.351H189.035H182.456V110.965V106.579H189.035H195.614V105.044V103.509H187.719C181.754 103.509 179.737 103.64 179.605 104.079Z" fill="white"/>
<path d="M200.746 103.772C200.57 103.947 200.439 110.395 200.439 118.07V132.018H207.237H214.035V130.482V128.947H208.772H203.509L203.421 116.316L203.29 103.728L202.193 103.597C201.579 103.509 200.921 103.597 200.746 103.772Z" fill="white"/>
<path d="M227.675 107.061C226.754 109.079 223.772 115.351 221.097 121.009C218.421 126.667 216.228 131.447 216.228 131.667C216.228 131.842 216.886 132.018 217.675 132.018C219.123 132.018 219.211 131.886 221.316 127.412L223.465 122.851L229.605 122.807H235.789L237.895 127.412C240 131.93 240.044 132.018 241.491 132.018C242.325 132.018 242.982 131.842 242.982 131.667C242.982 131.097 230.351 104.298 229.868 103.816C229.561 103.509 228.904 104.474 227.675 107.061ZM231.974 114.781C233.202 117.325 234.167 119.518 234.035 119.605C233.947 119.693 231.93 119.693 229.518 119.649L225.132 119.518L227.325 114.781C228.509 112.193 229.561 110.088 229.649 110.088C229.693 110.088 230.746 112.193 231.974 114.781Z" fill="white"/>
<path d="M266.974 103.816C266.798 103.947 266.667 108.728 266.667 114.386V124.693L265.702 123.772C265.132 123.246 261.053 118.597 256.579 113.421C252.105 108.246 248.202 103.991 247.939 103.991C247.5 103.947 247.368 107.018 247.368 117.982V132.018H248.904H250.439L250.526 121.535L250.658 111.053L259.781 121.535C264.825 127.281 269.079 131.93 269.211 131.842C269.386 131.754 269.474 125.307 269.386 117.588L269.254 103.509H268.246C267.719 103.509 267.105 103.64 266.974 103.816Z" fill="white"/>
<path d="M276.535 104.079C276.404 104.386 276.36 110.746 276.404 118.202L276.535 131.798L283.114 131.754C286.798 131.754 290.526 131.491 291.535 131.184C294.43 130.395 296.974 128.158 298.553 125.044C299.868 122.544 300 121.93 300 118.421C300 111.886 297.456 107.281 292.675 105.175C289.474 103.772 276.974 102.895 276.535 104.079ZM288.553 107.061C291.754 107.719 294.298 109.561 295.702 112.149C298.289 116.842 297.588 122.763 294.079 126.14C291.798 128.377 289.649 128.947 283.816 128.947H279.386V117.763V106.579H282.895C284.781 106.579 287.325 106.798 288.553 107.061Z" fill="white"/>
</g>
<defs>
<clipPath id="clip0_3_187">
<rect width="300" height="177.632" fill="white"/>
</clipPath>
</defs>
</svg>
