<?xml version="1.0" standalone="no"?>
<!DOCTYPE svg PUBLIC "-//W3C//DTD SVG 20010904//EN"
 "http://www.w3.org/TR/2001/REC-SVG-20010904/DTD/svg10.dtd">
<svg version="1.0" xmlns="http://www.w3.org/2000/svg"
 width="684.000000pt" height="405.000000pt" viewBox="0 0 684.000000 405.000000"
 preserveAspectRatio="xMidYMid meet">
<metadata>
Created by potrace 1.16, written by Peter Selinger 2001-2019
</metadata>
<g transform="translate(0.000000,405.000000) scale(0.100000,-0.100000)"
fill="#000000" stroke="none">
<path d="M682 3880 c-36 -22 -72 -67 -72 -90 0 -10 -15 -27 -34 -38 -41 -24
-65 -58 -76 -108 -7 -31 -4 -43 16 -76 l25 -39 -44 -67 c-25 -37 -61 -98 -80
-137 -22 -43 -44 -74 -59 -80 -19 -8 -24 -20 -29 -65 -4 -38 -25 -97 -68 -190
-103 -224 -199 -547 -237 -795 -20 -136 -23 -423 -5 -555 20 -152 59 -337 92
-440 24 -75 28 -99 20 -118 -16 -34 -14 -41 18 -71 17 -16 45 -67 71 -131 23
-58 73 -169 112 -247 46 -92 71 -155 72 -179 1 -35 -2 -38 -34 -47 -51 -13
-60 -24 -60 -74 0 -36 6 -50 30 -75 24 -24 37 -29 59 -25 19 4 44 -2 76 -19
63 -31 97 -30 170 5 67 32 153 116 205 199 l31 52 58 -29 c66 -34 176 -60 190
-46 5 6 48 129 96 275 48 146 131 400 185 565 54 165 137 419 185 565 48 146
138 422 201 614 107 328 115 357 125 469 11 126 7 166 -19 207 -8 13 -23 63
-32 110 -36 179 -117 280 -253 316 -106 28 -175 11 -267 -66 -59 -49 -99 -64
-148 -55 -73 14 -236 212 -352 428 l-42 77 -49 -1 c-27 -1 -62 -10 -77 -19z
m48 -15 c0 -18 -34 -67 -60 -85 -58 -41 -59 1 -2 63 22 23 62 37 62 22z m20
-35 c-6 -11 -13 -20 -16 -20 -2 0 0 9 6 20 6 11 13 20 16 20 2 0 0 -9 -6 -20z
m53 -4 c3 -8 -2 -16 -15 -19 -12 -4 -18 -12 -16 -23 5 -26 27 -29 36 -4 7 19
14 12 55 -58 57 -100 184 -269 233 -312 26 -23 33 -34 24 -40 -16 -10 -9 -45
10 -45 9 0 15 9 14 23 0 17 3 21 15 16 9 -4 37 -9 63 -12 52 -4 88 13 176 83
57 46 111 60 177 47 74 -15 100 -27 145 -68 63 -57 119 -164 86 -164 -9 0 -16
4 -16 10 0 5 -14 33 -31 60 -28 46 -34 50 -59 45 -30 -7 -44 5 -54 46 -7 31
-28 39 -103 39 -44 0 -53 -3 -53 -18 0 -10 -5 -23 -10 -28 -15 -15 7 -60 34
-70 11 -4 30 -10 41 -14 17 -5 8 -14 -54 -55 -85 -55 -177 -95 -168 -72 8 21
-9 41 -28 34 -10 -4 -15 -15 -13 -29 3 -22 0 -23 -56 -21 -97 4 -171 46 -297
172 -58 58 -141 152 -184 209 l-79 103 -25 -25 -25 -26 32 -45 c18 -25 32 -56
32 -68 -1 -19 -9 -14 -51 33 -27 30 -48 60 -47 67 4 16 190 243 199 243 4 0 9
-6 12 -14z m-143 -106 c-23 -27 -43 -50 -45 -50 -2 0 2 14 9 31 10 24 58 69
74 69 2 0 -15 -22 -38 -50z m-47 14 c9 -10 -20 -61 -45 -78 -55 -39 -64 -5
-14 48 33 35 46 42 59 30z m-28 -104 c-10 -11 -25 -20 -34 -20 -10 0 -4 8 14
19 39 25 42 25 20 1z m105 -38 c0 -24 -1 -25 -16 -10 -10 9 -14 24 -10 33 9
23 26 9 26 -23z m60 -83 c0 -21 -1 -22 -20 -4 -11 10 -20 31 -20 48 l0 30 20
-26 c11 -14 20 -35 20 -48z m-105 -49 c39 -48 55 -80 41 -80 -3 0 -25 25 -50
55 l-44 55 -38 -52 c-25 -36 -33 -53 -24 -56 7 -3 -1 -11 -18 -18 -37 -15 -70
-64 -79 -117 -5 -34 -7 -37 -21 -23 -14 13 -9 25 43 113 64 108 122 186 136
181 5 -2 29 -28 54 -58z m165 -30 l0 -25 -20 25 c-11 14 -20 36 -20 50 l0 25
20 -25 c11 -14 20 -36 20 -50z m-60 -4 c0 -18 -1 -18 -20 -1 -11 10 -20 30
-20 44 l0 26 20 -25 c11 -14 20 -34 20 -44z m-142 12 c19 -19 14 -28 -18 -28
-28 0 -29 2 -18 20 15 23 20 24 36 8z m1000 -14 c12 -4 22 -14 22 -23 0 -9 7
-27 16 -40 13 -18 23 -22 45 -17 24 4 31 0 50 -32 15 -25 21 -51 20 -79 -1
-31 3 -44 16 -52 10 -5 15 -13 11 -17 -12 -11 -38 16 -64 68 -26 50 -48 68
-87 68 -13 0 -32 9 -42 20 -10 11 -25 20 -34 20 -9 0 -27 9 -40 19 -19 14 -22
24 -17 45 5 22 12 26 44 26 20 0 47 -3 60 -6z m-728 -66 c0 -10 -4 -18 -9 -18
-15 0 -41 42 -41 64 0 18 2 18 25 -4 14 -13 25 -32 25 -42z m-70 -11 l0 -30
-20 26 c-11 14 -20 35 -20 48 0 21 1 22 20 4 11 -10 20 -31 20 -48z m-143 21
c15 -14 23 -33 23 -55 0 -41 -9 -41 -35 0 -11 18 -35 39 -52 48 -18 9 -30 19
-26 23 14 14 68 5 90 -16z m83 -73 c0 -22 -8 -47 -20 -62 l-20 -26 0 33 c0 19
7 42 17 52 15 17 15 19 0 36 -10 10 -17 27 -17 37 0 15 3 13 20 -8 12 -15 20
-40 20 -62z m-121 20 c25 -28 31 -45 31 -80 0 -54 -15 -90 -48 -111 -33 -22
-88 -20 -114 2 -87 80 -47 224 63 224 30 0 43 -7 68 -35z m311 -23 c0 -24 -1
-25 -20 -7 -11 10 -20 29 -20 43 0 24 1 25 20 7 11 -10 20 -29 20 -43z m-60
-19 c0 -13 -4 -23 -9 -23 -16 0 -41 43 -41 69 l0 24 25 -23 c14 -13 25 -34 25
-47z m120 -35 c0 -16 -3 -17 -20 -8 -12 7 -20 21 -20 37 0 25 0 26 20 8 11
-10 20 -27 20 -37z m570 34 c0 -4 -9 -13 -20 -20 -22 -13 -27 -3 -8 16 14 14
28 16 28 4z m112 -9 c16 -18 48 -77 48 -88 0 -16 -56 -2 -76 20 -13 14 -32 25
-44 25 -23 0 -28 28 -8 48 18 18 63 15 80 -5z m-742 -50 c0 -21 -2 -22 -20
-11 -13 8 -20 24 -20 42 0 28 0 29 20 11 11 -10 20 -29 20 -42z m-130 35 c0
-7 0 -379 0 -826 0 -789 0 -814 -19 -850 l-20 -37 -1 843 c0 654 3 847 12 862
14 23 28 26 28 8z m690 -33 c-7 -8 -20 -15 -29 -15 -12 1 -11 5 8 21 26 22 41
18 21 -6z m-1083 -36 c14 -27 18 -143 4 -135 -5 3 -9 22 -8 41 1 43 -24 75
-46 56 -12 -10 -15 -6 -19 24 -2 19 0 42 5 51 8 13 11 14 30 1 12 -8 28 -25
34 -38z m634 41 c21 -12 26 -40 6 -40 -17 0 -37 20 -37 37 0 16 5 16 31 3z
m519 -5 c0 -8 -9 -19 -20 -25 -15 -8 -20 -8 -20 3 0 14 19 37 32 37 4 0 8 -7
8 -15z m-708 -12 c17 -15 18 -51 18 -735 0 -701 0 -720 -20 -758 -11 -22 -23
-40 -25 -40 -3 0 -5 349 -5 775 0 426 3 775 7 775 3 0 15 -7 25 -17z m977 -41
c1 -15 -4 -22 -11 -20 -15 5 -22 43 -13 66 6 15 8 15 15 -3 5 -11 9 -30 9 -43z
m-1160 4 c-9 -8 -10 -7 -5 7 3 10 7 24 7 30 1 7 3 4 6 -7 3 -10 -1 -23 -8 -30z
m309 32 c7 -7 12 -23 12 -37 0 -23 -1 -24 -20 -6 -11 10 -20 26 -20 37 0 21
11 23 28 6z m456 -12 c-6 -16 -34 -29 -43 -20 -6 6 27 34 41 34 4 0 5 -6 2
-14z m-714 -1734 l-19 -37 -1 863 c0 807 1 865 18 886 16 23 17 -14 20 -826 2
-826 2 -850 -18 -886z m384 1732 c9 -3 16 -13 16 -21 0 -20 -34 -12 -38 10 -4
19 -1 20 22 11z m396 -9 c0 -15 -38 -40 -47 -31 -7 7 26 46 39 46 4 0 8 -7 8
-15z m-442 -49 c4 -19 -19 -21 -36 -4 -7 7 -12 21 -12 31 0 18 2 18 23 5 12
-9 23 -23 25 -32z m122 17 c0 -20 -34 -12 -38 9 -2 12 2 15 17 11 12 -3 21
-12 21 -20z m190 12 c0 -8 -9 -15 -20 -15 -20 0 -26 11 -13 23 12 13 33 7 33
-8z m257 0 c1 -5 -8 -23 -22 -40 l-24 -30 -1 36 c0 20 3 39 7 43 9 9 36 3 40
-9z m-697 -655 c-1 -606 -2 -637 -20 -670 -19 -35 -19 -31 -20 648 0 680 0
682 20 670 20 -13 20 -23 20 -648z m380 641 c0 -5 -9 -11 -20 -14 -22 -6 -29
18 -7 26 14 5 27 -1 27 -12z m-62 -3 c-3 -7 -13 -13 -23 -13 -10 0 -20 6 -22
13 -3 7 5 12 22 12 17 0 25 -5 23 -12z m178 -24 c-25 -18 -36 -18 -36 1 0 19
32 37 45 24 7 -7 4 -15 -9 -25z m115 -68 l-21 -20 0 51 c0 39 4 54 18 62 15 8
17 5 20 -31 3 -31 -2 -46 -17 -62z m257 77 c48 -24 73 -61 79 -118 l6 -46 -55
55 c-61 60 -115 82 -180 72 -45 -7 -47 -1 -10 37 24 26 31 28 75 23 27 -3 65
-13 85 -23z m-1268 -38 c22 -5 42 -1 71 14 l40 21 -39 -57 c-22 -32 -47 -73
-56 -90 -9 -18 -23 -33 -31 -33 -17 0 -21 35 -5 45 5 3 18 19 30 35 l21 29
-33 9 c-18 6 -42 13 -52 18 -18 7 -19 4 -13 -44 5 -45 3 -53 -14 -63 -28 -14
-29 -10 -19 36 5 22 10 62 10 88 l0 49 30 -25 c16 -14 43 -28 60 -32z m-140
-7 c-1 -12 2 -46 6 -75 6 -48 4 -53 -22 -78 -16 -15 -40 -37 -54 -51 -34 -32
-40 -30 -40 11 0 19 -5 44 -11 54 -16 24 27 119 73 160 35 32 48 26 48 -21z
m728 24 c3 -19 -1 -23 -15 -20 -10 2 -19 14 -21 26 -3 19 1 23 15 20 10 -2 19
-14 21 -26z m252 -1 c0 -10 -9 -21 -20 -24 -15 -4 -20 0 -20 13 0 17 12 27 33
29 4 1 7 -7 7 -18z m-392 -3 c9 -9 12 -147 12 -562 -1 -524 -2 -553 -20 -586
-19 -35 -19 -32 -20 563 0 328 4 597 8 597 4 0 13 -5 20 -12z m202 -14 c0 -20
-4 -25 -16 -20 -9 3 -18 6 -20 6 -2 0 -4 9 -4 20 0 13 7 20 20 20 15 0 20 -7
20 -26z m304 -116 c-9 -21 -21 -38 -26 -38 -4 0 -8 33 -8 74 0 66 3 77 23 91
22 15 22 15 25 -37 2 -34 -3 -66 -14 -90z m-889 -1768 c-47 -94 -88 -170 -91
-170 -19 0 -107 233 -148 394 -59 225 -72 556 -31 796 50 296 161 595 301 810
l49 75 3 -868 2 -867 -85 -170z m655 1880 c0 -15 -7 -20 -25 -20 -18 0 -25 5
-25 20 0 15 7 20 25 20 18 0 25 -5 25 -20z m58 3 c-5 -26 -38 -29 -38 -4 0 15
6 21 21 21 14 0 19 -5 17 -17z m-260 -25 c9 -9 12 -127 12 -472 l-1 -461 -24
-45 -24 -45 -1 518 c0 534 1 542 38 505z m390 -85 c0 -70 -4 -97 -21 -133
l-22 -45 -3 124 c-2 108 -1 125 15 136 10 7 21 11 24 9 4 -2 7 -43 7 -91z
m322 72 c33 -18 103 -91 75 -80 -34 14 -92 17 -99 6 -10 -16 -36 -13 -36 4 0
26 -39 57 -68 53 -19 -2 -28 2 -30 14 -6 30 103 32 158 3z m-1240 -14 c0 -13
-26 -32 -33 -24 -14 13 -6 33 13 33 11 0 20 -4 20 -9z m598 -393 c2 -383 1
-398 -18 -430 l-20 -33 0 433 c0 407 1 433 18 430 16 -3 17 -31 20 -400z m233
65 l-20 -38 -1 182 c0 165 2 182 18 185 15 3 17 -10 20 -144 2 -131 0 -152
-17 -185z m-171 -13 c0 -277 -2 -336 -15 -360 -9 -17 -18 -30 -20 -30 -3 0 -5
162 -5 360 0 353 0 360 20 360 20 0 20 -7 20 -330z m130 128 c-1 -181 -3 -207
-20 -238 -11 -19 -19 -28 -20 -20 0 29 -1 425 -1 443 1 10 9 17 21 17 19 0 20
-7 20 -202z m-60 -60 c0 -228 -2 -257 -20 -295 -10 -24 -21 -43 -25 -43 -3 0
-5 133 -5 295 l0 295 25 0 25 0 0 -252z m310 220 c0 -18 -9 -51 -19 -73 l-19
-40 -1 53 c-1 49 14 92 31 92 5 0 8 -15 8 -32z m105 1 c11 -17 2 -18 -19 -3
-17 12 -17 14 -4 14 9 0 20 -5 23 -11z m-1181 -35 c7 -19 8 -17 -22 -33 -18
-10 -23 -9 -28 4 -4 9 1 22 12 30 25 19 31 18 38 -1z m1330 6 c14 -5 30 -18
36 -29 8 -16 8 -19 -2 -16 -20 7 -42 -11 -35 -29 7 -17 36 -12 49 8 4 6 8 -6
8 -26 0 -54 -40 -98 -89 -98 -42 0 -77 26 -87 65 -10 41 5 92 33 115 28 22 49
25 87 10z m-1554 -61 c0 -22 -5 -29 -20 -29 -23 0 -23 -2 -9 38 13 38 29 33
29 -9z m156 2 c-12 -19 -24 -12 -19 10 4 13 9 17 15 11 6 -6 7 -15 4 -21z
m1062 -127 l-23 -49 -3 52 c-2 39 3 65 20 100 l23 48 3 -51 c2 -36 -3 -64 -20
-100z m-978 131 c0 -15 -24 -53 -31 -49 -13 8 -11 42 4 47 16 7 27 8 27 2z
m-136 -32 c-9 -39 -13 -43 -29 -36 -20 7 -19 15 5 41 27 29 32 28 24 -5z
m1244 1 c14 -15 14 -16 -3 -13 -10 2 -20 10 -23 17 -5 17 6 15 26 -4z m-1164
-10 c10 -25 7 -30 -18 -42 -21 -9 -25 -8 -30 11 -4 14 0 26 11 35 22 16 30 15
37 -4z m-131 -41 c15 -7 27 -15 27 -16 0 -2 -23 -70 -51 -153 -98 -290 -139
-498 -139 -710 l0 -104 -71 0 c-62 0 -70 2 -67 18 2 13 15 18 55 20 l52 3 5
67 c15 180 28 290 41 354 8 38 13 74 9 79 -3 5 -28 9 -55 9 -43 0 -50 3 -47
18 3 14 14 17 57 17 l54 0 58 165 c32 91 58 172 58 181 1 12 -11 19 -36 23
-70 13 -74 15 -62 37 8 16 16 19 47 13 20 -4 49 -13 65 -21z m1311 15 c16 3
18 2 10 -7 -12 -13 -64 -5 -64 11 0 5 6 5 16 0 9 -5 26 -7 38 -4z m155 -92
c25 1 50 9 61 19 11 10 20 15 20 12 0 -3 -45 -142 -99 -309 -55 -167 -125
-383 -157 -480 -53 -162 -74 -208 -74 -160 0 31 -40 83 -76 98 -26 11 -44 12
-70 5 -30 -8 -35 -8 -30 5 3 9 6 19 6 23 0 5 14 8 31 9 20 0 37 9 46 22 10 14
23 20 41 18 24 -3 27 -8 30 -49 2 -30 10 -53 22 -64 18 -16 19 -15 24 27 19
147 46 391 43 394 -2 2 -52 -73 -112 -166 -59 -94 -109 -169 -111 -167 -3 2
63 190 218 620 34 92 62 166 63 165 3 -3 -20 -237 -30 -308 -9 -59 -4 -54 106
116 78 121 87 139 69 142 -12 2 -29 -7 -42 -23 -22 -25 -24 -25 -46 -9 -18 12
-23 24 -20 51 2 25 -3 39 -16 48 -10 8 -15 18 -12 24 4 6 21 -6 40 -27 29 -31
40 -37 75 -36z m-1339 23 c-13 -32 -14 -32 -22 -8 -7 18 -5 27 8 36 25 18 29
9 14 -28z m996 -46 c-2 -46 -9 -81 -24 -108 l-21 -40 -1 72 c0 68 21 143 41
143 4 0 7 -30 5 -67z m80 12 c-7 -29 -15 -43 -18 -35 -5 14 20 95 28 88 2 -2
-3 -26 -10 -53z m-1308 18 c2 -12 -4 -23 -14 -27 -23 -9 -28 -2 -20 29 8 30
29 29 34 -2z m43 12 c1 -17 -18 -17 -25 0 -4 11 -1 15 10 13 8 -2 15 -7 15
-13z m1337 -4 c-26 -54 -70 -132 -73 -129 -4 3 18 98 30 135 2 6 13 9 25 6 11
-3 19 -8 18 -12z m-1188 -16 c0 -14 -8 -29 -19 -35 -16 -8 -21 -6 -26 10 -7
23 10 50 31 50 8 0 14 -10 14 -25z m-137 -20 c-3 -9 -8 -14 -10 -11 -3 3 -2 9
2 15 9 16 15 13 8 -4z m1323 -41 c-11 -30 -15 -33 -15 -16 -1 24 17 67 25 59
2 -2 -2 -21 -10 -43z m-1348 12 c7 -17 7 -29 -1 -46 -18 -36 -32 -34 -55 4
l-21 36 27 14 c36 20 37 20 50 -8z m93 -19 c-8 -8 -11 -7 -11 4 0 20 13 34 18
19 3 -7 -1 -17 -7 -23z m68 -15 c-6 -18 -15 -29 -20 -26 -15 9 -10 42 8 53 24
13 25 10 12 -27z m1333 -12 c11 0 18 -3 16 -7 -9 -20 -90 -143 -95 -143 -5 0
2 86 13 163 l6 37 20 -25 c11 -14 28 -25 40 -25z m-381 -181 l-20 -44 0 87
c-1 64 4 97 17 124 l17 37 3 -80 c2 -62 -2 -89 -17 -124z m-1182 169 c12 -19
11 -23 -5 -35 -33 -24 -41 -14 -28 35 8 28 16 28 33 0z m185 -36 c-17 -26 -31
-25 -39 5 -5 20 -2 31 12 40 15 12 19 11 27 -7 6 -14 6 -27 0 -38z m-55 -43
c-18 -11 -22 -5 -14 22 7 20 8 21 17 4 8 -12 7 -20 -3 -26z m-91 9 c2 -8 -6
-26 -17 -39 -19 -23 -19 -24 -40 -5 -27 25 -27 32 7 50 31 17 46 16 50 -6z
m155 -16 c-3 -12 -9 -22 -14 -22 -14 0 -11 38 4 43 16 6 17 5 10 -21z m931
-218 c-9 -24 -19 -44 -23 -44 -3 0 -5 41 -5 90 1 65 7 103 20 133 l19 42 3
-89 c2 -64 -2 -100 -14 -132z m-1154 164 c0 -9 -40 -31 -46 -25 -2 2 1 18 7
36 10 29 12 30 25 14 7 -10 14 -21 14 -25z m186 16 c5 -18 1 -29 -12 -39 -17
-12 -20 -11 -33 12 -12 24 -11 28 5 40 26 19 33 16 40 -13z m1107 -36 c-2 -5
-11 -1 -19 7 -9 8 -12 20 -9 26 5 6 12 4 20 -8 7 -10 11 -21 8 -25z m53 -8
c13 0 24 -4 24 -10 0 -5 -11 -10 -25 -10 -14 0 -25 2 -25 4 0 2 -2 10 -3 18
-2 7 -2 10 0 6 3 -5 16 -8 29 -8z m-1316 -11 c0 -5 -12 -9 -27 -9 -27 1 -27 1
-9 15 19 14 36 12 36 -6z m97 -13 c-4 -9 -11 -16 -18 -16 -6 0 -8 7 -5 16 3 9
6 21 6 27 0 8 3 8 11 0 7 -7 9 -19 6 -27z m58 -34 c-6 -16 -7 -16 -16 1 -8 13
-7 23 3 34 12 15 13 15 16 -1 2 -9 1 -25 -3 -34z m1105 32 c0 -2 -11 -4 -25
-4 -14 0 -25 4 -25 9 0 4 11 6 25 3 14 -2 25 -6 25 -8z m33 -18 c4 -10 1 -13
-9 -9 -7 3 -14 9 -14 14 0 14 17 10 23 -5z m-1170 -25 c3 -12 -3 -27 -15 -38
-16 -15 -21 -15 -28 -3 -14 22 -12 38 8 49 24 15 29 14 35 -8z m933 -222 l-24
-54 -1 108 c-1 94 2 113 22 150 l22 42 3 -96 c2 -85 0 -103 -22 -150z m-1072
183 c2 -4 -3 -43 -11 -87 -28 -146 -23 -135 -37 -95 -8 24 -9 44 -2 61 13 37
2 59 -31 60 l-28 1 29 7 c33 7 37 28 6 23 -15 -2 -20 3 -20 17 0 18 6 21 44
21 25 0 47 -3 50 -8z m77 -45 c-15 -15 -24 -2 -16 24 7 20 8 21 17 5 7 -12 7
-21 -1 -29z m72 -5 c-6 -48 -15 -53 -31 -18 -8 19 -7 27 11 44 11 12 22 20 23
19 2 -1 0 -21 -3 -45z m1055 -4 c-8 -13 -34 -56 -58 -96 -23 -40 -44 -71 -47
-69 -6 6 35 97 44 97 4 0 21 20 36 45 16 25 31 45 34 45 3 0 -1 -10 -9 -22z
m7 -104 c-34 -145 -32 -142 -51 -116 -8 12 -22 22 -30 22 -8 0 -14 3 -14 7 0
9 114 202 118 198 1 -1 -9 -51 -23 -111z m-1105 70 c7 -19 7 -31 -1 -40 -17
-20 -28 -17 -41 12 -11 22 -10 28 7 40 24 18 24 18 35 -12z m901 -247 l-19
-42 -1 117 c-1 92 3 125 17 154 l17 37 3 -112 c2 -93 -1 -118 -17 -154z
m-1071 239 c0 -8 -5 -18 -10 -21 -13 -8 -42 14 -34 26 9 15 44 10 44 -5z
m1302 -123 c-25 -73 -48 -131 -49 -129 -2 1 9 53 23 114 17 71 32 112 40 112
7 0 16 9 19 21 4 11 8 19 10 17 2 -2 -17 -63 -43 -135z m163 -54 c-17 -155
-23 -185 -24 -127 -1 48 -25 71 -67 66 -30 -4 -32 -2 -21 17 26 47 122 193
125 190 2 -1 -4 -67 -13 -146z m-1475 101 c22 -44 25 -75 9 -117 -11 -30 -47
-73 -61 -73 -15 0 -8 37 11 54 32 29 37 73 11 107 -13 19 -19 37 -15 49 10 30
22 24 45 -20z m133 26 c3 -8 -1 -20 -9 -26 -12 -10 -14 -8 -14 14 0 28 14 35
23 12z m68 -31 c-7 -39 -7 -39 -20 -17 -11 20 -10 27 5 43 22 24 23 22 15 -26z
m-35 -30 c16 -24 16 -27 -1 -45 -24 -26 -33 -25 -47 5 -9 21 -8 28 7 45 23 25
21 25 41 -5z m855 -271 l-20 -49 0 132 c-1 106 2 140 17 169 l17 37 3 -120 c2
-101 -1 -128 -17 -169z m-1051 237 c0 -19 -29 -63 -30 -45 0 6 3 25 6 43 7 32
24 34 24 2z m145 -61 c-3 -6 -10 -10 -16 -10 -10 0 -12 33 -2 44 9 9 26 -22
18 -34z m70 -8 c-6 -26 -7 -26 -21 -8 -12 17 -12 22 3 39 20 22 28 9 18 -31z
m1045 -6 c0 -34 -17 -53 -32 -38 -6 6 -28 12 -47 13 -20 0 -29 3 -21 6 8 3 28
19 43 35 23 24 30 28 42 18 8 -7 15 -22 15 -34z m-1204 -133 c-8 -19 -96 -18
-96 1 0 9 11 13 33 12 31 -1 32 0 38 49 10 88 24 98 27 21 2 -38 1 -75 -2 -83z
m134 96 c0 -3 -7 -12 -16 -19 -12 -11 -18 -10 -31 3 -15 15 -15 18 2 37 18 20
20 20 32 4 7 -10 13 -21 13 -25z m798 -275 l-23 -49 -3 137 c-2 127 -1 141 20
180 l23 43 3 -131 c2 -118 0 -135 -20 -180z m-780 204 l-3 -23 -13 22 c-10 18
-10 27 0 43 l13 21 3 -21 c2 -11 2 -30 0 -42z m1021 36 c12 -15 21 -34 21 -43
0 -13 -2 -13 -9 -3 -7 11 -12 12 -29 1 -25 -16 -17 -39 14 -39 26 0 27 -1 18
-24 -6 -15 -8 -15 -20 1 -10 14 -15 15 -25 6 -16 -16 -3 -47 16 -39 27 10 16
-21 -16 -48 -45 -38 -80 -31 -107 21 -14 26 -17 56 -3 34 7 -10 13 -11 29 -2
26 14 19 41 -9 34 -13 -4 -19 0 -19 12 0 14 3 15 14 6 10 -9 17 -7 27 5 11 14
10 18 -6 30 -10 8 -15 17 -11 21 4 5 13 0 20 -10 14 -18 36 -23 36 -8 0 5 9 7
20 4 15 -4 20 0 20 15 0 27 -17 37 -35 22 -12 -10 -15 -10 -15 0 0 7 -7 10
-17 6 -15 -5 -15 -4 1 9 30 22 62 18 85 -11z m-1215 -1 c11 -26 -11 -40 -32
-20 -15 16 -15 19 -2 27 21 14 27 12 34 -7z m125 -34 c-14 -27 -19 -24 -19 12
0 27 2 30 15 19 11 -9 12 -17 4 -31z m1141 26 c0 -8 -4 -15 -10 -15 -5 0 -10
7 -10 15 0 8 5 15 10 15 6 0 10 -7 10 -15z m-1093 -53 c9 -15 7 -23 -8 -43
-17 -23 -19 -23 -35 -7 -16 15 -16 21 -4 43 16 30 31 32 47 7z m734 -333 l-20
-44 0 152 c-1 125 2 159 17 189 l17 37 3 -145 c2 -126 0 -151 -17 -189z m502
311 c65 -52 54 -175 -19 -208 -43 -20 -74 -14 -110 22 -28 28 -34 42 -34 75 0
50 21 105 47 120 30 17 88 13 116 -9z m-1213 -52 c0 -30 -1 -31 -17 -16 -13
14 -14 20 -3 32 18 22 20 20 20 -16z m-78 -20 c-9 -9 -12 -7 -12 12 0 19 3 21
12 12 9 -9 9 -15 0 -24z m-92 -8 c0 -5 -2 -10 -4 -10 -3 0 -8 5 -11 10 -3 6
-1 10 4 10 6 0 11 -4 11 -10z m60 -14 c0 -30 -16 -42 -35 -26 -11 9 -12 17 -4
31 14 27 39 24 39 -5z m-91 0 c10 -12 9 -20 -4 -40 -24 -37 -35 -32 -35 14 0
42 17 53 39 26z m180 0 c9 -10 7 -19 -7 -35 l-17 -23 -19 21 c-15 17 -16 23
-6 36 15 19 34 19 49 1z m890 -10 c7 -13 24 -30 37 -37 27 -14 29 -21 14 -50
-24 -44 -77 -8 -59 39 7 18 5 31 -6 48 -8 13 -12 24 -7 24 5 0 14 -11 21 -24z
m-218 -347 l-20 -44 0 163 c-1 137 2 170 17 200 l17 37 3 -156 c2 -137 0 -161
-17 -200z m-803 309 c7 -9 5 -20 -9 -37 -17 -21 -22 -23 -34 -10 -13 13 -13
17 1 37 17 25 27 27 42 10z m162 -24 c0 -31 -2 -35 -15 -24 -18 15 -19 32 -3
48 17 17 18 16 18 -24z m980 16 c0 -5 -10 -10 -22 -10 -19 0 -20 2 -8 10 19
13 30 13 30 0z m-1050 -25 c0 -8 -4 -17 -10 -20 -6 -4 -10 5 -10 20 0 15 4 24
10 20 6 -3 10 -12 10 -20z m840 -178 c-22 -103 -40 -188 -40 -191 0 -2 -9 -6
-20 -9 -13 -3 -20 0 -20 9 0 8 -9 18 -19 22 -18 6 -13 21 57 189 43 100 78
178 80 174 1 -4 -15 -92 -38 -194z m265 183 c3 -10 20 -31 36 -45 35 -29 85
-33 129 -10 17 9 30 13 30 10 0 -10 -372 -1139 -385 -1169 l-13 -31 -1 34 c-2
69 -67 141 -128 141 -10 0 -35 -9 -56 -20 -20 -11 -37 -18 -37 -15 0 2 69 197
154 432 85 235 171 476 192 535 21 59 39 106 41 104 2 -2 -5 -90 -16 -196 -28
-254 -28 -247 18 -175 142 219 191 295 191 300 0 3 -14 5 -31 5 -24 0 -32 -6
-40 -30 -21 -58 -85 -30 -81 34 2 20 -5 43 -18 59 -11 14 -17 32 -14 41 8 22
21 20 29 -4z m-1147 -34 c5 -38 -10 -51 -37 -34 -25 16 -26 26 -4 50 22 24 37
18 41 -16z m965 -293 c-258 -723 -256 -718 -263 -692 -21 76 -64 119 -131 129
l-38 5 106 248 c85 199 108 245 119 236 8 -6 20 -9 27 -6 7 3 19 -3 25 -14 17
-26 42 -13 42 22 0 19 33 83 96 186 115 190 124 203 128 203 2 0 -48 -143
-111 -317z m-878 287 c18 -20 18 -21 -3 -43 -21 -20 -23 -20 -39 -4 -15 14
-15 20 -3 42 16 30 22 31 45 5z m-188 -6 c3 -8 -2 -23 -11 -32 -15 -15 -16
-14 -16 16 0 33 16 43 27 16z m1099 -17 c8 3 14 3 14 0 0 -10 -122 -208 -126
-205 -2 2 3 31 10 63 8 33 19 86 26 118 l11 57 25 -19 c14 -11 32 -17 40 -14z
m-308 -365 l-23 -47 -3 166 c-2 155 -1 170 20 215 l23 49 3 -168 c2 -157 1
-171 -20 -215z m-737 342 c18 -16 18 -18 2 -45 -20 -34 -21 -34 -51 -9 -23 19
-23 20 -5 44 21 30 30 31 54 10z m173 -73 c-3 -3 -14 5 -25 18 -19 23 -19 25
-2 43 17 19 18 19 26 -18 4 -20 5 -40 1 -43z m-82 17 c-9 -9 -12 -7 -12 12 0
19 3 21 12 12 9 -9 9 -15 0 -24z m-34 -12 c5 -37 -10 -51 -37 -37 -20 11 -20
13 -5 42 18 36 38 33 42 -5z m1186 -36 c8 0 27 15 41 33 15 17 24 25 19 17
-16 -32 -146 -230 -152 -230 -5 0 4 138 14 201 l6 35 28 -28 c16 -15 35 -28
44 -28z m-1103 32 c12 -12 17 -25 13 -35 -8 -21 -22 -21 -45 -1 -15 13 -16 20
-6 35 14 23 13 23 38 1z m-184 -43 c-12 -19 -12 -19 -19 3 -12 45 -10 52 11
34 17 -15 18 -21 8 -37z m236 -21 c6 -40 5 -41 -17 -25 -13 10 -16 20 -12 35
10 32 23 27 29 -10z m498 -150 c0 -145 -3 -180 -18 -213 l-18 -40 -3 185 c-2
160 0 189 15 217 9 18 19 31 21 29 2 -2 3 -82 3 -178z m-682 163 c11 -7 9 -10
-8 -16 -25 -8 -36 -2 -26 14 8 13 15 14 34 2z m107 -47 c-8 -21 -11 -17 -20
21 -7 28 -6 29 10 13 10 -10 14 -23 10 -34z m-36 1 c0 -8 -12 -17 -27 -20 -16
-3 -41 -10 -58 -15 -18 -6 -33 -6 -38 -1 -17 17 1 40 35 44 72 9 88 7 88 -8z
m100 -34 c0 -29 -25 -45 -49 -31 -20 10 -20 12 -6 41 13 25 19 28 35 19 11 -6
20 -19 20 -29z m-90 -31 c0 -17 -3 -19 -19 -10 -32 16 -34 30 -7 30 19 0 26
-5 26 -20z m130 -22 c0 -20 -8 -22 -29 -9 -10 7 -11 13 -1 31 10 18 14 20 21
9 5 -8 9 -22 9 -31z m-228 7 c-2 -14 -8 -25 -12 -25 -13 0 -19 39 -6 44 21 8
23 6 18 -19z m619 -396 l-20 -44 0 203 c-1 175 1 207 17 235 17 32 17 29 20
-159 2 -171 0 -196 -17 -235z m-511 320 c0 -24 -21 -81 -36 -98 -9 -10 -57 35
-70 65 -13 31 -13 38 6 80 l21 45 39 -31 c31 -24 40 -39 40 -61z m34 62 c4 -5
3 -17 0 -26 -5 -13 -8 -14 -15 -3 -5 7 -9 19 -9 26 0 14 16 16 24 3z m63 -29
c8 -5 7 -16 -6 -40 -16 -30 -18 -31 -39 -17 -21 15 -21 17 -6 40 17 26 30 30
51 17z m67 -99 c44 -124 44 -114 0 -108 -51 8 -102 -20 -127 -69 -11 -20 -21
-36 -22 -34 -2 2 4 26 12 54 15 47 20 52 66 70 27 10 52 25 55 32 2 7 -8 26
-23 42 -26 27 -27 31 -15 60 7 16 16 30 20 30 4 0 19 -35 34 -77z m288 -394
l-19 -44 -61 94 -60 94 76 151 77 151 3 -201 c2 -178 0 -206 -16 -245z m-397
409 c3 -7 1 -33 -4 -58 -6 -30 -9 -36 -10 -19 -1 15 -4 41 -7 58 -6 31 11 46
21 19z m-54 -51 c-8 -8 -11 -7 -11 4 0 20 13 34 18 19 3 -7 -1 -17 -7 -23z
m119 -4 c0 -11 -30 -33 -44 -33 -8 0 -8 34 0 54 5 12 9 13 25 3 10 -6 19 -17
19 -24z m-180 -18 c0 -8 -4 -17 -10 -20 -5 -3 -10 -2 -10 4 0 5 -3 17 -6 25
-5 12 -2 15 10 10 9 -3 16 -12 16 -19z m50 -20 c0 -19 -20 -29 -32 -17 -8 8
-7 16 2 26 14 17 30 12 30 -9z m15 -81 c-9 -25 -25 -46 -36 -49 -21 -7 -49 10
-49 29 0 14 38 49 63 59 9 3 20 19 24 34 l8 28 3 -29 c2 -16 -4 -48 -13 -72z
m181 21 c26 -11 40 -26 55 -61 27 -60 19 -106 -26 -151 -59 -59 -135 -38 -169
47 -25 63 2 141 57 165 40 18 41 18 83 0z m-173 -133 c8 -26 55 -133 105 -238
106 -221 126 -283 120 -367 -4 -50 -9 -64 -32 -84 -33 -28 -38 -29 -71 0 -52
44 -30 117 36 117 20 0 28 6 33 25 10 38 -9 96 -76 228 -65 132 -148 327 -148
351 0 33 20 14 33 -32z m331 -112 c35 -58 52 -96 45 -99 -27 -9 -49 -43 -49
-75 0 -26 -5 -36 -20 -41 -17 -5 -40 -56 -40 -89 0 -9 -30 -35 -41 -36 -4 0
-10 12 -14 28 -3 15 -35 85 -71 155 -35 71 -64 132 -64 135 0 4 23 5 50 4 46
-4 53 -1 85 31 19 19 38 49 41 67 8 38 8 38 78 -80z m217 -65 c56 -29 86 -119
62 -182 -6 -15 -8 -13 -13 12 -4 21 -12 31 -28 33 -13 2 -22 10 -21 20 0 11 3
12 6 5 5 -15 53 -18 53 -4 0 29 -12 40 -34 30 -27 -13 -87 13 -63 28 20 12 28
51 11 57 -7 3 -19 0 -26 -7 -14 -13 -48 -19 -48 -8 0 15 25 31 47 31 13 0 37
-7 54 -15z m-151 -59 c0 -2 -10 -26 -22 -53 l-22 -48 -4 32 c-4 37 12 73 33
73 8 0 15 -2 15 -4z m4 -70 c-11 -25 -22 -46 -26 -46 -4 0 3 22 15 49 27 61
36 58 11 -3z m32 -11 c-33 -79 -49 -86 -20 -8 9 24 21 43 25 43 5 0 3 -16 -5
-35z m64 -86 l0 -49 55 0 c67 0 70 -12 25 -84 -72 -113 -177 -189 -254 -184
l-43 3 74 170 c41 94 81 186 89 205 l15 35 20 -24 c13 -16 19 -39 19 -72z
m-164 47 c8 -20 -23 -89 -37 -81 -10 7 -5 67 7 87 8 13 24 9 30 -6z m460 -2
c41 -20 64 -59 64 -110 0 -35 -1 -37 -14 -18 -13 16 -18 17 -35 7 -18 -11 -22
-10 -32 8 -8 16 -17 19 -35 15 -24 -6 -33 7 -14 19 6 3 10 17 10 31 0 19 -5
25 -17 22 -10 -2 -17 -11 -17 -21 1 -10 -5 -17 -17 -17 -10 0 -21 -5 -25 -11
-4 -8 -9 -8 -17 0 -13 13 13 44 58 72 37 23 48 23 91 3z m-447 -78 c-11 -26
-23 -45 -27 -42 -3 3 5 29 18 57 30 64 38 50 9 -15z m201 29 l23 -25 -26 0
c-22 0 -27 5 -27 25 0 14 1 25 3 25 2 0 14 -11 27 -25z m-177 -55 c-15 -35
-29 -58 -30 -53 -5 13 45 128 52 121 3 -3 -7 -34 -22 -68z m-86 -6 c3 -9 -3
-32 -13 -52 l-19 -37 -3 39 c-2 21 -1 44 2 52 7 19 25 18 33 -2z m20 -66 c-8
-18 -24 -58 -37 -88 -25 -60 -47 -91 -35 -50 16 53 68 170 77 170 4 0 2 -15
-5 -32z m-7 -94 c-22 -49 -40 -84 -40 -77 0 6 9 33 21 60 11 26 27 63 35 82 8
19 17 32 19 29 3 -3 -13 -45 -35 -94z"/>
<path d="M747 3742 c-10 -10 -17 -27 -17 -36 0 -12 -5 -16 -14 -13 -18 7 -40
-18 -31 -33 4 -6 14 -10 23 -8 11 2 35 -24 72 -79 52 -78 57 -83 91 -83 39 0
49 11 49 57 0 41 -86 180 -122 198 -38 18 -32 19 -51 -3z m46 -21 c15 -6 40
-37 66 -82 48 -83 51 -120 11 -125 -22 -2 -33 9 -73 70 -44 67 -59 120 -40
139 8 9 7 9 36 -2z"/>
<path d="M934 3546 c-7 -19 3 -36 22 -36 10 0 14 8 12 22 -4 26 -26 36 -34 14z"/>
<path d="M913 3449 c2 -37 9 -47 70 -103 59 -53 73 -62 99 -58 25 4 29 8 24
26 -3 11 -6 28 -6 37 0 8 -25 43 -56 77 -50 55 -60 62 -94 62 l-38 0 1 -41z
m116 -33 c34 -37 51 -63 51 -80 0 -40 -25 -32 -91 30 -42 41 -58 63 -57 80 4
41 40 29 97 -30z"/>
<path d="M857 3466 c-8 -20 20 -43 35 -28 14 14 3 42 -16 42 -7 0 -16 -6 -19
-14z"/>
<path d="M1433 3444 c-8 -21 13 -42 28 -27 13 13 5 43 -11 43 -6 0 -13 -7 -17
-16z"/>
<path d="M1664 3415 c-7 -18 3 -35 21 -35 15 0 24 19 18 38 -6 17 -32 15 -39
-3z"/>
<path d="M1370 3387 c-14 -12 -34 -44 -44 -71 l-18 -48 25 -26 26 -26 50 23
c45 22 50 27 56 67 8 53 0 80 -23 87 -9 3 -24 7 -32 11 -8 3 -26 -5 -40 -17z
m61 -17 c13 -7 19 -21 19 -43 0 -40 -6 -48 -52 -69 -35 -16 -37 -16 -54 3 -13
15 -15 22 -6 31 7 7 12 20 12 30 0 17 36 58 53 58 4 0 17 -5 28 -10z"/>
<path d="M1277 3336 c-3 -8 1 -20 9 -27 13 -10 17 -10 25 2 5 8 7 19 6 24 -6
16 -34 17 -40 1z"/>
<path d="M1140 3310 c-19 -15 -21 -21 -13 -46 17 -54 121 -85 156 -46 40 44 2
96 -74 104 -34 4 -52 1 -69 -12z m121 -28 c24 -20 21 -48 -7 -59 -44 -17 -139
45 -103 68 24 15 86 10 110 -9z"/>
<path d="M1487 3324 c-16 -16 -7 -44 14 -44 15 0 20 5 17 22 -3 22 -19 33 -31
22z"/>
<path d="M1072 3258 c2 -13 10 -23 18 -23 8 0 16 10 18 23 3 17 -2 22 -18 22
-16 0 -21 -5 -18 -22z"/>
<path d="M503 3306 c-24 -21 -28 -32 -28 -76 0 -44 4 -55 28 -76 63 -54 137
-12 137 77 0 41 -4 51 -31 73 -38 32 -70 33 -106 2z m57 -3 c-8 -3 -23 -15
-32 -27 -9 -11 -20 -17 -25 -12 -10 10 34 46 56 45 13 0 13 -1 1 -6z m61 -50
c5 -13 5 -32 -1 -45 -8 -20 -9 -19 -9 12 -1 20 -9 47 -18 60 -16 24 -16 24 1
10 10 -8 22 -24 27 -37z m-41 12 c10 -13 9 -15 -12 -15 -13 0 -30 -6 -38 -12
-7 -7 -5 -1 6 14 22 32 27 33 44 13z m1 -50 c-1 -15 -24 -12 -29 3 -3 9 2 13
12 10 10 -1 17 -7 17 -13z m-64 -16 c3 -12 20 -27 37 -35 l31 -13 -27 -1 c-25
0 -68 39 -68 61 0 18 22 8 27 -12z"/>
<path d="M310 3005 c-15 -19 -6 -61 16 -69 20 -8 54 20 54 44 0 36 -46 53 -70
25z m45 -26 c0 -7 -8 -15 -17 -17 -18 -3 -25 18 -11 32 10 10 28 1 28 -15z"/>
<path d="M1751 2936 c-9 -11 -9 -19 1 -35 16 -26 37 -10 30 24 -5 28 -14 31
-31 11z"/>
<path d="M1792 2923 c4 -21 33 -25 33 -3 0 8 -8 16 -18 18 -14 3 -18 -1 -15
-15z"/>
<path d="M1720 2880 c0 -11 7 -20 15 -20 8 0 15 9 15 20 0 11 -7 20 -15 20 -8
0 -15 -9 -15 -20z"/>
<path d="M1773 2864 c-8 -21 13 -42 28 -27 13 13 5 43 -11 43 -6 0 -13 -7 -17
-16z"/>
<path d="M1818 2837 c-20 -17 -26 -28 -22 -45 7 -24 12 -26 33 -13 12 8 13 12
1 25 -11 14 -10 16 4 10 10 -4 18 0 22 11 11 28 -10 35 -38 12z"/>
<path d="M1710 2838 c0 -7 4 -19 9 -27 8 -12 12 -12 25 -2 24 20 19 41 -9 41
-14 0 -25 -6 -25 -12z"/>
<path d="M1754 2807 c-6 -17 2 -37 16 -37 15 0 19 29 5 40 -12 10 -16 9 -21
-3z"/>
<path d="M1727 2733 c-15 -15 -6 -43 13 -43 11 0 20 6 20 14 0 17 -24 38 -33
29z"/>
<path d="M1598 2540 l-35 -100 24 -22 c12 -12 25 -20 27 -17 5 6 27 231 23
236 -2 2 -20 -41 -39 -97z m3 -81 c-9 -22 -10 -22 -10 -3 -1 11 2 24 6 27 12
12 14 0 4 -24z"/>
<path d="M1711 2486 c-50 -82 -60 -106 -42 -106 5 0 16 -3 25 -6 11 -4 21 16
45 92 17 54 29 99 27 101 -2 2 -26 -34 -55 -81z m-7 -70 c-3 -9 -10 -16 -15
-16 -5 0 -4 9 3 20 14 22 21 20 12 -4z"/>
<path d="M1543 2394 c-8 -21 13 -42 28 -27 13 13 5 43 -11 43 -6 0 -13 -7 -17
-16z"/>
<path d="M1602 2363 c5 -26 38 -29 38 -4 0 15 -6 21 -21 21 -14 0 -19 -5 -17
-17z"/>
<path d="M1662 2338 c2 -12 10 -23 18 -23 22 0 19 39 -3 43 -15 3 -18 -1 -15
-20z"/>
<path d="M1490 2245 c-18 -53 -30 -98 -28 -101 5 -4 128 181 128 192 0 2 -15
4 -33 4 -34 0 -34 0 -67 -95z m46 38 c-8 -15 -15 -22 -16 -15 0 17 20 55 27
49 2 -3 -2 -18 -11 -34z"/>
<path d="M1611 2189 c-7 -67 -10 -123 -8 -126 3 -2 21 47 41 109 33 104 34
114 19 126 -35 25 -40 14 -52 -109z m36 59 c-3 -7 -5 -2 -5 12 0 14 2 19 5 13
2 -7 2 -19 0 -25z"/>
<path d="M1465 1960 c-8 -13 14 -42 26 -34 5 3 9 14 9 25 0 20 -24 26 -35 9z"/>
<path d="M1273 2044 c-8 -21 13 -42 28 -27 13 13 5 43 -11 43 -6 0 -13 -7 -17
-16z"/>
<path d="M1212 1887 c-14 -17 2 -42 22 -34 20 8 20 21 2 36 -10 8 -16 8 -24
-2z"/>
<path d="M1187 1823 c-4 -3 -7 -15 -7 -26 0 -14 5 -18 20 -14 10 3 21 0 23 -6
2 -6 11 -8 21 -4 13 5 16 13 10 29 -9 31 -11 33 -29 18 -10 -8 -15 -9 -15 -1
0 12 -13 15 -23 4z"/>
<path d="M1375 1870 c-8 -13 14 -52 26 -45 15 10 11 55 -5 55 -8 0 -18 -4 -21
-10z"/>
<path d="M1423 1864 c-7 -18 11 -39 26 -30 17 11 13 46 -4 46 -9 0 -18 -7 -22
-16z"/>
<path d="M1347 1834 c-4 -4 -7 -16 -7 -26 0 -20 25 -25 36 -7 8 13 -19 43 -29
33z"/>
<path d="M1467 1829 c-26 -15 -21 -39 8 -39 18 0 25 5 25 19 0 25 -11 32 -33
20z"/>
<path d="M1406 1803 c-3 -4 -6 -15 -6 -25 0 -24 33 -21 38 3 3 17 -21 33 -32
22z"/>
<path d="M1354 1771 c-18 -5 -20 -10 -12 -30 l9 -25 21 22 c25 25 15 42 -18
33z"/>
<path d="M1463 1764 c-7 -18 11 -39 26 -30 17 11 13 46 -4 46 -9 0 -18 -7 -22
-16z"/>
<path d="M1428 1735 c-10 -10 4 -55 18 -55 20 0 26 17 12 40 -13 20 -21 24
-30 15z"/>
<path d="M1374 1715 c-7 -18 3 -35 22 -35 8 0 14 10 14 25 0 27 -27 35 -36 10z"/>
<path d="M1140 1710 c0 -13 7 -20 20 -20 13 0 20 7 20 20 0 13 -7 20 -20 20
-13 0 -20 -7 -20 -20z"/>
<path d="M997 1493 c-47 -107 -47 -108 -27 -127 12 -13 23 -17 28 -11 10 11
56 235 50 241 -3 2 -25 -45 -51 -103z m-3 -87 c-3 -15 -8 -25 -11 -23 -2 3 -1
17 3 31 3 15 8 25 11 23 2 -3 1 -17 -3 -31z"/>
<path d="M1340 1601 c0 -11 4 -22 9 -25 12 -8 34 21 26 34 -11 17 -35 11 -35
-9z"/>
<path d="M1187 1399 c-21 -57 -37 -109 -37 -115 0 -14 48 -59 55 -52 7 7 28
245 23 260 -2 6 -21 -35 -41 -93z m8 -117 c-4 -11 -9 -12 -16 -5 -8 8 -7 22 2
50 l14 38 3 -33 c2 -19 1 -41 -3 -50z"/>
<path d="M1323 1324 c-35 -51 -63 -98 -63 -103 0 -8 60 -25 65 -19 8 10 66
200 63 207 -2 5 -31 -33 -65 -85z m5 -57 c-6 -20 -17 -37 -25 -37 -7 0 -13 2
-13 5 0 7 44 74 47 71 1 -1 -3 -19 -9 -39z"/>
<path d="M1125 1230 c-8 -26 7 -45 30 -36 21 8 16 50 -7 54 -10 2 -19 -5 -23
-18z"/>
<path d="M1200 1205 c-16 -19 -5 -47 17 -43 22 4 29 43 9 51 -8 3 -20 -1 -26
-8z"/>
<path d="M1273 1183 c-7 -3 -13 -16 -13 -29 0 -17 5 -24 20 -24 11 0 23 7 27
16 7 18 -16 44 -34 37z"/>
<path d="M1110 1177 c0 -1 -16 -47 -36 -102 -44 -120 -64 -185 -59 -185 6 0
155 250 155 260 0 4 -13 13 -30 19 -16 5 -30 9 -30 8z m30 -38 c0 -15 -41 -81
-47 -76 -6 7 28 87 38 87 5 0 9 -5 9 -11z"/>
<path d="M1073 922 c-67 -114 -125 -215 -129 -224 -5 -15 -1 -18 24 -18 21 0
31 6 35 19 2 10 14 24 26 30 18 10 25 8 47 -14 20 -20 24 -32 19 -53 -4 -21 0
-33 15 -47 11 -10 22 -16 25 -13 5 5 66 520 62 524 -1 2 -57 -90 -124 -204z
m76 -78 c-21 -180 -35 -245 -35 -169 0 41 -36 85 -70 85 -13 0 -34 -14 -50
-32 -15 -18 -25 -28 -23 -22 9 24 193 333 197 330 2 -2 -7 -89 -19 -192z"/>
<path d="M1226 1108 c-8 -25 -28 -250 -23 -254 3 -3 23 49 45 115 l40 121 -21
15 c-26 18 -36 19 -41 3z m34 -30 c0 -23 -12 -58 -19 -58 -4 0 -5 16 -3 35 4
32 22 51 22 23z"/>
<path d="M1032 701 c-19 -11 -11 -45 11 -49 9 -2 20 4 23 13 9 21 -16 47 -34
36z"/>
<path d="M1092 1428 c-35 -55 -62 -101 -60 -103 2 -2 15 -6 29 -10 25 -6 26
-3 62 101 21 59 36 108 34 110 -1 2 -31 -42 -65 -98z m-12 -78 c0 -5 -5 -10
-11 -10 -5 0 -7 5 -4 10 3 6 8 10 11 10 2 0 4 -4 4 -10z"/>
<path d="M1026 1284 c-9 -23 19 -53 35 -37 15 15 7 47 -12 51 -9 2 -19 -5 -23
-14z"/>
<path d="M900 1266 c-4 -11 -20 -50 -35 -86 -38 -90 -58 -147 -46 -135 16 18
141 215 141 224 0 5 -12 11 -26 14 -19 3 -27 -1 -34 -17z m22 -28 c-7 -7 -12
-8 -12 -2 0 14 12 26 19 19 2 -3 -1 -11 -7 -17z"/>
<path d="M853 1065 c-68 -107 -123 -199 -123 -205 0 -17 36 -11 55 10 37 41
83 9 70 -50 -7 -32 19 -97 28 -70 11 34 98 492 95 500 -2 5 -58 -78 -125 -185z
m61 -60 c-15 -80 -32 -145 -36 -145 -5 0 -8 7 -8 15 0 8 -11 22 -26 31 -24 16
-26 16 -55 -5 -28 -21 -27 -17 19 56 27 43 66 106 88 140 21 34 40 60 43 57 2
-2 -9 -69 -25 -149z"/>
<path d="M970 1090 c-18 -88 -31 -162 -28 -165 5 -5 109 274 108 292 0 10 -30
33 -43 33 -2 0 -19 -72 -37 -160z m46 79 l-16 -34 6 35 c7 41 16 59 21 43 2
-6 -3 -26 -11 -44z"/>
<path d="M800 855 c-16 -19 -5 -47 17 -43 11 2 18 12 18 27 0 29 -17 37 -35
16z"/>
<path d="M130 1311 c-13 -26 4 -64 27 -59 25 5 40 35 27 56 -16 25 -41 26 -54
3z m40 -22 c0 -5 -7 -9 -15 -9 -15 0 -20 12 -9 23 8 8 24 -1 24 -14z"/>
<path d="M307 1055 c-62 -63 -25 -179 58 -179 63 0 103 67 84 139 -19 66 -94
87 -142 40z m103 -15 c11 -11 22 -30 25 -43 13 -52 -44 -120 -82 -98 -11 6
-13 11 -5 11 17 0 12 42 -6 48 -6 2 -16 -6 -20 -19 -10 -25 -16 -19 -26 25 -6
26 -5 28 8 17 8 -7 20 -10 25 -7 5 4 13 1 16 -5 4 -5 13 -8 21 -5 7 3 18 -2
23 -11 7 -14 12 -15 24 -4 21 16 10 44 -14 38 -23 -6 -35 9 -14 17 20 7 19 35
-1 43 -18 7 -35 -14 -27 -34 3 -7 0 -13 -6 -13 -6 0 -11 5 -11 10 0 6 -7 10
-15 10 -20 0 -19 17 3 29 27 16 60 13 82 -9z"/>
<path d="M475 850 c-25 -27 -67 -50 -95 -50 -30 0 -25 -25 10 -50 23 -16 28
-25 21 -34 -8 -9 -1 -31 23 -76 l34 -64 16 37 c8 21 22 40 30 43 15 6 40 89
31 105 -4 5 -15 9 -25 9 -16 0 -19 9 -22 51 l-3 51 -20 -22z m24 -100 c10 0
20 -3 23 -6 10 -9 -6 -49 -34 -84 l-27 -34 -17 38 c-15 30 -16 41 -6 56 16 27
16 27 -20 39 l-32 11 45 23 44 22 3 -32 c2 -24 8 -33 21 -33z"/>
<path d="M454 715 c-7 -18 3 -35 21 -35 18 0 26 15 19 34 -8 20 -33 21 -40 1z"/>
<path d="M527 834 c-16 -16 -7 -44 14 -44 15 0 20 5 17 22 -3 22 -19 33 -31
22z"/>
<path d="M770 735 c0 -18 5 -25 20 -25 15 0 20 7 20 25 0 18 -5 25 -20 25 -15
0 -20 -7 -20 -25z"/>
<path d="M683 580 c-6 -14 -30 -68 -53 -120 -75 -167 -74 -166 -57 -151 9 7
43 50 76 96 62 85 68 103 51 170 l-7 30 -10 -25z m7 -69 c0 -11 -12 -33 -26
-48 -20 -22 -23 -23 -15 -6 6 12 15 33 21 47 11 31 20 34 20 7z"/>
<path d="M690 418 c-23 -33 -59 -79 -78 -100 -19 -21 -33 -41 -30 -43 11 -11
141 90 178 138 22 30 40 57 40 60 0 4 -15 7 -33 7 -29 0 -38 -7 -77 -62z m70
34 c0 -12 -72 -94 -77 -88 -3 2 10 25 29 50 31 43 48 56 48 38z"/>
<path d="M984 575 c-9 -22 22 -53 37 -38 15 15 7 47 -14 51 -9 2 -20 -4 -23
-13z"/>
<path d="M1032 529 c-17 -27 -4 -40 26 -28 19 7 21 12 12 29 -14 25 -22 25
-38 -1z"/>
<path d="M5016 2747 c-67 -38 -93 -117 -62 -191 7 -18 37 -53 67 -77 193 -161
218 -209 151 -281 -52 -56 -127 -46 -185 24 -31 37 -35 39 -60 27 -15 -7 -27
-15 -27 -19 0 -17 87 -104 117 -116 65 -28 154 -15 202 29 29 27 60 93 61 128
0 56 -49 127 -135 195 -104 80 -135 117 -135 155 0 44 39 79 89 79 32 0 47 -7
77 -35 43 -41 45 -41 69 -16 16 19 16 21 -4 50 -27 37 -96 71 -147 71 -22 0
-56 -10 -78 -23z"/>
<path d="M5457 2748 c-40 -23 -77 -86 -77 -129 1 -56 36 -105 133 -182 100
-81 124 -109 133 -156 12 -57 -50 -121 -118 -121 -33 0 -83 33 -104 69 -10 17
-22 31 -27 31 -17 0 -47 -21 -47 -34 0 -21 67 -92 104 -110 41 -20 115 -21
159 -2 44 18 95 78 103 121 16 85 -23 151 -143 243 -105 80 -118 95 -118 144
0 83 93 107 164 42 39 -35 40 -35 66 -18 l26 17 -24 31 c-56 73 -156 97 -230
54z"/>
<path d="M2480 2430 l0 -320 185 0 185 0 0 35 0 35 -150 0 -150 0 0 125 0 125
150 0 150 0 0 30 0 30 -150 0 -150 0 0 100 0 100 150 0 150 0 0 30 0 30 -185
0 -185 0 0 -320z"/>
<path d="M3035 2738 c-5 -18 -85 -589 -85 -610 0 -13 8 -18 30 -18 17 0 30 1
30 3 0 1 14 100 30 220 17 120 30 222 31 225 0 4 52 -95 115 -220 63 -126 118
-228 122 -228 4 0 57 99 117 220 60 121 112 220 115 220 3 0 19 -96 34 -212
16 -117 30 -216 33 -220 4 -8 63 -12 63 -5 0 2 -20 145 -45 317 -25 172 -45
315 -45 317 0 1 -4 3 -8 3 -4 0 -64 -114 -132 -254 -69 -140 -128 -255 -131
-255 -3 -1 -61 114 -130 254 -68 140 -128 254 -132 255 -4 0 -9 -6 -12 -12z"/>
<path d="M3792 2433 l3 -318 99 -3 c129 -4 191 14 239 67 39 43 53 91 43 149
-7 45 -32 80 -79 111 l-36 24 29 33 c47 54 51 124 11 190 -31 50 -74 64 -200
64 l-111 0 2 -317z m244 224 c65 -75 -1 -167 -118 -167 l-58 0 0 101 0 101 76
-4 c69 -3 79 -6 100 -31z m-6 -253 c73 -29 100 -101 63 -165 -25 -42 -69 -59
-157 -59 l-76 0 0 120 0 120 65 0 c36 0 82 -7 105 -16z"/>
<path d="M4526 2698 c-13 -29 -70 -150 -126 -268 -56 -118 -113 -239 -126
-267 l-24 -53 38 0 37 0 49 105 49 105 139 0 139 0 49 -105 c50 -105 50 -105
86 -105 19 0 34 4 32 9 -32 84 -297 631 -306 631 -7 0 -23 -24 -36 -52z m41
-306 c-55 -1 -101 -1 -103 1 -2 2 19 53 47 113 l52 109 51 -110 52 -110 -99
-3z"/>
<path d="M5822 2728 c8 -13 54 -86 101 -164 l87 -141 0 -156 0 -157 35 0 35 0
0 156 0 157 100 163 100 164 -39 0 -39 0 -77 -125 c-42 -69 -78 -125 -80 -125
-2 0 -39 56 -82 125 -78 125 -78 125 -117 125 -37 0 -38 -1 -24 -22z"/>
<path d="M2075 1676 c-78 -33 -155 -112 -185 -193 -29 -76 -25 -196 9 -265 28
-60 91 -122 156 -156 44 -24 61 -27 150 -27 118 0 167 19 239 91 72 72 91 121
91 239 0 117 -18 166 -88 236 -62 62 -135 92 -232 96 -68 3 -89 0 -140 -21z
m251 -71 c169 -83 199 -320 56 -445 -46 -41 -120 -70 -177 -70 -54 0 -129 28
-172 65 -133 113 -123 333 18 431 85 59 180 65 275 19z"/>
<path d="M2675 1678 c-3 -7 -4 -153 -3 -323 l3 -310 33 -3 32 -3 0 160 0 161
130 0 130 0 0 30 0 30 -130 0 -130 0 0 100 0 99 128 3 127 3 0 30 0 30 -158 3
c-121 2 -159 0 -162 -10z"/>
<path d="M3347 1684 c-4 -4 -7 -151 -7 -326 l0 -318 35 0 35 0 -2 323 -3 322
-25 3 c-14 2 -29 0 -33 -4z"/>
<path d="M3560 1367 l0 -327 30 0 30 0 0 151 c0 145 1 150 20 147 12 -2 65
-61 133 -148 106 -137 114 -145 150 -148 20 -2 37 0 37 5 0 4 -49 71 -108 148
l-109 140 61 12 c96 20 143 65 152 148 7 68 -25 131 -81 162 -34 19 -64 23
-178 29 l-137 7 0 -326z m297 220 c22 -22 28 -37 28 -73 0 -39 -5 -50 -32 -74
-34 -31 -99 -44 -183 -38 l-45 3 -3 108 -3 109 105 -4 c100 -3 107 -5 133 -31z"/>
<path d="M4095 1677 c-3 -7 -4 -152 -3 -322 l3 -310 183 -3 182 -2 0 35 0 35
-150 0 -150 0 0 125 0 125 150 0 150 0 0 30 0 30 -150 0 -150 0 0 100 0 100
150 0 150 0 0 35 0 35 -180 0 c-136 0 -182 -3 -185 -13z"/>
<path d="M4577 1684 c-4 -4 -7 -151 -7 -326 l0 -318 155 0 155 0 0 35 0 35
-120 0 -120 0 -2 288 -3 287 -25 3 c-14 2 -29 0 -33 -4z"/>
<path d="M5191 1609 c-21 -46 -89 -189 -150 -318 -61 -129 -111 -238 -111
-243 0 -4 15 -8 33 -8 33 0 35 3 83 105 l49 104 140 1 141 0 48 -105 c48 -103
49 -105 82 -105 19 0 34 4 34 8 0 13 -288 624 -299 635 -7 7 -22 -15 -50 -74z
m98 -176 c28 -58 50 -108 47 -110 -2 -2 -48 -2 -103 -1 l-100 3 50 108 c27 59
51 107 53 107 1 0 25 -48 53 -107z"/>
<path d="M6087 1683 c-4 -3 -7 -112 -7 -241 l0 -235 -22 21 c-13 12 -106 118
-208 236 -102 118 -191 215 -197 215 -10 1 -13 -69 -13 -319 l0 -320 35 0 35
0 2 239 3 239 208 -239 c115 -131 212 -237 215 -235 4 2 6 149 4 325 l-3 321
-23 0 c-12 0 -26 -3 -29 -7z"/>
<path d="M6305 1677 c-3 -7 -4 -152 -3 -322 l3 -310 150 1 c84 0 169 6 192 13
66 18 124 69 160 140 30 57 33 71 33 151 0 149 -58 254 -167 302 -73 32 -358
52 -368 25z m274 -68 c73 -15 131 -57 163 -116 59 -107 43 -242 -37 -319 -52
-51 -101 -64 -234 -64 l-101 0 0 255 0 255 80 0 c43 0 101 -5 129 -11z"/>
</g>
</svg>
