<svg width="300" height="309" viewBox="0 0 300 309" fill="none" xmlns="http://www.w3.org/2000/svg">
<path d="M49.2969 299.435H86.8972V298.583H76.243V266.865H86.3001C87.6656 266.865 88.0081 267.12 88.6884 268.485L94.062 279.653H94.5709V253.221H94.062L88.6884 264.389C88.0081 265.754 87.6656 266.009 86.3001 266.009H76.243V235.657H89.1142C91.5024 235.657 92.0163 235.828 93.8075 237.702L110.687 255.012H111.201L106.595 234.805H49.2969V235.657H56.3735V298.583H49.2969V299.435ZM112.982 299.435H171.215L177.015 275.474H176.501L158.173 296.704C156.807 298.241 156.21 298.583 153.822 298.583H139.923V266.865H147.685C149.046 266.865 149.388 267.12 150.069 268.485L155.442 279.653H155.956V253.221H155.442L150.069 264.389C149.388 265.754 149.046 266.009 147.685 266.009H139.923V235.657H147.94C150.328 235.657 150.837 235.828 152.628 237.702L169.512 255.012H170.021L165.416 234.805H112.982V235.657H120.059V298.583H112.982V299.435ZM181.003 299.435H198.484V298.583H190.297V250.921L239.408 302.929H239.667V235.657H247.938V234.805H230.457V235.657H238.644V273.516L200.188 234.805H175.292V234.976L189.274 249.81V298.583H181.003V299.435Z" fill="white"/>
<path d="M49.2969 299.435H86.8972V298.583H76.243V266.865H86.3001C87.6656 266.865 88.0081 267.12 88.6884 268.485L94.062 279.653H94.5709V253.221H94.062L88.6884 264.389C88.0081 265.754 87.6656 266.009 86.3001 266.009H76.243V235.657H89.1142C91.5024 235.657 92.0163 235.828 93.8075 237.702L110.687 255.012H111.201L106.595 234.805H49.2969V235.657H56.3735V298.583H49.2969V299.435ZM112.982 299.435H171.215L177.015 275.474H176.501L158.173 296.704C156.807 298.241 156.21 298.583 153.822 298.583H139.923V266.865H147.685C149.046 266.865 149.388 267.12 150.069 268.485L155.442 279.653H155.956V253.221H155.442L150.069 264.389C149.388 265.754 149.046 266.009 147.685 266.009H139.923V235.657H147.94C150.328 235.657 150.837 235.828 152.628 237.702L169.512 255.012H170.021L165.416 234.805H112.982V235.657H120.059V298.583H112.982V299.435ZM181.003 299.435H198.484V298.583H190.297V250.921L239.408 302.929H239.667V235.657H247.938V234.805H230.457V235.657H238.644V273.516L200.188 234.805H175.292V234.976L189.274 249.81V298.583H181.003V299.435Z" stroke="white" stroke-width="0.00636215"/>
<path fill-rule="evenodd" clip-rule="evenodd" d="M24.4355 224.356H33.2153V161.435H24.2643C22.3018 161.435 21.4502 161.772 20.5155 163.48L8.6623 184.622H8.14844L12.0734 156.061H12.6705L21.7928 160.578H64.5073L73.6297 156.061H74.2267L78.1517 184.622H77.6378L65.7895 163.48C64.8499 161.772 63.9984 161.435 62.0359 161.435H53.0848V224.356H61.8646V225.208H24.4355V224.356ZM80.2072 224.356H87.2838V161.435H80.2072V160.578H108.171C130.086 160.578 142.62 163.823 142.62 176.014C142.62 185.733 132.044 190.25 116.613 191.107V191.273C131.021 191.699 135.71 198.095 141 206.195L153.362 225.208H130.253L109.708 192.981H107.148V224.356H114.225V225.208H80.2072V224.356ZM108.514 192.13C117.979 192.13 121.13 186.159 121.13 176.782C121.13 167.4 117.979 161.435 108.514 161.435H107.148V192.13H108.514ZM158.393 224.356H165.47V161.435H158.393V160.578H210.827L215.432 180.785H214.918L198.039 163.48C196.248 161.601 195.734 161.435 193.351 161.435H185.334V191.787H193.091C194.457 191.787 194.799 191.533 195.48 190.167L200.853 178.999H201.362V205.427H200.853L195.48 194.259C194.799 192.893 194.457 192.639 193.091 192.639H185.334V224.356H199.233C201.622 224.356 202.219 224.014 203.579 222.482L221.912 201.252H222.426L216.626 225.208H158.393V224.356ZM226.072 225.208V224.356H233.148V161.435H226.072V160.578H283.37L287.975 180.785H287.462L270.582 163.48C268.791 161.601 268.277 161.435 265.889 161.435H253.018V191.787H263.08C264.44 191.787 264.783 191.533 265.463 190.167L270.837 178.999H271.351V205.427H270.837L265.463 194.259C264.783 192.898 264.44 192.639 263.08 192.639H253.018V224.356H263.677V225.208H226.072Z" fill="white"/>
<path d="M24.4355 225.208H61.8646V224.356H53.0848V161.435H62.0359C63.9984 161.435 64.8499 161.772 65.7895 163.48L77.6378 184.622H78.1517L74.2267 156.061H73.6297L64.5073 160.578H21.7928L12.6705 156.061H12.0734L8.14844 184.622H8.6623L20.5155 163.48C21.4502 161.772 22.3018 161.435 24.2643 161.435H33.2153V224.356H24.4355V225.208ZM80.2072 225.208H114.225V224.356H107.148V192.981H109.708L130.253 225.208H153.362L141 206.195C135.71 198.095 131.021 191.699 116.613 191.273V191.107C132.044 190.25 142.62 185.733 142.62 176.014C142.62 163.823 130.086 160.578 108.171 160.578H80.2072V161.435H87.2838V224.356H80.2072V225.208ZM107.148 192.13V161.435H108.514C117.979 161.435 121.13 167.4 121.13 176.782C121.13 186.159 117.979 192.13 108.514 192.13H107.148ZM158.393 225.208H216.626L222.426 201.252H221.912L203.579 222.482C202.219 224.014 201.622 224.356 199.233 224.356H185.334V192.639H193.091C194.457 192.639 194.799 192.893 195.48 194.259L200.853 205.427H201.362V178.999H200.853L195.48 190.167C194.799 191.533 194.457 191.787 193.091 191.787H185.334V161.435H193.351C195.734 161.435 196.248 161.601 198.039 163.48L214.918 180.785H215.432L210.827 160.578H158.393V161.435H165.47V224.356H158.393V225.208ZM226.072 225.208H263.677V224.356H253.018V192.639H263.08C264.44 192.639 264.783 192.898 265.463 194.259L270.837 205.427H271.351V178.999H270.837L265.463 190.167C264.783 191.533 264.44 191.787 263.08 191.787H253.018V161.435H265.889C268.277 161.435 268.791 161.601 270.582 163.48L287.462 180.785H287.975L283.37 160.578H226.072V161.435H233.148V224.356H226.072V225.208Z" stroke="white" stroke-width="0.00636215"/>
<path fill-rule="evenodd" clip-rule="evenodd" d="M58.6688 150.135H67.4486V87.208H58.4975C56.5351 87.208 55.6835 87.5505 54.7439 89.2536L42.8956 110.4H42.3817L46.3067 81.8393H46.9037L56.0261 86.3564H98.7406L107.863 81.8393H108.46L112.385 110.4H111.871L100.023 89.2536C99.0832 87.5505 98.2316 87.208 96.2692 87.208H87.3181V150.135H96.0979V150.986H58.6688V150.135ZM114.44 150.13H121.517V87.208H114.44V86.3564H166.874L171.48 106.564H170.966L154.086 89.2536C152.295 87.3793 151.781 87.208 149.398 87.208H141.382V117.56H149.139C150.504 117.56 150.847 117.306 151.527 115.94L156.9 104.772H157.409V131.205H156.9L151.527 120.037C150.847 118.671 150.504 118.417 149.139 118.417H141.382V150.135H155.281C157.669 150.135 158.266 149.792 159.626 148.255L177.959 127.025H178.473L172.674 150.986H114.44V150.13ZM182.119 150.13H189.196V87.208H182.119V86.3564H210.088C231.998 86.3564 244.532 89.5962 244.532 101.787C244.532 111.511 233.961 116.029 218.53 116.88V117.051C232.938 117.477 237.626 123.874 242.912 131.973L255.279 150.986H232.17L211.62 118.754H209.065V150.135H216.142V150.986H182.119V150.13ZM210.431 117.903C219.891 117.903 223.047 111.932 223.047 102.555C223.047 93.1786 219.891 87.208 210.431 87.208H209.065V117.903H210.431Z" fill="white"/>
<path d="M58.6688 150.986H96.0979V150.135H87.3181V87.208H96.2692C98.2316 87.208 99.0832 87.5505 100.023 89.2536L111.871 110.4H112.385L108.46 81.8393H107.863L98.7406 86.3564H56.0261L46.9037 81.8393H46.3067L42.3817 110.4H42.8956L54.7439 89.2536C55.6835 87.5505 56.5351 87.208 58.4975 87.208H67.4486V150.135H58.6688V150.986ZM114.44 150.986H172.674L178.473 127.025H177.959L159.626 148.255C158.266 149.792 157.669 150.135 155.281 150.135H141.382V118.417H149.139C150.504 118.417 150.847 118.671 151.527 120.037L156.9 131.205H157.409V104.772H156.9L151.527 115.94C150.847 117.306 150.504 117.56 149.139 117.56H141.382V87.208H149.398C151.781 87.208 152.295 87.3793 154.086 89.2536L170.966 106.564H171.48L166.874 86.3564H114.44V87.208H121.517V150.13H114.44V150.986ZM182.119 150.986H216.142V150.135H209.065V118.754H211.62L232.17 150.986H255.279L242.912 131.973C237.626 123.874 232.938 117.477 218.53 117.051V116.88C233.961 116.029 244.532 111.511 244.532 101.787C244.532 89.5962 231.998 86.3564 210.088 86.3564H182.119V87.208H189.196V150.13H182.119V150.986ZM209.065 117.903V87.208H210.431C219.891 87.208 223.047 93.1786 223.047 102.555C223.047 111.932 219.891 117.903 210.431 117.903H209.065Z" stroke="white" stroke-width="0.00636215"/>
<path fill-rule="evenodd" clip-rule="evenodd" d="M21.0441 75.9078H29.8287V12.9812H20.8777C18.9152 12.9812 18.0636 13.3238 17.124 15.0318L5.27081 36.1737H4.76184L8.68191 7.61255H9.27897L18.4013 12.1297H61.1207L70.2431 7.61255H70.8401L74.7602 36.1737H74.2512L62.3981 15.0318C61.4633 13.3238 60.6069 12.9812 58.6493 12.9812H49.6933V75.9078H58.478V76.7594H21.0441V75.9078ZM110.839 76.7594H76.8157V75.9078H83.8923V12.9812H76.8157V12.1297H110.839V12.9812H103.762V40.3532H126.098V12.9812H119.021V12.1297H153.044V12.9812H145.962V75.9078H153.044V76.7594H119.021V75.9078H126.098V46.1525H103.762V75.9078H110.839V76.7594ZM160.145 75.9078H167.222V12.9812H160.145V12.1297H212.579L217.184 32.3369H216.675L199.791 15.0318C198 13.1525 197.491 12.9861 195.103 12.9861H187.086V43.3385H194.843C196.209 43.3385 196.551 43.084 197.232 41.7186L202.605 30.5457H203.114V56.978H202.605L197.232 45.8099C196.551 44.4445 196.209 44.19 194.843 44.19H187.086V75.9078H200.985C203.374 75.9078 203.971 75.5701 205.331 74.0334L223.664 52.8034H224.178L218.378 76.7594H160.145V75.9078ZM259.899 75.9078H266.98L258.71 53.5669H236.452L228.181 75.9078H236.026V76.7594H219.998V75.9078H227.075L247.028 21.9372L243.445 12.1297H263.995L287.525 75.9078H294.607V76.7594H259.904L259.899 75.9078ZM256.576 47.7724L247.625 23.3858L238.586 47.7724H256.576Z" fill="white"/>
<path d="M21.0441 76.7594H58.478V75.9078H49.6933V12.9812H58.6493C60.6069 12.9812 61.4633 13.3238 62.3981 15.0318L74.2512 36.1737H74.7602L70.8401 7.61255H70.2431L61.1207 12.1297H18.4013L9.27897 7.61255H8.68191L4.76184 36.1737H5.27081L17.124 15.0318C18.0636 13.3238 18.9152 12.9812 20.8777 12.9812H29.8287V75.9078H21.0441V76.7594ZM110.839 75.9078H103.762V46.1525H126.098V75.9078H119.021V76.7594H153.044V75.9078H145.962V12.9812H153.044V12.1297H119.021V12.9812H126.098V40.3532H103.762V12.9812H110.839V12.1297H76.8157V12.9812H83.8923V75.9078H76.8157V76.7594H110.839V75.9078ZM160.145 76.7594H218.378L224.178 52.8034H223.664L205.331 74.0334C203.971 75.5701 203.374 75.9078 200.985 75.9078H187.086V44.19H194.843C196.209 44.19 196.551 44.4445 197.232 45.8099L202.605 56.978H203.114V30.5457H202.605L197.232 41.7186C196.551 43.084 196.209 43.3385 194.843 43.3385H187.086V12.9861H195.103C197.491 12.9861 198 13.1525 199.791 15.0318L216.675 32.3369H217.184L212.579 12.1297H160.145V12.9812H167.222V75.9078H160.145V76.7594ZM259.904 76.7594H294.607V75.9078H287.525L263.995 12.1297H243.445L247.028 21.9372L227.075 75.9078H219.998V76.7594H236.026V75.9078H228.181L236.452 53.5669H258.71L266.98 75.9078H259.899L259.904 76.7594ZM238.586 47.7724L247.625 23.3858L256.576 47.7724H238.586Z" stroke="white" stroke-width="0.00636215"/>
</svg>
