<svg version="1.2" baseProfile="tiny-ps" xmlns="http://www.w3.org/2000/svg" viewBox="0 0 613 631" width="300" height="309">
	<title>TT21_Wortmarke-svg</title>
	<style>
		tspan { white-space:pre }
		.shp0 { fill: #231f20 } 
		.shp1 { fill: none;stroke: #231f20;stroke-width: 0.013 } 
	</style>
	<path id="Layer" class="shp0" d="M100.73 611.65L177.56 611.65L177.56 609.91L155.79 609.91L155.79 545.1L176.34 545.1C179.13 545.1 179.83 545.62 181.22 548.41L192.2 571.23L193.24 571.23L193.24 517.22L192.2 517.22L181.22 540.04C179.83 542.83 179.13 543.35 176.34 543.35L155.79 543.35L155.79 481.33L182.09 481.33C186.97 481.33 188.02 481.68 191.68 485.51L226.17 520.88L227.22 520.88L217.81 479.59L100.73 479.59L100.73 481.33L115.19 481.33L115.19 609.91L100.73 609.91L100.73 611.65ZM230.86 611.65L349.85 611.65L361.7 562.69L360.65 562.69L323.2 606.07C320.41 609.21 319.19 609.91 314.31 609.91L285.91 609.91L285.91 545.1L301.77 545.1C304.55 545.1 305.25 545.62 306.64 548.41L317.62 571.23L318.67 571.23L318.67 517.22L317.62 517.22L306.64 540.04C305.25 542.83 304.55 543.35 301.77 543.35L285.91 543.35L285.91 481.33L302.29 481.33C307.17 481.33 308.21 481.68 311.87 485.51L346.37 520.88L347.41 520.88L338 479.59L230.86 479.59L230.86 481.33L245.32 481.33L245.32 609.91L230.86 609.91L230.86 611.65ZM369.85 611.65L405.57 611.65L405.57 609.91L388.84 609.91L388.84 512.52L489.19 618.79L489.72 618.79L489.72 481.33L506.62 481.33L506.62 479.59L470.9 479.59L470.9 481.33L487.63 481.33L487.63 558.69L409.05 479.59L358.18 479.59L358.18 479.94L386.75 510.25L386.75 609.91L369.85 609.91L369.85 611.65" />
	<path id="Layer" class="shp1" d="M100.73 611.65L177.56 611.65L177.56 609.91L155.79 609.91L155.79 545.1L176.34 545.1C179.13 545.1 179.83 545.62 181.22 548.41L192.2 571.23L193.24 571.23L193.24 517.22L192.2 517.22L181.22 540.04C179.83 542.83 179.13 543.35 176.34 543.35L155.79 543.35L155.79 481.33L182.09 481.33C186.97 481.33 188.02 481.68 191.68 485.51L226.17 520.88L227.22 520.88L217.81 479.59L100.73 479.59L100.73 481.33L115.19 481.33L115.19 609.91L100.73 609.91L100.73 611.65ZM230.86 611.65L349.85 611.65L361.7 562.69L360.65 562.69L323.2 606.07C320.41 609.21 319.19 609.91 314.31 609.91L285.91 609.91L285.91 545.1L301.77 545.1C304.55 545.1 305.25 545.62 306.64 548.41L317.62 571.23L318.67 571.23L318.67 517.22L317.62 517.22L306.64 540.04C305.25 542.83 304.55 543.35 301.77 543.35L285.91 543.35L285.91 481.33L302.29 481.33C307.17 481.33 308.21 481.68 311.87 485.51L346.37 520.88L347.41 520.88L338 479.59L230.86 479.59L230.86 481.33L245.32 481.33L245.32 609.91L230.86 609.91L230.86 611.65ZM369.85 611.65L405.57 611.65L405.57 609.91L388.84 609.91L388.84 512.52L489.19 618.79L489.72 618.79L489.72 481.33L506.62 481.33L506.62 479.59L470.9 479.59L470.9 481.33L487.63 481.33L487.63 558.69L409.05 479.59L358.18 479.59L358.18 479.94L386.75 510.25L386.75 609.91L369.85 609.91L369.85 611.65Z" />
	<path id="Layer" fill-rule="evenodd" class="shp0" d="M49.93 458.24L67.87 458.24L67.87 329.67L49.58 329.67C45.57 329.67 43.83 330.36 41.92 333.85L17.7 377.05L16.65 377.05L24.67 318.69L25.89 318.69L44.53 327.92L131.81 327.92L150.45 318.69L151.67 318.69L159.69 377.05L158.64 377.05L134.43 333.85C132.51 330.36 130.77 329.67 126.76 329.67L108.47 329.67L108.47 458.24L126.41 458.24L126.41 459.98L49.93 459.98L49.93 458.24ZM163.89 458.24L178.35 458.24L178.35 329.67L163.89 329.67L163.89 327.92L221.03 327.92C265.81 327.92 291.42 334.55 291.42 359.46C291.42 379.32 269.81 388.55 238.28 390.3L238.28 390.64C267.72 391.51 277.3 404.58 288.11 421.13L313.37 459.98L266.15 459.98L224.17 394.13L218.94 394.13L218.94 458.24L233.4 458.24L233.4 459.98L163.89 459.98L163.89 458.24ZM221.73 392.39C241.07 392.39 247.51 380.19 247.51 361.03C247.51 341.86 241.07 329.67 221.73 329.67L218.94 329.67L218.94 392.39L221.73 392.39ZM323.65 458.24L338.11 458.24L338.11 329.67L323.65 329.67L323.65 327.92L430.79 327.92L440.2 369.21L439.15 369.21L404.66 333.85C401 330.01 399.95 329.67 395.08 329.67L378.7 329.67L378.7 391.69L394.55 391.69C397.34 391.69 398.04 391.17 399.43 388.38L410.41 365.56L411.45 365.56L411.45 419.56L410.41 419.56L399.43 396.74C398.04 393.95 397.34 393.43 394.55 393.43L378.7 393.43L378.7 458.24L407.1 458.24C411.98 458.24 413.2 457.54 415.98 454.41L453.44 411.03L454.49 411.03L442.64 459.98L323.65 459.98L323.65 458.24ZM461.94 459.98L461.94 458.24L476.4 458.24L476.4 329.67L461.94 329.67L461.94 327.92L579.02 327.92L588.43 369.21L587.38 369.21L552.89 333.85C549.23 330.01 548.18 329.67 543.3 329.67L517 329.67L517 391.69L537.56 391.69C540.34 391.69 541.04 391.17 542.43 388.38L553.41 365.56L554.46 365.56L554.46 419.56L553.41 419.56L542.43 396.74C541.04 393.96 540.34 393.43 537.56 393.43L517 393.43L517 458.24L538.78 458.24L538.78 459.98L461.94 459.98Z" />
	<path id="Layer" class="shp1" d="M49.93 459.98L126.41 459.98L126.41 458.24L108.47 458.24L108.47 329.67L126.76 329.67C130.77 329.67 132.51 330.36 134.43 333.85L158.64 377.05L159.69 377.05L151.67 318.69L150.45 318.69L131.81 327.92L44.53 327.92L25.89 318.69L24.67 318.69L16.65 377.05L17.7 377.05L41.92 333.85C43.83 330.36 45.57 329.67 49.58 329.67L67.87 329.67L67.87 458.24L49.93 458.24L49.93 459.98ZM163.89 459.98L233.4 459.98L233.4 458.24L218.94 458.24L218.94 394.13L224.17 394.13L266.15 459.98L313.37 459.98L288.11 421.13C277.3 404.58 267.72 391.51 238.28 390.64L238.28 390.3C269.81 388.55 291.42 379.32 291.42 359.46C291.42 334.55 265.81 327.92 221.03 327.92L163.89 327.92L163.89 329.67L178.35 329.67L178.35 458.24L163.89 458.24L163.89 459.98ZM218.94 392.39L218.94 329.67L221.73 329.67C241.07 329.67 247.51 341.86 247.51 361.03C247.51 380.19 241.07 392.39 221.73 392.39L218.94 392.39ZM323.65 459.98L442.64 459.98L454.49 411.03L453.44 411.03L415.98 454.41C413.2 457.54 411.98 458.24 407.1 458.24L378.7 458.24L378.7 393.43L394.55 393.43C397.34 393.43 398.04 393.95 399.43 396.74L410.41 419.56L411.45 419.56L411.45 365.56L410.41 365.56L399.43 388.38C398.04 391.17 397.34 391.69 394.55 391.69L378.7 391.69L378.7 329.67L395.08 329.67C399.95 329.67 401 330.01 404.66 333.85L439.15 369.21L440.2 369.21L430.79 327.92L323.65 327.92L323.65 329.67L338.11 329.67L338.11 458.24L323.65 458.24L323.65 459.98ZM461.94 459.98L538.78 459.98L538.78 458.24L517 458.24L517 393.43L537.56 393.43C540.34 393.43 541.04 393.96 542.43 396.74L553.41 419.56L554.46 419.56L554.46 365.56L553.41 365.56L542.43 388.38C541.04 391.17 540.34 391.69 537.56 391.69L517 391.69L517 329.67L543.3 329.67C548.18 329.67 549.23 330.01 552.89 333.85L587.38 369.21L588.43 369.21L579.02 327.92L461.94 327.92L461.94 329.67L476.4 329.67L476.4 458.24L461.94 458.24L461.94 459.98Z" />
	<path id="Layer" fill-rule="evenodd" class="shp0" d="M119.88 306.58L137.82 306.58L137.82 178L119.53 178C115.52 178 113.78 178.7 111.86 182.18L87.65 225.39L86.6 225.39L94.62 167.03L95.84 167.03L114.48 176.26L201.76 176.26L220.4 167.03L221.62 167.03L229.64 225.39L228.59 225.39L204.38 182.18C202.46 178.7 200.72 178 196.71 178L178.42 178L178.42 306.58L196.36 306.58L196.36 308.32L119.88 308.32L119.88 306.58ZM233.84 306.57L248.3 306.57L248.3 178L233.84 178L233.84 176.26L340.98 176.26L350.39 217.55L349.34 217.55L314.85 182.18C311.19 178.35 310.14 178 305.27 178L288.89 178L288.89 240.02L304.74 240.02C307.53 240.02 308.23 239.5 309.62 236.71L320.6 213.89L321.64 213.89L321.64 267.9L320.6 267.9L309.62 245.08C308.23 242.29 307.53 241.77 304.74 241.77L288.89 241.77L288.89 306.58L317.29 306.58C322.17 306.58 323.39 305.88 326.17 302.74L363.63 259.36L364.68 259.36L352.83 308.32L233.84 308.32L233.84 306.57ZM372.13 306.57L386.59 306.57L386.59 178L372.13 178L372.13 176.26L429.28 176.26C474.05 176.26 499.66 182.88 499.66 207.79C499.66 227.66 478.06 236.89 446.53 238.63L446.53 238.98C475.97 239.85 485.55 252.92 496.35 269.47L521.62 308.32L474.4 308.32L432.41 242.46L427.19 242.46L427.19 306.58L441.65 306.58L441.65 308.32L372.13 308.32L372.13 306.57ZM429.98 240.72C449.31 240.72 455.76 228.52 455.76 209.36C455.76 190.2 449.31 178 429.98 178L427.19 178L427.19 240.72L429.98 240.72Z" />
	<path id="Layer" class="shp1" d="M119.88 308.32L196.36 308.32L196.36 306.58L178.42 306.58L178.42 178L196.71 178C200.72 178 202.46 178.7 204.38 182.18L228.59 225.39L229.64 225.39L221.62 167.03L220.4 167.03L201.76 176.26L114.48 176.26L95.84 167.03L94.62 167.03L86.6 225.39L87.65 225.39L111.86 182.18C113.78 178.7 115.52 178 119.53 178L137.82 178L137.82 306.58L119.88 306.58L119.88 308.32ZM233.84 308.32L352.83 308.32L364.68 259.36L363.63 259.36L326.17 302.74C323.39 305.88 322.17 306.58 317.29 306.58L288.89 306.58L288.89 241.77L304.74 241.77C307.53 241.77 308.23 242.29 309.62 245.08L320.6 267.9L321.64 267.9L321.64 213.89L320.6 213.89L309.62 236.71C308.23 239.5 307.53 240.02 304.74 240.02L288.89 240.02L288.89 178L305.27 178C310.14 178 311.19 178.35 314.85 182.18L349.34 217.55L350.39 217.55L340.98 176.26L233.84 176.26L233.84 178L248.3 178L248.3 306.57L233.84 306.57L233.84 308.32ZM372.13 308.32L441.65 308.32L441.65 306.58L427.19 306.58L427.19 242.46L432.41 242.46L474.4 308.32L521.62 308.32L496.35 269.47C485.55 252.92 475.97 239.85 446.53 238.98L446.53 238.63C478.06 236.89 499.66 227.66 499.66 207.79C499.66 182.88 474.05 176.26 429.28 176.26L372.13 176.26L372.13 178L386.59 178L386.59 306.57L372.13 306.57L372.13 308.32ZM427.19 240.72L427.19 178L429.98 178C449.31 178 455.76 190.2 455.76 209.36C455.76 228.52 449.31 240.72 429.98 240.72L427.19 240.72Z" />
	<path id="Layer" fill-rule="evenodd" class="shp0" d="M43 154.91L60.95 154.91L60.95 26.33L42.66 26.33C38.65 26.33 36.91 27.03 34.99 30.52L10.77 73.72L9.73 73.72L17.74 15.36L18.96 15.36L37.6 24.59L124.89 24.59L143.53 15.36L144.75 15.36L152.76 73.72L151.72 73.72L127.5 30.52C125.59 27.03 123.84 26.33 119.84 26.33L101.54 26.33L101.54 154.91L119.49 154.91L119.49 156.65L43 156.65L43 154.91ZM226.48 156.65L156.96 156.65L156.96 154.91L171.42 154.91L171.42 26.33L156.96 26.33L156.96 24.59L226.48 24.59L226.48 26.33L212.02 26.33L212.02 82.26L257.66 82.26L257.66 26.33L243.2 26.33L243.2 24.59L312.72 24.59L312.72 26.33L298.25 26.33L298.25 154.91L312.72 154.91L312.72 156.65L243.2 156.65L243.2 154.91L257.66 154.91L257.66 94.11L212.02 94.11L212.02 154.91L226.48 154.91L226.48 156.65ZM327.23 154.91L341.69 154.91L341.69 26.33L327.23 26.33L327.23 24.59L434.37 24.59L443.78 65.88L442.74 65.88L408.24 30.52C404.58 26.68 403.54 26.34 398.66 26.34L382.28 26.34L382.28 88.36L398.13 88.36C400.92 88.36 401.62 87.84 403.01 85.05L413.99 62.22L415.03 62.22L415.03 116.23L413.99 116.23L403.01 93.41C401.62 90.62 400.92 90.1 398.13 90.1L382.28 90.1L382.28 154.91L410.68 154.91C415.56 154.91 416.78 154.22 419.56 151.08L457.02 107.7L458.07 107.7L446.22 156.65L327.23 156.65L327.23 154.91ZM531.06 154.91L545.53 154.91L528.63 109.26L483.15 109.26L466.25 154.91L482.28 154.91L482.28 156.65L449.53 156.65L449.53 154.91L463.99 154.91L504.76 44.63L497.44 24.59L539.43 24.59L587.51 154.91L601.98 154.91L601.98 156.65L531.07 156.65L531.06 154.91ZM524.27 97.42L505.98 47.59L487.51 97.42L524.27 97.42Z" />
	<path id="Layer" class="shp1" d="M43 156.65L119.49 156.65L119.49 154.91L101.54 154.91L101.54 26.33L119.84 26.33C123.84 26.33 125.59 27.03 127.5 30.52L151.72 73.72L152.76 73.72L144.75 15.36L143.53 15.36L124.89 24.59L37.6 24.59L18.96 15.36L17.74 15.36L9.73 73.72L10.77 73.72L34.99 30.52C36.91 27.03 38.65 26.33 42.66 26.33L60.95 26.33L60.95 154.91L43 154.91L43 156.65ZM226.48 154.91L212.02 154.91L212.02 94.11L257.66 94.11L257.66 154.91L243.2 154.91L243.2 156.65L312.72 156.65L312.72 154.91L298.25 154.91L298.25 26.33L312.72 26.33L312.72 24.59L243.2 24.59L243.2 26.33L257.66 26.33L257.66 82.26L212.02 82.26L212.02 26.33L226.48 26.33L226.48 24.59L156.96 24.59L156.96 26.33L171.42 26.33L171.42 154.91L156.96 154.91L156.96 156.65L226.48 156.65L226.48 154.91ZM327.23 156.65L446.22 156.65L458.07 107.7L457.02 107.7L419.56 151.08C416.78 154.22 415.56 154.91 410.68 154.91L382.28 154.91L382.28 90.1L398.13 90.1C400.92 90.1 401.62 90.62 403.01 93.41L413.99 116.23L415.03 116.23L415.03 62.22L413.99 62.22L403.01 85.05C401.62 87.84 400.92 88.36 398.13 88.36L382.28 88.36L382.28 26.34L398.66 26.34C403.54 26.34 404.58 26.68 408.24 30.52L442.74 65.88L443.78 65.88L434.37 24.59L327.23 24.59L327.23 26.33L341.69 26.33L341.69 154.91L327.23 154.91L327.23 156.65ZM531.07 156.65L601.98 156.65L601.98 154.91L587.51 154.91L539.43 24.59L497.44 24.59L504.76 44.63L463.99 154.91L449.53 154.91L449.53 156.65L482.28 156.65L482.28 154.91L466.25 154.91L483.15 109.26L528.63 109.26L545.53 154.91L531.06 154.91L531.07 156.65ZM487.51 97.42L505.98 47.59L524.27 97.42L487.51 97.42Z" />
</svg>