<svg width="300" height="184" viewBox="0 0 300 184" fill="none" xmlns="http://www.w3.org/2000/svg">
<path d="M181.156 1.80901C155.628 4.37183 134.221 19.1457 123.065 41.9598C119.648 48.9949 118.141 53.8693 116.131 64.7738C115.327 69.1457 114.171 73.9196 113.518 75.4271C109.548 84.8241 101.256 92.5628 92.2111 95.2764C87.8895 96.5829 78.7437 96.4824 74.5226 95.1256C61.9096 91.005 53.1156 80.201 51.809 67.3367L51.5075 64.0703L32.4623 63.9196C21.9598 63.8693 13.2161 63.9698 13.0151 64.1708C12.4623 64.7738 13.4673 74.4723 14.5729 79.4472C19.1457 100 33.2663 118.141 52.0101 127.487C70.201 136.583 90.7538 137.588 109.447 130.201C124.573 124.221 138.643 111.206 146.432 96.0301C150.101 88.8442 151.859 83.3668 154.02 72.814C156.08 62.4623 156.231 61.8593 158.09 58.0904C161.357 51.4573 169.045 44.6231 175.879 42.3115C177.638 41.7085 180.955 40.9547 183.216 40.603C192.06 39.3467 202.261 43.0151 209.296 50.1005C215.327 56.1809 218.04 62.2613 219.849 73.6181C220.603 78.3919 222.814 86.3819 224.623 90.7537C228.291 99.7487 233.568 107.538 240.955 114.824C252.965 126.734 269.849 134.322 285.226 134.774L289.699 134.925L289.849 115.93C289.95 101.005 289.849 96.9346 289.347 96.7839C288.995 96.6834 286.784 96.2311 284.422 95.7789C273.317 93.7688 263.417 85.1256 259.749 74.2211C259.196 72.5628 258.191 68.3417 257.487 64.8743C255.779 55.9296 254.472 51.206 252.211 45.8291C242.814 23.6683 222.412 7.03514 199.497 2.86429C195.126 2.06027 184.774 1.45726 181.156 1.80901Z" fill="white"/>
<path d="M216.432 141.005C216.231 141.206 216.08 144.07 216.08 147.337C216.08 150.603 215.93 153.266 215.779 153.266C215.628 153.266 214.824 152.714 214.02 152.01C210.301 148.894 204.824 149.146 201.005 152.563C194.774 158.241 195.126 172.563 201.709 177.387C205.477 180.151 211.608 179.95 214.271 176.935C215.528 175.528 216.08 175.578 216.08 177.136C216.08 178.342 216.181 178.392 219.598 178.392H223.116L223.015 159.648L222.864 140.955L219.849 140.804C218.141 140.704 216.633 140.804 216.432 141.005ZM213.819 157.789C215.628 159.447 216.432 163.668 215.678 167.286C214.724 171.96 211.256 174.07 207.337 172.261C205.477 171.457 204.02 168.09 204.02 164.673C204.02 159.146 206.533 155.98 210.452 156.432C211.759 156.583 213.116 157.136 213.819 157.789Z" fill="white"/>
<path d="M81.6583 150.201C78.1909 151.055 75.7286 153.467 74.8241 156.834C74.2713 158.844 74.3216 159.497 75.0754 161.508C76.1809 164.422 78.5929 165.93 84.4723 167.387C89.598 168.693 91.4573 169.598 91.4573 170.804C91.4573 172.412 89.6985 173.467 86.9347 173.467C84.0703 173.467 82.1105 172.462 81.407 170.553C80.9548 169.447 80.7035 169.347 77.3869 169.347C73.9698 169.347 73.8693 169.397 73.8693 170.603C73.8693 174.221 77.2864 177.889 81.5578 178.945C82.9146 179.246 85.6281 179.397 87.6382 179.296C94.6231 178.844 98.5427 175.779 98.8442 170.452C99.196 165.377 96.9849 163.367 88.9447 161.307C83.8191 160 81.9095 159.045 81.9095 157.839C81.9095 156.432 83.1156 155.678 85.5276 155.678C88.1909 155.628 89.8492 156.432 90.4522 158.09C90.9045 159.196 91.1558 159.296 94.4723 159.296C98.4422 159.296 98.6934 158.945 97.2864 155.578C95.4271 151.106 88.2412 148.643 81.6583 150.201Z" fill="white"/>
<path d="M112.261 150.201C108.04 151.256 104.221 154.874 103.065 159.045C102.764 160.151 102.513 162.814 102.513 165.025C102.513 173.719 107.789 179.296 116.131 179.397C122.161 179.447 126.533 176.935 128.945 172.06C130.101 169.648 130.302 168.693 130.302 164.573C130.302 160.452 130.101 159.497 128.945 157.085C127.286 153.719 124.724 151.508 121.407 150.502C118.794 149.698 114.874 149.598 112.261 150.201ZM120.251 157.286C121.96 158.643 122.663 161.005 122.663 165.126C122.663 167.839 122.462 168.794 121.407 170.402C118.744 174.372 113.166 173.97 111.055 169.648C109.196 165.729 110 159.296 112.714 157.186C114.322 155.93 118.593 155.98 120.251 157.286Z" fill="white"/>
<path d="M55.0251 151.055C54.2211 151.457 53.1658 152.161 52.7135 152.563C51.809 153.367 51.2562 153.015 51.2562 151.658C51.2562 150.854 50.804 150.754 47.7387 150.754H44.2211V164.573V178.442L47.8894 178.291L51.5075 178.141L51.6583 168.744L51.7588 159.347L53.3165 157.839C54.5728 156.583 55.2763 156.281 56.9849 156.281C60.804 156.281 61.005 156.834 61.3065 168.291L61.5578 178.141L65.2261 178.291L68.8944 178.442L68.7437 166.734C68.5929 155.427 68.5427 154.975 67.4371 153.367C66.7839 152.462 65.6281 151.407 64.8241 151.005C62.8643 150 56.9849 150 55.0251 151.055Z" fill="white"/>
<path d="M177.638 151.055C176.834 151.457 175.779 152.161 175.327 152.563C174.221 153.568 173.869 153.467 173.869 152.01C173.869 150.804 173.769 150.754 170.352 150.754H166.834V164.573V178.442L170.503 178.291L174.121 178.141L174.372 168.442L174.623 158.693L176.131 157.487C178.291 155.779 181.457 155.829 182.864 157.588C183.869 158.844 183.92 159.598 183.92 168.643V178.392H187.688H191.457V167.437C191.457 155.126 191.005 153.216 187.839 151.256C185.729 150 179.899 149.849 177.638 151.055Z" fill="white"/>
<path d="M12.8643 151.156C12.7136 151.407 12.7136 156.382 12.8141 162.161C13.0151 173.518 13.3166 175.126 15.6784 177.286C16.3819 177.889 18.1407 178.643 19.6482 178.945C22.8643 179.648 25.4774 179.095 28.3417 177.136L30.1507 175.93V177.136C30.1507 178.342 30.2512 178.392 33.9196 178.392H37.6884V164.573V150.754H33.9196H30.1507V160.1V169.447L28.4422 171.156C27.1357 172.462 26.3317 172.864 24.8744 172.864C20.6533 172.864 20.1005 171.357 20.1005 159.397V150.754H16.6332C14.6734 150.754 13.0151 150.955 12.8643 151.156Z" fill="white"/>
<path d="M135.628 151.106C135.628 151.357 135.628 156.482 135.678 162.513C135.678 172.814 135.779 173.668 136.784 175.427C138.191 177.94 140.603 179.095 144.523 179.146C147.085 179.146 147.99 178.894 150.151 177.538C152.663 175.98 152.714 175.98 152.864 177.035C153.015 178.04 153.317 178.141 156.533 178.141H160.05V164.573V151.005L156.432 150.854L152.814 150.704L152.663 160.302L152.513 169.95L150.854 171.407C149.698 172.412 148.693 172.864 147.437 172.864C143.266 172.864 142.714 171.307 142.714 159.397V150.754H139.196C137.286 150.754 135.678 150.905 135.628 151.106Z" fill="white"/>
</svg>
