<?xml version="1.0" standalone="no"?>
<!DOCTYPE svg PUBLIC "-//W3C//DTD SVG 20010904//EN"
 "http://www.w3.org/TR/2001/REC-SVG-20010904/DTD/svg10.dtd">
<svg version="1.0" xmlns="http://www.w3.org/2000/svg"
 width="597.000000pt" height="365.000000pt" viewBox="0 0 597.000000 365.000000"
 preserveAspectRatio="xMidYMid meet">
<metadata>
Created by potrace 1.16, written by Peter Selinger 2001-2019
</metadata>
<g transform="translate(0.000000,365.000000) scale(0.100000,-0.100000)"
fill="#000000" stroke="none">
<path d="M3605 3614 c-508 -51 -934 -345 -1156 -799 -68 -140 -98 -237 -138
-454 -16 -87 -39 -182 -52 -212 -79 -187 -244 -341 -424 -395 -86 -26 -268
-24 -352 3 -251 82 -426 297 -452 553 l-6 65 -379 3 c-209 1 -383 -1 -387 -5
-11 -12 9 -205 31 -304 91 -409 372 -770 745 -956 362 -181 771 -201 1143 -54
301 119 581 378 736 680 73 143 108 252 151 462 41 206 44 218 81 293 65 132
218 268 354 314 35 12 101 27 146 34 176 25 379 -48 519 -189 120 -121 174
-242 210 -468 15 -95 59 -254 95 -341 73 -179 178 -334 325 -479 239 -237 575
-388 881 -397 l89 -3 3 378 c2 297 0 378 -10 381 -7 2 -51 11 -98 20 -221 40
-418 212 -491 429 -11 33 -31 117 -45 186 -34 178 -60 272 -105 379 -187 441
-593 772 -1049 855 -87 16 -293 28 -365 21z"/>
<path d="M4307 844 c-4 -4 -7 -61 -7 -126 0 -65 -3 -118 -6 -118 -3 0 -19 11
-35 25 -74 62 -183 57 -259 -11 -124 -113 -117 -398 14 -494 75 -55 197 -51
250 9 25 28 36 27 36 -4 0 -24 2 -25 70 -25 l70 0 -2 373 -3 372 -60 3 c-34 2
-64 0 -68 -4z m-52 -334 c36 -33 52 -117 37 -189 -19 -93 -88 -135 -166 -99
-37 16 -66 83 -66 151 0 110 50 173 128 164 26 -3 53 -14 67 -27z"/>
<path d="M1625 661 c-69 -17 -118 -65 -136 -132 -11 -40 -10 -53 5 -93 22 -58
70 -88 187 -117 102 -26 139 -44 139 -68 0 -32 -35 -53 -90 -53 -57 0 -96 20
-110 58 -9 22 -14 24 -80 24 -68 0 -70 -1 -70 -25 0 -72 68 -145 153 -166 27
-6 81 -9 121 -7 139 9 217 70 223 176 7 101 -37 141 -197 182 -102 26 -140 45
-140 69 0 28 24 43 72 43 53 1 86 -15 98 -48 9 -22 14 -24 80 -24 79 0 84 7
56 74 -37 89 -180 138 -311 107z"/>
<path d="M2234 661 c-84 -21 -160 -93 -183 -176 -6 -22 -11 -75 -11 -119 0
-173 105 -284 271 -286 120 -1 207 49 255 146 23 48 27 67 27 149 0 82 -4 101
-27 149 -33 67 -84 111 -150 131 -52 16 -130 18 -182 6z m159 -141 c34 -27 48
-74 48 -156 0 -54 -4 -73 -25 -105 -53 -79 -164 -71 -206 15 -37 78 -21 206
33 248 32 25 117 24 150 -2z"/>
<path d="M1095 644 c-16 -8 -37 -22 -46 -30 -18 -16 -29 -9 -29 18 0 16 -9 18
-70 18 l-70 0 0 -275 0 -276 73 3 72 3 3 187 2 187 31 30 c25 25 39 31 73 31
76 0 80 -11 86 -239 l5 -196 73 -3 73 -3 -3 233 c-3 225 -4 234 -26 266 -13
18 -36 39 -52 47 -39 20 -156 20 -195 -1z"/>
<path d="M3535 644 c-16 -8 -37 -22 -46 -30 -22 -20 -29 -18 -29 11 0 24 -2
25 -70 25 l-70 0 0 -275 0 -276 73 3 72 3 5 193 5 194 30 24 c43 34 106 33
134 -2 20 -25 21 -40 21 -220 l0 -194 75 0 75 0 0 218 c0 245 -9 283 -72 322
-42 25 -158 28 -203 4z"/>
<path d="M256 642 c-3 -5 -3 -104 -1 -219 4 -226 10 -258 57 -301 14 -12 49
-27 79 -33 64 -14 116 -3 173 36 l36 24 0 -24 c0 -24 2 -25 75 -25 l75 0 0
275 0 275 -75 0 -75 0 0 -186 0 -186 -34 -34 c-26 -26 -42 -34 -71 -34 -84 0
-95 30 -95 268 l0 172 -69 0 c-39 0 -72 -4 -75 -8z"/>
<path d="M2699 643 c0 -5 0 -107 1 -227 0 -205 2 -222 22 -257 28 -50 76 -73
154 -74 51 0 69 5 112 32 50 31 51 31 54 10 3 -20 9 -22 73 -22 l70 0 0 270 0
270 -72 3 -72 3 -3 -191 -3 -192 -33 -29 c-23 -20 -43 -29 -68 -29 -83 0 -94
31 -94 268 l0 172 -70 0 c-38 0 -70 -3 -71 -7z"/>
</g>
</svg>
